<?xml version="1.0" encoding="UTF-8" standalone="no"?><svg xmlns="http://www.w3.org/2000/svg" xmlns:xlink="http://www.w3.org/1999/xlink" clip-rule="evenodd" stroke-miterlimit="4.00" viewBox="0 0 1024 768"><desc>SVG generated by Keynote</desc><defs></defs><g transform="matrix(1.00, 0.00, -0.00, -1.00, 0.0, 768.0)"><path d="M 0.0 768.0 L 1024.0 768.0 L 1024.0 0.0 L 0.0 0.0 Z M 0.0 768.0 " fill="#FEFFFF"></path><text xml:space="preserve" font-family="SourceCodePro-Regular" font-size="12.0" fill="#747474" transform="matrix(1.00, 0.00, -0.00, -1.00, 19.0, 19.0)">L</text><text xml:space="preserve" font-family="SourceCodePro-Regular" font-size="12.0" fill="#747474" transform="matrix(1.00, 0.00, -0.00, -1.00, 26.2, 19.0)">o</text><text xml:space="preserve" font-family="SourceCodePro-Regular" font-size="12.0" fill="#747474" transform="matrix(1.00, 0.00, -0.00, -1.00, 33.4, 19.0)">r</text><text xml:space="preserve" font-family="SourceCodePro-Regular" font-size="12.0" fill="#747474" transform="matrix(1.00, 0.00, -0.00, -1.00, 40.6, 19.0)">e</text><text xml:space="preserve" font-family="SourceCodePro-Regular" font-size="12.0" fill="#747474" transform="matrix(1.00, 0.00, -0.00, -1.00, 47.8, 19.0)">n</text><text xml:space="preserve" font-family="SourceCodePro-Regular" font-size="12.0" fill="#747474" transform="matrix(1.00, 0.00, -0.00, -1.00, 55.0, 19.0)">z</text><text xml:space="preserve" font-family="SourceCodePro-Regular" font-size="12.0" fill="#747474" transform="matrix(1.00, 0.00, -0.00, -1.00, 62.2, 19.0)">o</text><text xml:space="preserve" font-family="SourceCodePro-Regular" font-size="12.0" fill="#747474" transform="matrix(1.00, 0.00, -0.00, -1.00, 69.4, 19.0)"> </text><text xml:space="preserve" font-family="SourceCodePro-Regular" font-size="12.0" fill="#747474" transform="matrix(1.00, 0.00, -0.00, -1.00, 76.6, 19.0)">A</text><text xml:space="preserve" font-family="SourceCodePro-Regular" font-size="12.0" fill="#747474" transform="matrix(1.00, 0.00, -0.00, -1.00, 83.8, 19.0)">f</text><text xml:space="preserve" font-family="SourceCodePro-Regular" font-size="12.0" fill="#747474" transform="matrix(1.00, 0.00, -0.00, -1.00, 91.0, 19.0)">f</text><text xml:space="preserve" font-family="SourceCodePro-Regular" font-size="12.0" fill="#747474" transform="matrix(1.00, 0.00, -0.00, -1.00, 98.2, 19.0)">e</text><text xml:space="preserve" font-family="SourceCodePro-Regular" font-size="12.0" fill="#747474" transform="matrix(1.00, 0.00, -0.00, -1.00, 105.4, 19.0)">t</text><text xml:space="preserve" font-family="SourceCodePro-Regular" font-size="12.0" fill="#747474" transform="matrix(1.00, 0.00, -0.00, -1.00, 112.6, 19.0)">t</text><text xml:space="preserve" font-family="SourceCodePro-Regular" font-size="12.0" fill="#747474" transform="matrix(1.00, 0.00, -0.00, -1.00, 119.8, 19.0)">i</text><text xml:space="preserve" font-family="SourceCodePro-Regular" font-size="12.0" fill="#747474" transform="matrix(1.00, 0.00, -0.00, -1.00, 127.0, 19.0)"> </text><text xml:space="preserve" font-family="SourceCodePro-Regular" font-size="12.0" fill="#747474" transform="matrix(1.00, 0.00, -0.00, -1.00, 134.2, 19.0)">(</text><text xml:space="preserve" font-family="SourceCodePro-Regular" font-size="12.0" fill="#747474" transform="matrix(1.00, 0.00, -0.00, -1.00, 141.4, 19.0)">l</text><text xml:space="preserve" font-family="SourceCodePro-Regular" font-size="12.0" fill="#747474" transform="matrix(1.00, 0.00, -0.00, -1.00, 148.6, 19.0)">o</text><text xml:space="preserve" font-family="SourceCodePro-Regular" font-size="12.0" fill="#747474" transform="matrix(1.00, 0.00, -0.00, -1.00, 155.8, 19.0)">r</text><text xml:space="preserve" font-family="SourceCodePro-Regular" font-size="12.0" fill="#747474" transform="matrix(1.00, 0.00, -0.00, -1.00, 163.0, 19.0)">e</text><text xml:space="preserve" font-family="SourceCodePro-Regular" font-size="12.0" fill="#747474" transform="matrix(1.00, 0.00, -0.00, -1.00, 170.2, 19.0)">n</text><text xml:space="preserve" font-family="SourceCodePro-Regular" font-size="12.0" fill="#747474" transform="matrix(1.00, 0.00, -0.00, -1.00, 177.4, 19.0)">z</text><text xml:space="preserve" font-family="SourceCodePro-Regular" font-size="12.0" fill="#747474" transform="matrix(1.00, 0.00, -0.00, -1.00, 184.6, 19.0)">o</text><text xml:space="preserve" font-family="SourceCodePro-Regular" font-size="12.0" fill="#747474" transform="matrix(1.00, 0.00, -0.00, -1.00, 191.8, 19.0)">.</text><text xml:space="preserve" font-family="SourceCodePro-Regular" font-size="12.0" fill="#747474" transform="matrix(1.00, 0.00, -0.00, -1.00, 199.0, 19.0)">a</text><text xml:space="preserve" font-family="SourceCodePro-Regular" font-size="12.0" fill="#747474" transform="matrix(1.00, 0.00, -0.00, -1.00, 206.2, 19.0)">f</text><text xml:space="preserve" font-family="SourceCodePro-Regular" font-size="12.0" fill="#747474" transform="matrix(1.00, 0.00, -0.00, -1.00, 213.4, 19.0)">f</text><text xml:space="preserve" font-family="SourceCodePro-Regular" font-size="12.0" fill="#747474" transform="matrix(1.00, 0.00, -0.00, -1.00, 220.6, 19.0)">e</text><text xml:space="preserve" font-family="SourceCodePro-Regular" font-size="12.0" fill="#747474" transform="matrix(1.00, 0.00, -0.00, -1.00, 227.8, 19.0)">t</text><text xml:space="preserve" font-family="SourceCodePro-Regular" font-size="12.0" fill="#747474" transform="matrix(1.00, 0.00, -0.00, -1.00, 235.0, 19.0)">t</text><text xml:space="preserve" font-family="SourceCodePro-Regular" font-size="12.0" fill="#747474" transform="matrix(1.00, 0.00, -0.00, -1.00, 242.2, 19.0)">i</text><text xml:space="preserve" font-family="SourceCodePro-Regular" font-size="12.0" fill="#747474" transform="matrix(1.00, 0.00, -0.00, -1.00, 249.4, 19.0)">@</text><text xml:space="preserve" font-family="SourceCodePro-Regular" font-size="12.0" fill="#747474" transform="matrix(1.00, 0.00, -0.00, -1.00, 256.6, 19.0)">p</text><text xml:space="preserve" font-family="SourceCodePro-Regular" font-size="12.0" fill="#747474" transform="matrix(1.00, 0.00, -0.00, -1.00, 263.8, 19.0)">o</text><text xml:space="preserve" font-family="SourceCodePro-Regular" font-size="12.0" fill="#747474" transform="matrix(1.00, 0.00, -0.00, -1.00, 271.0, 19.0)">l</text><text xml:space="preserve" font-family="SourceCodePro-Regular" font-size="12.0" fill="#747474" transform="matrix(1.00, 0.00, -0.00, -1.00, 278.2, 19.0)">i</text><text xml:space="preserve" font-family="SourceCodePro-Regular" font-size="12.0" fill="#747474" transform="matrix(1.00, 0.00, -0.00, -1.00, 285.4, 19.0)">m</text><text xml:space="preserve" font-family="SourceCodePro-Regular" font-size="12.0" fill="#747474" transform="matrix(1.00, 0.00, -0.00, -1.00, 292.6, 19.0)">i</text><text xml:space="preserve" font-family="SourceCodePro-Regular" font-size="12.0" fill="#747474" transform="matrix(1.00, 0.00, -0.00, -1.00, 299.8, 19.0)">.</text><text xml:space="preserve" font-family="SourceCodePro-Regular" font-size="12.0" fill="#747474" transform="matrix(1.00, 0.00, -0.00, -1.00, 307.0, 19.0)">i</text><text xml:space="preserve" font-family="SourceCodePro-Regular" font-size="12.0" fill="#747474" transform="matrix(1.00, 0.00, -0.00, -1.00, 314.2, 19.0)">t</text><text xml:space="preserve" font-family="SourceCodePro-Regular" font-size="12.0" fill="#747474" transform="matrix(1.00, 0.00, -0.00, -1.00, 321.4, 19.0)">)</text><text xml:space="preserve" font-family="SourceCodePro-Regular" font-size="12.0" fill="#747474" transform="matrix(1.00, 0.00, -0.00, -1.00, 328.6, 19.0)"> </text><text xml:space="preserve" font-family="SourceCodePro-Regular" font-size="12.0" fill="#747474" transform="matrix(1.00, 0.00, -0.00, -1.00, 335.8, 19.0)">-</text><text xml:space="preserve" font-family="SourceCodePro-Regular" font-size="12.0" fill="#747474" transform="matrix(1.00, 0.00, -0.00, -1.00, 343.0, 19.0)"> </text><text xml:space="preserve" font-family="SourceCodePro-Regular" font-size="12.0" fill="#747474" transform="matrix(1.00, 0.00, -0.00, -1.00, 350.2, 19.0)">P</text><text xml:space="preserve" font-family="SourceCodePro-Regular" font-size="12.0" fill="#747474" transform="matrix(1.00, 0.00, -0.00, -1.00, 357.4, 19.0)">o</text><text xml:space="preserve" font-family="SourceCodePro-Regular" font-size="12.0" fill="#747474" transform="matrix(1.00, 0.00, -0.00, -1.00, 364.6, 19.0)">l</text><text xml:space="preserve" font-family="SourceCodePro-Regular" font-size="12.0" fill="#747474" transform="matrix(1.00, 0.00, -0.00, -1.00, 371.8, 19.0)">i</text><text xml:space="preserve" font-family="SourceCodePro-Regular" font-size="12.0" fill="#747474" transform="matrix(1.00, 0.00, -0.00, -1.00, 379.0, 19.0)">t</text><text xml:space="preserve" font-family="SourceCodePro-Regular" font-size="12.0" fill="#747474" transform="matrix(1.00, 0.00, -0.00, -1.00, 386.2, 19.0)">e</text><text xml:space="preserve" font-family="SourceCodePro-Regular" font-size="12.0" fill="#747474" transform="matrix(1.00, 0.00, -0.00, -1.00, 393.4, 19.0)">c</text><text xml:space="preserve" font-family="SourceCodePro-Regular" font-size="12.0" fill="#747474" transform="matrix(1.00, 0.00, -0.00, -1.00, 400.6, 19.0)">n</text><text xml:space="preserve" font-family="SourceCodePro-Regular" font-size="12.0" fill="#747474" transform="matrix(1.00, 0.00, -0.00, -1.00, 407.8, 19.0)">i</text><text xml:space="preserve" font-family="SourceCodePro-Regular" font-size="12.0" fill="#747474" transform="matrix(1.00, 0.00, -0.00, -1.00, 415.0, 19.0)">c</text><text xml:space="preserve" font-family="SourceCodePro-Regular" font-size="12.0" fill="#747474" transform="matrix(1.00, 0.00, -0.00, -1.00, 422.2, 19.0)">o</text><text xml:space="preserve" font-family="SourceCodePro-Regular" font-size="12.0" fill="#747474" transform="matrix(1.00, 0.00, -0.00, -1.00, 429.4, 19.0)"> </text><text xml:space="preserve" font-family="SourceCodePro-Regular" font-size="12.0" fill="#747474" transform="matrix(1.00, 0.00, -0.00, -1.00, 436.6, 19.0)">d</text><text xml:space="preserve" font-family="SourceCodePro-Regular" font-size="12.0" fill="#747474" transform="matrix(1.00, 0.00, -0.00, -1.00, 443.8, 19.0)">i</text><text xml:space="preserve" font-family="SourceCodePro-Regular" font-size="12.0" fill="#747474" transform="matrix(1.00, 0.00, -0.00, -1.00, 451.0, 19.0)"> </text><text xml:space="preserve" font-family="SourceCodePro-Regular" font-size="12.0" fill="#747474" transform="matrix(1.00, 0.00, -0.00, -1.00, 458.2, 19.0)">M</text><text xml:space="preserve" font-family="SourceCodePro-Regular" font-size="12.0" fill="#747474" transform="matrix(1.00, 0.00, -0.00, -1.00, 465.4, 19.0)">i</text><text xml:space="preserve" font-family="SourceCodePro-Regular" font-size="12.0" fill="#747474" transform="matrix(1.00, 0.00, -0.00, -1.00, 472.6, 19.0)">l</text><text xml:space="preserve" font-family="SourceCodePro-Regular" font-size="12.0" fill="#747474" transform="matrix(1.00, 0.00, -0.00, -1.00, 479.8, 19.0)">a</text><text xml:space="preserve" font-family="SourceCodePro-Regular" font-size="12.0" fill="#747474" transform="matrix(1.00, 0.00, -0.00, -1.00, 487.0, 19.0)">n</text><text xml:space="preserve" font-family="SourceCodePro-Regular" font-size="12.0" fill="#747474" transform="matrix(1.00, 0.00, -0.00, -1.00, 494.2, 19.0)">o</text><text xml:space="preserve" font-family="SourceCodePro-Regular" font-size="12.0" fill="#747474" transform="matrix(1.00, 0.00, -0.00, -1.00, 501.4, 19.0)">,</text><text xml:space="preserve" font-family="SourceCodePro-Regular" font-size="12.0" fill="#747474" transform="matrix(1.00, 0.00, -0.00, -1.00, 508.6, 19.0)"> </text><text xml:space="preserve" font-family="SourceCodePro-Regular" font-size="12.0" fill="#747474" transform="matrix(1.00, 0.00, -0.00, -1.00, 515.8, 19.0)">D</text><text xml:space="preserve" font-family="SourceCodePro-Regular" font-size="12.0" fill="#747474" transform="matrix(1.00, 0.00, -0.00, -1.00, 523.0, 19.0)">E</text><text xml:space="preserve" font-family="SourceCodePro-Regular" font-size="12.0" fill="#747474" transform="matrix(1.00, 0.00, -0.00, -1.00, 530.2, 19.0)">I</text><text xml:space="preserve" font-family="SourceCodePro-Regular" font-size="12.0" fill="#747474" transform="matrix(1.00, 0.00, -0.00, -1.00, 537.4, 19.0)">B</text><g><clipPath id="clip-2"><path d="M 140.8 16.1 L 321.8 16.1 L 321.8 18.7 L 140.8 18.7 Z M 140.8 16.1 "></path></clipPath><g clip-path="url(#clip-2)"><path d="M 126.9 17.1 L 306.9 17.1 " fill="none" stroke="#747474" stroke-width="0.60" stroke-miterlimit="0.00" transform="matrix(1.00, 0.00, 0.00, -1.00, 14.9, 34.5)"></path></g></g><text xml:space="preserve" font-family="Lora-Bold" font-weight="bold" font-size="80.0" fill="#212121" transform="matrix(1.00, 0.00, -0.00, -1.00, 177.0, 629.0)">T</text><text xml:space="preserve" font-family="Lora-Bold" font-weight="bold" font-size="80.0" fill="#212121" transform="matrix(1.00, 0.00, -0.00, -1.00, 226.4, 629.0)">a</text><text xml:space="preserve" font-family="Lora-Bold" font-weight="bold" font-size="80.0" fill="#212121" transform="matrix(1.00, 0.00, -0.00, -1.00, 268.4, 629.0)">b</text><text xml:space="preserve" font-family="Lora-Bold" font-weight="bold" font-size="80.0" fill="#212121" transform="matrix(1.00, 0.00, -0.00, -1.00, 314.2, 629.0)">l</text><text xml:space="preserve" font-family="Lora-Bold" font-weight="bold" font-size="80.0" fill="#212121" transform="matrix(1.00, 0.00, -0.00, -1.00, 339.2, 629.0)">e</text><text xml:space="preserve" font-family="Lora-Bold" font-weight="bold" font-size="80.0" fill="#212121" transform="matrix(1.00, 0.00, -0.00, -1.00, 382.2, 629.0)"> </text><text xml:space="preserve" font-family="Lora-Bold" font-weight="bold" font-size="80.0" fill="#212121" transform="matrix(1.00, 0.00, -0.00, -1.00, 403.3, 629.0)">o</text><text xml:space="preserve" font-family="Lora-Bold" font-weight="bold" font-size="80.0" fill="#212121" transform="matrix(1.00, 0.00, -0.00, -1.00, 448.2, 629.0)">f</text><text xml:space="preserve" font-family="Lora-Bold" font-weight="bold" font-size="80.0" fill="#212121" transform="matrix(1.00, 0.00, -0.00, -1.00, 477.7, 629.0)"> </text><text xml:space="preserve" font-family="Lora-Bold" font-weight="bold" font-size="80.0" fill="#212121" transform="matrix(1.00, 0.00, -0.00, -1.00, 498.8, 629.0)">C</text><text xml:space="preserve" font-family="Lora-Bold" font-weight="bold" font-size="80.0" fill="#212121" transform="matrix(1.00, 0.00, -0.00, -1.00, 553.9, 629.0)">o</text><text xml:space="preserve" font-family="Lora-Bold" font-weight="bold" font-size="80.0" fill="#212121" transform="matrix(1.00, 0.00, -0.00, -1.00, 599.2, 629.0)">n</text><text xml:space="preserve" font-family="Lora-Bold" font-weight="bold" font-size="80.0" fill="#212121" transform="matrix(1.00, 0.00, -0.00, -1.00, 649.6, 629.0)">t</text><text xml:space="preserve" font-family="Lora-Bold" font-weight="bold" font-size="80.0" fill="#212121" transform="matrix(1.00, 0.00, -0.00, -1.00, 682.7, 629.0)">e</text><text xml:space="preserve" font-family="Lora-Bold" font-weight="bold" font-size="80.0" fill="#212121" transform="matrix(1.00, 0.00, -0.00, -1.00, 725.7, 629.0)">n</text><text xml:space="preserve" font-family="Lora-Bold" font-weight="bold" font-size="80.0" fill="#212121" transform="matrix(1.00, 0.00, -0.00, -1.00, 776.2, 629.0)">t</text><text xml:space="preserve" font-family="Lora-Bold" font-weight="bold" font-size="80.0" fill="#212121" transform="matrix(1.00, 0.00, -0.00, -1.00, 809.2, 629.0)">s</text><text xml:space="preserve" font-family="Monaco" font-size="31.5" fill="#616060" transform="matrix(1.00, 0.00, -0.00, -1.00, 259.5, 454.8)">‣</text><text xml:space="preserve" font-family="SourceCodePro-Regular" font-size="42.0" fill="#616060" transform="matrix(1.00, 0.00, -0.00, -1.00, 295.0, 453.0)">B</text><text xml:space="preserve" font-family="SourceCodePro-Regular" font-size="42.0" fill="#616060" transform="matrix(1.00, 0.00, -0.00, -1.00, 320.2, 453.0)">a</text><text xml:space="preserve" font-family="SourceCodePro-Regular" font-size="42.0" fill="#616060" transform="matrix(1.00, 0.00, -0.00, -1.00, 345.4, 453.0)">s</text><text xml:space="preserve" font-family="SourceCodePro-Regular" font-size="42.0" fill="#616060" transform="matrix(1.00, 0.00, -0.00, -1.00, 370.6, 453.0)">i</text><text xml:space="preserve" font-family="SourceCodePro-Regular" font-size="42.0" fill="#616060" transform="matrix(1.00, 0.00, -0.00, -1.00, 395.8, 453.0)">c</text><text xml:space="preserve" font-family="SourceCodePro-Regular" font-size="42.0" fill="#616060" transform="matrix(1.00, 0.00, -0.00, -1.00, 421.0, 453.0)"> </text><text xml:space="preserve" font-family="SourceCodePro-Semibold" font-weight="bold" font-size="42.0" fill="#E82662" transform="matrix(1.00, 0.00, -0.00, -1.00, 446.2, 453.0)">C</text><text xml:space="preserve" font-family="SourceCodePro-Semibold" font-weight="bold" font-size="42.0" fill="#E82662" transform="matrix(1.00, 0.00, -0.00, -1.00, 471.4, 453.0)">o</text><text xml:space="preserve" font-family="SourceCodePro-Semibold" font-weight="bold" font-size="42.0" fill="#E82662" transform="matrix(1.00, 0.00, -0.00, -1.00, 496.6, 453.0)">n</text><text xml:space="preserve" font-family="SourceCodePro-Semibold" font-weight="bold" font-size="42.0" fill="#E82662" transform="matrix(1.00, 0.00, -0.00, -1.00, 521.8, 453.0)">c</text><text xml:space="preserve" font-family="SourceCodePro-Semibold" font-weight="bold" font-size="42.0" fill="#E82662" transform="matrix(1.00, 0.00, -0.00, -1.00, 547.0, 453.0)">e</text><text xml:space="preserve" font-family="SourceCodePro-Semibold" font-weight="bold" font-size="42.0" fill="#E82662" transform="matrix(1.00, 0.00, -0.00, -1.00, 572.2, 453.0)">p</text><text xml:space="preserve" font-family="SourceCodePro-Semibold" font-weight="bold" font-size="42.0" fill="#E82662" transform="matrix(1.00, 0.00, -0.00, -1.00, 597.4, 453.0)">t</text><text xml:space="preserve" font-family="SourceCodePro-Semibold" font-weight="bold" font-size="42.0" fill="#E82662" transform="matrix(1.00, 0.00, -0.00, -1.00, 622.6, 453.0)">s</text><text xml:space="preserve" font-family="SourceCodePro-Regular" font-size="42.0" fill="#616060" transform="matrix(1.00, 0.00, -0.00, -1.00, 647.8, 453.0)"> </text><text xml:space="preserve" font-family="SourceCodePro-Regular" font-size="42.0" fill="#616060" transform="matrix(1.00, 0.00, -0.00, -1.00, 673.0, 453.0)">&amp;</text><text xml:space="preserve" font-family="SourceCodePro-Regular" font-size="42.0" fill="#616060" transform="matrix(1.00, 0.00, -0.00, -1.00, 698.2, 453.0)"> </text><text xml:space="preserve" font-family="SourceCodePro-Regular" font-size="42.0" fill="#616060" transform="matrix(1.00, 0.00, -0.00, -1.00, 295.0, 401.0)">A</text><text xml:space="preserve" font-family="SourceCodePro-Regular" font-size="42.0" fill="#616060" transform="matrix(1.00, 0.00, -0.00, -1.00, 320.2, 401.0)">r</text><text xml:space="preserve" font-family="SourceCodePro-Regular" font-size="42.0" fill="#616060" transform="matrix(1.00, 0.00, -0.00, -1.00, 345.4, 401.0)">c</text><text xml:space="preserve" font-family="SourceCodePro-Regular" font-size="42.0" fill="#616060" transform="matrix(1.00, 0.00, -0.00, -1.00, 370.6, 401.0)">h</text><text xml:space="preserve" font-family="SourceCodePro-Regular" font-size="42.0" fill="#616060" transform="matrix(1.00, 0.00, -0.00, -1.00, 395.8, 401.0)">i</text><text xml:space="preserve" font-family="SourceCodePro-Regular" font-size="42.0" fill="#616060" transform="matrix(1.00, 0.00, -0.00, -1.00, 421.0, 401.0)">t</text><text xml:space="preserve" font-family="SourceCodePro-Regular" font-size="42.0" fill="#616060" transform="matrix(1.00, 0.00, -0.00, -1.00, 446.2, 401.0)">e</text><text xml:space="preserve" font-family="SourceCodePro-Regular" font-size="42.0" fill="#616060" transform="matrix(1.00, 0.00, -0.00, -1.00, 471.4, 401.0)">c</text><text xml:space="preserve" font-family="SourceCodePro-Regular" font-size="42.0" fill="#616060" transform="matrix(1.00, 0.00, -0.00, -1.00, 496.6, 401.0)">t</text><text xml:space="preserve" font-family="SourceCodePro-Regular" font-size="42.0" fill="#616060" transform="matrix(1.00, 0.00, -0.00, -1.00, 521.8, 401.0)">u</text><text xml:space="preserve" font-family="SourceCodePro-Regular" font-size="42.0" fill="#616060" transform="matrix(1.00, 0.00, -0.00, -1.00, 547.0, 401.0)">r</text><text xml:space="preserve" font-family="SourceCodePro-Regular" font-size="42.0" fill="#616060" transform="matrix(1.00, 0.00, -0.00, -1.00, 572.2, 401.0)">e</text><text xml:space="preserve" font-family="SourceCodePro-Regular" font-size="42.0" fill="#616060" transform="matrix(1.00, 0.00, -0.00, -1.00, 597.4, 401.0)"> </text><text xml:space="preserve" font-family="Monaco" font-size="31.5" fill="#616060" transform="matrix(1.00, 0.00, -0.00, -1.00, 259.5, 308.8)">‣</text><text xml:space="preserve" font-family="SourceCodePro-Semibold" font-weight="bold" font-size="42.0" fill="#E82662" transform="matrix(1.00, 0.00, -0.00, -1.00, 295.0, 307.0)">E</text><text xml:space="preserve" font-family="SourceCodePro-Semibold" font-weight="bold" font-size="42.0" fill="#E82662" transform="matrix(1.00, 0.00, -0.00, -1.00, 320.2, 307.0)">x</text><text xml:space="preserve" font-family="SourceCodePro-Semibold" font-weight="bold" font-size="42.0" fill="#E82662" transform="matrix(1.00, 0.00, -0.00, -1.00, 345.4, 307.0)">a</text><text xml:space="preserve" font-family="SourceCodePro-Semibold" font-weight="bold" font-size="42.0" fill="#E82662" transform="matrix(1.00, 0.00, -0.00, -1.00, 370.6, 307.0)">c</text><text xml:space="preserve" font-family="SourceCodePro-Semibold" font-weight="bold" font-size="42.0" fill="#E82662" transform="matrix(1.00, 0.00, -0.00, -1.00, 395.8, 307.0)">t</text><text xml:space="preserve" font-family="SourceCodePro-Semibold" font-weight="bold" font-size="42.0" fill="#E82662" transform="matrix(1.00, 0.00, -0.00, -1.00, 421.0, 307.0)">l</text><text xml:space="preserve" font-family="SourceCodePro-Semibold" font-weight="bold" font-size="42.0" fill="#E82662" transform="matrix(1.00, 0.00, -0.00, -1.00, 446.2, 307.0)">y</text><text xml:space="preserve" font-family="SourceCodePro-Semibold" font-weight="bold" font-size="42.0" fill="#E82662" transform="matrix(1.00, 0.00, -0.00, -1.00, 471.4, 307.0)"> </text><text xml:space="preserve" font-family="SourceCodePro-Semibold" font-weight="bold" font-size="42.0" fill="#E82662" transform="matrix(1.00, 0.00, -0.00, -1.00, 496.6, 307.0)">O</text><text xml:space="preserve" font-family="SourceCodePro-Semibold" font-weight="bold" font-size="42.0" fill="#E82662" transform="matrix(1.00, 0.00, -0.00, -1.00, 521.8, 307.0)">n</text><text xml:space="preserve" font-family="SourceCodePro-Semibold" font-weight="bold" font-size="42.0" fill="#E82662" transform="matrix(1.00, 0.00, -0.00, -1.00, 547.0, 307.0)">c</text><text xml:space="preserve" font-family="SourceCodePro-Semibold" font-weight="bold" font-size="42.0" fill="#E82662" transform="matrix(1.00, 0.00, -0.00, -1.00, 572.2, 307.0)">e</text><text xml:space="preserve" font-family="SourceCodePro-Regular" font-size="42.0" fill="#616060" transform="matrix(1.00, 0.00, -0.00, -1.00, 597.4, 307.0)"> </text><text xml:space="preserve" font-family="SourceCodePro-Regular" font-size="42.0" fill="#616060" transform="matrix(1.00, 0.00, -0.00, -1.00, 622.6, 307.0)">S</text><text xml:space="preserve" font-family="SourceCodePro-Regular" font-size="42.0" fill="#616060" transform="matrix(1.00, 0.00, -0.00, -1.00, 647.8, 307.0)">e</text><text xml:space="preserve" font-family="SourceCodePro-Regular" font-size="42.0" fill="#616060" transform="matrix(1.00, 0.00, -0.00, -1.00, 673.0, 307.0)">m</text><text xml:space="preserve" font-family="SourceCodePro-Regular" font-size="42.0" fill="#616060" transform="matrix(1.00, 0.00, -0.00, -1.00, 698.2, 307.0)">a</text><text xml:space="preserve" font-family="SourceCodePro-Regular" font-size="42.0" fill="#616060" transform="matrix(1.00, 0.00, -0.00, -1.00, 723.4, 307.0)">n</text><text xml:space="preserve" font-family="SourceCodePro-Regular" font-size="42.0" fill="#616060" transform="matrix(1.00, 0.00, -0.00, -1.00, 748.6, 307.0)">t</text><text xml:space="preserve" font-family="SourceCodePro-Regular" font-size="42.0" fill="#616060" transform="matrix(1.00, 0.00, -0.00, -1.00, 773.8, 307.0)">i</text><text xml:space="preserve" font-family="SourceCodePro-Regular" font-size="42.0" fill="#616060" transform="matrix(1.00, 0.00, -0.00, -1.00, 799.0, 307.0)">c</text><text xml:space="preserve" font-family="SourceCodePro-Regular" font-size="42.0" fill="#616060" transform="matrix(1.00, 0.00, -0.00, -1.00, 824.2, 307.0)">s</text><text xml:space="preserve" font-family="SourceCodePro-Regular" font-size="42.0" fill="#616060" transform="matrix(1.00, 0.00, -0.00, -1.00, 849.4, 307.0)"> </text><text xml:space="preserve" font-family="Monaco" font-size="31.5" fill="#616060" transform="matrix(1.00, 0.00, -0.00, -1.00, 259.5, 214.8)">‣</text><text xml:space="preserve" font-family="SourceCodePro-Regular" font-size="42.0" fill="#616060" transform="matrix(1.00, 0.00, -0.00, -1.00, 295.0, 213.0)">W</text><text xml:space="preserve" font-family="SourceCodePro-Regular" font-size="42.0" fill="#616060" transform="matrix(1.00, 0.00, -0.00, -1.00, 320.2, 213.0)">i</text><text xml:space="preserve" font-family="SourceCodePro-Regular" font-size="42.0" fill="#616060" transform="matrix(1.00, 0.00, -0.00, -1.00, 345.4, 213.0)">n</text><text xml:space="preserve" font-family="SourceCodePro-Regular" font-size="42.0" fill="#616060" transform="matrix(1.00, 0.00, -0.00, -1.00, 370.6, 213.0)">d</text><text xml:space="preserve" font-family="SourceCodePro-Regular" font-size="42.0" fill="#616060" transform="matrix(1.00, 0.00, -0.00, -1.00, 395.8, 213.0)">o</text><text xml:space="preserve" font-family="SourceCodePro-Regular" font-size="42.0" fill="#616060" transform="matrix(1.00, 0.00, -0.00, -1.00, 421.0, 213.0)">w</text><text xml:space="preserve" font-family="SourceCodePro-Regular" font-size="42.0" fill="#616060" transform="matrix(1.00, 0.00, -0.00, -1.00, 446.2, 213.0)">s</text><text xml:space="preserve" font-family="SourceCodePro-Regular" font-size="42.0" fill="#616060" transform="matrix(1.00, 0.00, -0.00, -1.00, 471.4, 213.0)"> </text><text xml:space="preserve" font-family="SourceCodePro-Regular" font-size="42.0" fill="#616060" transform="matrix(1.00, 0.00, -0.00, -1.00, 496.6, 213.0)">&amp;</text><text xml:space="preserve" font-family="SourceCodePro-Regular" font-size="42.0" fill="#616060" transform="matrix(1.00, 0.00, -0.00, -1.00, 521.8, 213.0)"> </text><text xml:space="preserve" font-family="SourceCodePro-Semibold" font-weight="bold" font-size="42.0" fill="#E82662" transform="matrix(1.00, 0.00, -0.00, -1.00, 547.0, 213.0)">T</text><text xml:space="preserve" font-family="SourceCodePro-Semibold" font-weight="bold" font-size="42.0" fill="#E82662" transform="matrix(1.00, 0.00, -0.00, -1.00, 572.2, 213.0)">i</text><text xml:space="preserve" font-family="SourceCodePro-Semibold" font-weight="bold" font-size="42.0" fill="#E82662" transform="matrix(1.00, 0.00, -0.00, -1.00, 597.4, 213.0)">m</text><text xml:space="preserve" font-family="SourceCodePro-Semibold" font-weight="bold" font-size="42.0" fill="#E82662" transform="matrix(1.00, 0.00, -0.00, -1.00, 622.6, 213.0)">e</text><text xml:space="preserve" font-family="Helvetica-Light" font-size="18.0" fill="#000000" transform="matrix(1.00, 0.00, -0.00, -1.00, 997.0, 16.0)">2</text></g></svg>