<?xml version="1.0" encoding="UTF-8" standalone="no"?><svg xmlns="http://www.w3.org/2000/svg" xmlns:xlink="http://www.w3.org/1999/xlink" clip-rule="evenodd" stroke-miterlimit="4.00" viewBox="0 0 1024 768"><desc>SVG generated by Keynote</desc><defs></defs><g transform="matrix(1.00, 0.00, -0.00, -1.00, 0.0, 768.0)"><path d="M 0.0 768.0 L 1024.0 768.0 L 1024.0 0.0 L 0.0 0.0 Z M 0.0 768.0 " fill="#FEFFFF"></path><text xml:space="preserve" font-family="SourceCodePro-Regular" font-size="12.0" fill="#747474" transform="matrix(1.00, 0.00, -0.00, -1.00, 19.0, 19.0)">L</text><text xml:space="preserve" font-family="SourceCodePro-Regular" font-size="12.0" fill="#747474" transform="matrix(1.00, 0.00, -0.00, -1.00, 26.2, 19.0)">o</text><text xml:space="preserve" font-family="SourceCodePro-Regular" font-size="12.0" fill="#747474" transform="matrix(1.00, 0.00, -0.00, -1.00, 33.4, 19.0)">r</text><text xml:space="preserve" font-family="SourceCodePro-Regular" font-size="12.0" fill="#747474" transform="matrix(1.00, 0.00, -0.00, -1.00, 40.6, 19.0)">e</text><text xml:space="preserve" font-family="SourceCodePro-Regular" font-size="12.0" fill="#747474" transform="matrix(1.00, 0.00, -0.00, -1.00, 47.8, 19.0)">n</text><text xml:space="preserve" font-family="SourceCodePro-Regular" font-size="12.0" fill="#747474" transform="matrix(1.00, 0.00, -0.00, -1.00, 55.0, 19.0)">z</text><text xml:space="preserve" font-family="SourceCodePro-Regular" font-size="12.0" fill="#747474" transform="matrix(1.00, 0.00, -0.00, -1.00, 62.2, 19.0)">o</text><text xml:space="preserve" font-family="SourceCodePro-Regular" font-size="12.0" fill="#747474" transform="matrix(1.00, 0.00, -0.00, -1.00, 69.4, 19.0)"> </text><text xml:space="preserve" font-family="SourceCodePro-Regular" font-size="12.0" fill="#747474" transform="matrix(1.00, 0.00, -0.00, -1.00, 76.6, 19.0)">A</text><text xml:space="preserve" font-family="SourceCodePro-Regular" font-size="12.0" fill="#747474" transform="matrix(1.00, 0.00, -0.00, -1.00, 83.8, 19.0)">f</text><text xml:space="preserve" font-family="SourceCodePro-Regular" font-size="12.0" fill="#747474" transform="matrix(1.00, 0.00, -0.00, -1.00, 91.0, 19.0)">f</text><text xml:space="preserve" font-family="SourceCodePro-Regular" font-size="12.0" fill="#747474" transform="matrix(1.00, 0.00, -0.00, -1.00, 98.2, 19.0)">e</text><text xml:space="preserve" font-family="SourceCodePro-Regular" font-size="12.0" fill="#747474" transform="matrix(1.00, 0.00, -0.00, -1.00, 105.4, 19.0)">t</text><text xml:space="preserve" font-family="SourceCodePro-Regular" font-size="12.0" fill="#747474" transform="matrix(1.00, 0.00, -0.00, -1.00, 112.6, 19.0)">t</text><text xml:space="preserve" font-family="SourceCodePro-Regular" font-size="12.0" fill="#747474" transform="matrix(1.00, 0.00, -0.00, -1.00, 119.8, 19.0)">i</text><text xml:space="preserve" font-family="SourceCodePro-Regular" font-size="12.0" fill="#747474" transform="matrix(1.00, 0.00, -0.00, -1.00, 127.0, 19.0)"> </text><text xml:space="preserve" font-family="SourceCodePro-Regular" font-size="12.0" fill="#747474" transform="matrix(1.00, 0.00, -0.00, -1.00, 134.2, 19.0)">(</text><text xml:space="preserve" font-family="SourceCodePro-Regular" font-size="12.0" fill="#747474" transform="matrix(1.00, 0.00, -0.00, -1.00, 141.4, 19.0)">l</text><text xml:space="preserve" font-family="SourceCodePro-Regular" font-size="12.0" fill="#747474" transform="matrix(1.00, 0.00, -0.00, -1.00, 148.6, 19.0)">o</text><text xml:space="preserve" font-family="SourceCodePro-Regular" font-size="12.0" fill="#747474" transform="matrix(1.00, 0.00, -0.00, -1.00, 155.8, 19.0)">r</text><text xml:space="preserve" font-family="SourceCodePro-Regular" font-size="12.0" fill="#747474" transform="matrix(1.00, 0.00, -0.00, -1.00, 163.0, 19.0)">e</text><text xml:space="preserve" font-family="SourceCodePro-Regular" font-size="12.0" fill="#747474" transform="matrix(1.00, 0.00, -0.00, -1.00, 170.2, 19.0)">n</text><text xml:space="preserve" font-family="SourceCodePro-Regular" font-size="12.0" fill="#747474" transform="matrix(1.00, 0.00, -0.00, -1.00, 177.4, 19.0)">z</text><text xml:space="preserve" font-family="SourceCodePro-Regular" font-size="12.0" fill="#747474" transform="matrix(1.00, 0.00, -0.00, -1.00, 184.6, 19.0)">o</text><text xml:space="preserve" font-family="SourceCodePro-Regular" font-size="12.0" fill="#747474" transform="matrix(1.00, 0.00, -0.00, -1.00, 191.8, 19.0)">.</text><text xml:space="preserve" font-family="SourceCodePro-Regular" font-size="12.0" fill="#747474" transform="matrix(1.00, 0.00, -0.00, -1.00, 199.0, 19.0)">a</text><text xml:space="preserve" font-family="SourceCodePro-Regular" font-size="12.0" fill="#747474" transform="matrix(1.00, 0.00, -0.00, -1.00, 206.2, 19.0)">f</text><text xml:space="preserve" font-family="SourceCodePro-Regular" font-size="12.0" fill="#747474" transform="matrix(1.00, 0.00, -0.00, -1.00, 213.4, 19.0)">f</text><text xml:space="preserve" font-family="SourceCodePro-Regular" font-size="12.0" fill="#747474" transform="matrix(1.00, 0.00, -0.00, -1.00, 220.6, 19.0)">e</text><text xml:space="preserve" font-family="SourceCodePro-Regular" font-size="12.0" fill="#747474" transform="matrix(1.00, 0.00, -0.00, -1.00, 227.8, 19.0)">t</text><text xml:space="preserve" font-family="SourceCodePro-Regular" font-size="12.0" fill="#747474" transform="matrix(1.00, 0.00, -0.00, -1.00, 235.0, 19.0)">t</text><text xml:space="preserve" font-family="SourceCodePro-Regular" font-size="12.0" fill="#747474" transform="matrix(1.00, 0.00, -0.00, -1.00, 242.2, 19.0)">i</text><text xml:space="preserve" font-family="SourceCodePro-Regular" font-size="12.0" fill="#747474" transform="matrix(1.00, 0.00, -0.00, -1.00, 249.4, 19.0)">@</text><text xml:space="preserve" font-family="SourceCodePro-Regular" font-size="12.0" fill="#747474" transform="matrix(1.00, 0.00, -0.00, -1.00, 256.6, 19.0)">p</text><text xml:space="preserve" font-family="SourceCodePro-Regular" font-size="12.0" fill="#747474" transform="matrix(1.00, 0.00, -0.00, -1.00, 263.8, 19.0)">o</text><text xml:space="preserve" font-family="SourceCodePro-Regular" font-size="12.0" fill="#747474" transform="matrix(1.00, 0.00, -0.00, -1.00, 271.0, 19.0)">l</text><text xml:space="preserve" font-family="SourceCodePro-Regular" font-size="12.0" fill="#747474" transform="matrix(1.00, 0.00, -0.00, -1.00, 278.2, 19.0)">i</text><text xml:space="preserve" font-family="SourceCodePro-Regular" font-size="12.0" fill="#747474" transform="matrix(1.00, 0.00, -0.00, -1.00, 285.4, 19.0)">m</text><text xml:space="preserve" font-family="SourceCodePro-Regular" font-size="12.0" fill="#747474" transform="matrix(1.00, 0.00, -0.00, -1.00, 292.6, 19.0)">i</text><text xml:space="preserve" font-family="SourceCodePro-Regular" font-size="12.0" fill="#747474" transform="matrix(1.00, 0.00, -0.00, -1.00, 299.8, 19.0)">.</text><text xml:space="preserve" font-family="SourceCodePro-Regular" font-size="12.0" fill="#747474" transform="matrix(1.00, 0.00, -0.00, -1.00, 307.0, 19.0)">i</text><text xml:space="preserve" font-family="SourceCodePro-Regular" font-size="12.0" fill="#747474" transform="matrix(1.00, 0.00, -0.00, -1.00, 314.2, 19.0)">t</text><text xml:space="preserve" font-family="SourceCodePro-Regular" font-size="12.0" fill="#747474" transform="matrix(1.00, 0.00, -0.00, -1.00, 321.4, 19.0)">)</text><text xml:space="preserve" font-family="SourceCodePro-Regular" font-size="12.0" fill="#747474" transform="matrix(1.00, 0.00, -0.00, -1.00, 328.6, 19.0)"> </text><text xml:space="preserve" font-family="SourceCodePro-Regular" font-size="12.0" fill="#747474" transform="matrix(1.00, 0.00, -0.00, -1.00, 335.8, 19.0)">-</text><text xml:space="preserve" font-family="SourceCodePro-Regular" font-size="12.0" fill="#747474" transform="matrix(1.00, 0.00, -0.00, -1.00, 343.0, 19.0)"> </text><text xml:space="preserve" font-family="SourceCodePro-Regular" font-size="12.0" fill="#747474" transform="matrix(1.00, 0.00, -0.00, -1.00, 350.2, 19.0)">P</text><text xml:space="preserve" font-family="SourceCodePro-Regular" font-size="12.0" fill="#747474" transform="matrix(1.00, 0.00, -0.00, -1.00, 357.4, 19.0)">o</text><text xml:space="preserve" font-family="SourceCodePro-Regular" font-size="12.0" fill="#747474" transform="matrix(1.00, 0.00, -0.00, -1.00, 364.6, 19.0)">l</text><text xml:space="preserve" font-family="SourceCodePro-Regular" font-size="12.0" fill="#747474" transform="matrix(1.00, 0.00, -0.00, -1.00, 371.8, 19.0)">i</text><text xml:space="preserve" font-family="SourceCodePro-Regular" font-size="12.0" fill="#747474" transform="matrix(1.00, 0.00, -0.00, -1.00, 379.0, 19.0)">t</text><text xml:space="preserve" font-family="SourceCodePro-Regular" font-size="12.0" fill="#747474" transform="matrix(1.00, 0.00, -0.00, -1.00, 386.2, 19.0)">e</text><text xml:space="preserve" font-family="SourceCodePro-Regular" font-size="12.0" fill="#747474" transform="matrix(1.00, 0.00, -0.00, -1.00, 393.4, 19.0)">c</text><text xml:space="preserve" font-family="SourceCodePro-Regular" font-size="12.0" fill="#747474" transform="matrix(1.00, 0.00, -0.00, -1.00, 400.6, 19.0)">n</text><text xml:space="preserve" font-family="SourceCodePro-Regular" font-size="12.0" fill="#747474" transform="matrix(1.00, 0.00, -0.00, -1.00, 407.8, 19.0)">i</text><text xml:space="preserve" font-family="SourceCodePro-Regular" font-size="12.0" fill="#747474" transform="matrix(1.00, 0.00, -0.00, -1.00, 415.0, 19.0)">c</text><text xml:space="preserve" font-family="SourceCodePro-Regular" font-size="12.0" fill="#747474" transform="matrix(1.00, 0.00, -0.00, -1.00, 422.2, 19.0)">o</text><text xml:space="preserve" font-family="SourceCodePro-Regular" font-size="12.0" fill="#747474" transform="matrix(1.00, 0.00, -0.00, -1.00, 429.4, 19.0)"> </text><text xml:space="preserve" font-family="SourceCodePro-Regular" font-size="12.0" fill="#747474" transform="matrix(1.00, 0.00, -0.00, -1.00, 436.6, 19.0)">d</text><text xml:space="preserve" font-family="SourceCodePro-Regular" font-size="12.0" fill="#747474" transform="matrix(1.00, 0.00, -0.00, -1.00, 443.8, 19.0)">i</text><text xml:space="preserve" font-family="SourceCodePro-Regular" font-size="12.0" fill="#747474" transform="matrix(1.00, 0.00, -0.00, -1.00, 451.0, 19.0)"> </text><text xml:space="preserve" font-family="SourceCodePro-Regular" font-size="12.0" fill="#747474" transform="matrix(1.00, 0.00, -0.00, -1.00, 458.2, 19.0)">M</text><text xml:space="preserve" font-family="SourceCodePro-Regular" font-size="12.0" fill="#747474" transform="matrix(1.00, 0.00, -0.00, -1.00, 465.4, 19.0)">i</text><text xml:space="preserve" font-family="SourceCodePro-Regular" font-size="12.0" fill="#747474" transform="matrix(1.00, 0.00, -0.00, -1.00, 472.6, 19.0)">l</text><text xml:space="preserve" font-family="SourceCodePro-Regular" font-size="12.0" fill="#747474" transform="matrix(1.00, 0.00, -0.00, -1.00, 479.8, 19.0)">a</text><text xml:space="preserve" font-family="SourceCodePro-Regular" font-size="12.0" fill="#747474" transform="matrix(1.00, 0.00, -0.00, -1.00, 487.0, 19.0)">n</text><text xml:space="preserve" font-family="SourceCodePro-Regular" font-size="12.0" fill="#747474" transform="matrix(1.00, 0.00, -0.00, -1.00, 494.2, 19.0)">o</text><text xml:space="preserve" font-family="SourceCodePro-Regular" font-size="12.0" fill="#747474" transform="matrix(1.00, 0.00, -0.00, -1.00, 501.4, 19.0)">,</text><text xml:space="preserve" font-family="SourceCodePro-Regular" font-size="12.0" fill="#747474" transform="matrix(1.00, 0.00, -0.00, -1.00, 508.6, 19.0)"> </text><text xml:space="preserve" font-family="SourceCodePro-Regular" font-size="12.0" fill="#747474" transform="matrix(1.00, 0.00, -0.00, -1.00, 515.8, 19.0)">D</text><text xml:space="preserve" font-family="SourceCodePro-Regular" font-size="12.0" fill="#747474" transform="matrix(1.00, 0.00, -0.00, -1.00, 523.0, 19.0)">E</text><text xml:space="preserve" font-family="SourceCodePro-Regular" font-size="12.0" fill="#747474" transform="matrix(1.00, 0.00, -0.00, -1.00, 530.2, 19.0)">I</text><text xml:space="preserve" font-family="SourceCodePro-Regular" font-size="12.0" fill="#747474" transform="matrix(1.00, 0.00, -0.00, -1.00, 537.4, 19.0)">B</text><g><clipPath id="clip-513"><path d="M 140.8 16.1 L 321.8 16.1 L 321.8 18.7 L 140.8 18.7 Z M 140.8 16.1 "></path></clipPath><g clip-path="url(#clip-513)"><path d="M 126.9 17.1 L 306.9 17.1 " fill="none" stroke="#747474" stroke-width="0.60" stroke-miterlimit="0.00" transform="matrix(1.00, 0.00, 0.00, -1.00, 14.9, 34.5)"></path></g></g><text xml:space="preserve" font-family="Lora-Bold" font-weight="bold" font-size="80.0" fill="#212121" transform="matrix(1.00, 0.00, -0.00, -1.00, 161.0, 648.0)">T</text><text xml:space="preserve" font-family="Lora-Bold" font-weight="bold" font-size="80.0" fill="#212121" transform="matrix(1.00, 0.00, -0.00, -1.00, 213.0, 648.0)">u</text><text xml:space="preserve" font-family="Lora-Bold" font-weight="bold" font-size="80.0" fill="#212121" transform="matrix(1.00, 0.00, -0.00, -1.00, 262.5, 648.0)">m</text><text xml:space="preserve" font-family="Lora-Bold" font-weight="bold" font-size="80.0" fill="#212121" transform="matrix(1.00, 0.00, -0.00, -1.00, 336.1, 648.0)">b</text><text xml:space="preserve" font-family="Lora-Bold" font-weight="bold" font-size="80.0" fill="#212121" transform="matrix(1.00, 0.00, -0.00, -1.00, 381.9, 648.0)">l</text><text xml:space="preserve" font-family="Lora-Bold" font-weight="bold" font-size="80.0" fill="#212121" transform="matrix(1.00, 0.00, -0.00, -1.00, 406.9, 648.0)">i</text><text xml:space="preserve" font-family="Lora-Bold" font-weight="bold" font-size="80.0" fill="#212121" transform="matrix(1.00, 0.00, -0.00, -1.00, 433.1, 648.0)">n</text><text xml:space="preserve" font-family="Lora-Bold" font-weight="bold" font-size="80.0" fill="#212121" transform="matrix(1.00, 0.00, -0.00, -1.00, 484.0, 648.0)">g</text><text xml:space="preserve" font-family="Lora-Bold" font-weight="bold" font-size="80.0" fill="#212121" transform="matrix(1.00, 0.00, -0.00, -1.00, 528.5, 648.0)"> </text><text xml:space="preserve" font-family="Lora-Bold" font-weight="bold" font-size="80.0" fill="#212121" transform="matrix(1.00, 0.00, -0.00, -1.00, 549.5, 648.0)">W</text><text xml:space="preserve" font-family="Lora-Bold" font-weight="bold" font-size="80.0" fill="#212121" transform="matrix(1.00, 0.00, -0.00, -1.00, 628.8, 648.0)">i</text><text xml:space="preserve" font-family="Lora-Bold" font-weight="bold" font-size="80.0" fill="#212121" transform="matrix(1.00, 0.00, -0.00, -1.00, 655.0, 648.0)">n</text><text xml:space="preserve" font-family="Lora-Bold" font-weight="bold" font-size="80.0" fill="#212121" transform="matrix(1.00, 0.00, -0.00, -1.00, 705.9, 648.0)">d</text><text xml:space="preserve" font-family="Lora-Bold" font-weight="bold" font-size="80.0" fill="#212121" transform="matrix(1.00, 0.00, -0.00, -1.00, 753.6, 648.0)">o</text><text xml:space="preserve" font-family="Lora-Bold" font-weight="bold" font-size="80.0" fill="#212121" transform="matrix(1.00, 0.00, -0.00, -1.00, 798.3, 648.0)">w</text><text xml:space="preserve" font-family="Helvetica-Light" font-size="18.0" fill="#000000" transform="matrix(1.00, 0.00, -0.00, -1.00, 992.0, 16.0)">3</text><text xml:space="preserve" font-family="Helvetica-Light" font-size="18.0" fill="#000000" transform="matrix(1.00, 0.00, -0.00, -1.00, 1002.0, 16.0)">9</text><text xml:space="preserve" font-family="Raleway-ExtraLight" font-size="41.0" fill="#52575F" transform="matrix(1.00, 0.00, -0.00, -1.00, 341.0, 575.0)">(</text><text xml:space="preserve" font-family="Raleway-ExtraLight" font-size="41.0" fill="#52575F" transform="matrix(1.00, 0.00, -0.00, -1.00, 351.1, 575.0)"> </text><text xml:space="preserve" font-family="Raleway-ExtraLight" font-size="41.0" fill="#52575F" transform="matrix(1.00, 0.00, -0.00, -1.00, 362.0, 575.0)">a</text><text xml:space="preserve" font-family="Raleway-ExtraLight" font-size="41.0" fill="#52575F" transform="matrix(1.00, 0.00, -0.00, -1.00, 383.8, 575.0)">r</text><text xml:space="preserve" font-family="Raleway-ExtraLight" font-size="41.0" fill="#52575F" transform="matrix(1.00, 0.00, -0.00, -1.00, 397.5, 575.0)">e</text><text xml:space="preserve" font-family="Raleway-ExtraLight" font-size="41.0" fill="#52575F" transform="matrix(1.00, 0.00, -0.00, -1.00, 421.3, 575.0)">a</text><text xml:space="preserve" font-family="Raleway-ExtraLight" font-size="41.0" fill="#52575F" transform="matrix(1.00, 0.00, -0.00, -1.00, 443.1, 575.0)">,</text><text xml:space="preserve" font-family="Raleway-ExtraLight" font-size="41.0" fill="#52575F" transform="matrix(1.00, 0.00, -0.00, -1.00, 450.8, 575.0)"> </text><text xml:space="preserve" font-family="Raleway-ExtraLight" font-size="41.0" fill="#52575F" transform="matrix(1.00, 0.00, -0.00, -1.00, 461.7, 575.0)">t</text><text xml:space="preserve" font-family="Raleway-ExtraLight" font-size="41.0" fill="#52575F" transform="matrix(1.00, 0.00, -0.00, -1.00, 474.2, 575.0)">e</text><text xml:space="preserve" font-family="Raleway-ExtraLight" font-size="41.0" fill="#52575F" transform="matrix(1.00, 0.00, -0.00, -1.00, 498.1, 575.0)">m</text><text xml:space="preserve" font-family="Raleway-ExtraLight" font-size="41.0" fill="#52575F" transform="matrix(1.00, 0.00, -0.00, -1.00, 535.3, 575.0)">p</text><text xml:space="preserve" font-family="Raleway-ExtraLight" font-size="41.0" fill="#52575F" transform="matrix(1.00, 0.00, -0.00, -1.00, 560.2, 575.0)">e</text><text xml:space="preserve" font-family="Raleway-ExtraLight" font-size="41.0" fill="#52575F" transform="matrix(1.00, 0.00, -0.00, -1.00, 584.0, 575.0)">r</text><text xml:space="preserve" font-family="Raleway-ExtraLight" font-size="41.0" fill="#52575F" transform="matrix(1.00, 0.00, -0.00, -1.00, 597.2, 575.0)">a</text><text xml:space="preserve" font-family="Raleway-ExtraLight" font-size="41.0" fill="#52575F" transform="matrix(1.00, 0.00, -0.00, -1.00, 618.8, 575.0)">t</text><text xml:space="preserve" font-family="Raleway-ExtraLight" font-size="41.0" fill="#52575F" transform="matrix(1.00, 0.00, -0.00, -1.00, 631.3, 575.0)">u</text><text xml:space="preserve" font-family="Raleway-ExtraLight" font-size="41.0" fill="#52575F" transform="matrix(1.00, 0.00, -0.00, -1.00, 655.1, 575.0)">r</text><text xml:space="preserve" font-family="Raleway-ExtraLight" font-size="41.0" fill="#52575F" transform="matrix(1.00, 0.00, -0.00, -1.00, 668.8, 575.0)">e</text><text xml:space="preserve" font-family="Raleway-ExtraLight" font-size="41.0" fill="#52575F" transform="matrix(1.00, 0.00, -0.00, -1.00, 692.6, 575.0)"> </text><text xml:space="preserve" font-family="Raleway-ExtraLight" font-size="41.0" fill="#52575F" transform="matrix(1.00, 0.00, -0.00, -1.00, 703.4, 575.0)">)</text><text xml:space="preserve" font-family="SourceCodePro-Regular" font-size="21.0" fill="#52575F" transform="matrix(1.00, 0.00, -0.00, -1.00, 8.0, 405.0)">(</text><text xml:space="preserve" font-family="SourceCodePro-Semibold" font-weight="bold" font-size="21.0" fill="#52575F" transform="matrix(1.00, 0.00, -0.00, -1.00, 20.6, 405.0)">a</text><text xml:space="preserve" font-family="SourceCodePro-Semibold" font-weight="bold" font-size="21.0" fill="#52575F" transform="matrix(1.00, 0.00, -0.00, -1.00, 33.2, 405.0)">1</text><text xml:space="preserve" font-family="SourceCodePro-Regular" font-size="21.0" fill="#52575F" transform="matrix(1.00, 0.00, -0.00, -1.00, 45.8, 405.0)">,</text><text xml:space="preserve" font-family="SourceCodePro-Regular" font-size="21.0" fill="#52575F" transform="matrix(1.00, 0.00, -0.00, -1.00, 58.4, 405.0)"> </text><text xml:space="preserve" font-family="SourceCodePro-Semibold" font-weight="bold" font-size="21.0" fill="#52575F" transform="matrix(1.00, 0.00, -0.00, -1.00, 71.0, 405.0)">1</text><text xml:space="preserve" font-family="SourceCodePro-Semibold" font-weight="bold" font-size="21.0" fill="#52575F" transform="matrix(1.00, 0.00, -0.00, -1.00, 83.6, 405.0)">2</text><text xml:space="preserve" font-family="SourceCodePro-Regular" font-size="21.0" fill="#52575F" transform="matrix(1.00, 0.00, -0.00, -1.00, 96.2, 405.0)">)</text><text xml:space="preserve" font-family="SourceCodePro-Regular" font-size="21.0" fill="#52575F" transform="matrix(1.00, 0.00, -0.00, -1.00, 108.8, 405.0)">,</text><text xml:space="preserve" font-family="SourceCodePro-Regular" font-size="21.0" fill="#52575F" transform="matrix(1.00, 0.00, -0.00, -1.00, 121.4, 405.0)"> </text><text xml:space="preserve" font-family="SourceCodePro-Regular" font-size="21.0" fill="#52575F" transform="matrix(1.00, 0.00, -0.00, -1.00, 134.0, 405.0)">(</text><text xml:space="preserve" font-family="SourceCodePro-Semibold" font-weight="bold" font-size="21.0" fill="#52575F" transform="matrix(1.00, 0.00, -0.00, -1.00, 146.6, 405.0)">a</text><text xml:space="preserve" font-family="SourceCodePro-Semibold" font-weight="bold" font-size="21.0" fill="#52575F" transform="matrix(1.00, 0.00, -0.00, -1.00, 159.2, 405.0)">2</text><text xml:space="preserve" font-family="SourceCodePro-Regular" font-size="21.0" fill="#52575F" transform="matrix(1.00, 0.00, -0.00, -1.00, 171.8, 405.0)">,</text><text xml:space="preserve" font-family="SourceCodePro-Regular" font-size="21.0" fill="#52575F" transform="matrix(1.00, 0.00, -0.00, -1.00, 184.4, 405.0)"> </text><text xml:space="preserve" font-family="SourceCodePro-Semibold" font-weight="bold" font-size="21.0" fill="#52575F" transform="matrix(1.00, 0.00, -0.00, -1.00, 197.0, 405.0)">1</text><text xml:space="preserve" font-family="SourceCodePro-Semibold" font-weight="bold" font-size="21.0" fill="#52575F" transform="matrix(1.00, 0.00, -0.00, -1.00, 209.6, 405.0)">5</text><text xml:space="preserve" font-family="SourceCodePro-Regular" font-size="21.0" fill="#52575F" transform="matrix(1.00, 0.00, -0.00, -1.00, 222.2, 405.0)">)</text><text xml:space="preserve" font-family="SourceCodePro-Regular" font-size="21.0" fill="#52575F" transform="matrix(1.00, 0.00, -0.00, -1.00, 234.8, 405.0)">,</text><text xml:space="preserve" font-family="SourceCodePro-Regular" font-size="21.0" fill="#52575F" transform="matrix(1.00, 0.00, -0.00, -1.00, 247.4, 405.0)"> </text><text xml:space="preserve" font-family="SourceCodePro-Regular" font-size="21.0" fill="#52575F" transform="matrix(1.00, 0.00, -0.00, -1.00, 260.0, 405.0)">(</text><text xml:space="preserve" font-family="SourceCodePro-Semibold" font-weight="bold" font-size="21.0" fill="#52575F" transform="matrix(1.00, 0.00, -0.00, -1.00, 272.6, 405.0)">a</text><text xml:space="preserve" font-family="SourceCodePro-Semibold" font-weight="bold" font-size="21.0" fill="#52575F" transform="matrix(1.00, 0.00, -0.00, -1.00, 285.2, 405.0)">1</text><text xml:space="preserve" font-family="SourceCodePro-Regular" font-size="21.0" fill="#52575F" transform="matrix(1.00, 0.00, -0.00, -1.00, 297.8, 405.0)">,</text><text xml:space="preserve" font-family="SourceCodePro-Regular" font-size="21.0" fill="#52575F" transform="matrix(1.00, 0.00, -0.00, -1.00, 310.4, 405.0)"> </text><text xml:space="preserve" font-family="SourceCodePro-Semibold" font-weight="bold" font-size="21.0" fill="#52575F" transform="matrix(1.00, 0.00, -0.00, -1.00, 323.0, 405.0)">1</text><text xml:space="preserve" font-family="SourceCodePro-Semibold" font-weight="bold" font-size="21.0" fill="#52575F" transform="matrix(1.00, 0.00, -0.00, -1.00, 335.6, 405.0)">5</text><text xml:space="preserve" font-family="SourceCodePro-Regular" font-size="21.0" fill="#52575F" transform="matrix(1.00, 0.00, -0.00, -1.00, 348.2, 405.0)">)</text><text xml:space="preserve" font-family="SourceCodePro-Regular" font-size="21.0" fill="#52575F" transform="matrix(1.00, 0.00, -0.00, -1.00, 360.8, 405.0)">,</text><text xml:space="preserve" font-family="SourceCodePro-Regular" font-size="21.0" fill="#52575F" transform="matrix(1.00, 0.00, -0.00, -1.00, 373.4, 405.0)"> </text><text xml:space="preserve" font-family="SourceCodePro-Regular" font-size="21.0" fill="#52575F" transform="matrix(1.00, 0.00, -0.00, -1.00, 386.0, 405.0)">(</text><text xml:space="preserve" font-family="SourceCodePro-Semibold" font-weight="bold" font-size="21.0" fill="#52575F" transform="matrix(1.00, 0.00, -0.00, -1.00, 398.6, 405.0)">a</text><text xml:space="preserve" font-family="SourceCodePro-Semibold" font-weight="bold" font-size="21.0" fill="#52575F" transform="matrix(1.00, 0.00, -0.00, -1.00, 411.2, 405.0)">3</text><text xml:space="preserve" font-family="SourceCodePro-Regular" font-size="21.0" fill="#52575F" transform="matrix(1.00, 0.00, -0.00, -1.00, 423.8, 405.0)">,</text><text xml:space="preserve" font-family="SourceCodePro-Regular" font-size="21.0" fill="#52575F" transform="matrix(1.00, 0.00, -0.00, -1.00, 436.4, 405.0)"> </text><text xml:space="preserve" font-family="SourceCodePro-Semibold" font-weight="bold" font-size="21.0" fill="#52575F" transform="matrix(1.00, 0.00, -0.00, -1.00, 449.0, 405.0)">1</text><text xml:space="preserve" font-family="SourceCodePro-Semibold" font-weight="bold" font-size="21.0" fill="#52575F" transform="matrix(1.00, 0.00, -0.00, -1.00, 461.6, 405.0)">8</text><text xml:space="preserve" font-family="SourceCodePro-Regular" font-size="21.0" fill="#52575F" transform="matrix(1.00, 0.00, -0.00, -1.00, 474.2, 405.0)">)</text><text xml:space="preserve" font-family="SourceCodePro-Regular" font-size="21.0" fill="#52575F" transform="matrix(1.00, 0.00, -0.00, -1.00, 486.8, 405.0)">,</text><text xml:space="preserve" font-family="SourceCodePro-Regular" font-size="21.0" fill="#52575F" transform="matrix(1.00, 0.00, -0.00, -1.00, 499.4, 405.0)"> </text><text xml:space="preserve" font-family="SourceCodePro-Regular" font-size="21.0" fill="#52575F" transform="matrix(1.00, 0.00, -0.00, -1.00, 512.0, 405.0)">(</text><text xml:space="preserve" font-family="SourceCodePro-Semibold" font-weight="bold" font-size="21.0" fill="#52575F" transform="matrix(1.00, 0.00, -0.00, -1.00, 524.6, 405.0)">a</text><text xml:space="preserve" font-family="SourceCodePro-Semibold" font-weight="bold" font-size="21.0" fill="#52575F" transform="matrix(1.00, 0.00, -0.00, -1.00, 537.2, 405.0)">3</text><text xml:space="preserve" font-family="SourceCodePro-Regular" font-size="21.0" fill="#52575F" transform="matrix(1.00, 0.00, -0.00, -1.00, 549.8, 405.0)">,</text><text xml:space="preserve" font-family="SourceCodePro-Regular" font-size="21.0" fill="#52575F" transform="matrix(1.00, 0.00, -0.00, -1.00, 562.4, 405.0)"> </text><text xml:space="preserve" font-family="SourceCodePro-Semibold" font-weight="bold" font-size="21.0" fill="#52575F" transform="matrix(1.00, 0.00, -0.00, -1.00, 575.0, 405.0)">1</text><text xml:space="preserve" font-family="SourceCodePro-Semibold" font-weight="bold" font-size="21.0" fill="#52575F" transform="matrix(1.00, 0.00, -0.00, -1.00, 587.6, 405.0)">8</text><text xml:space="preserve" font-family="SourceCodePro-Regular" font-size="21.0" fill="#52575F" transform="matrix(1.00, 0.00, -0.00, -1.00, 600.2, 405.0)">)</text><text xml:space="preserve" font-family="SourceCodePro-Regular" font-size="21.0" fill="#52575F" transform="matrix(1.00, 0.00, -0.00, -1.00, 612.8, 405.0)">,</text><text xml:space="preserve" font-family="SourceCodePro-Regular" font-size="21.0" fill="#52575F" transform="matrix(1.00, 0.00, -0.00, -1.00, 625.4, 405.0)"> </text><text xml:space="preserve" font-family="SourceCodePro-Regular" font-size="21.0" fill="#52575F" transform="matrix(1.00, 0.00, -0.00, -1.00, 638.0, 405.0)">(</text><text xml:space="preserve" font-family="SourceCodePro-Semibold" font-weight="bold" font-size="21.0" fill="#52575F" transform="matrix(1.00, 0.00, -0.00, -1.00, 650.6, 405.0)">a</text><text xml:space="preserve" font-family="SourceCodePro-Semibold" font-weight="bold" font-size="21.0" fill="#52575F" transform="matrix(1.00, 0.00, -0.00, -1.00, 663.2, 405.0)">2</text><text xml:space="preserve" font-family="SourceCodePro-Regular" font-size="21.0" fill="#52575F" transform="matrix(1.00, 0.00, -0.00, -1.00, 675.8, 405.0)">,</text><text xml:space="preserve" font-family="SourceCodePro-Regular" font-size="21.0" fill="#52575F" transform="matrix(1.00, 0.00, -0.00, -1.00, 688.4, 405.0)"> </text><text xml:space="preserve" font-family="SourceCodePro-Semibold" font-weight="bold" font-size="21.0" fill="#52575F" transform="matrix(1.00, 0.00, -0.00, -1.00, 701.0, 405.0)">1</text><text xml:space="preserve" font-family="SourceCodePro-Semibold" font-weight="bold" font-size="21.0" fill="#52575F" transform="matrix(1.00, 0.00, -0.00, -1.00, 713.6, 405.0)">1</text><text xml:space="preserve" font-family="SourceCodePro-Regular" font-size="21.0" fill="#52575F" transform="matrix(1.00, 0.00, -0.00, -1.00, 726.2, 405.0)">)</text><text xml:space="preserve" font-family="SourceCodePro-Regular" font-size="21.0" fill="#52575F" transform="matrix(1.00, 0.00, -0.00, -1.00, 738.8, 405.0)">,</text><text xml:space="preserve" font-family="SourceCodePro-Regular" font-size="21.0" fill="#52575F" transform="matrix(1.00, 0.00, -0.00, -1.00, 751.4, 405.0)"> </text><text xml:space="preserve" font-family="SourceCodePro-Regular" font-size="21.0" fill="#52575F" transform="matrix(1.00, 0.00, -0.00, -1.00, 764.0, 405.0)">(</text><text xml:space="preserve" font-family="SourceCodePro-Semibold" font-weight="bold" font-size="21.0" fill="#52575F" transform="matrix(1.00, 0.00, -0.00, -1.00, 776.6, 405.0)">a</text><text xml:space="preserve" font-family="SourceCodePro-Semibold" font-weight="bold" font-size="21.0" fill="#52575F" transform="matrix(1.00, 0.00, -0.00, -1.00, 789.2, 405.0)">2</text><text xml:space="preserve" font-family="SourceCodePro-Regular" font-size="21.0" fill="#52575F" transform="matrix(1.00, 0.00, -0.00, -1.00, 801.8, 405.0)">,</text><text xml:space="preserve" font-family="SourceCodePro-Regular" font-size="21.0" fill="#52575F" transform="matrix(1.00, 0.00, -0.00, -1.00, 814.4, 405.0)"> </text><text xml:space="preserve" font-family="SourceCodePro-Semibold" font-weight="bold" font-size="21.0" fill="#52575F" transform="matrix(1.00, 0.00, -0.00, -1.00, 827.0, 405.0)">1</text><text xml:space="preserve" font-family="SourceCodePro-Semibold" font-weight="bold" font-size="21.0" fill="#52575F" transform="matrix(1.00, 0.00, -0.00, -1.00, 839.6, 405.0)">1</text><text xml:space="preserve" font-family="SourceCodePro-Regular" font-size="21.0" fill="#52575F" transform="matrix(1.00, 0.00, -0.00, -1.00, 852.2, 405.0)">)</text><text xml:space="preserve" font-family="SourceCodePro-Regular" font-size="21.0" fill="#52575F" transform="matrix(1.00, 0.00, -0.00, -1.00, 864.8, 405.0)">,</text><text xml:space="preserve" font-family="SourceCodePro-Regular" font-size="21.0" fill="#52575F" transform="matrix(1.00, 0.00, -0.00, -1.00, 877.4, 405.0)"> </text><text xml:space="preserve" font-family="SourceCodePro-Regular" font-size="21.0" fill="#52575F" transform="matrix(1.00, 0.00, -0.00, -1.00, 890.0, 405.0)">(</text><text xml:space="preserve" font-family="SourceCodePro-Semibold" font-weight="bold" font-size="21.0" fill="#52575F" transform="matrix(1.00, 0.00, -0.00, -1.00, 902.6, 405.0)">a</text><text xml:space="preserve" font-family="SourceCodePro-Semibold" font-weight="bold" font-size="21.0" fill="#52575F" transform="matrix(1.00, 0.00, -0.00, -1.00, 915.2, 405.0)">1</text><text xml:space="preserve" font-family="SourceCodePro-Regular" font-size="21.0" fill="#52575F" transform="matrix(1.00, 0.00, -0.00, -1.00, 927.8, 405.0)">,</text><text xml:space="preserve" font-family="SourceCodePro-Regular" font-size="21.0" fill="#52575F" transform="matrix(1.00, 0.00, -0.00, -1.00, 940.4, 405.0)"> </text><text xml:space="preserve" font-family="SourceCodePro-Semibold" font-weight="bold" font-size="21.0" fill="#52575F" transform="matrix(1.00, 0.00, -0.00, -1.00, 953.0, 405.0)">1</text><text xml:space="preserve" font-family="SourceCodePro-Semibold" font-weight="bold" font-size="21.0" fill="#52575F" transform="matrix(1.00, 0.00, -0.00, -1.00, 965.6, 405.0)">2</text><text xml:space="preserve" font-family="SourceCodePro-Regular" font-size="21.0" fill="#52575F" transform="matrix(1.00, 0.00, -0.00, -1.00, 978.2, 405.0)">)</text><path d="M 0.0 0.0 L 320.2 0.0 L 322.2 0.0 " fill="none" stroke="#00B0FF" stroke-width="4.00" stroke-linecap="round" stroke-linejoin="round" stroke-dasharray="0.0, 12.0" transform="matrix(1.00, 0.00, 0.00, -1.00, 330.9, 472.8)"></path><path d="M 0.0 0.0 L 3.0 5.0 L 6.0 0.0 M 3.0 0.0 L 3.0 5.0 " fill="none" stroke="#00B0FF" stroke-width="1.43" stroke-miterlimit="10.00" stroke-linejoin="round" transform="matrix(0.00, 2.80, 2.80, 0.00, 651.1, 464.4)"></path><text xml:space="preserve" font-family="SourceCodePro-Regular" font-size="28.0" fill="#52575F" transform="matrix(1.00, 0.00, -0.00, -1.00, 464.0, 489.0)">t</text><text xml:space="preserve" font-family="SourceCodePro-Regular" font-size="28.0" fill="#52575F" transform="matrix(1.00, 0.00, -0.00, -1.00, 480.8, 489.0)">i</text><text xml:space="preserve" font-family="SourceCodePro-Regular" font-size="28.0" fill="#52575F" transform="matrix(1.00, 0.00, -0.00, -1.00, 497.6, 489.0)">m</text><text xml:space="preserve" font-family="SourceCodePro-Regular" font-size="28.0" fill="#52575F" transform="matrix(1.00, 0.00, -0.00, -1.00, 514.4, 489.0)">e</text><text xml:space="preserve" font-family="SourceCodePro-Semibold" font-weight="bold" font-size="21.0" fill="#00B0FF" transform="matrix(1.00, 0.00, -0.00, -1.00, 6.0, 338.0)">a</text><text xml:space="preserve" font-family="SourceCodePro-Semibold" font-weight="bold" font-size="21.0" fill="#00B0FF" transform="matrix(1.00, 0.00, -0.00, -1.00, 18.6, 338.0)">1</text><text xml:space="preserve" font-family="SourceCodePro-Regular" font-size="21.0" fill="#52575F" transform="matrix(1.00, 0.00, -0.00, -1.00, 31.2, 338.0)"> </text><text xml:space="preserve" font-family="SourceCodePro-Regular" font-size="21.0" fill="#52575F" transform="matrix(1.00, 0.00, -0.00, -1.00, 43.8, 338.0)"> </text><text xml:space="preserve" font-family="SourceCodePro-Semibold" font-weight="bold" font-size="21.0" fill="#E82662" transform="matrix(1.00, 0.00, -0.00, -1.00, 56.4, 338.0)">1</text><text xml:space="preserve" font-family="SourceCodePro-Semibold" font-weight="bold" font-size="21.0" fill="#E82662" transform="matrix(1.00, 0.00, -0.00, -1.00, 69.0, 338.0)">3</text><text xml:space="preserve" font-family="SourceCodePro-Semibold" font-weight="bold" font-size="21.0" fill="#E82662" transform="matrix(1.00, 0.00, -0.00, -1.00, 81.6, 338.0)">.</text><text xml:space="preserve" font-family="SourceCodePro-Semibold" font-weight="bold" font-size="21.0" fill="#E82662" transform="matrix(1.00, 0.00, -0.00, -1.00, 94.2, 338.0)">0</text><text xml:space="preserve" font-family="SourceCodePro-Regular" font-size="21.0" fill="#52575F" transform="matrix(1.00, 0.00, -0.00, -1.00, 106.8, 338.0)">,</text><text xml:space="preserve" font-family="SourceCodePro-Regular" font-size="21.0" fill="#52575F" transform="matrix(1.00, 0.00, -0.00, -1.00, 119.4, 338.0)"> </text><text xml:space="preserve" font-family="SourceCodePro-Regular" font-size="21.0" fill="#52575F" transform="matrix(1.00, 0.00, -0.00, -1.00, 132.0, 338.0)"> </text><text xml:space="preserve" font-family="SourceCodePro-Regular" font-size="21.0" fill="#52575F" transform="matrix(1.00, 0.00, -0.00, -1.00, 144.6, 338.0)"> </text><text xml:space="preserve" font-family="SourceCodePro-Regular" font-size="21.0" fill="#52575F" transform="matrix(1.00, 0.00, -0.00, -1.00, 157.2, 338.0)"> </text><text xml:space="preserve" font-family="SourceCodePro-Semibold" font-weight="bold" font-size="21.0" fill="#E82662" transform="matrix(1.00, 0.00, -0.00, -1.00, 169.8, 338.0)"> </text><text xml:space="preserve" font-family="SourceCodePro-Semibold" font-weight="bold" font-size="21.0" fill="#E82662" transform="matrix(1.00, 0.00, -0.00, -1.00, 182.4, 338.0)"> </text><text xml:space="preserve" font-family="SourceCodePro-Semibold" font-weight="bold" font-size="21.0" fill="#E82662" transform="matrix(1.00, 0.00, -0.00, -1.00, 195.0, 338.0)"> </text><text xml:space="preserve" font-family="SourceCodePro-Semibold" font-weight="bold" font-size="21.0" fill="#E82662" transform="matrix(1.00, 0.00, -0.00, -1.00, 207.6, 338.0)"> </text><text xml:space="preserve" font-family="SourceCodePro-Semibold" font-weight="bold" font-size="21.0" fill="#E82662" transform="matrix(1.00, 0.00, -0.00, -1.00, 220.2, 338.0)"> </text><text xml:space="preserve" font-family="SourceCodePro-Semibold" font-weight="bold" font-size="21.0" fill="#E82662" transform="matrix(1.00, 0.00, -0.00, -1.00, 232.8, 338.0)"> </text><text xml:space="preserve" font-family="SourceCodePro-Regular" font-size="21.0" fill="#52575F" transform="matrix(1.00, 0.00, -0.00, -1.00, 245.4, 338.0)"> </text><text xml:space="preserve" font-family="SourceCodePro-Regular" font-size="21.0" fill="#52575F" transform="matrix(1.00, 0.00, -0.00, -1.00, 258.0, 338.0)"> </text><text xml:space="preserve" font-family="SourceCodePro-Regular" font-size="21.0" fill="#52575F" transform="matrix(1.00, 0.00, -0.00, -1.00, 270.6, 338.0)"> </text><text xml:space="preserve" font-family="SourceCodePro-Regular" font-size="21.0" fill="#52575F" transform="matrix(1.00, 0.00, -0.00, -1.00, 283.2, 338.0)"> </text><text xml:space="preserve" font-family="SourceCodePro-Semibold" font-weight="bold" font-size="21.0" fill="#E82662" transform="matrix(1.00, 0.00, -0.00, -1.00, 295.8, 338.0)">1</text><text xml:space="preserve" font-family="SourceCodePro-Semibold" font-weight="bold" font-size="21.0" fill="#E82662" transform="matrix(1.00, 0.00, -0.00, -1.00, 308.4, 338.0)">3</text><text xml:space="preserve" font-family="SourceCodePro-Semibold" font-weight="bold" font-size="21.0" fill="#E82662" transform="matrix(1.00, 0.00, -0.00, -1.00, 321.0, 338.0)">.</text><text xml:space="preserve" font-family="SourceCodePro-Semibold" font-weight="bold" font-size="21.0" fill="#E82662" transform="matrix(1.00, 0.00, -0.00, -1.00, 333.6, 338.0)">5</text><text xml:space="preserve" font-family="SourceCodePro-Semibold" font-weight="bold" font-size="21.0" fill="#E82662" transform="matrix(1.00, 0.00, -0.00, -1.00, 346.2, 338.0)">0</text><text xml:space="preserve" font-family="SourceCodePro-Regular" font-size="21.0" fill="#52575F" transform="matrix(1.00, 0.00, -0.00, -1.00, 358.8, 338.0)">,</text><text xml:space="preserve" font-family="SourceCodePro-Regular" font-size="21.0" fill="#52575F" transform="matrix(1.00, 0.00, -0.00, -1.00, 371.4, 338.0)"> </text><text xml:space="preserve" font-family="SourceCodePro-Regular" font-size="21.0" fill="#52575F" transform="matrix(1.00, 0.00, -0.00, -1.00, 384.0, 338.0)"> </text><text xml:space="preserve" font-family="SourceCodePro-Regular" font-size="21.0" fill="#52575F" transform="matrix(1.00, 0.00, -0.00, -1.00, 396.6, 338.0)"> </text><text xml:space="preserve" font-family="SourceCodePro-Regular" font-size="21.0" fill="#52575F" transform="matrix(1.00, 0.00, -0.00, -1.00, 409.2, 338.0)"> </text><text xml:space="preserve" font-family="SourceCodePro-Regular" font-size="21.0" fill="#52575F" transform="matrix(1.00, 0.00, -0.00, -1.00, 421.8, 338.0)"> </text><text xml:space="preserve" font-family="SourceCodePro-Semibold" font-weight="bold" font-size="21.0" fill="#E82662" transform="matrix(1.00, 0.00, -0.00, -1.00, 434.4, 338.0)"> </text><text xml:space="preserve" font-family="SourceCodePro-Semibold" font-weight="bold" font-size="21.0" fill="#E82662" transform="matrix(1.00, 0.00, -0.00, -1.00, 447.0, 338.0)"> </text><text xml:space="preserve" font-family="SourceCodePro-Semibold" font-weight="bold" font-size="21.0" fill="#E82662" transform="matrix(1.00, 0.00, -0.00, -1.00, 459.6, 338.0)"> </text><text xml:space="preserve" font-family="SourceCodePro-Semibold" font-weight="bold" font-size="21.0" fill="#E82662" transform="matrix(1.00, 0.00, -0.00, -1.00, 472.2, 338.0)"> </text><text xml:space="preserve" font-family="SourceCodePro-Semibold" font-weight="bold" font-size="21.0" fill="#E82662" transform="matrix(1.00, 0.00, -0.00, -1.00, 484.8, 338.0)"> </text><text xml:space="preserve" font-family="SourceCodePro-Semibold" font-weight="bold" font-size="21.0" fill="#E82662" transform="matrix(1.00, 0.00, -0.00, -1.00, 497.4, 338.0)"> </text><text xml:space="preserve" font-family="SourceCodePro-Semibold" font-weight="bold" font-size="21.0" fill="#E82662" transform="matrix(1.00, 0.00, -0.00, -1.00, 510.0, 338.0)"> </text><text xml:space="preserve" font-family="SourceCodePro-Semibold" font-weight="bold" font-size="21.0" fill="#E82662" transform="matrix(1.00, 0.00, -0.00, -1.00, 522.6, 338.0)"> </text><text xml:space="preserve" font-family="SourceCodePro-Semibold" font-weight="bold" font-size="21.0" fill="#E82662" transform="matrix(1.00, 0.00, -0.00, -1.00, 535.2, 338.0)"> </text><text xml:space="preserve" font-family="SourceCodePro-Semibold" font-weight="bold" font-size="21.0" fill="#E82662" transform="matrix(1.00, 0.00, -0.00, -1.00, 547.8, 338.0)"> </text><text xml:space="preserve" font-family="SourceCodePro-Semibold" font-weight="bold" font-size="21.0" fill="#E82662" transform="matrix(1.00, 0.00, -0.00, -1.00, 560.4, 338.0)"> </text><text xml:space="preserve" font-family="SourceCodePro-Semibold" font-weight="bold" font-size="21.0" fill="#E82662" transform="matrix(1.00, 0.00, -0.00, -1.00, 573.0, 338.0)"> </text><text xml:space="preserve" font-family="SourceCodePro-Semibold" font-weight="bold" font-size="21.0" fill="#E82662" transform="matrix(1.00, 0.00, -0.00, -1.00, 585.6, 338.0)"> </text><text xml:space="preserve" font-family="SourceCodePro-Semibold" font-weight="bold" font-size="21.0" fill="#E82662" transform="matrix(1.00, 0.00, -0.00, -1.00, 598.2, 338.0)"> </text><text xml:space="preserve" font-family="SourceCodePro-Semibold" font-weight="bold" font-size="21.0" fill="#E82662" transform="matrix(1.00, 0.00, -0.00, -1.00, 610.8, 338.0)"> </text><text xml:space="preserve" font-family="SourceCodePro-Semibold" font-weight="bold" font-size="21.0" fill="#E82662" transform="matrix(1.00, 0.00, -0.00, -1.00, 623.4, 338.0)"> </text><text xml:space="preserve" font-family="SourceCodePro-Semibold" font-weight="bold" font-size="21.0" fill="#E82662" transform="matrix(1.00, 0.00, -0.00, -1.00, 636.0, 338.0)"> </text><text xml:space="preserve" font-family="SourceCodePro-Semibold" font-weight="bold" font-size="21.0" fill="#E82662" transform="matrix(1.00, 0.00, -0.00, -1.00, 648.6, 338.0)"> </text><text xml:space="preserve" font-family="SourceCodePro-Semibold" font-weight="bold" font-size="21.0" fill="#E82662" transform="matrix(1.00, 0.00, -0.00, -1.00, 661.2, 338.0)"> </text><text xml:space="preserve" font-family="SourceCodePro-Semibold" font-weight="bold" font-size="21.0" fill="#E82662" transform="matrix(1.00, 0.00, -0.00, -1.00, 673.8, 338.0)"> </text><text xml:space="preserve" font-family="SourceCodePro-Semibold" font-weight="bold" font-size="21.0" fill="#E82662" transform="matrix(1.00, 0.00, -0.00, -1.00, 686.4, 338.0)"> </text><text xml:space="preserve" font-family="SourceCodePro-Semibold" font-weight="bold" font-size="21.0" fill="#E82662" transform="matrix(1.00, 0.00, -0.00, -1.00, 699.0, 338.0)"> </text><text xml:space="preserve" font-family="SourceCodePro-Semibold" font-weight="bold" font-size="21.0" fill="#E82662" transform="matrix(1.00, 0.00, -0.00, -1.00, 711.6, 338.0)"> </text><text xml:space="preserve" font-family="SourceCodePro-Semibold" font-weight="bold" font-size="21.0" fill="#E82662" transform="matrix(1.00, 0.00, -0.00, -1.00, 724.2, 338.0)"> </text><text xml:space="preserve" font-family="SourceCodePro-Semibold" font-weight="bold" font-size="21.0" fill="#E82662" transform="matrix(1.00, 0.00, -0.00, -1.00, 736.8, 338.0)"> </text><text xml:space="preserve" font-family="SourceCodePro-Semibold" font-weight="bold" font-size="21.0" fill="#E82662" transform="matrix(1.00, 0.00, -0.00, -1.00, 749.4, 338.0)"> </text><text xml:space="preserve" font-family="SourceCodePro-Semibold" font-weight="bold" font-size="21.0" fill="#E82662" transform="matrix(1.00, 0.00, -0.00, -1.00, 762.0, 338.0)"> </text><text xml:space="preserve" font-family="SourceCodePro-Semibold" font-weight="bold" font-size="21.0" fill="#E82662" transform="matrix(1.00, 0.00, -0.00, -1.00, 774.6, 338.0)"> </text><text xml:space="preserve" font-family="SourceCodePro-Semibold" font-weight="bold" font-size="21.0" fill="#E82662" transform="matrix(1.00, 0.00, -0.00, -1.00, 787.2, 338.0)"> </text><text xml:space="preserve" font-family="SourceCodePro-Semibold" font-weight="bold" font-size="21.0" fill="#E82662" transform="matrix(1.00, 0.00, -0.00, -1.00, 799.8, 338.0)"> </text><text xml:space="preserve" font-family="SourceCodePro-Semibold" font-weight="bold" font-size="21.0" fill="#E82662" transform="matrix(1.00, 0.00, -0.00, -1.00, 812.4, 338.0)"> </text><text xml:space="preserve" font-family="SourceCodePro-Semibold" font-weight="bold" font-size="21.0" fill="#E82662" transform="matrix(1.00, 0.00, -0.00, -1.00, 825.0, 338.0)"> </text><text xml:space="preserve" font-family="SourceCodePro-Semibold" font-weight="bold" font-size="21.0" fill="#E82662" transform="matrix(1.00, 0.00, -0.00, -1.00, 837.6, 338.0)"> </text><text xml:space="preserve" font-family="SourceCodePro-Semibold" font-weight="bold" font-size="21.0" fill="#E82662" transform="matrix(1.00, 0.00, -0.00, -1.00, 850.2, 338.0)"> </text><text xml:space="preserve" font-family="SourceCodePro-Semibold" font-weight="bold" font-size="21.0" fill="#E82662" transform="matrix(1.00, 0.00, -0.00, -1.00, 862.8, 338.0)"> </text><text xml:space="preserve" font-family="SourceCodePro-Semibold" font-weight="bold" font-size="21.0" fill="#E82662" transform="matrix(1.00, 0.00, -0.00, -1.00, 875.4, 338.0)"> </text><text xml:space="preserve" font-family="SourceCodePro-Semibold" font-weight="bold" font-size="21.0" fill="#E82662" transform="matrix(1.00, 0.00, -0.00, -1.00, 888.0, 338.0)"> </text><text xml:space="preserve" font-family="SourceCodePro-Semibold" font-weight="bold" font-size="21.0" fill="#E82662" transform="matrix(1.00, 0.00, -0.00, -1.00, 900.6, 338.0)"> </text><text xml:space="preserve" font-family="SourceCodePro-Semibold" font-weight="bold" font-size="21.0" fill="#E82662" transform="matrix(1.00, 0.00, -0.00, -1.00, 913.2, 338.0)"> </text><text xml:space="preserve" font-family="SourceCodePro-Semibold" font-weight="bold" font-size="21.0" fill="#E82662" transform="matrix(1.00, 0.00, -0.00, -1.00, 925.8, 338.0)"> </text><text xml:space="preserve" font-family="SourceCodePro-Semibold" font-weight="bold" font-size="21.0" fill="#E82662" transform="matrix(1.00, 0.00, -0.00, -1.00, 938.4, 338.0)">1</text><text xml:space="preserve" font-family="SourceCodePro-Semibold" font-weight="bold" font-size="21.0" fill="#E82662" transform="matrix(1.00, 0.00, -0.00, -1.00, 951.0, 338.0)">2</text><text xml:space="preserve" font-family="SourceCodePro-Semibold" font-weight="bold" font-size="21.0" fill="#E82662" transform="matrix(1.00, 0.00, -0.00, -1.00, 963.6, 338.0)">.</text><text xml:space="preserve" font-family="SourceCodePro-Semibold" font-weight="bold" font-size="21.0" fill="#E82662" transform="matrix(1.00, 0.00, -0.00, -1.00, 976.2, 338.0)">0</text><g opacity="0.41"><g><clipPath id="clip-514"><path d="M 0.0 281.0 L 133.0 281.0 L 133.0 319.0 L 0.0 319.0 Z M 0.0 281.0 "></path></clipPath><g clip-path="url(#clip-514)"><path d="M -242.7 317.2 L 131.0 317.2 L 131.0 282.2 L -242.7 282.2 Z M -242.7 317.2 " fill="#00B0FF"></path></g></g></g><g opacity="0.41"><g><clipPath id="clip-515"><path d="M 133.0 235.0 L 510.0 235.0 L 510.0 273.0 L 133.0 273.0 Z M 133.0 235.0 "></path></clipPath><g clip-path="url(#clip-515)"><path d="M 134.4 271.5 L 508.1 271.5 L 508.1 236.5 L 134.4 236.5 Z M 134.4 271.5 " fill="#00B0FF"></path></g></g></g><g opacity="0.41"><g><clipPath id="clip-516"><path d="M 511.0 189.0 L 888.0 189.0 L 888.0 227.0 L 511.0 227.0 Z M 511.0 189.0 "></path></clipPath><g clip-path="url(#clip-516)"><path d="M 512.6 225.8 L 886.3 225.8 L 886.3 190.8 L 512.6 190.8 Z M 512.6 225.8 " fill="#00B0FF"></path></g></g></g><g opacity="0.41"><g><clipPath id="clip-517"><path d="M 891.0 144.0 L 1024.0 144.0 L 1024.0 182.0 L 891.0 182.0 Z M 891.0 144.0 "></path></clipPath><g clip-path="url(#clip-517)"><path d="M 893.0 180.0 L 1266.7 180.0 L 1266.7 145.0 L 893.0 145.0 Z M 893.0 180.0 " fill="#00B0FF"></path></g></g></g><path d="M 0.0 0.0 L 337.2 0.0 " fill="none" stroke="#A6AAA8" stroke-width="3.00" stroke-dasharray="3.0, 3.0" transform="matrix(0.00, 1.00, 1.00, 0.00, 131.8, 105.8)"></path><path d="M 0.0 0.0 L 337.2 0.0 " fill="none" stroke="#A6AAA8" stroke-width="3.00" stroke-dasharray="3.0, 3.0" transform="matrix(0.00, 1.00, 1.00, 0.00, 509.7, 106.1)"></path><path d="M 0.0 0.0 L 337.2 0.0 " fill="none" stroke="#A6AAA8" stroke-width="3.00" stroke-dasharray="3.0, 3.0" transform="matrix(0.00, 1.00, 1.00, 0.00, 889.9, 106.1)"></path></g></svg>