<?xml version="1.0" encoding="UTF-8" standalone="no"?><svg xmlns="http://www.w3.org/2000/svg" xmlns:xlink="http://www.w3.org/1999/xlink" clip-rule="evenodd" stroke-miterlimit="4.00" viewBox="0 0 163 29"><desc>SVG generated by Keynote</desc><defs></defs><g transform="matrix(1.00, 0.00, -0.00, -1.00, 0.0, 29.0)"><text xml:space="preserve" font-family="SourceCodePro-Regular" font-size="30.0" fill="#414141" transform="matrix(1.00, 0.00, -0.00, -1.00, 0.0, 8.0)">o</text><text xml:space="preserve" font-family="SourceCodePro-Regular" font-size="30.0" fill="#414141" transform="matrix(1.00, 0.00, -0.00, -1.00, 18.0, 8.0)">p</text><text xml:space="preserve" font-family="SourceCodePro-Regular" font-size="30.0" fill="#414141" transform="matrix(1.00, 0.00, -0.00, -1.00, 36.0, 8.0)">e</text><text xml:space="preserve" font-family="SourceCodePro-Regular" font-size="30.0" fill="#414141" transform="matrix(1.00, 0.00, -0.00, -1.00, 54.0, 8.0)">r</text><text xml:space="preserve" font-family="SourceCodePro-Regular" font-size="30.0" fill="#414141" transform="matrix(1.00, 0.00, -0.00, -1.00, 72.0, 8.0)">a</text><text xml:space="preserve" font-family="SourceCodePro-Regular" font-size="30.0" fill="#414141" transform="matrix(1.00, 0.00, -0.00, -1.00, 90.0, 8.0)">t</text><text xml:space="preserve" font-family="SourceCodePro-Regular" font-size="30.0" fill="#414141" transform="matrix(1.00, 0.00, -0.00, -1.00, 108.0, 8.0)">o</text><text xml:space="preserve" font-family="SourceCodePro-Regular" font-size="30.0" fill="#414141" transform="matrix(1.00, 0.00, -0.00, -1.00, 126.0, 8.0)">r</text><text xml:space="preserve" font-family="SourceCodePro-Regular" font-size="30.0" fill="#414141" transform="matrix(1.00, 0.00, -0.00, -1.00, 144.0, 8.0)">s</text></g></svg>