<?xml version="1.0" encoding="UTF-8" standalone="no"?><svg xmlns="http://www.w3.org/2000/svg" xmlns:xlink="http://www.w3.org/1999/xlink" clip-rule="evenodd" stroke-miterlimit="4.00" viewBox="0 0 695 84"><desc>SVG generated by Keynote</desc><defs></defs><g transform="matrix(1.00, 0.00, -0.00, -1.00, 0.0, 84.0)"><text xml:space="preserve" font-family="Lora-Bold" font-weight="bold" font-size="77.6" fill="#212121" transform="matrix(1.00, 0.00, -0.00, -1.00, 1.0, 22.0)">A</text><text xml:space="preserve" font-family="Lora-Bold" font-weight="bold" font-size="77.6" fill="#212121" transform="matrix(1.00, 0.00, -0.00, -1.00, 52.5, 22.0)">n</text><text xml:space="preserve" font-family="Lora-Bold" font-weight="bold" font-size="77.6" fill="#212121" transform="matrix(1.00, 0.00, -0.00, -1.00, 101.8, 22.0)">a</text><text xml:space="preserve" font-family="Lora-Bold" font-weight="bold" font-size="77.6" fill="#212121" transform="matrix(1.00, 0.00, -0.00, -1.00, 142.3, 22.0)">t</text><text xml:space="preserve" font-family="Lora-Bold" font-weight="bold" font-size="77.6" fill="#212121" transform="matrix(1.00, 0.00, -0.00, -1.00, 174.3, 22.0)">o</text><text xml:space="preserve" font-family="Lora-Bold" font-weight="bold" font-size="77.6" fill="#212121" transform="matrix(1.00, 0.00, -0.00, -1.00, 218.2, 22.0)">m</text><text xml:space="preserve" font-family="Lora-Bold" font-weight="bold" font-size="77.6" fill="#212121" transform="matrix(1.00, 0.00, -0.00, -1.00, 288.4, 22.0)">y</text><text xml:space="preserve" font-family="Lora-Bold" font-weight="bold" font-size="77.6" fill="#212121" transform="matrix(1.00, 0.00, -0.00, -1.00, 331.2, 22.0)"> </text><text xml:space="preserve" font-family="Lora-Bold" font-weight="bold" font-size="77.6" fill="#212121" transform="matrix(1.00, 0.00, -0.00, -1.00, 351.6, 22.0)">o</text><text xml:space="preserve" font-family="Lora-Bold" font-weight="bold" font-size="77.6" fill="#212121" transform="matrix(1.00, 0.00, -0.00, -1.00, 395.2, 22.0)">f</text><text xml:space="preserve" font-family="Lora-Bold" font-weight="bold" font-size="77.6" fill="#212121" transform="matrix(1.00, 0.00, -0.00, -1.00, 423.8, 22.0)"> </text><text xml:space="preserve" font-family="Lora-Bold" font-weight="bold" font-size="77.6" fill="#212121" transform="matrix(1.00, 0.00, -0.00, -1.00, 444.2, 22.0)">a</text><text xml:space="preserve" font-family="Lora-Bold" font-weight="bold" font-size="77.6" fill="#212121" transform="matrix(1.00, 0.00, -0.00, -1.00, 485.0, 22.0)"> </text><text xml:space="preserve" font-family="Lora-Bold" font-weight="bold" font-size="77.6" fill="#212121" transform="matrix(1.00, 0.00, -0.00, -1.00, 505.4, 22.0)">F</text><text xml:space="preserve" font-family="Lora-Bold" font-weight="bold" font-size="77.6" fill="#212121" transform="matrix(1.00, 0.00, -0.00, -1.00, 550.1, 22.0)">l</text><text xml:space="preserve" font-family="Lora-Bold" font-weight="bold" font-size="77.6" fill="#212121" transform="matrix(1.00, 0.00, -0.00, -1.00, 574.3, 22.0)">i</text><text xml:space="preserve" font-family="Lora-Bold" font-weight="bold" font-size="77.6" fill="#212121" transform="matrix(1.00, 0.00, -0.00, -1.00, 599.7, 22.0)">n</text><text xml:space="preserve" font-family="Lora-Bold" font-weight="bold" font-size="77.6" fill="#212121" transform="matrix(1.00, 0.00, -0.00, -1.00, 649.0, 22.0)">k</text></g></svg>