<?xml version="1.0" encoding="UTF-8" standalone="no"?><svg xmlns="http://www.w3.org/2000/svg" xmlns:xlink="http://www.w3.org/1999/xlink" clip-rule="evenodd" stroke-miterlimit="4.00" viewBox="0 0 721 40"><desc>SVG generated by Keynote</desc><defs></defs><g transform="matrix(1.00, 0.00, -0.00, -1.00, 0.0, 40.0)"><text xml:space="preserve" font-family="SourceCodePro-Regular" font-size="27.0" fill="#616060" transform="matrix(1.00, 0.00, -0.00, -1.00, 0.7, 13.2)">•</text><text xml:space="preserve" font-family="SourceCodePro-Regular" font-size="36.0" fill="#616060" transform="matrix(1.00, 0.00, -0.00, -1.00, 36.0, 10.0)">O</text><text xml:space="preserve" font-family="SourceCodePro-Regular" font-size="36.0" fill="#616060" transform="matrix(1.00, 0.00, -0.00, -1.00, 57.6, 10.0)">b</text><text xml:space="preserve" font-family="SourceCodePro-Regular" font-size="36.0" fill="#616060" transform="matrix(1.00, 0.00, -0.00, -1.00, 79.2, 10.0)">t</text><text xml:space="preserve" font-family="SourceCodePro-Regular" font-size="36.0" fill="#616060" transform="matrix(1.00, 0.00, -0.00, -1.00, 100.8, 10.0)">a</text><text xml:space="preserve" font-family="SourceCodePro-Regular" font-size="36.0" fill="#616060" transform="matrix(1.00, 0.00, -0.00, -1.00, 122.4, 10.0)">i</text><text xml:space="preserve" font-family="SourceCodePro-Regular" font-size="36.0" fill="#616060" transform="matrix(1.00, 0.00, -0.00, -1.00, 144.0, 10.0)">n</text><text xml:space="preserve" font-family="SourceCodePro-Regular" font-size="36.0" fill="#616060" transform="matrix(1.00, 0.00, -0.00, -1.00, 165.6, 10.0)"> </text><text xml:space="preserve" font-family="SourceCodePro-Regular" font-size="36.0" fill="#616060" transform="matrix(1.00, 0.00, -0.00, -1.00, 187.2, 10.0)">a</text><text xml:space="preserve" font-family="SourceCodePro-Regular" font-size="36.0" fill="#616060" transform="matrix(1.00, 0.00, -0.00, -1.00, 208.8, 10.0)">n</text><text xml:space="preserve" font-family="SourceCodePro-Regular" font-size="36.0" fill="#616060" transform="matrix(1.00, 0.00, -0.00, -1.00, 230.4, 10.0)"> </text><text xml:space="preserve" font-family="SourceCodePro-Semibold" font-weight="bold" font-size="36.0" fill="#E82662" transform="matrix(1.00, 0.00, -0.00, -1.00, 252.0, 10.0)">e</text><text xml:space="preserve" font-family="SourceCodePro-Semibold" font-weight="bold" font-size="36.0" fill="#E82662" transform="matrix(1.00, 0.00, -0.00, -1.00, 273.6, 10.0)">x</text><text xml:space="preserve" font-family="SourceCodePro-Semibold" font-weight="bold" font-size="36.0" fill="#E82662" transform="matrix(1.00, 0.00, -0.00, -1.00, 295.2, 10.0)">e</text><text xml:space="preserve" font-family="SourceCodePro-Semibold" font-weight="bold" font-size="36.0" fill="#E82662" transform="matrix(1.00, 0.00, -0.00, -1.00, 316.8, 10.0)">c</text><text xml:space="preserve" font-family="SourceCodePro-Semibold" font-weight="bold" font-size="36.0" fill="#E82662" transform="matrix(1.00, 0.00, -0.00, -1.00, 338.4, 10.0)">u</text><text xml:space="preserve" font-family="SourceCodePro-Semibold" font-weight="bold" font-size="36.0" fill="#E82662" transform="matrix(1.00, 0.00, -0.00, -1.00, 360.0, 10.0)">t</text><text xml:space="preserve" font-family="SourceCodePro-Semibold" font-weight="bold" font-size="36.0" fill="#E82662" transform="matrix(1.00, 0.00, -0.00, -1.00, 381.6, 10.0)">i</text><text xml:space="preserve" font-family="SourceCodePro-Semibold" font-weight="bold" font-size="36.0" fill="#E82662" transform="matrix(1.00, 0.00, -0.00, -1.00, 403.2, 10.0)">o</text><text xml:space="preserve" font-family="SourceCodePro-Semibold" font-weight="bold" font-size="36.0" fill="#E82662" transform="matrix(1.00, 0.00, -0.00, -1.00, 424.8, 10.0)">n</text><text xml:space="preserve" font-family="SourceCodePro-Semibold" font-weight="bold" font-size="36.0" fill="#E82662" transform="matrix(1.00, 0.00, -0.00, -1.00, 446.4, 10.0)"> </text><text xml:space="preserve" font-family="SourceCodePro-Semibold" font-weight="bold" font-size="36.0" fill="#E82662" transform="matrix(1.00, 0.00, -0.00, -1.00, 468.0, 10.0)">e</text><text xml:space="preserve" font-family="SourceCodePro-Semibold" font-weight="bold" font-size="36.0" fill="#E82662" transform="matrix(1.00, 0.00, -0.00, -1.00, 489.6, 10.0)">n</text><text xml:space="preserve" font-family="SourceCodePro-Semibold" font-weight="bold" font-size="36.0" fill="#E82662" transform="matrix(1.00, 0.00, -0.00, -1.00, 511.2, 10.0)">v</text><text xml:space="preserve" font-family="SourceCodePro-Semibold" font-weight="bold" font-size="36.0" fill="#E82662" transform="matrix(1.00, 0.00, -0.00, -1.00, 532.8, 10.0)">i</text><text xml:space="preserve" font-family="SourceCodePro-Semibold" font-weight="bold" font-size="36.0" fill="#E82662" transform="matrix(1.00, 0.00, -0.00, -1.00, 554.4, 10.0)">r</text><text xml:space="preserve" font-family="SourceCodePro-Semibold" font-weight="bold" font-size="36.0" fill="#E82662" transform="matrix(1.00, 0.00, -0.00, -1.00, 576.0, 10.0)">o</text><text xml:space="preserve" font-family="SourceCodePro-Semibold" font-weight="bold" font-size="36.0" fill="#E82662" transform="matrix(1.00, 0.00, -0.00, -1.00, 597.6, 10.0)">n</text><text xml:space="preserve" font-family="SourceCodePro-Semibold" font-weight="bold" font-size="36.0" fill="#E82662" transform="matrix(1.00, 0.00, -0.00, -1.00, 619.2, 10.0)">m</text><text xml:space="preserve" font-family="SourceCodePro-Semibold" font-weight="bold" font-size="36.0" fill="#E82662" transform="matrix(1.00, 0.00, -0.00, -1.00, 640.8, 10.0)">e</text><text xml:space="preserve" font-family="SourceCodePro-Semibold" font-weight="bold" font-size="36.0" fill="#E82662" transform="matrix(1.00, 0.00, -0.00, -1.00, 662.4, 10.0)">n</text><text xml:space="preserve" font-family="SourceCodePro-Semibold" font-weight="bold" font-size="36.0" fill="#E82662" transform="matrix(1.00, 0.00, -0.00, -1.00, 684.0, 10.0)">t</text><text xml:space="preserve" font-family="SourceCodePro-Regular" font-size="36.0" fill="#616060" transform="matrix(1.00, 0.00, -0.00, -1.00, 705.6, 10.0)">;</text></g></svg>