<?xml version="1.0" encoding="UTF-8" standalone="no"?><svg xmlns="http://www.w3.org/2000/svg" xmlns:xlink="http://www.w3.org/1999/xlink" clip-rule="evenodd" stroke-miterlimit="4.00" viewBox="0 0 254 31"><desc>SVG generated by Keynote</desc><defs></defs><g transform="matrix(1.00, 0.00, -0.00, -1.00, 0.0, 31.0)"><text xml:space="preserve" font-family="SourceCodePro-Regular" font-size="30.0" fill="#0091E9" transform="matrix(1.00, 0.00, -0.00, -1.00, 1.0, 8.0)">T</text><text xml:space="preserve" font-family="SourceCodePro-Regular" font-size="30.0" fill="#0091E9" transform="matrix(1.00, 0.00, -0.00, -1.00, 19.0, 8.0)">S</text><text xml:space="preserve" font-family="SourceCodePro-Regular" font-size="30.0" fill="#0091E9" transform="matrix(1.00, 0.00, -0.00, -1.00, 37.0, 8.0)"> </text><text xml:space="preserve" font-family="SourceCodePro-Regular" font-size="30.0" fill="#0091E9" transform="matrix(1.00, 0.00, -0.00, -1.00, 55.0, 8.0)">=</text><text xml:space="preserve" font-family="SourceCodePro-Regular" font-size="30.0" fill="#0091E9" transform="matrix(1.00, 0.00, -0.00, -1.00, 73.0, 8.0)"> </text><text xml:space="preserve" font-family="SourceCodePro-Regular" font-size="30.0" fill="#0091E9" transform="matrix(1.00, 0.00, -0.00, -1.00, 91.0, 8.0)">d</text><text xml:space="preserve" font-family="SourceCodePro-Regular" font-size="30.0" fill="#0091E9" transform="matrix(1.00, 0.00, -0.00, -1.00, 109.0, 8.0)">r</text><text xml:space="preserve" font-family="SourceCodePro-Regular" font-size="30.0" fill="#0091E9" transform="matrix(1.00, 0.00, -0.00, -1.00, 127.0, 8.0)">o</text><text xml:space="preserve" font-family="SourceCodePro-Regular" font-size="30.0" fill="#0091E9" transform="matrix(1.00, 0.00, -0.00, -1.00, 145.0, 8.0)">p</text><text xml:space="preserve" font-family="SourceCodePro-Regular" font-size="30.0" fill="#0091E9" transform="matrix(1.00, 0.00, -0.00, -1.00, 163.0, 8.0)">o</text><text xml:space="preserve" font-family="SourceCodePro-Regular" font-size="30.0" fill="#0091E9" transform="matrix(1.00, 0.00, -0.00, -1.00, 181.0, 8.0)">f</text><text xml:space="preserve" font-family="SourceCodePro-Regular" font-size="30.0" fill="#0091E9" transform="matrix(1.00, 0.00, -0.00, -1.00, 199.0, 8.0)">f</text><text xml:space="preserve" font-family="SourceCodePro-Regular" font-size="30.0" fill="#0091E9" transform="matrix(1.00, 0.00, -0.00, -1.00, 217.0, 8.0)">T</text><text xml:space="preserve" font-family="SourceCodePro-Regular" font-size="30.0" fill="#0091E9" transform="matrix(1.00, 0.00, -0.00, -1.00, 235.0, 8.0)">S</text></g></svg>