<?xml version="1.0" encoding="UTF-8" standalone="no"?><svg xmlns="http://www.w3.org/2000/svg" xmlns:xlink="http://www.w3.org/1999/xlink" clip-rule="evenodd" stroke-miterlimit="4.00" viewBox="0 0 143 103"><desc>SVG generated by Keynote</desc><defs></defs><g transform="matrix(1.00, 0.00, -0.00, -1.00, 0.0, 103.0)"><path d="M 24.2 101.7 L 118.8 101.7 C 125.4 101.7 128.7 101.7 132.3 100.6 C 136.2 99.1 139.2 96.1 140.6 92.2 C 141.8 88.7 141.8 85.3 141.8 78.7 L 141.8 24.6 C 141.8 18.0 141.8 14.7 140.6 11.2 C 139.2 7.3 136.2 4.2 132.3 2.8 C 128.7 1.7 125.4 1.7 118.7 1.7 L 24.2 1.7 C 17.6 1.7 14.3 1.7 10.7 2.8 C 6.9 4.2 3.8 7.3 2.4 11.2 C 1.3 14.7 1.3 18.0 1.3 24.7 L 1.3 78.8 C 1.3 85.3 1.3 88.7 2.4 92.2 C 3.8 96.1 6.9 99.1 10.7 100.6 C 14.3 101.7 17.6 101.7 24.3 101.7 Z M 24.2 101.7 " fill="#00C752"></path></g></svg>