<?xml version="1.0" encoding="UTF-8" standalone="no"?><svg xmlns="http://www.w3.org/2000/svg" xmlns:xlink="http://www.w3.org/1999/xlink" clip-rule="evenodd" stroke-miterlimit="4.00" viewBox="0 0 268 125"><desc>SVG generated by Keynote</desc><defs></defs><g transform="matrix(1.00, 0.00, -0.00, -1.00, 0.0, 125.0)"><path d="M 45.1 123.7 L 223.7 123.7 C 236.1 123.7 242.4 123.7 249.0 121.6 C 256.4 118.9 262.1 113.2 264.8 105.9 C 266.9 99.2 266.9 92.9 266.9 80.3 L 266.9 45.0 C 266.9 32.6 266.9 26.3 264.8 19.6 C 262.1 12.3 256.4 6.5 249.0 3.8 C 242.4 1.7 236.1 1.7 223.5 1.7 L 45.1 1.7 C 32.7 1.7 26.4 1.7 19.8 3.8 C 12.4 6.5 6.7 12.3 4.0 19.6 C 1.9 26.3 1.9 32.6 1.9 45.2 L 1.9 80.5 C 1.9 92.9 1.9 99.2 4.0 105.9 C 6.7 113.2 12.4 118.9 19.8 121.6 C 26.4 123.7 32.7 123.7 45.3 123.7 Z M 45.1 123.7 " fill="#00C752"></path></g></svg>