<?xml version="1.0" encoding="UTF-8" standalone="no"?><svg xmlns="http://www.w3.org/2000/svg" xmlns:xlink="http://www.w3.org/1999/xlink" clip-rule="evenodd" stroke-miterlimit="4.00" viewBox="0 0 131 21"><desc>SVG generated by Keynote</desc><defs></defs><g transform="matrix(1.00, 0.00, -0.00, -1.00, 0.0, 21.0)"><text xml:space="preserve" font-family="SourceCodePro-Semibold" font-weight="bold" font-size="24.0" fill="#616060" transform="matrix(1.00, 0.00, -0.00, -1.00, 1.0, 2.0)">T</text><text xml:space="preserve" font-family="SourceCodePro-Semibold" font-weight="bold" font-size="24.0" fill="#616060" transform="matrix(1.00, 0.00, -0.00, -1.00, 15.4, 2.0)">a</text><text xml:space="preserve" font-family="SourceCodePro-Semibold" font-weight="bold" font-size="24.0" fill="#616060" transform="matrix(1.00, 0.00, -0.00, -1.00, 29.8, 2.0)">s</text><text xml:space="preserve" font-family="SourceCodePro-Semibold" font-weight="bold" font-size="24.0" fill="#616060" transform="matrix(1.00, 0.00, -0.00, -1.00, 44.2, 2.0)">k</text><text xml:space="preserve" font-family="SourceCodePro-Semibold" font-weight="bold" font-size="24.0" fill="#616060" transform="matrix(1.00, 0.00, -0.00, -1.00, 58.6, 2.0)"> </text><text xml:space="preserve" font-family="SourceCodePro-Semibold" font-weight="bold" font-size="24.0" fill="#616060" transform="matrix(1.00, 0.00, -0.00, -1.00, 73.0, 2.0)">S</text><text xml:space="preserve" font-family="SourceCodePro-Semibold" font-weight="bold" font-size="24.0" fill="#616060" transform="matrix(1.00, 0.00, -0.00, -1.00, 87.4, 2.0)">l</text><text xml:space="preserve" font-family="SourceCodePro-Semibold" font-weight="bold" font-size="24.0" fill="#616060" transform="matrix(1.00, 0.00, -0.00, -1.00, 101.8, 2.0)">o</text><text xml:space="preserve" font-family="SourceCodePro-Semibold" font-weight="bold" font-size="24.0" fill="#616060" transform="matrix(1.00, 0.00, -0.00, -1.00, 116.2, 2.0)">t</text></g></svg>