<?xml version="1.0" encoding="UTF-8" standalone="no"?><svg xmlns="http://www.w3.org/2000/svg" xmlns:xlink="http://www.w3.org/1999/xlink" clip-rule="evenodd" stroke-miterlimit="4.00" viewBox="0 0 682 86"><desc>SVG generated by Keynote</desc><defs></defs><g transform="matrix(1.00, 0.00, -0.00, -1.00, 0.0, 86.0)"><text xml:space="preserve" font-family="Lora-Bold" font-weight="bold" font-size="80.0" fill="#212121" transform="matrix(1.00, 0.00, -0.00, -1.00, 1.0, 24.0)">T</text><text xml:space="preserve" font-family="Lora-Bold" font-weight="bold" font-size="80.0" fill="#212121" transform="matrix(1.00, 0.00, -0.00, -1.00, 53.0, 24.0)">h</text><text xml:space="preserve" font-family="Lora-Bold" font-weight="bold" font-size="80.0" fill="#212121" transform="matrix(1.00, 0.00, -0.00, -1.00, 102.6, 24.0)">e</text><text xml:space="preserve" font-family="Lora-Bold" font-weight="bold" font-size="80.0" fill="#212121" transform="matrix(1.00, 0.00, -0.00, -1.00, 145.7, 24.0)"> </text><text xml:space="preserve" font-family="Lora-Bold" font-weight="bold" font-size="80.0" fill="#212121" transform="matrix(1.00, 0.00, -0.00, -1.00, 166.7, 24.0)">T</text><text xml:space="preserve" font-family="Lora-Bold" font-weight="bold" font-size="80.0" fill="#212121" transform="matrix(1.00, 0.00, -0.00, -1.00, 216.1, 24.0)">a</text><text xml:space="preserve" font-family="Lora-Bold" font-weight="bold" font-size="80.0" fill="#212121" transform="matrix(1.00, 0.00, -0.00, -1.00, 258.2, 24.0)">s</text><text xml:space="preserve" font-family="Lora-Bold" font-weight="bold" font-size="80.0" fill="#212121" transform="matrix(1.00, 0.00, -0.00, -1.00, 296.9, 24.0)">k</text><text xml:space="preserve" font-family="Lora-Bold" font-weight="bold" font-size="80.0" fill="#212121" transform="matrix(1.00, 0.00, -0.00, -1.00, 344.4, 24.0)">M</text><text xml:space="preserve" font-family="Lora-Bold" font-weight="bold" font-size="80.0" fill="#212121" transform="matrix(1.00, 0.00, -0.00, -1.00, 421.5, 24.0)">a</text><text xml:space="preserve" font-family="Lora-Bold" font-weight="bold" font-size="80.0" fill="#212121" transform="matrix(1.00, 0.00, -0.00, -1.00, 463.5, 24.0)">n</text><text xml:space="preserve" font-family="Lora-Bold" font-weight="bold" font-size="80.0" fill="#212121" transform="matrix(1.00, 0.00, -0.00, -1.00, 514.4, 24.0)">a</text><text xml:space="preserve" font-family="Lora-Bold" font-weight="bold" font-size="80.0" fill="#212121" transform="matrix(1.00, 0.00, -0.00, -1.00, 556.5, 24.0)">g</text><text xml:space="preserve" font-family="Lora-Bold" font-weight="bold" font-size="80.0" fill="#212121" transform="matrix(1.00, 0.00, -0.00, -1.00, 600.4, 24.0)">e</text><text xml:space="preserve" font-family="Lora-Bold" font-weight="bold" font-size="80.0" fill="#212121" transform="matrix(1.00, 0.00, -0.00, -1.00, 643.5, 24.0)">r</text></g></svg>