<?xml version="1.0" encoding="UTF-8" standalone="no"?><svg xmlns="http://www.w3.org/2000/svg" xmlns:xlink="http://www.w3.org/1999/xlink" clip-rule="evenodd" stroke-miterlimit="4.00" viewBox="0 0 1024 768"><desc>SVG generated by Keynote</desc><defs></defs><g transform="matrix(1.00, 0.00, -0.00, -1.00, 0.0, 768.0)"><path d="M 0.0 768.0 L 1024.0 768.0 L 1024.0 0.0 L 0.0 0.0 Z M 0.0 768.0 " fill="#FEFFFF"></path><text xml:space="preserve" font-family="SourceCodePro-Regular" font-size="12.0" fill="#747474" transform="matrix(1.00, 0.00, -0.00, -1.00, 19.0, 19.0)">L</text><text xml:space="preserve" font-family="SourceCodePro-Regular" font-size="12.0" fill="#747474" transform="matrix(1.00, 0.00, -0.00, -1.00, 26.2, 19.0)">o</text><text xml:space="preserve" font-family="SourceCodePro-Regular" font-size="12.0" fill="#747474" transform="matrix(1.00, 0.00, -0.00, -1.00, 33.4, 19.0)">r</text><text xml:space="preserve" font-family="SourceCodePro-Regular" font-size="12.0" fill="#747474" transform="matrix(1.00, 0.00, -0.00, -1.00, 40.6, 19.0)">e</text><text xml:space="preserve" font-family="SourceCodePro-Regular" font-size="12.0" fill="#747474" transform="matrix(1.00, 0.00, -0.00, -1.00, 47.8, 19.0)">n</text><text xml:space="preserve" font-family="SourceCodePro-Regular" font-size="12.0" fill="#747474" transform="matrix(1.00, 0.00, -0.00, -1.00, 55.0, 19.0)">z</text><text xml:space="preserve" font-family="SourceCodePro-Regular" font-size="12.0" fill="#747474" transform="matrix(1.00, 0.00, -0.00, -1.00, 62.2, 19.0)">o</text><text xml:space="preserve" font-family="SourceCodePro-Regular" font-size="12.0" fill="#747474" transform="matrix(1.00, 0.00, -0.00, -1.00, 69.4, 19.0)"> </text><text xml:space="preserve" font-family="SourceCodePro-Regular" font-size="12.0" fill="#747474" transform="matrix(1.00, 0.00, -0.00, -1.00, 76.6, 19.0)">A</text><text xml:space="preserve" font-family="SourceCodePro-Regular" font-size="12.0" fill="#747474" transform="matrix(1.00, 0.00, -0.00, -1.00, 83.8, 19.0)">f</text><text xml:space="preserve" font-family="SourceCodePro-Regular" font-size="12.0" fill="#747474" transform="matrix(1.00, 0.00, -0.00, -1.00, 91.0, 19.0)">f</text><text xml:space="preserve" font-family="SourceCodePro-Regular" font-size="12.0" fill="#747474" transform="matrix(1.00, 0.00, -0.00, -1.00, 98.2, 19.0)">e</text><text xml:space="preserve" font-family="SourceCodePro-Regular" font-size="12.0" fill="#747474" transform="matrix(1.00, 0.00, -0.00, -1.00, 105.4, 19.0)">t</text><text xml:space="preserve" font-family="SourceCodePro-Regular" font-size="12.0" fill="#747474" transform="matrix(1.00, 0.00, -0.00, -1.00, 112.6, 19.0)">t</text><text xml:space="preserve" font-family="SourceCodePro-Regular" font-size="12.0" fill="#747474" transform="matrix(1.00, 0.00, -0.00, -1.00, 119.8, 19.0)">i</text><text xml:space="preserve" font-family="SourceCodePro-Regular" font-size="12.0" fill="#747474" transform="matrix(1.00, 0.00, -0.00, -1.00, 127.0, 19.0)"> </text><text xml:space="preserve" font-family="SourceCodePro-Regular" font-size="12.0" fill="#747474" transform="matrix(1.00, 0.00, -0.00, -1.00, 134.2, 19.0)">(</text><text xml:space="preserve" font-family="SourceCodePro-Regular" font-size="12.0" fill="#747474" transform="matrix(1.00, 0.00, -0.00, -1.00, 141.4, 19.0)">l</text><text xml:space="preserve" font-family="SourceCodePro-Regular" font-size="12.0" fill="#747474" transform="matrix(1.00, 0.00, -0.00, -1.00, 148.6, 19.0)">o</text><text xml:space="preserve" font-family="SourceCodePro-Regular" font-size="12.0" fill="#747474" transform="matrix(1.00, 0.00, -0.00, -1.00, 155.8, 19.0)">r</text><text xml:space="preserve" font-family="SourceCodePro-Regular" font-size="12.0" fill="#747474" transform="matrix(1.00, 0.00, -0.00, -1.00, 163.0, 19.0)">e</text><text xml:space="preserve" font-family="SourceCodePro-Regular" font-size="12.0" fill="#747474" transform="matrix(1.00, 0.00, -0.00, -1.00, 170.2, 19.0)">n</text><text xml:space="preserve" font-family="SourceCodePro-Regular" font-size="12.0" fill="#747474" transform="matrix(1.00, 0.00, -0.00, -1.00, 177.4, 19.0)">z</text><text xml:space="preserve" font-family="SourceCodePro-Regular" font-size="12.0" fill="#747474" transform="matrix(1.00, 0.00, -0.00, -1.00, 184.6, 19.0)">o</text><text xml:space="preserve" font-family="SourceCodePro-Regular" font-size="12.0" fill="#747474" transform="matrix(1.00, 0.00, -0.00, -1.00, 191.8, 19.0)">.</text><text xml:space="preserve" font-family="SourceCodePro-Regular" font-size="12.0" fill="#747474" transform="matrix(1.00, 0.00, -0.00, -1.00, 199.0, 19.0)">a</text><text xml:space="preserve" font-family="SourceCodePro-Regular" font-size="12.0" fill="#747474" transform="matrix(1.00, 0.00, -0.00, -1.00, 206.2, 19.0)">f</text><text xml:space="preserve" font-family="SourceCodePro-Regular" font-size="12.0" fill="#747474" transform="matrix(1.00, 0.00, -0.00, -1.00, 213.4, 19.0)">f</text><text xml:space="preserve" font-family="SourceCodePro-Regular" font-size="12.0" fill="#747474" transform="matrix(1.00, 0.00, -0.00, -1.00, 220.6, 19.0)">e</text><text xml:space="preserve" font-family="SourceCodePro-Regular" font-size="12.0" fill="#747474" transform="matrix(1.00, 0.00, -0.00, -1.00, 227.8, 19.0)">t</text><text xml:space="preserve" font-family="SourceCodePro-Regular" font-size="12.0" fill="#747474" transform="matrix(1.00, 0.00, -0.00, -1.00, 235.0, 19.0)">t</text><text xml:space="preserve" font-family="SourceCodePro-Regular" font-size="12.0" fill="#747474" transform="matrix(1.00, 0.00, -0.00, -1.00, 242.2, 19.0)">i</text><text xml:space="preserve" font-family="SourceCodePro-Regular" font-size="12.0" fill="#747474" transform="matrix(1.00, 0.00, -0.00, -1.00, 249.4, 19.0)">@</text><text xml:space="preserve" font-family="SourceCodePro-Regular" font-size="12.0" fill="#747474" transform="matrix(1.00, 0.00, -0.00, -1.00, 256.6, 19.0)">p</text><text xml:space="preserve" font-family="SourceCodePro-Regular" font-size="12.0" fill="#747474" transform="matrix(1.00, 0.00, -0.00, -1.00, 263.8, 19.0)">o</text><text xml:space="preserve" font-family="SourceCodePro-Regular" font-size="12.0" fill="#747474" transform="matrix(1.00, 0.00, -0.00, -1.00, 271.0, 19.0)">l</text><text xml:space="preserve" font-family="SourceCodePro-Regular" font-size="12.0" fill="#747474" transform="matrix(1.00, 0.00, -0.00, -1.00, 278.2, 19.0)">i</text><text xml:space="preserve" font-family="SourceCodePro-Regular" font-size="12.0" fill="#747474" transform="matrix(1.00, 0.00, -0.00, -1.00, 285.4, 19.0)">m</text><text xml:space="preserve" font-family="SourceCodePro-Regular" font-size="12.0" fill="#747474" transform="matrix(1.00, 0.00, -0.00, -1.00, 292.6, 19.0)">i</text><text xml:space="preserve" font-family="SourceCodePro-Regular" font-size="12.0" fill="#747474" transform="matrix(1.00, 0.00, -0.00, -1.00, 299.8, 19.0)">.</text><text xml:space="preserve" font-family="SourceCodePro-Regular" font-size="12.0" fill="#747474" transform="matrix(1.00, 0.00, -0.00, -1.00, 307.0, 19.0)">i</text><text xml:space="preserve" font-family="SourceCodePro-Regular" font-size="12.0" fill="#747474" transform="matrix(1.00, 0.00, -0.00, -1.00, 314.2, 19.0)">t</text><text xml:space="preserve" font-family="SourceCodePro-Regular" font-size="12.0" fill="#747474" transform="matrix(1.00, 0.00, -0.00, -1.00, 321.4, 19.0)">)</text><text xml:space="preserve" font-family="SourceCodePro-Regular" font-size="12.0" fill="#747474" transform="matrix(1.00, 0.00, -0.00, -1.00, 328.6, 19.0)"> </text><text xml:space="preserve" font-family="SourceCodePro-Regular" font-size="12.0" fill="#747474" transform="matrix(1.00, 0.00, -0.00, -1.00, 335.8, 19.0)">-</text><text xml:space="preserve" font-family="SourceCodePro-Regular" font-size="12.0" fill="#747474" transform="matrix(1.00, 0.00, -0.00, -1.00, 343.0, 19.0)"> </text><text xml:space="preserve" font-family="SourceCodePro-Regular" font-size="12.0" fill="#747474" transform="matrix(1.00, 0.00, -0.00, -1.00, 350.2, 19.0)">P</text><text xml:space="preserve" font-family="SourceCodePro-Regular" font-size="12.0" fill="#747474" transform="matrix(1.00, 0.00, -0.00, -1.00, 357.4, 19.0)">o</text><text xml:space="preserve" font-family="SourceCodePro-Regular" font-size="12.0" fill="#747474" transform="matrix(1.00, 0.00, -0.00, -1.00, 364.6, 19.0)">l</text><text xml:space="preserve" font-family="SourceCodePro-Regular" font-size="12.0" fill="#747474" transform="matrix(1.00, 0.00, -0.00, -1.00, 371.8, 19.0)">i</text><text xml:space="preserve" font-family="SourceCodePro-Regular" font-size="12.0" fill="#747474" transform="matrix(1.00, 0.00, -0.00, -1.00, 379.0, 19.0)">t</text><text xml:space="preserve" font-family="SourceCodePro-Regular" font-size="12.0" fill="#747474" transform="matrix(1.00, 0.00, -0.00, -1.00, 386.2, 19.0)">e</text><text xml:space="preserve" font-family="SourceCodePro-Regular" font-size="12.0" fill="#747474" transform="matrix(1.00, 0.00, -0.00, -1.00, 393.4, 19.0)">c</text><text xml:space="preserve" font-family="SourceCodePro-Regular" font-size="12.0" fill="#747474" transform="matrix(1.00, 0.00, -0.00, -1.00, 400.6, 19.0)">n</text><text xml:space="preserve" font-family="SourceCodePro-Regular" font-size="12.0" fill="#747474" transform="matrix(1.00, 0.00, -0.00, -1.00, 407.8, 19.0)">i</text><text xml:space="preserve" font-family="SourceCodePro-Regular" font-size="12.0" fill="#747474" transform="matrix(1.00, 0.00, -0.00, -1.00, 415.0, 19.0)">c</text><text xml:space="preserve" font-family="SourceCodePro-Regular" font-size="12.0" fill="#747474" transform="matrix(1.00, 0.00, -0.00, -1.00, 422.2, 19.0)">o</text><text xml:space="preserve" font-family="SourceCodePro-Regular" font-size="12.0" fill="#747474" transform="matrix(1.00, 0.00, -0.00, -1.00, 429.4, 19.0)"> </text><text xml:space="preserve" font-family="SourceCodePro-Regular" font-size="12.0" fill="#747474" transform="matrix(1.00, 0.00, -0.00, -1.00, 436.6, 19.0)">d</text><text xml:space="preserve" font-family="SourceCodePro-Regular" font-size="12.0" fill="#747474" transform="matrix(1.00, 0.00, -0.00, -1.00, 443.8, 19.0)">i</text><text xml:space="preserve" font-family="SourceCodePro-Regular" font-size="12.0" fill="#747474" transform="matrix(1.00, 0.00, -0.00, -1.00, 451.0, 19.0)"> </text><text xml:space="preserve" font-family="SourceCodePro-Regular" font-size="12.0" fill="#747474" transform="matrix(1.00, 0.00, -0.00, -1.00, 458.2, 19.0)">M</text><text xml:space="preserve" font-family="SourceCodePro-Regular" font-size="12.0" fill="#747474" transform="matrix(1.00, 0.00, -0.00, -1.00, 465.4, 19.0)">i</text><text xml:space="preserve" font-family="SourceCodePro-Regular" font-size="12.0" fill="#747474" transform="matrix(1.00, 0.00, -0.00, -1.00, 472.6, 19.0)">l</text><text xml:space="preserve" font-family="SourceCodePro-Regular" font-size="12.0" fill="#747474" transform="matrix(1.00, 0.00, -0.00, -1.00, 479.8, 19.0)">a</text><text xml:space="preserve" font-family="SourceCodePro-Regular" font-size="12.0" fill="#747474" transform="matrix(1.00, 0.00, -0.00, -1.00, 487.0, 19.0)">n</text><text xml:space="preserve" font-family="SourceCodePro-Regular" font-size="12.0" fill="#747474" transform="matrix(1.00, 0.00, -0.00, -1.00, 494.2, 19.0)">o</text><text xml:space="preserve" font-family="SourceCodePro-Regular" font-size="12.0" fill="#747474" transform="matrix(1.00, 0.00, -0.00, -1.00, 501.4, 19.0)">,</text><text xml:space="preserve" font-family="SourceCodePro-Regular" font-size="12.0" fill="#747474" transform="matrix(1.00, 0.00, -0.00, -1.00, 508.6, 19.0)"> </text><text xml:space="preserve" font-family="SourceCodePro-Regular" font-size="12.0" fill="#747474" transform="matrix(1.00, 0.00, -0.00, -1.00, 515.8, 19.0)">D</text><text xml:space="preserve" font-family="SourceCodePro-Regular" font-size="12.0" fill="#747474" transform="matrix(1.00, 0.00, -0.00, -1.00, 523.0, 19.0)">E</text><text xml:space="preserve" font-family="SourceCodePro-Regular" font-size="12.0" fill="#747474" transform="matrix(1.00, 0.00, -0.00, -1.00, 530.2, 19.0)">I</text><text xml:space="preserve" font-family="SourceCodePro-Regular" font-size="12.0" fill="#747474" transform="matrix(1.00, 0.00, -0.00, -1.00, 537.4, 19.0)">B</text><g><clipPath id="clip-474"><path d="M 140.8 16.1 L 321.8 16.1 L 321.8 18.7 L 140.8 18.7 Z M 140.8 16.1 "></path></clipPath><g clip-path="url(#clip-474)"><path d="M 126.9 17.1 L 306.9 17.1 " fill="none" stroke="#747474" stroke-width="0.60" stroke-miterlimit="0.00" transform="matrix(1.00, 0.00, 0.00, -1.00, 14.9, 34.5)"></path></g></g><text xml:space="preserve" font-family="Lora-Bold" font-weight="bold" font-size="80.0" fill="#212121" transform="matrix(1.00, 0.00, -0.00, -1.00, 309.0, 648.0)">T</text><text xml:space="preserve" font-family="Lora-Bold" font-weight="bold" font-size="80.0" fill="#212121" transform="matrix(1.00, 0.00, -0.00, -1.00, 361.0, 648.0)">h</text><text xml:space="preserve" font-family="Lora-Bold" font-weight="bold" font-size="80.0" fill="#212121" transform="matrix(1.00, 0.00, -0.00, -1.00, 410.6, 648.0)">e</text><text xml:space="preserve" font-family="Lora-Bold" font-weight="bold" font-size="80.0" fill="#212121" transform="matrix(1.00, 0.00, -0.00, -1.00, 453.7, 648.0)"> </text><text xml:space="preserve" font-family="Lora-Bold" font-weight="bold" font-size="80.0" fill="#212121" transform="matrix(1.00, 0.00, -0.00, -1.00, 474.7, 648.0)">B</text><text xml:space="preserve" font-family="Lora-Bold" font-weight="bold" font-size="80.0" fill="#212121" transform="matrix(1.00, 0.00, -0.00, -1.00, 527.6, 648.0)">a</text><text xml:space="preserve" font-family="Lora-Bold" font-weight="bold" font-size="80.0" fill="#212121" transform="matrix(1.00, 0.00, -0.00, -1.00, 569.6, 648.0)">s</text><text xml:space="preserve" font-family="Lora-Bold" font-weight="bold" font-size="80.0" fill="#212121" transform="matrix(1.00, 0.00, -0.00, -1.00, 608.4, 648.0)">i</text><text xml:space="preserve" font-family="Lora-Bold" font-weight="bold" font-size="80.0" fill="#212121" transform="matrix(1.00, 0.00, -0.00, -1.00, 634.6, 648.0)">c</text><text xml:space="preserve" font-family="Lora-Bold" font-weight="bold" font-size="80.0" fill="#212121" transform="matrix(1.00, 0.00, -0.00, -1.00, 676.0, 648.0)">s</text><text xml:space="preserve" font-family="SourceCodePro-It" font-style="italic" font-size="41.2" fill="#616060" transform="matrix(1.00, 0.00, -0.00, -1.00, 191.0, 525.0)">T</text><text xml:space="preserve" font-family="SourceCodePro-It" font-style="italic" font-size="41.2" fill="#616060" transform="matrix(1.00, 0.00, -0.00, -1.00, 215.7, 525.0)">h</text><text xml:space="preserve" font-family="SourceCodePro-It" font-style="italic" font-size="41.2" fill="#616060" transform="matrix(1.00, 0.00, -0.00, -1.00, 240.4, 525.0)">e</text><text xml:space="preserve" font-family="SourceCodePro-It" font-style="italic" font-size="41.2" fill="#616060" transform="matrix(1.00, 0.00, -0.00, -1.00, 265.1, 525.0)"> </text><text xml:space="preserve" font-family="SourceCodePro-SemiboldIt" font-style="italic" font-weight="bold" font-size="41.2" fill="#E82662" transform="matrix(1.00, 0.00, -0.00, -1.00, 289.8, 525.0)">g</text><text xml:space="preserve" font-family="SourceCodePro-SemiboldIt" font-style="italic" font-weight="bold" font-size="41.2" fill="#E82662" transform="matrix(1.00, 0.00, -0.00, -1.00, 314.5, 525.0)">l</text><text xml:space="preserve" font-family="SourceCodePro-SemiboldIt" font-style="italic" font-weight="bold" font-size="41.2" fill="#E82662" transform="matrix(1.00, 0.00, -0.00, -1.00, 339.2, 525.0)">o</text><text xml:space="preserve" font-family="SourceCodePro-SemiboldIt" font-style="italic" font-weight="bold" font-size="41.2" fill="#E82662" transform="matrix(1.00, 0.00, -0.00, -1.00, 363.9, 525.0)">b</text><text xml:space="preserve" font-family="SourceCodePro-SemiboldIt" font-style="italic" font-weight="bold" font-size="41.2" fill="#E82662" transform="matrix(1.00, 0.00, -0.00, -1.00, 388.6, 525.0)">a</text><text xml:space="preserve" font-family="SourceCodePro-SemiboldIt" font-style="italic" font-weight="bold" font-size="41.2" fill="#E82662" transform="matrix(1.00, 0.00, -0.00, -1.00, 413.3, 525.0)">l</text><text xml:space="preserve" font-family="SourceCodePro-SemiboldIt" font-style="italic" font-weight="bold" font-size="41.2" fill="#E82662" transform="matrix(1.00, 0.00, -0.00, -1.00, 438.0, 525.0)">-</text><text xml:space="preserve" font-family="SourceCodePro-SemiboldIt" font-style="italic" font-weight="bold" font-size="41.2" fill="#E82662" transform="matrix(1.00, 0.00, -0.00, -1.00, 462.7, 525.0)">s</text><text xml:space="preserve" font-family="SourceCodePro-SemiboldIt" font-style="italic" font-weight="bold" font-size="41.2" fill="#E82662" transform="matrix(1.00, 0.00, -0.00, -1.00, 487.4, 525.0)">t</text><text xml:space="preserve" font-family="SourceCodePro-SemiboldIt" font-style="italic" font-weight="bold" font-size="41.2" fill="#E82662" transform="matrix(1.00, 0.00, -0.00, -1.00, 512.0, 525.0)">a</text><text xml:space="preserve" font-family="SourceCodePro-SemiboldIt" font-style="italic" font-weight="bold" font-size="41.2" fill="#E82662" transform="matrix(1.00, 0.00, -0.00, -1.00, 536.7, 525.0)">t</text><text xml:space="preserve" font-family="SourceCodePro-SemiboldIt" font-style="italic" font-weight="bold" font-size="41.2" fill="#E82662" transform="matrix(1.00, 0.00, -0.00, -1.00, 561.4, 525.0)">e</text><text xml:space="preserve" font-family="SourceCodePro-SemiboldIt" font-style="italic" font-weight="bold" font-size="41.2" fill="#E82662" transform="matrix(1.00, 0.00, -0.00, -1.00, 586.1, 525.0)">-</text><text xml:space="preserve" font-family="SourceCodePro-SemiboldIt" font-style="italic" font-weight="bold" font-size="41.2" fill="#E82662" transform="matrix(1.00, 0.00, -0.00, -1.00, 610.8, 525.0)">d</text><text xml:space="preserve" font-family="SourceCodePro-SemiboldIt" font-style="italic" font-weight="bold" font-size="41.2" fill="#E82662" transform="matrix(1.00, 0.00, -0.00, -1.00, 635.5, 525.0)">e</text><text xml:space="preserve" font-family="SourceCodePro-SemiboldIt" font-style="italic" font-weight="bold" font-size="41.2" fill="#E82662" transform="matrix(1.00, 0.00, -0.00, -1.00, 660.2, 525.0)">t</text><text xml:space="preserve" font-family="SourceCodePro-SemiboldIt" font-style="italic" font-weight="bold" font-size="41.2" fill="#E82662" transform="matrix(1.00, 0.00, -0.00, -1.00, 684.9, 525.0)">e</text><text xml:space="preserve" font-family="SourceCodePro-SemiboldIt" font-style="italic" font-weight="bold" font-size="41.2" fill="#E82662" transform="matrix(1.00, 0.00, -0.00, -1.00, 709.6, 525.0)">c</text><text xml:space="preserve" font-family="SourceCodePro-SemiboldIt" font-style="italic" font-weight="bold" font-size="41.2" fill="#E82662" transform="matrix(1.00, 0.00, -0.00, -1.00, 734.3, 525.0)">t</text><text xml:space="preserve" font-family="SourceCodePro-SemiboldIt" font-style="italic" font-weight="bold" font-size="41.2" fill="#E82662" transform="matrix(1.00, 0.00, -0.00, -1.00, 759.0, 525.0)">i</text><text xml:space="preserve" font-family="SourceCodePro-SemiboldIt" font-style="italic" font-weight="bold" font-size="41.2" fill="#E82662" transform="matrix(1.00, 0.00, -0.00, -1.00, 783.7, 525.0)">o</text><text xml:space="preserve" font-family="SourceCodePro-SemiboldIt" font-style="italic" font-weight="bold" font-size="41.2" fill="#E82662" transform="matrix(1.00, 0.00, -0.00, -1.00, 808.4, 525.0)">n</text><text xml:space="preserve" font-family="SourceCodePro-It" font-style="italic" font-size="41.2" fill="#616060" transform="matrix(1.00, 0.00, -0.00, -1.00, 833.1, 525.0)"> </text><text xml:space="preserve" font-family="SourceCodePro-It" font-style="italic" font-size="41.2" fill="#616060" transform="matrix(1.00, 0.00, -0.00, -1.00, 92.0, 447.0)">a</text><text xml:space="preserve" font-family="SourceCodePro-It" font-style="italic" font-size="41.2" fill="#616060" transform="matrix(1.00, 0.00, -0.00, -1.00, 116.7, 447.0)">l</text><text xml:space="preserve" font-family="SourceCodePro-It" font-style="italic" font-size="41.2" fill="#616060" transform="matrix(1.00, 0.00, -0.00, -1.00, 141.4, 447.0)">g</text><text xml:space="preserve" font-family="SourceCodePro-It" font-style="italic" font-size="41.2" fill="#616060" transform="matrix(1.00, 0.00, -0.00, -1.00, 166.1, 447.0)">o</text><text xml:space="preserve" font-family="SourceCodePro-It" font-style="italic" font-size="41.2" fill="#616060" transform="matrix(1.00, 0.00, -0.00, -1.00, 190.8, 447.0)">r</text><text xml:space="preserve" font-family="SourceCodePro-It" font-style="italic" font-size="41.2" fill="#616060" transform="matrix(1.00, 0.00, -0.00, -1.00, 215.5, 447.0)">i</text><text xml:space="preserve" font-family="SourceCodePro-It" font-style="italic" font-size="41.2" fill="#616060" transform="matrix(1.00, 0.00, -0.00, -1.00, 240.2, 447.0)">t</text><text xml:space="preserve" font-family="SourceCodePro-It" font-style="italic" font-size="41.2" fill="#616060" transform="matrix(1.00, 0.00, -0.00, -1.00, 264.9, 447.0)">h</text><text xml:space="preserve" font-family="SourceCodePro-It" font-style="italic" font-size="41.2" fill="#616060" transform="matrix(1.00, 0.00, -0.00, -1.00, 289.6, 447.0)">m</text><text xml:space="preserve" font-family="SourceCodePro-It" font-style="italic" font-size="41.2" fill="#616060" transform="matrix(1.00, 0.00, -0.00, -1.00, 314.3, 447.0)"> </text><text xml:space="preserve" font-family="SourceCodePro-It" font-style="italic" font-size="41.2" fill="#616060" transform="matrix(1.00, 0.00, -0.00, -1.00, 339.0, 447.0)">i</text><text xml:space="preserve" font-family="SourceCodePro-It" font-style="italic" font-size="41.2" fill="#616060" transform="matrix(1.00, 0.00, -0.00, -1.00, 363.7, 447.0)">s</text><text xml:space="preserve" font-family="SourceCodePro-It" font-style="italic" font-size="41.2" fill="#616060" transform="matrix(1.00, 0.00, -0.00, -1.00, 388.4, 447.0)"> </text><text xml:space="preserve" font-family="SourceCodePro-It" font-style="italic" font-size="41.2" fill="#616060" transform="matrix(1.00, 0.00, -0.00, -1.00, 413.0, 447.0)">t</text><text xml:space="preserve" font-family="SourceCodePro-It" font-style="italic" font-size="41.2" fill="#616060" transform="matrix(1.00, 0.00, -0.00, -1.00, 437.7, 447.0)">o</text><text xml:space="preserve" font-family="SourceCodePro-It" font-style="italic" font-size="41.2" fill="#616060" transform="matrix(1.00, 0.00, -0.00, -1.00, 462.4, 447.0)"> </text><text xml:space="preserve" font-family="SourceCodePro-It" font-style="italic" font-size="41.2" fill="#616060" transform="matrix(1.00, 0.00, -0.00, -1.00, 487.1, 447.0)">b</text><text xml:space="preserve" font-family="SourceCodePro-It" font-style="italic" font-size="41.2" fill="#616060" transform="matrix(1.00, 0.00, -0.00, -1.00, 511.8, 447.0)">e</text><text xml:space="preserve" font-family="SourceCodePro-It" font-style="italic" font-size="41.2" fill="#616060" transform="matrix(1.00, 0.00, -0.00, -1.00, 536.5, 447.0)"> </text><text xml:space="preserve" font-family="SourceCodePro-It" font-style="italic" font-size="41.2" fill="#616060" transform="matrix(1.00, 0.00, -0.00, -1.00, 561.2, 447.0)">s</text><text xml:space="preserve" font-family="SourceCodePro-It" font-style="italic" font-size="41.2" fill="#616060" transform="matrix(1.00, 0.00, -0.00, -1.00, 585.9, 447.0)">u</text><text xml:space="preserve" font-family="SourceCodePro-It" font-style="italic" font-size="41.2" fill="#616060" transform="matrix(1.00, 0.00, -0.00, -1.00, 610.6, 447.0)">p</text><text xml:space="preserve" font-family="SourceCodePro-It" font-style="italic" font-size="41.2" fill="#616060" transform="matrix(1.00, 0.00, -0.00, -1.00, 635.3, 447.0)">e</text><text xml:space="preserve" font-family="SourceCodePro-It" font-style="italic" font-size="41.2" fill="#616060" transform="matrix(1.00, 0.00, -0.00, -1.00, 660.0, 447.0)">r</text><text xml:space="preserve" font-family="SourceCodePro-It" font-style="italic" font-size="41.2" fill="#616060" transform="matrix(1.00, 0.00, -0.00, -1.00, 684.7, 447.0)">i</text><text xml:space="preserve" font-family="SourceCodePro-It" font-style="italic" font-size="41.2" fill="#616060" transform="matrix(1.00, 0.00, -0.00, -1.00, 709.4, 447.0)">m</text><text xml:space="preserve" font-family="SourceCodePro-It" font-style="italic" font-size="41.2" fill="#616060" transform="matrix(1.00, 0.00, -0.00, -1.00, 734.1, 447.0)">p</text><text xml:space="preserve" font-family="SourceCodePro-It" font-style="italic" font-size="41.2" fill="#616060" transform="matrix(1.00, 0.00, -0.00, -1.00, 758.8, 447.0)">o</text><text xml:space="preserve" font-family="SourceCodePro-It" font-style="italic" font-size="41.2" fill="#616060" transform="matrix(1.00, 0.00, -0.00, -1.00, 783.5, 447.0)">s</text><text xml:space="preserve" font-family="SourceCodePro-It" font-style="italic" font-size="41.2" fill="#616060" transform="matrix(1.00, 0.00, -0.00, -1.00, 808.2, 447.0)">e</text><text xml:space="preserve" font-family="SourceCodePro-It" font-style="italic" font-size="41.2" fill="#616060" transform="matrix(1.00, 0.00, -0.00, -1.00, 832.9, 447.0)">d</text><text xml:space="preserve" font-family="SourceCodePro-It" font-style="italic" font-size="41.2" fill="#616060" transform="matrix(1.00, 0.00, -0.00, -1.00, 857.6, 447.0)"> </text><text xml:space="preserve" font-family="SourceCodePro-It" font-style="italic" font-size="41.2" fill="#616060" transform="matrix(1.00, 0.00, -0.00, -1.00, 882.3, 447.0)">o</text><text xml:space="preserve" font-family="SourceCodePro-It" font-style="italic" font-size="41.2" fill="#616060" transform="matrix(1.00, 0.00, -0.00, -1.00, 907.0, 447.0)">n</text><text xml:space="preserve" font-family="SourceCodePro-It" font-style="italic" font-size="41.2" fill="#616060" transform="matrix(1.00, 0.00, -0.00, -1.00, 931.7, 447.0)"> </text><text xml:space="preserve" font-family="SourceCodePro-It" font-style="italic" font-size="41.2" fill="#616060" transform="matrix(1.00, 0.00, -0.00, -1.00, 80.0, 369.0)">t</text><text xml:space="preserve" font-family="SourceCodePro-It" font-style="italic" font-size="41.2" fill="#616060" transform="matrix(1.00, 0.00, -0.00, -1.00, 104.7, 369.0)">h</text><text xml:space="preserve" font-family="SourceCodePro-It" font-style="italic" font-size="41.2" fill="#616060" transform="matrix(1.00, 0.00, -0.00, -1.00, 129.4, 369.0)">e</text><text xml:space="preserve" font-family="SourceCodePro-It" font-style="italic" font-size="41.2" fill="#616060" transform="matrix(1.00, 0.00, -0.00, -1.00, 154.1, 369.0)"> </text><text xml:space="preserve" font-family="SourceCodePro-It" font-style="italic" font-size="41.2" fill="#616060" transform="matrix(1.00, 0.00, -0.00, -1.00, 178.8, 369.0)">u</text><text xml:space="preserve" font-family="SourceCodePro-It" font-style="italic" font-size="41.2" fill="#616060" transform="matrix(1.00, 0.00, -0.00, -1.00, 203.5, 369.0)">n</text><text xml:space="preserve" font-family="SourceCodePro-It" font-style="italic" font-size="41.2" fill="#616060" transform="matrix(1.00, 0.00, -0.00, -1.00, 228.2, 369.0)">d</text><text xml:space="preserve" font-family="SourceCodePro-It" font-style="italic" font-size="41.2" fill="#616060" transform="matrix(1.00, 0.00, -0.00, -1.00, 252.9, 369.0)">e</text><text xml:space="preserve" font-family="SourceCodePro-It" font-style="italic" font-size="41.2" fill="#616060" transform="matrix(1.00, 0.00, -0.00, -1.00, 277.6, 369.0)">r</text><text xml:space="preserve" font-family="SourceCodePro-It" font-style="italic" font-size="41.2" fill="#616060" transform="matrix(1.00, 0.00, -0.00, -1.00, 302.3, 369.0)">l</text><text xml:space="preserve" font-family="SourceCodePro-It" font-style="italic" font-size="41.2" fill="#616060" transform="matrix(1.00, 0.00, -0.00, -1.00, 327.0, 369.0)">y</text><text xml:space="preserve" font-family="SourceCodePro-It" font-style="italic" font-size="41.2" fill="#616060" transform="matrix(1.00, 0.00, -0.00, -1.00, 351.7, 369.0)">i</text><text xml:space="preserve" font-family="SourceCodePro-It" font-style="italic" font-size="41.2" fill="#616060" transform="matrix(1.00, 0.00, -0.00, -1.00, 376.4, 369.0)">n</text><text xml:space="preserve" font-family="SourceCodePro-It" font-style="italic" font-size="41.2" fill="#616060" transform="matrix(1.00, 0.00, -0.00, -1.00, 401.0, 369.0)">g</text><text xml:space="preserve" font-family="SourceCodePro-It" font-style="italic" font-size="41.2" fill="#616060" transform="matrix(1.00, 0.00, -0.00, -1.00, 425.7, 369.0)"> </text><text xml:space="preserve" font-family="SourceCodePro-It" font-style="italic" font-size="41.2" fill="#616060" transform="matrix(1.00, 0.00, -0.00, -1.00, 450.4, 369.0)">c</text><text xml:space="preserve" font-family="SourceCodePro-It" font-style="italic" font-size="41.2" fill="#616060" transform="matrix(1.00, 0.00, -0.00, -1.00, 475.1, 369.0)">o</text><text xml:space="preserve" font-family="SourceCodePro-It" font-style="italic" font-size="41.2" fill="#616060" transform="matrix(1.00, 0.00, -0.00, -1.00, 499.8, 369.0)">m</text><text xml:space="preserve" font-family="SourceCodePro-It" font-style="italic" font-size="41.2" fill="#616060" transform="matrix(1.00, 0.00, -0.00, -1.00, 524.5, 369.0)">p</text><text xml:space="preserve" font-family="SourceCodePro-It" font-style="italic" font-size="41.2" fill="#616060" transform="matrix(1.00, 0.00, -0.00, -1.00, 549.2, 369.0)">u</text><text xml:space="preserve" font-family="SourceCodePro-It" font-style="italic" font-size="41.2" fill="#616060" transform="matrix(1.00, 0.00, -0.00, -1.00, 573.9, 369.0)">t</text><text xml:space="preserve" font-family="SourceCodePro-It" font-style="italic" font-size="41.2" fill="#616060" transform="matrix(1.00, 0.00, -0.00, -1.00, 598.6, 369.0)">a</text><text xml:space="preserve" font-family="SourceCodePro-It" font-style="italic" font-size="41.2" fill="#616060" transform="matrix(1.00, 0.00, -0.00, -1.00, 623.3, 369.0)">t</text><text xml:space="preserve" font-family="SourceCodePro-It" font-style="italic" font-size="41.2" fill="#616060" transform="matrix(1.00, 0.00, -0.00, -1.00, 648.0, 369.0)">i</text><text xml:space="preserve" font-family="SourceCodePro-It" font-style="italic" font-size="41.2" fill="#616060" transform="matrix(1.00, 0.00, -0.00, -1.00, 672.7, 369.0)">o</text><text xml:space="preserve" font-family="SourceCodePro-It" font-style="italic" font-size="41.2" fill="#616060" transform="matrix(1.00, 0.00, -0.00, -1.00, 697.4, 369.0)">n</text><text xml:space="preserve" font-family="SourceCodePro-It" font-style="italic" font-size="41.2" fill="#616060" transform="matrix(1.00, 0.00, -0.00, -1.00, 722.1, 369.0)">:</text><text xml:space="preserve" font-family="SourceCodePro-It" font-style="italic" font-size="41.2" fill="#616060" transform="matrix(1.00, 0.00, -0.00, -1.00, 746.8, 369.0)"> </text><text xml:space="preserve" font-family="SourceCodePro-SemiboldIt" font-style="italic" font-weight="bold" font-size="41.2" fill="#E82662" transform="matrix(1.00, 0.00, -0.00, -1.00, 771.5, 369.0)">i</text><text xml:space="preserve" font-family="SourceCodePro-SemiboldIt" font-style="italic" font-weight="bold" font-size="41.2" fill="#E82662" transform="matrix(1.00, 0.00, -0.00, -1.00, 796.2, 369.0)">t</text><text xml:space="preserve" font-family="SourceCodePro-SemiboldIt" font-style="italic" font-weight="bold" font-size="41.2" fill="#E82662" transform="matrix(1.00, 0.00, -0.00, -1.00, 820.9, 369.0)"> </text><text xml:space="preserve" font-family="SourceCodePro-SemiboldIt" font-style="italic" font-weight="bold" font-size="41.2" fill="#E82662" transform="matrix(1.00, 0.00, -0.00, -1.00, 845.6, 369.0)">m</text><text xml:space="preserve" font-family="SourceCodePro-SemiboldIt" font-style="italic" font-weight="bold" font-size="41.2" fill="#E82662" transform="matrix(1.00, 0.00, -0.00, -1.00, 870.3, 369.0)">u</text><text xml:space="preserve" font-family="SourceCodePro-SemiboldIt" font-style="italic" font-weight="bold" font-size="41.2" fill="#E82662" transform="matrix(1.00, 0.00, -0.00, -1.00, 895.0, 369.0)">s</text><text xml:space="preserve" font-family="SourceCodePro-SemiboldIt" font-style="italic" font-weight="bold" font-size="41.2" fill="#E82662" transform="matrix(1.00, 0.00, -0.00, -1.00, 919.7, 369.0)">t</text><text xml:space="preserve" font-family="SourceCodePro-SemiboldIt" font-style="italic" font-weight="bold" font-size="41.2" fill="#E82662" transform="matrix(1.00, 0.00, -0.00, -1.00, 944.4, 369.0)"> </text><text xml:space="preserve" font-family="SourceCodePro-SemiboldIt" font-style="italic" font-weight="bold" font-size="41.2" fill="#E82662" transform="matrix(1.00, 0.00, -0.00, -1.00, 142.0, 291.0)">r</text><text xml:space="preserve" font-family="SourceCodePro-SemiboldIt" font-style="italic" font-weight="bold" font-size="41.2" fill="#E82662" transform="matrix(1.00, 0.00, -0.00, -1.00, 166.7, 291.0)">u</text><text xml:space="preserve" font-family="SourceCodePro-SemiboldIt" font-style="italic" font-weight="bold" font-size="41.2" fill="#E82662" transform="matrix(1.00, 0.00, -0.00, -1.00, 191.4, 291.0)">n</text><text xml:space="preserve" font-family="SourceCodePro-SemiboldIt" font-style="italic" font-weight="bold" font-size="41.2" fill="#E82662" transform="matrix(1.00, 0.00, -0.00, -1.00, 216.1, 291.0)"> </text><text xml:space="preserve" font-family="SourceCodePro-SemiboldIt" font-style="italic" font-weight="bold" font-size="41.2" fill="#E82662" transform="matrix(1.00, 0.00, -0.00, -1.00, 240.8, 291.0)">c</text><text xml:space="preserve" font-family="SourceCodePro-SemiboldIt" font-style="italic" font-weight="bold" font-size="41.2" fill="#E82662" transform="matrix(1.00, 0.00, -0.00, -1.00, 265.5, 291.0)">o</text><text xml:space="preserve" font-family="SourceCodePro-SemiboldIt" font-style="italic" font-weight="bold" font-size="41.2" fill="#E82662" transform="matrix(1.00, 0.00, -0.00, -1.00, 290.2, 291.0)">n</text><text xml:space="preserve" font-family="SourceCodePro-SemiboldIt" font-style="italic" font-weight="bold" font-size="41.2" fill="#E82662" transform="matrix(1.00, 0.00, -0.00, -1.00, 314.9, 291.0)">c</text><text xml:space="preserve" font-family="SourceCodePro-SemiboldIt" font-style="italic" font-weight="bold" font-size="41.2" fill="#E82662" transform="matrix(1.00, 0.00, -0.00, -1.00, 339.6, 291.0)">u</text><text xml:space="preserve" font-family="SourceCodePro-SemiboldIt" font-style="italic" font-weight="bold" font-size="41.2" fill="#E82662" transform="matrix(1.00, 0.00, -0.00, -1.00, 364.3, 291.0)">r</text><text xml:space="preserve" font-family="SourceCodePro-SemiboldIt" font-style="italic" font-weight="bold" font-size="41.2" fill="#E82662" transform="matrix(1.00, 0.00, -0.00, -1.00, 389.0, 291.0)">r</text><text xml:space="preserve" font-family="SourceCodePro-SemiboldIt" font-style="italic" font-weight="bold" font-size="41.2" fill="#E82662" transform="matrix(1.00, 0.00, -0.00, -1.00, 413.7, 291.0)">e</text><text xml:space="preserve" font-family="SourceCodePro-SemiboldIt" font-style="italic" font-weight="bold" font-size="41.2" fill="#E82662" transform="matrix(1.00, 0.00, -0.00, -1.00, 438.4, 291.0)">n</text><text xml:space="preserve" font-family="SourceCodePro-SemiboldIt" font-style="italic" font-weight="bold" font-size="41.2" fill="#E82662" transform="matrix(1.00, 0.00, -0.00, -1.00, 463.0, 291.0)">t</text><text xml:space="preserve" font-family="SourceCodePro-SemiboldIt" font-style="italic" font-weight="bold" font-size="41.2" fill="#E82662" transform="matrix(1.00, 0.00, -0.00, -1.00, 487.7, 291.0)">l</text><text xml:space="preserve" font-family="SourceCodePro-SemiboldIt" font-style="italic" font-weight="bold" font-size="41.2" fill="#E82662" transform="matrix(1.00, 0.00, -0.00, -1.00, 512.4, 291.0)">y</text><text xml:space="preserve" font-family="SourceCodePro-SemiboldIt" font-style="italic" font-weight="bold" font-size="41.2" fill="#E82662" transform="matrix(1.00, 0.00, -0.00, -1.00, 537.1, 291.0)"> </text><text xml:space="preserve" font-family="SourceCodePro-SemiboldIt" font-style="italic" font-weight="bold" font-size="41.2" fill="#E82662" transform="matrix(1.00, 0.00, -0.00, -1.00, 561.8, 291.0)">w</text><text xml:space="preserve" font-family="SourceCodePro-SemiboldIt" font-style="italic" font-weight="bold" font-size="41.2" fill="#E82662" transform="matrix(1.00, 0.00, -0.00, -1.00, 586.5, 291.0)">i</text><text xml:space="preserve" font-family="SourceCodePro-SemiboldIt" font-style="italic" font-weight="bold" font-size="41.2" fill="#E82662" transform="matrix(1.00, 0.00, -0.00, -1.00, 611.2, 291.0)">t</text><text xml:space="preserve" font-family="SourceCodePro-SemiboldIt" font-style="italic" font-weight="bold" font-size="41.2" fill="#E82662" transform="matrix(1.00, 0.00, -0.00, -1.00, 635.9, 291.0)">h</text><text xml:space="preserve" font-family="SourceCodePro-SemiboldIt" font-style="italic" font-weight="bold" font-size="41.2" fill="#E82662" transform="matrix(1.00, 0.00, -0.00, -1.00, 660.6, 291.0)">,</text><text xml:space="preserve" font-family="SourceCodePro-SemiboldIt" font-style="italic" font-weight="bold" font-size="41.2" fill="#E82662" transform="matrix(1.00, 0.00, -0.00, -1.00, 685.3, 291.0)"> </text><text xml:space="preserve" font-family="SourceCodePro-SemiboldIt" font-style="italic" font-weight="bold" font-size="41.2" fill="#E82662" transform="matrix(1.00, 0.00, -0.00, -1.00, 710.0, 291.0)">b</text><text xml:space="preserve" font-family="SourceCodePro-SemiboldIt" font-style="italic" font-weight="bold" font-size="41.2" fill="#E82662" transform="matrix(1.00, 0.00, -0.00, -1.00, 734.7, 291.0)">u</text><text xml:space="preserve" font-family="SourceCodePro-SemiboldIt" font-style="italic" font-weight="bold" font-size="41.2" fill="#E82662" transform="matrix(1.00, 0.00, -0.00, -1.00, 759.4, 291.0)">t</text><text xml:space="preserve" font-family="SourceCodePro-SemiboldIt" font-style="italic" font-weight="bold" font-size="41.2" fill="#E82662" transform="matrix(1.00, 0.00, -0.00, -1.00, 784.1, 291.0)"> </text><text xml:space="preserve" font-family="SourceCodePro-SemiboldIt" font-style="italic" font-weight="bold" font-size="41.2" fill="#E82662" transform="matrix(1.00, 0.00, -0.00, -1.00, 808.8, 291.0)">n</text><text xml:space="preserve" font-family="SourceCodePro-SemiboldIt" font-style="italic" font-weight="bold" font-size="41.2" fill="#E82662" transform="matrix(1.00, 0.00, -0.00, -1.00, 833.5, 291.0)">o</text><text xml:space="preserve" font-family="SourceCodePro-SemiboldIt" font-style="italic" font-weight="bold" font-size="41.2" fill="#E82662" transform="matrix(1.00, 0.00, -0.00, -1.00, 858.2, 291.0)">t</text><text xml:space="preserve" font-family="SourceCodePro-SemiboldIt" font-style="italic" font-weight="bold" font-size="41.2" fill="#E82662" transform="matrix(1.00, 0.00, -0.00, -1.00, 882.9, 291.0)"> </text><text xml:space="preserve" font-family="SourceCodePro-SemiboldIt" font-style="italic" font-weight="bold" font-size="41.2" fill="#E82662" transform="matrix(1.00, 0.00, -0.00, -1.00, 80.0, 213.0)">a</text><text xml:space="preserve" font-family="SourceCodePro-SemiboldIt" font-style="italic" font-weight="bold" font-size="41.2" fill="#E82662" transform="matrix(1.00, 0.00, -0.00, -1.00, 104.7, 213.0)">l</text><text xml:space="preserve" font-family="SourceCodePro-SemiboldIt" font-style="italic" font-weight="bold" font-size="41.2" fill="#E82662" transform="matrix(1.00, 0.00, -0.00, -1.00, 129.4, 213.0)">t</text><text xml:space="preserve" font-family="SourceCodePro-SemiboldIt" font-style="italic" font-weight="bold" font-size="41.2" fill="#E82662" transform="matrix(1.00, 0.00, -0.00, -1.00, 154.1, 213.0)">e</text><text xml:space="preserve" font-family="SourceCodePro-SemiboldIt" font-style="italic" font-weight="bold" font-size="41.2" fill="#E82662" transform="matrix(1.00, 0.00, -0.00, -1.00, 178.8, 213.0)">r</text><text xml:space="preserve" font-family="SourceCodePro-It" font-style="italic" font-size="41.2" fill="#616060" transform="matrix(1.00, 0.00, -0.00, -1.00, 203.5, 213.0)">,</text><text xml:space="preserve" font-family="SourceCodePro-It" font-style="italic" font-size="41.2" fill="#616060" transform="matrix(1.00, 0.00, -0.00, -1.00, 228.2, 213.0)"> </text><text xml:space="preserve" font-family="SourceCodePro-It" font-style="italic" font-size="41.2" fill="#616060" transform="matrix(1.00, 0.00, -0.00, -1.00, 252.9, 213.0)">t</text><text xml:space="preserve" font-family="SourceCodePro-It" font-style="italic" font-size="41.2" fill="#616060" transform="matrix(1.00, 0.00, -0.00, -1.00, 277.6, 213.0)">h</text><text xml:space="preserve" font-family="SourceCodePro-It" font-style="italic" font-size="41.2" fill="#616060" transform="matrix(1.00, 0.00, -0.00, -1.00, 302.3, 213.0)">i</text><text xml:space="preserve" font-family="SourceCodePro-It" font-style="italic" font-size="41.2" fill="#616060" transform="matrix(1.00, 0.00, -0.00, -1.00, 327.0, 213.0)">s</text><text xml:space="preserve" font-family="SourceCodePro-It" font-style="italic" font-size="41.2" fill="#616060" transform="matrix(1.00, 0.00, -0.00, -1.00, 351.7, 213.0)"> </text><text xml:space="preserve" font-family="SourceCodePro-It" font-style="italic" font-size="41.2" fill="#616060" transform="matrix(1.00, 0.00, -0.00, -1.00, 376.4, 213.0)">u</text><text xml:space="preserve" font-family="SourceCodePro-It" font-style="italic" font-size="41.2" fill="#616060" transform="matrix(1.00, 0.00, -0.00, -1.00, 401.0, 213.0)">n</text><text xml:space="preserve" font-family="SourceCodePro-It" font-style="italic" font-size="41.2" fill="#616060" transform="matrix(1.00, 0.00, -0.00, -1.00, 425.7, 213.0)">d</text><text xml:space="preserve" font-family="SourceCodePro-It" font-style="italic" font-size="41.2" fill="#616060" transform="matrix(1.00, 0.00, -0.00, -1.00, 450.4, 213.0)">e</text><text xml:space="preserve" font-family="SourceCodePro-It" font-style="italic" font-size="41.2" fill="#616060" transform="matrix(1.00, 0.00, -0.00, -1.00, 475.1, 213.0)">r</text><text xml:space="preserve" font-family="SourceCodePro-It" font-style="italic" font-size="41.2" fill="#616060" transform="matrix(1.00, 0.00, -0.00, -1.00, 499.8, 213.0)">l</text><text xml:space="preserve" font-family="SourceCodePro-It" font-style="italic" font-size="41.2" fill="#616060" transform="matrix(1.00, 0.00, -0.00, -1.00, 524.5, 213.0)">y</text><text xml:space="preserve" font-family="SourceCodePro-It" font-style="italic" font-size="41.2" fill="#616060" transform="matrix(1.00, 0.00, -0.00, -1.00, 549.2, 213.0)">i</text><text xml:space="preserve" font-family="SourceCodePro-It" font-style="italic" font-size="41.2" fill="#616060" transform="matrix(1.00, 0.00, -0.00, -1.00, 573.9, 213.0)">n</text><text xml:space="preserve" font-family="SourceCodePro-It" font-style="italic" font-size="41.2" fill="#616060" transform="matrix(1.00, 0.00, -0.00, -1.00, 598.6, 213.0)">g</text><text xml:space="preserve" font-family="SourceCodePro-It" font-style="italic" font-size="41.2" fill="#616060" transform="matrix(1.00, 0.00, -0.00, -1.00, 623.3, 213.0)"> </text><text xml:space="preserve" font-family="SourceCodePro-It" font-style="italic" font-size="41.2" fill="#616060" transform="matrix(1.00, 0.00, -0.00, -1.00, 648.0, 213.0)">c</text><text xml:space="preserve" font-family="SourceCodePro-It" font-style="italic" font-size="41.2" fill="#616060" transform="matrix(1.00, 0.00, -0.00, -1.00, 672.7, 213.0)">o</text><text xml:space="preserve" font-family="SourceCodePro-It" font-style="italic" font-size="41.2" fill="#616060" transform="matrix(1.00, 0.00, -0.00, -1.00, 697.4, 213.0)">m</text><text xml:space="preserve" font-family="SourceCodePro-It" font-style="italic" font-size="41.2" fill="#616060" transform="matrix(1.00, 0.00, -0.00, -1.00, 722.1, 213.0)">p</text><text xml:space="preserve" font-family="SourceCodePro-It" font-style="italic" font-size="41.2" fill="#616060" transform="matrix(1.00, 0.00, -0.00, -1.00, 746.8, 213.0)">u</text><text xml:space="preserve" font-family="SourceCodePro-It" font-style="italic" font-size="41.2" fill="#616060" transform="matrix(1.00, 0.00, -0.00, -1.00, 771.5, 213.0)">t</text><text xml:space="preserve" font-family="SourceCodePro-It" font-style="italic" font-size="41.2" fill="#616060" transform="matrix(1.00, 0.00, -0.00, -1.00, 796.2, 213.0)">a</text><text xml:space="preserve" font-family="SourceCodePro-It" font-style="italic" font-size="41.2" fill="#616060" transform="matrix(1.00, 0.00, -0.00, -1.00, 820.9, 213.0)">t</text><text xml:space="preserve" font-family="SourceCodePro-It" font-style="italic" font-size="41.2" fill="#616060" transform="matrix(1.00, 0.00, -0.00, -1.00, 845.6, 213.0)">i</text><text xml:space="preserve" font-family="SourceCodePro-It" font-style="italic" font-size="41.2" fill="#616060" transform="matrix(1.00, 0.00, -0.00, -1.00, 870.3, 213.0)">o</text><text xml:space="preserve" font-family="SourceCodePro-It" font-style="italic" font-size="41.2" fill="#616060" transform="matrix(1.00, 0.00, -0.00, -1.00, 895.0, 213.0)">n</text><text xml:space="preserve" font-family="SourceCodePro-It" font-style="italic" font-size="41.2" fill="#616060" transform="matrix(1.00, 0.00, -0.00, -1.00, 919.7, 213.0)">.</text><text xml:space="preserve" font-family="Helvetica-Light" font-size="18.0" fill="#000000" transform="matrix(1.00, 0.00, -0.00, -1.00, 992.0, 16.0)">2</text><text xml:space="preserve" font-family="Helvetica-Light" font-size="18.0" fill="#000000" transform="matrix(1.00, 0.00, -0.00, -1.00, 1002.0, 16.0)">8</text><text xml:space="preserve" font-family="Raleway-Light" font-size="46.0" fill="#616060" transform="matrix(1.00, 0.00, -0.00, -1.00, 332.0, 107.0)">C</text><text xml:space="preserve" font-family="Raleway-Light" font-size="46.0" fill="#616060" transform="matrix(1.00, 0.00, -0.00, -1.00, 363.9, 107.0)">h</text><text xml:space="preserve" font-family="Raleway-Light" font-size="46.0" fill="#616060" transform="matrix(1.00, 0.00, -0.00, -1.00, 390.3, 107.0)">a</text><text xml:space="preserve" font-family="Raleway-Light" font-size="46.0" fill="#616060" transform="matrix(1.00, 0.00, -0.00, -1.00, 415.1, 107.0)">n</text><text xml:space="preserve" font-family="Raleway-Light" font-size="46.0" fill="#616060" transform="matrix(1.00, 0.00, -0.00, -1.00, 441.4, 107.0)">d</text><text xml:space="preserve" font-family="Raleway-Light" font-size="46.0" fill="#616060" transform="matrix(1.00, 0.00, -0.00, -1.00, 469.7, 107.0)">y</text><text xml:space="preserve" font-family="Raleway-Light" font-size="46.0" fill="#616060" transform="matrix(1.00, 0.00, -0.00, -1.00, 493.6, 107.0)">-</text><text xml:space="preserve" font-family="Raleway-Light" font-size="46.0" fill="#616060" transform="matrix(1.00, 0.00, -0.00, -1.00, 513.1, 107.0)">L</text><text xml:space="preserve" font-family="Raleway-Light" font-size="46.0" fill="#616060" transform="matrix(1.00, 0.00, -0.00, -1.00, 540.2, 107.0)">a</text><text xml:space="preserve" font-family="Raleway-Light" font-size="46.0" fill="#616060" transform="matrix(1.00, 0.00, -0.00, -1.00, 565.0, 107.0)">m</text><text xml:space="preserve" font-family="Raleway-Light" font-size="46.0" fill="#616060" transform="matrix(1.00, 0.00, -0.00, -1.00, 607.0, 107.0)">p</text><text xml:space="preserve" font-family="Raleway-Light" font-size="46.0" fill="#616060" transform="matrix(1.00, 0.00, -0.00, -1.00, 635.1, 107.0)">o</text><text xml:space="preserve" font-family="Raleway-Light" font-size="46.0" fill="#616060" transform="matrix(1.00, 0.00, -0.00, -1.00, 662.3, 107.0)">r</text><text xml:space="preserve" font-family="Raleway-Light" font-size="46.0" fill="#616060" transform="matrix(1.00, 0.00, -0.00, -1.00, 678.0, 107.0)">t</text><text xml:space="preserve" font-family="SourceCodePro-Regular" font-size="200.0" fill="#616060" transform="matrix(1.00, 0.00, -0.00, -1.00, 43.0, 477.0)">“</text><text xml:space="preserve" font-family="SourceCodePro-Regular" font-size="200.0" fill="#616060" transform="matrix(1.00, 0.00, -0.00, -1.00, 865.0, 52.0)">”</text></g></svg>