<?xml version="1.0" encoding="UTF-8" standalone="no"?><svg xmlns="http://www.w3.org/2000/svg" xmlns:xlink="http://www.w3.org/1999/xlink" clip-rule="evenodd" stroke-miterlimit="4.00" viewBox="0 0 527 17"><desc>SVG generated by Keynote</desc><defs></defs><g transform="matrix(1.00, 0.00, -0.00, -1.00, 0.0, 17.0)"><text xml:space="preserve" font-family="SourceCodePro-Regular" font-size="12.0" fill="#747474" transform="matrix(1.00, 0.00, -0.00, -1.00, 0.0, 5.0)">L</text><text xml:space="preserve" font-family="SourceCodePro-Regular" font-size="12.0" fill="#747474" transform="matrix(1.00, 0.00, -0.00, -1.00, 7.2, 5.0)">o</text><text xml:space="preserve" font-family="SourceCodePro-Regular" font-size="12.0" fill="#747474" transform="matrix(1.00, 0.00, -0.00, -1.00, 14.4, 5.0)">r</text><text xml:space="preserve" font-family="SourceCodePro-Regular" font-size="12.0" fill="#747474" transform="matrix(1.00, 0.00, -0.00, -1.00, 21.6, 5.0)">e</text><text xml:space="preserve" font-family="SourceCodePro-Regular" font-size="12.0" fill="#747474" transform="matrix(1.00, 0.00, -0.00, -1.00, 28.8, 5.0)">n</text><text xml:space="preserve" font-family="SourceCodePro-Regular" font-size="12.0" fill="#747474" transform="matrix(1.00, 0.00, -0.00, -1.00, 36.0, 5.0)">z</text><text xml:space="preserve" font-family="SourceCodePro-Regular" font-size="12.0" fill="#747474" transform="matrix(1.00, 0.00, -0.00, -1.00, 43.2, 5.0)">o</text><text xml:space="preserve" font-family="SourceCodePro-Regular" font-size="12.0" fill="#747474" transform="matrix(1.00, 0.00, -0.00, -1.00, 50.4, 5.0)"> </text><text xml:space="preserve" font-family="SourceCodePro-Regular" font-size="12.0" fill="#747474" transform="matrix(1.00, 0.00, -0.00, -1.00, 57.6, 5.0)">A</text><text xml:space="preserve" font-family="SourceCodePro-Regular" font-size="12.0" fill="#747474" transform="matrix(1.00, 0.00, -0.00, -1.00, 64.8, 5.0)">f</text><text xml:space="preserve" font-family="SourceCodePro-Regular" font-size="12.0" fill="#747474" transform="matrix(1.00, 0.00, -0.00, -1.00, 72.0, 5.0)">f</text><text xml:space="preserve" font-family="SourceCodePro-Regular" font-size="12.0" fill="#747474" transform="matrix(1.00, 0.00, -0.00, -1.00, 79.2, 5.0)">e</text><text xml:space="preserve" font-family="SourceCodePro-Regular" font-size="12.0" fill="#747474" transform="matrix(1.00, 0.00, -0.00, -1.00, 86.4, 5.0)">t</text><text xml:space="preserve" font-family="SourceCodePro-Regular" font-size="12.0" fill="#747474" transform="matrix(1.00, 0.00, -0.00, -1.00, 93.6, 5.0)">t</text><text xml:space="preserve" font-family="SourceCodePro-Regular" font-size="12.0" fill="#747474" transform="matrix(1.00, 0.00, -0.00, -1.00, 100.8, 5.0)">i</text><text xml:space="preserve" font-family="SourceCodePro-Regular" font-size="12.0" fill="#747474" transform="matrix(1.00, 0.00, -0.00, -1.00, 108.0, 5.0)"> </text><text xml:space="preserve" font-family="SourceCodePro-Regular" font-size="12.0" fill="#747474" transform="matrix(1.00, 0.00, -0.00, -1.00, 115.2, 5.0)">(</text><text xml:space="preserve" font-family="SourceCodePro-Regular" font-size="12.0" fill="#747474" transform="matrix(1.00, 0.00, -0.00, -1.00, 122.4, 5.0)">l</text><text xml:space="preserve" font-family="SourceCodePro-Regular" font-size="12.0" fill="#747474" transform="matrix(1.00, 0.00, -0.00, -1.00, 129.6, 5.0)">o</text><text xml:space="preserve" font-family="SourceCodePro-Regular" font-size="12.0" fill="#747474" transform="matrix(1.00, 0.00, -0.00, -1.00, 136.8, 5.0)">r</text><text xml:space="preserve" font-family="SourceCodePro-Regular" font-size="12.0" fill="#747474" transform="matrix(1.00, 0.00, -0.00, -1.00, 144.0, 5.0)">e</text><text xml:space="preserve" font-family="SourceCodePro-Regular" font-size="12.0" fill="#747474" transform="matrix(1.00, 0.00, -0.00, -1.00, 151.2, 5.0)">n</text><text xml:space="preserve" font-family="SourceCodePro-Regular" font-size="12.0" fill="#747474" transform="matrix(1.00, 0.00, -0.00, -1.00, 158.4, 5.0)">z</text><text xml:space="preserve" font-family="SourceCodePro-Regular" font-size="12.0" fill="#747474" transform="matrix(1.00, 0.00, -0.00, -1.00, 165.6, 5.0)">o</text><text xml:space="preserve" font-family="SourceCodePro-Regular" font-size="12.0" fill="#747474" transform="matrix(1.00, 0.00, -0.00, -1.00, 172.8, 5.0)">.</text><text xml:space="preserve" font-family="SourceCodePro-Regular" font-size="12.0" fill="#747474" transform="matrix(1.00, 0.00, -0.00, -1.00, 180.0, 5.0)">a</text><text xml:space="preserve" font-family="SourceCodePro-Regular" font-size="12.0" fill="#747474" transform="matrix(1.00, 0.00, -0.00, -1.00, 187.2, 5.0)">f</text><text xml:space="preserve" font-family="SourceCodePro-Regular" font-size="12.0" fill="#747474" transform="matrix(1.00, 0.00, -0.00, -1.00, 194.4, 5.0)">f</text><text xml:space="preserve" font-family="SourceCodePro-Regular" font-size="12.0" fill="#747474" transform="matrix(1.00, 0.00, -0.00, -1.00, 201.6, 5.0)">e</text><text xml:space="preserve" font-family="SourceCodePro-Regular" font-size="12.0" fill="#747474" transform="matrix(1.00, 0.00, -0.00, -1.00, 208.8, 5.0)">t</text><text xml:space="preserve" font-family="SourceCodePro-Regular" font-size="12.0" fill="#747474" transform="matrix(1.00, 0.00, -0.00, -1.00, 216.0, 5.0)">t</text><text xml:space="preserve" font-family="SourceCodePro-Regular" font-size="12.0" fill="#747474" transform="matrix(1.00, 0.00, -0.00, -1.00, 223.2, 5.0)">i</text><text xml:space="preserve" font-family="SourceCodePro-Regular" font-size="12.0" fill="#747474" transform="matrix(1.00, 0.00, -0.00, -1.00, 230.4, 5.0)">@</text><text xml:space="preserve" font-family="SourceCodePro-Regular" font-size="12.0" fill="#747474" transform="matrix(1.00, 0.00, -0.00, -1.00, 237.6, 5.0)">p</text><text xml:space="preserve" font-family="SourceCodePro-Regular" font-size="12.0" fill="#747474" transform="matrix(1.00, 0.00, -0.00, -1.00, 244.8, 5.0)">o</text><text xml:space="preserve" font-family="SourceCodePro-Regular" font-size="12.0" fill="#747474" transform="matrix(1.00, 0.00, -0.00, -1.00, 252.0, 5.0)">l</text><text xml:space="preserve" font-family="SourceCodePro-Regular" font-size="12.0" fill="#747474" transform="matrix(1.00, 0.00, -0.00, -1.00, 259.2, 5.0)">i</text><text xml:space="preserve" font-family="SourceCodePro-Regular" font-size="12.0" fill="#747474" transform="matrix(1.00, 0.00, -0.00, -1.00, 266.4, 5.0)">m</text><text xml:space="preserve" font-family="SourceCodePro-Regular" font-size="12.0" fill="#747474" transform="matrix(1.00, 0.00, -0.00, -1.00, 273.6, 5.0)">i</text><text xml:space="preserve" font-family="SourceCodePro-Regular" font-size="12.0" fill="#747474" transform="matrix(1.00, 0.00, -0.00, -1.00, 280.8, 5.0)">.</text><text xml:space="preserve" font-family="SourceCodePro-Regular" font-size="12.0" fill="#747474" transform="matrix(1.00, 0.00, -0.00, -1.00, 288.0, 5.0)">i</text><text xml:space="preserve" font-family="SourceCodePro-Regular" font-size="12.0" fill="#747474" transform="matrix(1.00, 0.00, -0.00, -1.00, 295.2, 5.0)">t</text><text xml:space="preserve" font-family="SourceCodePro-Regular" font-size="12.0" fill="#747474" transform="matrix(1.00, 0.00, -0.00, -1.00, 302.4, 5.0)">)</text><text xml:space="preserve" font-family="SourceCodePro-Regular" font-size="12.0" fill="#747474" transform="matrix(1.00, 0.00, -0.00, -1.00, 309.6, 5.0)"> </text><text xml:space="preserve" font-family="SourceCodePro-Regular" font-size="12.0" fill="#747474" transform="matrix(1.00, 0.00, -0.00, -1.00, 316.8, 5.0)">-</text><text xml:space="preserve" font-family="SourceCodePro-Regular" font-size="12.0" fill="#747474" transform="matrix(1.00, 0.00, -0.00, -1.00, 324.0, 5.0)"> </text><text xml:space="preserve" font-family="SourceCodePro-Regular" font-size="12.0" fill="#747474" transform="matrix(1.00, 0.00, -0.00, -1.00, 331.2, 5.0)">P</text><text xml:space="preserve" font-family="SourceCodePro-Regular" font-size="12.0" fill="#747474" transform="matrix(1.00, 0.00, -0.00, -1.00, 338.4, 5.0)">o</text><text xml:space="preserve" font-family="SourceCodePro-Regular" font-size="12.0" fill="#747474" transform="matrix(1.00, 0.00, -0.00, -1.00, 345.6, 5.0)">l</text><text xml:space="preserve" font-family="SourceCodePro-Regular" font-size="12.0" fill="#747474" transform="matrix(1.00, 0.00, -0.00, -1.00, 352.8, 5.0)">i</text><text xml:space="preserve" font-family="SourceCodePro-Regular" font-size="12.0" fill="#747474" transform="matrix(1.00, 0.00, -0.00, -1.00, 360.0, 5.0)">t</text><text xml:space="preserve" font-family="SourceCodePro-Regular" font-size="12.0" fill="#747474" transform="matrix(1.00, 0.00, -0.00, -1.00, 367.2, 5.0)">e</text><text xml:space="preserve" font-family="SourceCodePro-Regular" font-size="12.0" fill="#747474" transform="matrix(1.00, 0.00, -0.00, -1.00, 374.4, 5.0)">c</text><text xml:space="preserve" font-family="SourceCodePro-Regular" font-size="12.0" fill="#747474" transform="matrix(1.00, 0.00, -0.00, -1.00, 381.6, 5.0)">n</text><text xml:space="preserve" font-family="SourceCodePro-Regular" font-size="12.0" fill="#747474" transform="matrix(1.00, 0.00, -0.00, -1.00, 388.8, 5.0)">i</text><text xml:space="preserve" font-family="SourceCodePro-Regular" font-size="12.0" fill="#747474" transform="matrix(1.00, 0.00, -0.00, -1.00, 396.0, 5.0)">c</text><text xml:space="preserve" font-family="SourceCodePro-Regular" font-size="12.0" fill="#747474" transform="matrix(1.00, 0.00, -0.00, -1.00, 403.2, 5.0)">o</text><text xml:space="preserve" font-family="SourceCodePro-Regular" font-size="12.0" fill="#747474" transform="matrix(1.00, 0.00, -0.00, -1.00, 410.4, 5.0)"> </text><text xml:space="preserve" font-family="SourceCodePro-Regular" font-size="12.0" fill="#747474" transform="matrix(1.00, 0.00, -0.00, -1.00, 417.6, 5.0)">d</text><text xml:space="preserve" font-family="SourceCodePro-Regular" font-size="12.0" fill="#747474" transform="matrix(1.00, 0.00, -0.00, -1.00, 424.8, 5.0)">i</text><text xml:space="preserve" font-family="SourceCodePro-Regular" font-size="12.0" fill="#747474" transform="matrix(1.00, 0.00, -0.00, -1.00, 432.0, 5.0)"> </text><text xml:space="preserve" font-family="SourceCodePro-Regular" font-size="12.0" fill="#747474" transform="matrix(1.00, 0.00, -0.00, -1.00, 439.2, 5.0)">M</text><text xml:space="preserve" font-family="SourceCodePro-Regular" font-size="12.0" fill="#747474" transform="matrix(1.00, 0.00, -0.00, -1.00, 446.4, 5.0)">i</text><text xml:space="preserve" font-family="SourceCodePro-Regular" font-size="12.0" fill="#747474" transform="matrix(1.00, 0.00, -0.00, -1.00, 453.6, 5.0)">l</text><text xml:space="preserve" font-family="SourceCodePro-Regular" font-size="12.0" fill="#747474" transform="matrix(1.00, 0.00, -0.00, -1.00, 460.8, 5.0)">a</text><text xml:space="preserve" font-family="SourceCodePro-Regular" font-size="12.0" fill="#747474" transform="matrix(1.00, 0.00, -0.00, -1.00, 468.0, 5.0)">n</text><text xml:space="preserve" font-family="SourceCodePro-Regular" font-size="12.0" fill="#747474" transform="matrix(1.00, 0.00, -0.00, -1.00, 475.2, 5.0)">o</text><text xml:space="preserve" font-family="SourceCodePro-Regular" font-size="12.0" fill="#747474" transform="matrix(1.00, 0.00, -0.00, -1.00, 482.4, 5.0)">,</text><text xml:space="preserve" font-family="SourceCodePro-Regular" font-size="12.0" fill="#747474" transform="matrix(1.00, 0.00, -0.00, -1.00, 489.6, 5.0)"> </text><text xml:space="preserve" font-family="SourceCodePro-Regular" font-size="12.0" fill="#747474" transform="matrix(1.00, 0.00, -0.00, -1.00, 496.8, 5.0)">D</text><text xml:space="preserve" font-family="SourceCodePro-Regular" font-size="12.0" fill="#747474" transform="matrix(1.00, 0.00, -0.00, -1.00, 504.0, 5.0)">E</text><text xml:space="preserve" font-family="SourceCodePro-Regular" font-size="12.0" fill="#747474" transform="matrix(1.00, 0.00, -0.00, -1.00, 511.2, 5.0)">I</text><text xml:space="preserve" font-family="SourceCodePro-Regular" font-size="12.0" fill="#747474" transform="matrix(1.00, 0.00, -0.00, -1.00, 518.4, 5.0)">B</text><g><clipPath id="clip-494"><path d="M 121.8 2.1 L 302.8 2.1 L 302.8 4.7 L 121.8 4.7 Z M 121.8 2.1 "></path></clipPath><g clip-path="url(#clip-494)"><path d="M 126.9 17.1 L 306.9 17.1 " fill="none" stroke="#747474" stroke-width="0.60" stroke-miterlimit="0.00" transform="matrix(1.00, 0.00, 0.00, -1.00, -4.1, 20.5)"></path></g></g></g></svg>