<?xml version="1.0" encoding="UTF-8" standalone="no"?><svg xmlns="http://www.w3.org/2000/svg" xmlns:xlink="http://www.w3.org/1999/xlink" clip-rule="evenodd" stroke-miterlimit="4.00" viewBox="0 0 273 184"><desc>SVG generated by Keynote</desc><defs></defs><g transform="matrix(1.00, 0.00, -0.00, -1.00, 0.0, 184.0)"><path d="M 128.9 -17.0 L 104.3 0.0 L 5.0 0.0 C 2.2 0.0 0.0 2.2 0.0 5.0 L 0.0 154.9 C 0.0 157.7 2.2 159.9 5.0 159.9 L 261.6 159.9 C 264.4 159.9 266.6 157.7 266.6 154.9 L 266.6 5.0 C 266.6 2.2 264.4 0.0 261.6 0.0 L 153.4 0.0 L 128.9 -17.0 Z M 128.9 -17.0 " fill="none" stroke="#616060" stroke-width="4.00" transform="matrix(1.00, 0.00, 0.00, -1.00, 3.3, 163.3)"></path><g><clipPath id="clip-496"><path d="M 2.4 3.4 L 270.8 3.4 L 270.8 163.3 L 2.4 163.3 Z M 2.4 3.4 "></path></clipPath><g clip-path="url(#clip-496)"><text xml:space="preserve" font-family="SourceCodePro-Regular" font-size="22.0" fill="#616060" transform="matrix(1.00, 0.00, -0.00, -1.00, 9.0, 132.0)">O</text><text xml:space="preserve" font-family="SourceCodePro-Regular" font-size="22.0" fill="#616060" transform="matrix(1.00, 0.00, -0.00, -1.00, 22.2, 132.0)">K</text><text xml:space="preserve" font-family="SourceCodePro-Regular" font-size="22.0" fill="#616060" transform="matrix(1.00, 0.00, -0.00, -1.00, 35.4, 132.0)">,</text><text xml:space="preserve" font-family="SourceCodePro-Regular" font-size="22.0" fill="#616060" transform="matrix(1.00, 0.00, -0.00, -1.00, 48.6, 132.0)"> </text><text xml:space="preserve" font-family="SourceCodePro-Regular" font-size="22.0" fill="#616060" transform="matrix(1.00, 0.00, -0.00, -1.00, 61.8, 132.0)">r</text><text xml:space="preserve" font-family="SourceCodePro-Regular" font-size="22.0" fill="#616060" transform="matrix(1.00, 0.00, -0.00, -1.00, 75.0, 132.0)">e</text><text xml:space="preserve" font-family="SourceCodePro-Regular" font-size="22.0" fill="#616060" transform="matrix(1.00, 0.00, -0.00, -1.00, 88.2, 132.0)">c</text><text xml:space="preserve" font-family="SourceCodePro-Regular" font-size="22.0" fill="#616060" transform="matrix(1.00, 0.00, -0.00, -1.00, 101.4, 132.0)">e</text><text xml:space="preserve" font-family="SourceCodePro-Regular" font-size="22.0" fill="#616060" transform="matrix(1.00, 0.00, -0.00, -1.00, 114.6, 132.0)">i</text><text xml:space="preserve" font-family="SourceCodePro-Regular" font-size="22.0" fill="#616060" transform="matrix(1.00, 0.00, -0.00, -1.00, 127.8, 132.0)">v</text><text xml:space="preserve" font-family="SourceCodePro-Regular" font-size="22.0" fill="#616060" transform="matrix(1.00, 0.00, -0.00, -1.00, 141.0, 132.0)">e</text><text xml:space="preserve" font-family="SourceCodePro-Regular" font-size="22.0" fill="#616060" transform="matrix(1.00, 0.00, -0.00, -1.00, 154.2, 132.0)">d</text><text xml:space="preserve" font-family="SourceCodePro-Regular" font-size="22.0" fill="#616060" transform="matrix(1.00, 0.00, -0.00, -1.00, 167.4, 132.0)"> </text><text xml:space="preserve" font-family="SourceCodePro-Semibold" font-weight="bold" font-size="22.0" fill="#616060" transform="matrix(1.00, 0.00, -0.00, -1.00, 180.6, 132.0)">f</text><text xml:space="preserve" font-family="SourceCodePro-Semibold" font-weight="bold" font-size="22.0" fill="#616060" transform="matrix(1.00, 0.00, -0.00, -1.00, 193.8, 132.0)">r</text><text xml:space="preserve" font-family="SourceCodePro-Semibold" font-weight="bold" font-size="22.0" fill="#616060" transform="matrix(1.00, 0.00, -0.00, -1.00, 207.0, 132.0)">o</text><text xml:space="preserve" font-family="SourceCodePro-Semibold" font-weight="bold" font-size="22.0" fill="#616060" transform="matrix(1.00, 0.00, -0.00, -1.00, 220.2, 132.0)">m</text><text xml:space="preserve" font-family="SourceCodePro-Semibold" font-weight="bold" font-size="22.0" fill="#616060" transform="matrix(1.00, 0.00, -0.00, -1.00, 233.4, 132.0)"> </text><text xml:space="preserve" font-family="SourceCodePro-Semibold" font-weight="bold" font-size="22.0" fill="#E82662" transform="matrix(1.00, 0.00, -0.00, -1.00, 9.0, 104.0)">a</text><text xml:space="preserve" font-family="SourceCodePro-Semibold" font-weight="bold" font-size="22.0" fill="#E82662" transform="matrix(1.00, 0.00, -0.00, -1.00, 22.2, 104.0)">l</text><text xml:space="preserve" font-family="SourceCodePro-Semibold" font-weight="bold" font-size="22.0" fill="#E82662" transform="matrix(1.00, 0.00, -0.00, -1.00, 35.4, 104.0)">l</text><text xml:space="preserve" font-family="SourceCodePro-Semibold" font-weight="bold" font-size="22.0" fill="#E82662" transform="matrix(1.00, 0.00, -0.00, -1.00, 48.6, 104.0)"> </text><text xml:space="preserve" font-family="SourceCodePro-Semibold" font-weight="bold" font-size="22.0" fill="#E82662" transform="matrix(1.00, 0.00, -0.00, -1.00, 61.8, 104.0)">o</text><text xml:space="preserve" font-family="SourceCodePro-Semibold" font-weight="bold" font-size="22.0" fill="#E82662" transform="matrix(1.00, 0.00, -0.00, -1.00, 75.0, 104.0)">f</text><text xml:space="preserve" font-family="SourceCodePro-Semibold" font-weight="bold" font-size="22.0" fill="#616060" transform="matrix(1.00, 0.00, -0.00, -1.00, 88.2, 104.0)"> </text><text xml:space="preserve" font-family="SourceCodePro-Semibold" font-weight="bold" font-size="22.0" fill="#616060" transform="matrix(1.00, 0.00, -0.00, -1.00, 101.4, 104.0)">m</text><text xml:space="preserve" font-family="SourceCodePro-Semibold" font-weight="bold" font-size="22.0" fill="#616060" transform="matrix(1.00, 0.00, -0.00, -1.00, 114.6, 104.0)">y</text><text xml:space="preserve" font-family="SourceCodePro-Semibold" font-weight="bold" font-size="22.0" fill="#616060" transform="matrix(1.00, 0.00, -0.00, -1.00, 127.8, 104.0)"> </text><text xml:space="preserve" font-family="SourceCodePro-Semibold" font-weight="bold" font-size="22.0" fill="#616060" transform="matrix(1.00, 0.00, -0.00, -1.00, 141.0, 104.0)">i</text><text xml:space="preserve" font-family="SourceCodePro-Semibold" font-weight="bold" font-size="22.0" fill="#616060" transform="matrix(1.00, 0.00, -0.00, -1.00, 154.2, 104.0)">n</text><text xml:space="preserve" font-family="SourceCodePro-Semibold" font-weight="bold" font-size="22.0" fill="#616060" transform="matrix(1.00, 0.00, -0.00, -1.00, 167.4, 104.0)">p</text><text xml:space="preserve" font-family="SourceCodePro-Semibold" font-weight="bold" font-size="22.0" fill="#616060" transform="matrix(1.00, 0.00, -0.00, -1.00, 180.6, 104.0)">u</text><text xml:space="preserve" font-family="SourceCodePro-Semibold" font-weight="bold" font-size="22.0" fill="#616060" transform="matrix(1.00, 0.00, -0.00, -1.00, 193.8, 104.0)">t</text><text xml:space="preserve" font-family="SourceCodePro-Semibold" font-weight="bold" font-size="22.0" fill="#616060" transform="matrix(1.00, 0.00, -0.00, -1.00, 207.0, 104.0)"> </text><text xml:space="preserve" font-family="SourceCodePro-Semibold" font-weight="bold" font-size="22.0" fill="#616060" transform="matrix(1.00, 0.00, -0.00, -1.00, 9.0, 76.0)">s</text><text xml:space="preserve" font-family="SourceCodePro-Semibold" font-weight="bold" font-size="22.0" fill="#616060" transform="matrix(1.00, 0.00, -0.00, -1.00, 22.2, 76.0)">t</text><text xml:space="preserve" font-family="SourceCodePro-Semibold" font-weight="bold" font-size="22.0" fill="#616060" transform="matrix(1.00, 0.00, -0.00, -1.00, 35.4, 76.0)">r</text><text xml:space="preserve" font-family="SourceCodePro-Semibold" font-weight="bold" font-size="22.0" fill="#616060" transform="matrix(1.00, 0.00, -0.00, -1.00, 48.6, 76.0)">e</text><text xml:space="preserve" font-family="SourceCodePro-Semibold" font-weight="bold" font-size="22.0" fill="#616060" transform="matrix(1.00, 0.00, -0.00, -1.00, 61.8, 76.0)">a</text><text xml:space="preserve" font-family="SourceCodePro-Semibold" font-weight="bold" font-size="22.0" fill="#616060" transform="matrix(1.00, 0.00, -0.00, -1.00, 75.0, 76.0)">m</text><text xml:space="preserve" font-family="SourceCodePro-Semibold" font-weight="bold" font-size="22.0" fill="#616060" transform="matrix(1.00, 0.00, -0.00, -1.00, 88.2, 76.0)">s</text><text xml:space="preserve" font-family="SourceCodePro-Regular" font-size="22.0" fill="#616060" transform="matrix(1.00, 0.00, -0.00, -1.00, 101.4, 76.0)">.</text><text xml:space="preserve" font-family="SourceCodePro-Regular" font-size="22.0" fill="#616060" transform="matrix(1.00, 0.00, -0.00, -1.00, 114.6, 76.0)"> </text><text xml:space="preserve" font-family="SourceCodePro-Semibold" font-weight="bold" font-size="22.0" fill="#E82662" transform="matrix(1.00, 0.00, -0.00, -1.00, 9.0, 48.0)">S</text><text xml:space="preserve" font-family="SourceCodePro-Semibold" font-weight="bold" font-size="22.0" fill="#E82662" transform="matrix(1.00, 0.00, -0.00, -1.00, 22.2, 48.0)">n</text><text xml:space="preserve" font-family="SourceCodePro-Semibold" font-weight="bold" font-size="22.0" fill="#E82662" transform="matrix(1.00, 0.00, -0.00, -1.00, 35.4, 48.0)">a</text><text xml:space="preserve" font-family="SourceCodePro-Semibold" font-weight="bold" font-size="22.0" fill="#E82662" transform="matrix(1.00, 0.00, -0.00, -1.00, 48.6, 48.0)">p</text><text xml:space="preserve" font-family="SourceCodePro-Semibold" font-weight="bold" font-size="22.0" fill="#E82662" transform="matrix(1.00, 0.00, -0.00, -1.00, 61.8, 48.0)">s</text><text xml:space="preserve" font-family="SourceCodePro-Semibold" font-weight="bold" font-size="22.0" fill="#E82662" transform="matrix(1.00, 0.00, -0.00, -1.00, 75.0, 48.0)">h</text><text xml:space="preserve" font-family="SourceCodePro-Semibold" font-weight="bold" font-size="22.0" fill="#E82662" transform="matrix(1.00, 0.00, -0.00, -1.00, 88.2, 48.0)">o</text><text xml:space="preserve" font-family="SourceCodePro-Semibold" font-weight="bold" font-size="22.0" fill="#E82662" transform="matrix(1.00, 0.00, -0.00, -1.00, 101.4, 48.0)">t</text><text xml:space="preserve" font-family="SourceCodePro-Semibold" font-weight="bold" font-size="22.0" fill="#E82662" transform="matrix(1.00, 0.00, -0.00, -1.00, 114.6, 48.0)"> </text><text xml:space="preserve" font-family="SourceCodePro-Semibold" font-weight="bold" font-size="22.0" fill="#E82662" transform="matrix(1.00, 0.00, -0.00, -1.00, 127.8, 48.0)">s</text><text xml:space="preserve" font-family="SourceCodePro-Semibold" font-weight="bold" font-size="22.0" fill="#E82662" transform="matrix(1.00, 0.00, -0.00, -1.00, 141.0, 48.0)">t</text><text xml:space="preserve" font-family="SourceCodePro-Semibold" font-weight="bold" font-size="22.0" fill="#E82662" transform="matrix(1.00, 0.00, -0.00, -1.00, 154.2, 48.0)">a</text><text xml:space="preserve" font-family="SourceCodePro-Semibold" font-weight="bold" font-size="22.0" fill="#E82662" transform="matrix(1.00, 0.00, -0.00, -1.00, 167.4, 48.0)">t</text><text xml:space="preserve" font-family="SourceCodePro-Semibold" font-weight="bold" font-size="22.0" fill="#E82662" transform="matrix(1.00, 0.00, -0.00, -1.00, 180.6, 48.0)">e</text><text xml:space="preserve" font-family="SourceCodePro-Regular" font-size="22.0" fill="#616060" transform="matrix(1.00, 0.00, -0.00, -1.00, 193.8, 48.0)"> </text><text xml:space="preserve" font-family="SourceCodePro-Regular" font-size="22.0" fill="#616060" transform="matrix(1.00, 0.00, -0.00, -1.00, 207.0, 48.0)">a</text><text xml:space="preserve" font-family="SourceCodePro-Regular" font-size="22.0" fill="#616060" transform="matrix(1.00, 0.00, -0.00, -1.00, 220.2, 48.0)">n</text><text xml:space="preserve" font-family="SourceCodePro-Regular" font-size="22.0" fill="#616060" transform="matrix(1.00, 0.00, -0.00, -1.00, 233.4, 48.0)">d</text><text xml:space="preserve" font-family="SourceCodePro-Regular" font-size="22.0" fill="#616060" transform="matrix(1.00, 0.00, -0.00, -1.00, 246.6, 48.0)"> </text><text xml:space="preserve" font-family="SourceCodePro-Semibold" font-weight="bold" font-size="22.0" fill="#616060" transform="matrix(1.00, 0.00, -0.00, -1.00, 9.0, 20.0)">e</text><text xml:space="preserve" font-family="SourceCodePro-Semibold" font-weight="bold" font-size="22.0" fill="#616060" transform="matrix(1.00, 0.00, -0.00, -1.00, 22.2, 20.0)">m</text><text xml:space="preserve" font-family="SourceCodePro-Semibold" font-weight="bold" font-size="22.0" fill="#616060" transform="matrix(1.00, 0.00, -0.00, -1.00, 35.4, 20.0)">i</text><text xml:space="preserve" font-family="SourceCodePro-Semibold" font-weight="bold" font-size="22.0" fill="#616060" transform="matrix(1.00, 0.00, -0.00, -1.00, 48.6, 20.0)">t</text><text xml:space="preserve" font-family="SourceCodePro-Regular" font-size="22.0" fill="#616060" transform="matrix(1.00, 0.00, -0.00, -1.00, 61.8, 20.0)"> </text><text xml:space="preserve" font-family="SourceCodePro-Regular" font-size="22.0" fill="#616060" transform="matrix(1.00, 0.00, -0.00, -1.00, 75.0, 20.0)">n</text><text xml:space="preserve" font-family="SourceCodePro-Regular" font-size="22.0" fill="#616060" transform="matrix(1.00, 0.00, -0.00, -1.00, 88.2, 20.0)">e</text><text xml:space="preserve" font-family="SourceCodePro-Regular" font-size="22.0" fill="#616060" transform="matrix(1.00, 0.00, -0.00, -1.00, 101.4, 20.0)">w</text><text xml:space="preserve" font-family="SourceCodePro-Regular" font-size="22.0" fill="#616060" transform="matrix(1.00, 0.00, -0.00, -1.00, 114.6, 20.0)"> </text><text xml:space="preserve" font-family="SourceCodePro-Regular" font-size="22.0" fill="#616060" transform="matrix(1.00, 0.00, -0.00, -1.00, 127.8, 20.0)">b</text><text xml:space="preserve" font-family="SourceCodePro-Regular" font-size="22.0" fill="#616060" transform="matrix(1.00, 0.00, -0.00, -1.00, 141.0, 20.0)">a</text><text xml:space="preserve" font-family="SourceCodePro-Regular" font-size="22.0" fill="#616060" transform="matrix(1.00, 0.00, -0.00, -1.00, 154.2, 20.0)">r</text><text xml:space="preserve" font-family="SourceCodePro-Regular" font-size="22.0" fill="#616060" transform="matrix(1.00, 0.00, -0.00, -1.00, 167.4, 20.0)">r</text><text xml:space="preserve" font-family="SourceCodePro-Regular" font-size="22.0" fill="#616060" transform="matrix(1.00, 0.00, -0.00, -1.00, 180.6, 20.0)">i</text><text xml:space="preserve" font-family="SourceCodePro-Regular" font-size="22.0" fill="#616060" transform="matrix(1.00, 0.00, -0.00, -1.00, 193.8, 20.0)">e</text><text xml:space="preserve" font-family="SourceCodePro-Regular" font-size="22.0" fill="#616060" transform="matrix(1.00, 0.00, -0.00, -1.00, 207.0, 20.0)">r</text><text xml:space="preserve" font-family="SourceCodePro-Regular" font-size="22.0" fill="#616060" transform="matrix(1.00, 0.00, -0.00, -1.00, 220.2, 20.0)">.</text></g></g></g></svg>