<?xml version="1.0" encoding="UTF-8" standalone="no"?><svg xmlns="http://www.w3.org/2000/svg" xmlns:xlink="http://www.w3.org/1999/xlink" clip-rule="evenodd" stroke-miterlimit="4.00" viewBox="0 0 252 26"><desc>SVG generated by Keynote</desc><defs></defs><g transform="matrix(1.00, 0.00, -0.00, -1.00, 0.0, 26.0)"><text xml:space="preserve" font-family="SourceCodePro-Regular" font-size="30.0" fill="#0091E9" transform="matrix(1.00, 0.00, -0.00, -1.00, 1.0, 2.0)">T</text><text xml:space="preserve" font-family="SourceCodePro-Regular" font-size="30.0" fill="#0091E9" transform="matrix(1.00, 0.00, -0.00, -1.00, 19.0, 2.0)">S</text><text xml:space="preserve" font-family="SourceCodePro-Regular" font-size="30.0" fill="#0091E9" transform="matrix(1.00, 0.00, -0.00, -1.00, 37.0, 2.0)"> </text><text xml:space="preserve" font-family="SourceCodePro-Regular" font-size="30.0" fill="#0091E9" transform="matrix(1.00, 0.00, -0.00, -1.00, 55.0, 2.0)">=</text><text xml:space="preserve" font-family="SourceCodePro-Regular" font-size="30.0" fill="#0091E9" transform="matrix(1.00, 0.00, -0.00, -1.00, 73.0, 2.0)"> </text><text xml:space="preserve" font-family="SourceCodePro-Regular" font-size="30.0" fill="#0091E9" transform="matrix(1.00, 0.00, -0.00, -1.00, 91.0, 2.0)">w</text><text xml:space="preserve" font-family="SourceCodePro-Regular" font-size="30.0" fill="#0091E9" transform="matrix(1.00, 0.00, -0.00, -1.00, 109.0, 2.0)">i</text><text xml:space="preserve" font-family="SourceCodePro-Regular" font-size="30.0" fill="#0091E9" transform="matrix(1.00, 0.00, -0.00, -1.00, 127.0, 2.0)">n</text><text xml:space="preserve" font-family="SourceCodePro-Regular" font-size="30.0" fill="#0091E9" transform="matrix(1.00, 0.00, -0.00, -1.00, 145.0, 2.0)">d</text><text xml:space="preserve" font-family="SourceCodePro-Regular" font-size="30.0" fill="#0091E9" transform="matrix(1.00, 0.00, -0.00, -1.00, 163.0, 2.0)">o</text><text xml:space="preserve" font-family="SourceCodePro-Regular" font-size="30.0" fill="#0091E9" transform="matrix(1.00, 0.00, -0.00, -1.00, 181.0, 2.0)">w</text><text xml:space="preserve" font-family="SourceCodePro-Regular" font-size="30.0" fill="#0091E9" transform="matrix(1.00, 0.00, -0.00, -1.00, 199.0, 2.0)">E</text><text xml:space="preserve" font-family="SourceCodePro-Regular" font-size="30.0" fill="#0091E9" transform="matrix(1.00, 0.00, -0.00, -1.00, 217.0, 2.0)">n</text><text xml:space="preserve" font-family="SourceCodePro-Regular" font-size="30.0" fill="#0091E9" transform="matrix(1.00, 0.00, -0.00, -1.00, 235.0, 2.0)">d</text></g></svg>