<?xml version="1.0" encoding="UTF-8" standalone="no"?><svg xmlns="http://www.w3.org/2000/svg" xmlns:xlink="http://www.w3.org/1999/xlink" clip-rule="evenodd" stroke-miterlimit="4.00" viewBox="0 0 110 513"><desc>SVG generated by Keynote</desc><defs></defs><g transform="matrix(1.00, 0.00, -0.00, -1.00, 0.0, 513.0)"><g><clipPath id="clip-134"><path d="M 1.0 0.6 L 109.1 0.6 L 109.1 512.7 L 1.0 512.7 Z M 1.0 0.6 "></path></clipPath><g clip-path="url(#clip-134)"><path d="M 2.0 511.7 L 108.1 511.7 L 108.1 1.6 L 2.0 1.6 Z M 2.0 511.7 " fill="#2978FF"></path></g></g><g><clipPath id="clip-135"><path d="M 21.2 115.2 L 21.2 398.1 L 88.9 398.1 L 88.9 115.2 Z M 21.2 115.2 "></path></clipPath><g clip-path="url(#clip-135)"><text xml:space="preserve" font-family="SourceCodePro-Semibold" font-weight="bold" font-size="36.0" fill="#FEFFFF" transform="matrix(0.00, 1.00, 1.00, -0.00, 68.0, 127.0)">A</text><text xml:space="preserve" font-family="SourceCodePro-Semibold" font-weight="bold" font-size="36.0" fill="#FEFFFF" transform="matrix(0.00, 1.00, 1.00, -0.00, 68.0, 148.6)">c</text><text xml:space="preserve" font-family="SourceCodePro-Semibold" font-weight="bold" font-size="36.0" fill="#FEFFFF" transform="matrix(0.00, 1.00, 1.00, -0.00, 68.0, 170.2)">t</text><text xml:space="preserve" font-family="SourceCodePro-Semibold" font-weight="bold" font-size="36.0" fill="#FEFFFF" transform="matrix(0.00, 1.00, 1.00, -0.00, 68.0, 191.8)">o</text><text xml:space="preserve" font-family="SourceCodePro-Semibold" font-weight="bold" font-size="36.0" fill="#FEFFFF" transform="matrix(0.00, 1.00, 1.00, -0.00, 68.0, 213.4)">r</text><text xml:space="preserve" font-family="SourceCodePro-Semibold" font-weight="bold" font-size="36.0" fill="#FEFFFF" transform="matrix(0.00, 1.00, 1.00, -0.00, 68.0, 235.0)"> </text><text xml:space="preserve" font-family="SourceCodePro-Semibold" font-weight="bold" font-size="36.0" fill="#FEFFFF" transform="matrix(0.00, 1.00, 1.00, -0.00, 68.0, 256.6)">S</text><text xml:space="preserve" font-family="SourceCodePro-Semibold" font-weight="bold" font-size="36.0" fill="#FEFFFF" transform="matrix(0.00, 1.00, 1.00, -0.00, 68.0, 278.2)">y</text><text xml:space="preserve" font-family="SourceCodePro-Semibold" font-weight="bold" font-size="36.0" fill="#FEFFFF" transform="matrix(0.00, 1.00, 1.00, -0.00, 68.0, 299.8)">s</text><text xml:space="preserve" font-family="SourceCodePro-Semibold" font-weight="bold" font-size="36.0" fill="#FEFFFF" transform="matrix(0.00, 1.00, 1.00, -0.00, 68.0, 321.4)">t</text><text xml:space="preserve" font-family="SourceCodePro-Semibold" font-weight="bold" font-size="36.0" fill="#FEFFFF" transform="matrix(0.00, 1.00, 1.00, -0.00, 68.0, 343.0)">e</text><text xml:space="preserve" font-family="SourceCodePro-Semibold" font-weight="bold" font-size="36.0" fill="#FEFFFF" transform="matrix(0.00, 1.00, 1.00, -0.00, 68.0, 364.6)">m</text></g></g></g></svg>