<?xml version="1.0" encoding="UTF-8" standalone="no"?><svg xmlns="http://www.w3.org/2000/svg" xmlns:xlink="http://www.w3.org/1999/xlink" clip-rule="evenodd" stroke-miterlimit="4.00" viewBox="0 0 274 218"><desc>SVG generated by Keynote</desc><defs></defs><g transform="matrix(1.00, 0.00, -0.00, -1.00, 0.0, 218.0)"><path d="M 133.4 -27.4 L 108.8 0.0 L 5.0 0.0 C 2.2 0.0 0.0 2.2 0.0 5.0 L 0.0 177.2 C 0.0 179.9 2.2 182.2 5.0 182.2 L 261.6 182.2 C 264.4 182.2 266.6 179.9 266.6 177.2 L 266.6 5.0 C 266.6 2.2 264.4 0.0 261.6 0.0 L 157.9 0.0 L 133.4 -27.4 Z M 133.4 -27.4 " fill="none" stroke="#616060" stroke-width="4.00" transform="matrix(1.00, 0.00, 0.00, -1.00, 3.7, 186.0)"></path><g><clipPath id="clip-625"><path d="M 2.8 3.8 L 271.2 3.8 L 271.2 186.0 L 2.8 186.0 Z M 2.8 3.8 "></path></clipPath><g clip-path="url(#clip-625)"><text xml:space="preserve" font-family="SourceCodePro-Regular" font-size="22.0" fill="#616060" transform="matrix(1.00, 0.00, -0.00, -1.00, 10.0, 143.0)">O</text><text xml:space="preserve" font-family="SourceCodePro-Regular" font-size="22.0" fill="#616060" transform="matrix(1.00, 0.00, -0.00, -1.00, 23.2, 143.0)">K</text><text xml:space="preserve" font-family="SourceCodePro-Regular" font-size="22.0" fill="#616060" transform="matrix(1.00, 0.00, -0.00, -1.00, 36.4, 143.0)">,</text><text xml:space="preserve" font-family="SourceCodePro-Regular" font-size="22.0" fill="#616060" transform="matrix(1.00, 0.00, -0.00, -1.00, 49.6, 143.0)"> </text><text xml:space="preserve" font-family="SourceCodePro-Regular" font-size="22.0" fill="#616060" transform="matrix(1.00, 0.00, -0.00, -1.00, 62.8, 143.0)">n</text><text xml:space="preserve" font-family="SourceCodePro-Regular" font-size="22.0" fill="#616060" transform="matrix(1.00, 0.00, -0.00, -1.00, 76.0, 143.0)">o</text><text xml:space="preserve" font-family="SourceCodePro-Regular" font-size="22.0" fill="#616060" transform="matrix(1.00, 0.00, -0.00, -1.00, 89.2, 143.0)">w</text><text xml:space="preserve" font-family="SourceCodePro-Regular" font-size="22.0" fill="#616060" transform="matrix(1.00, 0.00, -0.00, -1.00, 102.4, 143.0)"> </text><text xml:space="preserve" font-family="SourceCodePro-Semibold" font-weight="bold" font-size="22.0" fill="#616060" transform="matrix(1.00, 0.00, -0.00, -1.00, 115.6, 143.0)">I</text><text xml:space="preserve" font-family="SourceCodePro-Semibold" font-weight="bold" font-size="22.0" fill="#616060" transform="matrix(1.00, 0.00, -0.00, -1.00, 128.8, 143.0)"> </text><text xml:space="preserve" font-family="SourceCodePro-Semibold" font-weight="bold" font-size="22.0" fill="#616060" transform="matrix(1.00, 0.00, -0.00, -1.00, 142.0, 143.0)">c</text><text xml:space="preserve" font-family="SourceCodePro-Semibold" font-weight="bold" font-size="22.0" fill="#616060" transform="matrix(1.00, 0.00, -0.00, -1.00, 155.2, 143.0)">a</text><text xml:space="preserve" font-family="SourceCodePro-Semibold" font-weight="bold" font-size="22.0" fill="#616060" transform="matrix(1.00, 0.00, -0.00, -1.00, 168.4, 143.0)">n</text><text xml:space="preserve" font-family="SourceCodePro-Semibold" font-weight="bold" font-size="22.0" fill="#616060" transform="matrix(1.00, 0.00, -0.00, -1.00, 181.6, 143.0)"> </text><text xml:space="preserve" font-family="SourceCodePro-Semibold" font-weight="bold" font-size="22.0" fill="#616060" transform="matrix(1.00, 0.00, -0.00, -1.00, 10.0, 115.0)">p</text><text xml:space="preserve" font-family="SourceCodePro-Semibold" font-weight="bold" font-size="22.0" fill="#616060" transform="matrix(1.00, 0.00, -0.00, -1.00, 23.2, 115.0)">r</text><text xml:space="preserve" font-family="SourceCodePro-Semibold" font-weight="bold" font-size="22.0" fill="#616060" transform="matrix(1.00, 0.00, -0.00, -1.00, 36.4, 115.0)">o</text><text xml:space="preserve" font-family="SourceCodePro-Semibold" font-weight="bold" font-size="22.0" fill="#616060" transform="matrix(1.00, 0.00, -0.00, -1.00, 49.6, 115.0)">c</text><text xml:space="preserve" font-family="SourceCodePro-Semibold" font-weight="bold" font-size="22.0" fill="#616060" transform="matrix(1.00, 0.00, -0.00, -1.00, 62.8, 115.0)">e</text><text xml:space="preserve" font-family="SourceCodePro-Semibold" font-weight="bold" font-size="22.0" fill="#616060" transform="matrix(1.00, 0.00, -0.00, -1.00, 76.0, 115.0)">s</text><text xml:space="preserve" font-family="SourceCodePro-Semibold" font-weight="bold" font-size="22.0" fill="#616060" transform="matrix(1.00, 0.00, -0.00, -1.00, 89.2, 115.0)">s</text><text xml:space="preserve" font-family="SourceCodePro-Semibold" font-weight="bold" font-size="22.0" fill="#616060" transform="matrix(1.00, 0.00, -0.00, -1.00, 102.4, 115.0)"> </text><text xml:space="preserve" font-family="SourceCodePro-Semibold" font-weight="bold" font-size="22.0" fill="#616060" transform="matrix(1.00, 0.00, -0.00, -1.00, 115.6, 115.0)">a</text><text xml:space="preserve" font-family="SourceCodePro-Semibold" font-weight="bold" font-size="22.0" fill="#616060" transform="matrix(1.00, 0.00, -0.00, -1.00, 128.8, 115.0)">l</text><text xml:space="preserve" font-family="SourceCodePro-Semibold" font-weight="bold" font-size="22.0" fill="#616060" transform="matrix(1.00, 0.00, -0.00, -1.00, 142.0, 115.0)">l</text><text xml:space="preserve" font-family="SourceCodePro-Semibold" font-weight="bold" font-size="22.0" fill="#616060" transform="matrix(1.00, 0.00, -0.00, -1.00, 155.2, 115.0)"> </text><text xml:space="preserve" font-family="SourceCodePro-Semibold" font-weight="bold" font-size="22.0" fill="#616060" transform="matrix(1.00, 0.00, -0.00, -1.00, 168.4, 115.0)">t</text><text xml:space="preserve" font-family="SourceCodePro-Semibold" font-weight="bold" font-size="22.0" fill="#616060" transform="matrix(1.00, 0.00, -0.00, -1.00, 181.6, 115.0)">h</text><text xml:space="preserve" font-family="SourceCodePro-Semibold" font-weight="bold" font-size="22.0" fill="#616060" transform="matrix(1.00, 0.00, -0.00, -1.00, 194.8, 115.0)">e</text><text xml:space="preserve" font-family="SourceCodePro-Semibold" font-weight="bold" font-size="22.0" fill="#616060" transform="matrix(1.00, 0.00, -0.00, -1.00, 208.0, 115.0)"> </text><text xml:space="preserve" font-family="SourceCodePro-Semibold" font-weight="bold" font-size="22.0" fill="#E82662" transform="matrix(1.00, 0.00, -0.00, -1.00, 10.0, 87.0)">w</text><text xml:space="preserve" font-family="SourceCodePro-Semibold" font-weight="bold" font-size="22.0" fill="#E82662" transform="matrix(1.00, 0.00, -0.00, -1.00, 23.2, 87.0)">i</text><text xml:space="preserve" font-family="SourceCodePro-Semibold" font-weight="bold" font-size="22.0" fill="#E82662" transform="matrix(1.00, 0.00, -0.00, -1.00, 36.4, 87.0)">n</text><text xml:space="preserve" font-family="SourceCodePro-Semibold" font-weight="bold" font-size="22.0" fill="#E82662" transform="matrix(1.00, 0.00, -0.00, -1.00, 49.6, 87.0)">d</text><text xml:space="preserve" font-family="SourceCodePro-Semibold" font-weight="bold" font-size="22.0" fill="#E82662" transform="matrix(1.00, 0.00, -0.00, -1.00, 62.8, 87.0)">o</text><text xml:space="preserve" font-family="SourceCodePro-Semibold" font-weight="bold" font-size="22.0" fill="#E82662" transform="matrix(1.00, 0.00, -0.00, -1.00, 76.0, 87.0)">w</text><text xml:space="preserve" font-family="SourceCodePro-Semibold" font-weight="bold" font-size="22.0" fill="#E82662" transform="matrix(1.00, 0.00, -0.00, -1.00, 89.2, 87.0)">s</text><text xml:space="preserve" font-family="SourceCodePro-Semibold" font-weight="bold" font-size="22.0" fill="#616060" transform="matrix(1.00, 0.00, -0.00, -1.00, 102.4, 87.0)"> </text><text xml:space="preserve" font-family="SourceCodePro-Semibold" font-weight="bold" font-size="22.0" fill="#616060" transform="matrix(1.00, 0.00, -0.00, -1.00, 115.6, 87.0)">e</text><text xml:space="preserve" font-family="SourceCodePro-Semibold" font-weight="bold" font-size="22.0" fill="#616060" transform="matrix(1.00, 0.00, -0.00, -1.00, 128.8, 87.0)">n</text><text xml:space="preserve" font-family="SourceCodePro-Semibold" font-weight="bold" font-size="22.0" fill="#616060" transform="matrix(1.00, 0.00, -0.00, -1.00, 142.0, 87.0)">d</text><text xml:space="preserve" font-family="SourceCodePro-Semibold" font-weight="bold" font-size="22.0" fill="#616060" transform="matrix(1.00, 0.00, -0.00, -1.00, 155.2, 87.0)">i</text><text xml:space="preserve" font-family="SourceCodePro-Semibold" font-weight="bold" font-size="22.0" fill="#616060" transform="matrix(1.00, 0.00, -0.00, -1.00, 168.4, 87.0)">n</text><text xml:space="preserve" font-family="SourceCodePro-Semibold" font-weight="bold" font-size="22.0" fill="#616060" transform="matrix(1.00, 0.00, -0.00, -1.00, 181.6, 87.0)">g</text><text xml:space="preserve" font-family="SourceCodePro-Semibold" font-weight="bold" font-size="22.0" fill="#616060" transform="matrix(1.00, 0.00, -0.00, -1.00, 194.8, 87.0)"> </text><text xml:space="preserve" font-family="SourceCodePro-Semibold" font-weight="bold" font-size="22.0" fill="#616060" transform="matrix(1.00, 0.00, -0.00, -1.00, 208.0, 87.0)">w</text><text xml:space="preserve" font-family="SourceCodePro-Semibold" font-weight="bold" font-size="22.0" fill="#616060" transform="matrix(1.00, 0.00, -0.00, -1.00, 221.2, 87.0)">i</text><text xml:space="preserve" font-family="SourceCodePro-Semibold" font-weight="bold" font-size="22.0" fill="#616060" transform="matrix(1.00, 0.00, -0.00, -1.00, 234.4, 87.0)">t</text><text xml:space="preserve" font-family="SourceCodePro-Semibold" font-weight="bold" font-size="22.0" fill="#616060" transform="matrix(1.00, 0.00, -0.00, -1.00, 247.6, 87.0)">h</text><text xml:space="preserve" font-family="SourceCodePro-Semibold" font-weight="bold" font-size="22.0" fill="#616060" transform="matrix(1.00, 0.00, -0.00, -1.00, 260.8, 87.0)"> </text><text xml:space="preserve" font-family="SourceCodePro-Semibold" font-weight="bold" font-size="22.0" fill="#616060" transform="matrix(1.00, 0.00, -0.00, -1.00, 10.0, 59.0)">t</text><text xml:space="preserve" font-family="SourceCodePro-Semibold" font-weight="bold" font-size="22.0" fill="#616060" transform="matrix(1.00, 0.00, -0.00, -1.00, 23.2, 59.0)">i</text><text xml:space="preserve" font-family="SourceCodePro-Semibold" font-weight="bold" font-size="22.0" fill="#616060" transform="matrix(1.00, 0.00, -0.00, -1.00, 36.4, 59.0)">m</text><text xml:space="preserve" font-family="SourceCodePro-Semibold" font-weight="bold" font-size="22.0" fill="#616060" transform="matrix(1.00, 0.00, -0.00, -1.00, 49.6, 59.0)">e</text><text xml:space="preserve" font-family="SourceCodePro-Semibold" font-weight="bold" font-size="22.0" fill="#616060" transform="matrix(1.00, 0.00, -0.00, -1.00, 62.8, 59.0)">s</text><text xml:space="preserve" font-family="SourceCodePro-Semibold" font-weight="bold" font-size="22.0" fill="#616060" transform="matrix(1.00, 0.00, -0.00, -1.00, 76.0, 59.0)">t</text><text xml:space="preserve" font-family="SourceCodePro-Semibold" font-weight="bold" font-size="22.0" fill="#616060" transform="matrix(1.00, 0.00, -0.00, -1.00, 89.2, 59.0)">a</text><text xml:space="preserve" font-family="SourceCodePro-Semibold" font-weight="bold" font-size="22.0" fill="#616060" transform="matrix(1.00, 0.00, -0.00, -1.00, 102.4, 59.0)">m</text><text xml:space="preserve" font-family="SourceCodePro-Semibold" font-weight="bold" font-size="22.0" fill="#616060" transform="matrix(1.00, 0.00, -0.00, -1.00, 115.6, 59.0)">p</text><text xml:space="preserve" font-family="SourceCodePro-Semibold" font-weight="bold" font-size="22.0" fill="#616060" transform="matrix(1.00, 0.00, -0.00, -1.00, 128.8, 59.0)"> </text><text xml:space="preserve" font-family="SourceCodePro-Semibold" font-weight="bold" font-size="22.0" fill="#616060" transform="matrix(1.00, 0.00, -0.00, -1.00, 142.0, 59.0)">&lt;</text><text xml:space="preserve" font-family="SourceCodePro-Semibold" font-weight="bold" font-size="22.0" fill="#616060" transform="matrix(1.00, 0.00, -0.00, -1.00, 155.2, 59.0)">=</text><text xml:space="preserve" font-family="SourceCodePro-Semibold" font-weight="bold" font-size="22.0" fill="#616060" transform="matrix(1.00, 0.00, -0.00, -1.00, 168.4, 59.0)"> </text><text xml:space="preserve" font-family="SourceCodePro-Semibold" font-weight="bold" font-size="22.0" fill="#616060" transform="matrix(1.00, 0.00, -0.00, -1.00, 181.6, 59.0)">4</text><text xml:space="preserve" font-family="SourceCodePro-Regular" font-size="22.0" fill="#616060" transform="matrix(1.00, 0.00, -0.00, -1.00, 194.8, 59.0)">.</text><text xml:space="preserve" font-family="SourceCodePro-Regular" font-size="22.0" fill="#616060" transform="matrix(1.00, 0.00, -0.00, -1.00, 208.0, 59.0)"> </text><text xml:space="preserve" font-family="SourceCodePro-Semibold" font-weight="bold" font-size="22.0" fill="#E82662" transform="matrix(1.00, 0.00, -0.00, -1.00, 10.0, 31.0)">B</text><text xml:space="preserve" font-family="SourceCodePro-Semibold" font-weight="bold" font-size="22.0" fill="#E82662" transform="matrix(1.00, 0.00, -0.00, -1.00, 23.2, 31.0)">r</text><text xml:space="preserve" font-family="SourceCodePro-Semibold" font-weight="bold" font-size="22.0" fill="#E82662" transform="matrix(1.00, 0.00, -0.00, -1.00, 36.4, 31.0)">o</text><text xml:space="preserve" font-family="SourceCodePro-Semibold" font-weight="bold" font-size="22.0" fill="#E82662" transform="matrix(1.00, 0.00, -0.00, -1.00, 49.6, 31.0)">a</text><text xml:space="preserve" font-family="SourceCodePro-Semibold" font-weight="bold" font-size="22.0" fill="#E82662" transform="matrix(1.00, 0.00, -0.00, -1.00, 62.8, 31.0)">d</text><text xml:space="preserve" font-family="SourceCodePro-Semibold" font-weight="bold" font-size="22.0" fill="#E82662" transform="matrix(1.00, 0.00, -0.00, -1.00, 76.0, 31.0)">c</text><text xml:space="preserve" font-family="SourceCodePro-Semibold" font-weight="bold" font-size="22.0" fill="#E82662" transform="matrix(1.00, 0.00, -0.00, -1.00, 89.2, 31.0)">a</text><text xml:space="preserve" font-family="SourceCodePro-Semibold" font-weight="bold" font-size="22.0" fill="#E82662" transform="matrix(1.00, 0.00, -0.00, -1.00, 102.4, 31.0)">s</text><text xml:space="preserve" font-family="SourceCodePro-Semibold" font-weight="bold" font-size="22.0" fill="#E82662" transform="matrix(1.00, 0.00, -0.00, -1.00, 115.6, 31.0)">t</text><text xml:space="preserve" font-family="SourceCodePro-Semibold" font-weight="bold" font-size="22.0" fill="#E82662" transform="matrix(1.00, 0.00, -0.00, -1.00, 128.8, 31.0)"> </text><text xml:space="preserve" font-family="SourceCodePro-Semibold" font-weight="bold" font-size="22.0" fill="#E82662" transform="matrix(1.00, 0.00, -0.00, -1.00, 142.0, 31.0)">W</text><text xml:space="preserve" font-family="SourceCodePro-Semibold" font-weight="bold" font-size="22.0" fill="#E82662" transform="matrix(1.00, 0.00, -0.00, -1.00, 155.2, 31.0)">M</text><text xml:space="preserve" font-family="SourceCodePro-Regular" font-size="22.0" fill="#616060" transform="matrix(1.00, 0.00, -0.00, -1.00, 168.4, 31.0)">.</text></g></g></g></svg>