<?xml version="1.0" encoding="UTF-8" standalone="no"?><svg xmlns="http://www.w3.org/2000/svg" xmlns:xlink="http://www.w3.org/1999/xlink" clip-rule="evenodd" stroke-miterlimit="4.00" viewBox="0 0 1024 768"><desc>SVG generated by Keynote</desc><defs></defs><g transform="matrix(1.00, 0.00, -0.00, -1.00, 0.0, 768.0)"><path d="M 0.0 768.0 L 1024.0 768.0 L 1024.0 0.0 L 0.0 0.0 Z M 0.0 768.0 " fill="#FEFFFF"></path><text xml:space="preserve" font-family="SourceCodePro-Regular" font-size="12.0" fill="#747474" transform="matrix(1.00, 0.00, -0.00, -1.00, 19.0, 19.0)">L</text><text xml:space="preserve" font-family="SourceCodePro-Regular" font-size="12.0" fill="#747474" transform="matrix(1.00, 0.00, -0.00, -1.00, 26.2, 19.0)">o</text><text xml:space="preserve" font-family="SourceCodePro-Regular" font-size="12.0" fill="#747474" transform="matrix(1.00, 0.00, -0.00, -1.00, 33.4, 19.0)">r</text><text xml:space="preserve" font-family="SourceCodePro-Regular" font-size="12.0" fill="#747474" transform="matrix(1.00, 0.00, -0.00, -1.00, 40.6, 19.0)">e</text><text xml:space="preserve" font-family="SourceCodePro-Regular" font-size="12.0" fill="#747474" transform="matrix(1.00, 0.00, -0.00, -1.00, 47.8, 19.0)">n</text><text xml:space="preserve" font-family="SourceCodePro-Regular" font-size="12.0" fill="#747474" transform="matrix(1.00, 0.00, -0.00, -1.00, 55.0, 19.0)">z</text><text xml:space="preserve" font-family="SourceCodePro-Regular" font-size="12.0" fill="#747474" transform="matrix(1.00, 0.00, -0.00, -1.00, 62.2, 19.0)">o</text><text xml:space="preserve" font-family="SourceCodePro-Regular" font-size="12.0" fill="#747474" transform="matrix(1.00, 0.00, -0.00, -1.00, 69.4, 19.0)"> </text><text xml:space="preserve" font-family="SourceCodePro-Regular" font-size="12.0" fill="#747474" transform="matrix(1.00, 0.00, -0.00, -1.00, 76.6, 19.0)">A</text><text xml:space="preserve" font-family="SourceCodePro-Regular" font-size="12.0" fill="#747474" transform="matrix(1.00, 0.00, -0.00, -1.00, 83.8, 19.0)">f</text><text xml:space="preserve" font-family="SourceCodePro-Regular" font-size="12.0" fill="#747474" transform="matrix(1.00, 0.00, -0.00, -1.00, 91.0, 19.0)">f</text><text xml:space="preserve" font-family="SourceCodePro-Regular" font-size="12.0" fill="#747474" transform="matrix(1.00, 0.00, -0.00, -1.00, 98.2, 19.0)">e</text><text xml:space="preserve" font-family="SourceCodePro-Regular" font-size="12.0" fill="#747474" transform="matrix(1.00, 0.00, -0.00, -1.00, 105.4, 19.0)">t</text><text xml:space="preserve" font-family="SourceCodePro-Regular" font-size="12.0" fill="#747474" transform="matrix(1.00, 0.00, -0.00, -1.00, 112.6, 19.0)">t</text><text xml:space="preserve" font-family="SourceCodePro-Regular" font-size="12.0" fill="#747474" transform="matrix(1.00, 0.00, -0.00, -1.00, 119.8, 19.0)">i</text><text xml:space="preserve" font-family="SourceCodePro-Regular" font-size="12.0" fill="#747474" transform="matrix(1.00, 0.00, -0.00, -1.00, 127.0, 19.0)"> </text><text xml:space="preserve" font-family="SourceCodePro-Regular" font-size="12.0" fill="#747474" transform="matrix(1.00, 0.00, -0.00, -1.00, 134.2, 19.0)">(</text><text xml:space="preserve" font-family="SourceCodePro-Regular" font-size="12.0" fill="#747474" transform="matrix(1.00, 0.00, -0.00, -1.00, 141.4, 19.0)">l</text><text xml:space="preserve" font-family="SourceCodePro-Regular" font-size="12.0" fill="#747474" transform="matrix(1.00, 0.00, -0.00, -1.00, 148.6, 19.0)">o</text><text xml:space="preserve" font-family="SourceCodePro-Regular" font-size="12.0" fill="#747474" transform="matrix(1.00, 0.00, -0.00, -1.00, 155.8, 19.0)">r</text><text xml:space="preserve" font-family="SourceCodePro-Regular" font-size="12.0" fill="#747474" transform="matrix(1.00, 0.00, -0.00, -1.00, 163.0, 19.0)">e</text><text xml:space="preserve" font-family="SourceCodePro-Regular" font-size="12.0" fill="#747474" transform="matrix(1.00, 0.00, -0.00, -1.00, 170.2, 19.0)">n</text><text xml:space="preserve" font-family="SourceCodePro-Regular" font-size="12.0" fill="#747474" transform="matrix(1.00, 0.00, -0.00, -1.00, 177.4, 19.0)">z</text><text xml:space="preserve" font-family="SourceCodePro-Regular" font-size="12.0" fill="#747474" transform="matrix(1.00, 0.00, -0.00, -1.00, 184.6, 19.0)">o</text><text xml:space="preserve" font-family="SourceCodePro-Regular" font-size="12.0" fill="#747474" transform="matrix(1.00, 0.00, -0.00, -1.00, 191.8, 19.0)">.</text><text xml:space="preserve" font-family="SourceCodePro-Regular" font-size="12.0" fill="#747474" transform="matrix(1.00, 0.00, -0.00, -1.00, 199.0, 19.0)">a</text><text xml:space="preserve" font-family="SourceCodePro-Regular" font-size="12.0" fill="#747474" transform="matrix(1.00, 0.00, -0.00, -1.00, 206.2, 19.0)">f</text><text xml:space="preserve" font-family="SourceCodePro-Regular" font-size="12.0" fill="#747474" transform="matrix(1.00, 0.00, -0.00, -1.00, 213.4, 19.0)">f</text><text xml:space="preserve" font-family="SourceCodePro-Regular" font-size="12.0" fill="#747474" transform="matrix(1.00, 0.00, -0.00, -1.00, 220.6, 19.0)">e</text><text xml:space="preserve" font-family="SourceCodePro-Regular" font-size="12.0" fill="#747474" transform="matrix(1.00, 0.00, -0.00, -1.00, 227.8, 19.0)">t</text><text xml:space="preserve" font-family="SourceCodePro-Regular" font-size="12.0" fill="#747474" transform="matrix(1.00, 0.00, -0.00, -1.00, 235.0, 19.0)">t</text><text xml:space="preserve" font-family="SourceCodePro-Regular" font-size="12.0" fill="#747474" transform="matrix(1.00, 0.00, -0.00, -1.00, 242.2, 19.0)">i</text><text xml:space="preserve" font-family="SourceCodePro-Regular" font-size="12.0" fill="#747474" transform="matrix(1.00, 0.00, -0.00, -1.00, 249.4, 19.0)">@</text><text xml:space="preserve" font-family="SourceCodePro-Regular" font-size="12.0" fill="#747474" transform="matrix(1.00, 0.00, -0.00, -1.00, 256.6, 19.0)">p</text><text xml:space="preserve" font-family="SourceCodePro-Regular" font-size="12.0" fill="#747474" transform="matrix(1.00, 0.00, -0.00, -1.00, 263.8, 19.0)">o</text><text xml:space="preserve" font-family="SourceCodePro-Regular" font-size="12.0" fill="#747474" transform="matrix(1.00, 0.00, -0.00, -1.00, 271.0, 19.0)">l</text><text xml:space="preserve" font-family="SourceCodePro-Regular" font-size="12.0" fill="#747474" transform="matrix(1.00, 0.00, -0.00, -1.00, 278.2, 19.0)">i</text><text xml:space="preserve" font-family="SourceCodePro-Regular" font-size="12.0" fill="#747474" transform="matrix(1.00, 0.00, -0.00, -1.00, 285.4, 19.0)">m</text><text xml:space="preserve" font-family="SourceCodePro-Regular" font-size="12.0" fill="#747474" transform="matrix(1.00, 0.00, -0.00, -1.00, 292.6, 19.0)">i</text><text xml:space="preserve" font-family="SourceCodePro-Regular" font-size="12.0" fill="#747474" transform="matrix(1.00, 0.00, -0.00, -1.00, 299.8, 19.0)">.</text><text xml:space="preserve" font-family="SourceCodePro-Regular" font-size="12.0" fill="#747474" transform="matrix(1.00, 0.00, -0.00, -1.00, 307.0, 19.0)">i</text><text xml:space="preserve" font-family="SourceCodePro-Regular" font-size="12.0" fill="#747474" transform="matrix(1.00, 0.00, -0.00, -1.00, 314.2, 19.0)">t</text><text xml:space="preserve" font-family="SourceCodePro-Regular" font-size="12.0" fill="#747474" transform="matrix(1.00, 0.00, -0.00, -1.00, 321.4, 19.0)">)</text><text xml:space="preserve" font-family="SourceCodePro-Regular" font-size="12.0" fill="#747474" transform="matrix(1.00, 0.00, -0.00, -1.00, 328.6, 19.0)"> </text><text xml:space="preserve" font-family="SourceCodePro-Regular" font-size="12.0" fill="#747474" transform="matrix(1.00, 0.00, -0.00, -1.00, 335.8, 19.0)">-</text><text xml:space="preserve" font-family="SourceCodePro-Regular" font-size="12.0" fill="#747474" transform="matrix(1.00, 0.00, -0.00, -1.00, 343.0, 19.0)"> </text><text xml:space="preserve" font-family="SourceCodePro-Regular" font-size="12.0" fill="#747474" transform="matrix(1.00, 0.00, -0.00, -1.00, 350.2, 19.0)">P</text><text xml:space="preserve" font-family="SourceCodePro-Regular" font-size="12.0" fill="#747474" transform="matrix(1.00, 0.00, -0.00, -1.00, 357.4, 19.0)">o</text><text xml:space="preserve" font-family="SourceCodePro-Regular" font-size="12.0" fill="#747474" transform="matrix(1.00, 0.00, -0.00, -1.00, 364.6, 19.0)">l</text><text xml:space="preserve" font-family="SourceCodePro-Regular" font-size="12.0" fill="#747474" transform="matrix(1.00, 0.00, -0.00, -1.00, 371.8, 19.0)">i</text><text xml:space="preserve" font-family="SourceCodePro-Regular" font-size="12.0" fill="#747474" transform="matrix(1.00, 0.00, -0.00, -1.00, 379.0, 19.0)">t</text><text xml:space="preserve" font-family="SourceCodePro-Regular" font-size="12.0" fill="#747474" transform="matrix(1.00, 0.00, -0.00, -1.00, 386.2, 19.0)">e</text><text xml:space="preserve" font-family="SourceCodePro-Regular" font-size="12.0" fill="#747474" transform="matrix(1.00, 0.00, -0.00, -1.00, 393.4, 19.0)">c</text><text xml:space="preserve" font-family="SourceCodePro-Regular" font-size="12.0" fill="#747474" transform="matrix(1.00, 0.00, -0.00, -1.00, 400.6, 19.0)">n</text><text xml:space="preserve" font-family="SourceCodePro-Regular" font-size="12.0" fill="#747474" transform="matrix(1.00, 0.00, -0.00, -1.00, 407.8, 19.0)">i</text><text xml:space="preserve" font-family="SourceCodePro-Regular" font-size="12.0" fill="#747474" transform="matrix(1.00, 0.00, -0.00, -1.00, 415.0, 19.0)">c</text><text xml:space="preserve" font-family="SourceCodePro-Regular" font-size="12.0" fill="#747474" transform="matrix(1.00, 0.00, -0.00, -1.00, 422.2, 19.0)">o</text><text xml:space="preserve" font-family="SourceCodePro-Regular" font-size="12.0" fill="#747474" transform="matrix(1.00, 0.00, -0.00, -1.00, 429.4, 19.0)"> </text><text xml:space="preserve" font-family="SourceCodePro-Regular" font-size="12.0" fill="#747474" transform="matrix(1.00, 0.00, -0.00, -1.00, 436.6, 19.0)">d</text><text xml:space="preserve" font-family="SourceCodePro-Regular" font-size="12.0" fill="#747474" transform="matrix(1.00, 0.00, -0.00, -1.00, 443.8, 19.0)">i</text><text xml:space="preserve" font-family="SourceCodePro-Regular" font-size="12.0" fill="#747474" transform="matrix(1.00, 0.00, -0.00, -1.00, 451.0, 19.0)"> </text><text xml:space="preserve" font-family="SourceCodePro-Regular" font-size="12.0" fill="#747474" transform="matrix(1.00, 0.00, -0.00, -1.00, 458.2, 19.0)">M</text><text xml:space="preserve" font-family="SourceCodePro-Regular" font-size="12.0" fill="#747474" transform="matrix(1.00, 0.00, -0.00, -1.00, 465.4, 19.0)">i</text><text xml:space="preserve" font-family="SourceCodePro-Regular" font-size="12.0" fill="#747474" transform="matrix(1.00, 0.00, -0.00, -1.00, 472.6, 19.0)">l</text><text xml:space="preserve" font-family="SourceCodePro-Regular" font-size="12.0" fill="#747474" transform="matrix(1.00, 0.00, -0.00, -1.00, 479.8, 19.0)">a</text><text xml:space="preserve" font-family="SourceCodePro-Regular" font-size="12.0" fill="#747474" transform="matrix(1.00, 0.00, -0.00, -1.00, 487.0, 19.0)">n</text><text xml:space="preserve" font-family="SourceCodePro-Regular" font-size="12.0" fill="#747474" transform="matrix(1.00, 0.00, -0.00, -1.00, 494.2, 19.0)">o</text><text xml:space="preserve" font-family="SourceCodePro-Regular" font-size="12.0" fill="#747474" transform="matrix(1.00, 0.00, -0.00, -1.00, 501.4, 19.0)">,</text><text xml:space="preserve" font-family="SourceCodePro-Regular" font-size="12.0" fill="#747474" transform="matrix(1.00, 0.00, -0.00, -1.00, 508.6, 19.0)"> </text><text xml:space="preserve" font-family="SourceCodePro-Regular" font-size="12.0" fill="#747474" transform="matrix(1.00, 0.00, -0.00, -1.00, 515.8, 19.0)">D</text><text xml:space="preserve" font-family="SourceCodePro-Regular" font-size="12.0" fill="#747474" transform="matrix(1.00, 0.00, -0.00, -1.00, 523.0, 19.0)">E</text><text xml:space="preserve" font-family="SourceCodePro-Regular" font-size="12.0" fill="#747474" transform="matrix(1.00, 0.00, -0.00, -1.00, 530.2, 19.0)">I</text><text xml:space="preserve" font-family="SourceCodePro-Regular" font-size="12.0" fill="#747474" transform="matrix(1.00, 0.00, -0.00, -1.00, 537.4, 19.0)">B</text><g><clipPath id="clip-47"><path d="M 140.8 16.1 L 321.8 16.1 L 321.8 18.7 L 140.8 18.7 Z M 140.8 16.1 "></path></clipPath><g clip-path="url(#clip-47)"><path d="M 126.9 17.1 L 306.9 17.1 " fill="none" stroke="#747474" stroke-width="0.60" stroke-miterlimit="0.00" transform="matrix(1.00, 0.00, 0.00, -1.00, 14.9, 34.5)"></path></g></g><text xml:space="preserve" font-family="Helvetica-Light" font-size="18.0" fill="#000000" transform="matrix(1.00, 0.00, -0.00, -1.00, 992.0, 16.0)">1</text><text xml:space="preserve" font-family="Helvetica-Light" font-size="18.0" fill="#000000" transform="matrix(1.00, 0.00, -0.00, -1.00, 1002.0, 16.0)">1</text><text xml:space="preserve" font-family="SourceCodePro-Regular" font-size="30.0" fill="#52575F" transform="matrix(1.00, 0.00, -0.00, -1.00, 233.0, 66.0)">C</text><text xml:space="preserve" font-family="SourceCodePro-Regular" font-size="30.0" fill="#52575F" transform="matrix(1.00, 0.00, -0.00, -1.00, 251.0, 66.0)">o</text><text xml:space="preserve" font-family="SourceCodePro-Regular" font-size="30.0" fill="#52575F" transform="matrix(1.00, 0.00, -0.00, -1.00, 269.0, 66.0)">u</text><text xml:space="preserve" font-family="SourceCodePro-Regular" font-size="30.0" fill="#52575F" transform="matrix(1.00, 0.00, -0.00, -1.00, 287.0, 66.0)">r</text><text xml:space="preserve" font-family="SourceCodePro-Regular" font-size="30.0" fill="#52575F" transform="matrix(1.00, 0.00, -0.00, -1.00, 305.0, 66.0)">t</text><text xml:space="preserve" font-family="SourceCodePro-Regular" font-size="30.0" fill="#52575F" transform="matrix(1.00, 0.00, -0.00, -1.00, 323.0, 66.0)">e</text><text xml:space="preserve" font-family="SourceCodePro-Regular" font-size="30.0" fill="#52575F" transform="matrix(1.00, 0.00, -0.00, -1.00, 341.0, 66.0)">s</text><text xml:space="preserve" font-family="SourceCodePro-Regular" font-size="30.0" fill="#52575F" transform="matrix(1.00, 0.00, -0.00, -1.00, 359.0, 66.0)">y</text><text xml:space="preserve" font-family="SourceCodePro-Regular" font-size="30.0" fill="#52575F" transform="matrix(1.00, 0.00, -0.00, -1.00, 377.0, 66.0)"> </text><text xml:space="preserve" font-family="SourceCodePro-Regular" font-size="30.0" fill="#52575F" transform="matrix(1.00, 0.00, -0.00, -1.00, 395.0, 66.0)">o</text><text xml:space="preserve" font-family="SourceCodePro-Regular" font-size="30.0" fill="#52575F" transform="matrix(1.00, 0.00, -0.00, -1.00, 413.0, 66.0)">f</text><text xml:space="preserve" font-family="SourceCodePro-Regular" font-size="30.0" fill="#52575F" transform="matrix(1.00, 0.00, -0.00, -1.00, 431.0, 66.0)"> </text><text xml:space="preserve" font-family="SourceCodePro-Regular" font-size="30.0" fill="#52575F" transform="matrix(1.00, 0.00, -0.00, -1.00, 449.0, 66.0)">F</text><text xml:space="preserve" font-family="SourceCodePro-Regular" font-size="30.0" fill="#52575F" transform="matrix(1.00, 0.00, -0.00, -1.00, 467.0, 66.0)">l</text><text xml:space="preserve" font-family="SourceCodePro-Regular" font-size="30.0" fill="#52575F" transform="matrix(1.00, 0.00, -0.00, -1.00, 485.0, 66.0)">i</text><text xml:space="preserve" font-family="SourceCodePro-Regular" font-size="30.0" fill="#52575F" transform="matrix(1.00, 0.00, -0.00, -1.00, 503.0, 66.0)">n</text><text xml:space="preserve" font-family="SourceCodePro-Regular" font-size="30.0" fill="#52575F" transform="matrix(1.00, 0.00, -0.00, -1.00, 521.0, 66.0)">k</text><text xml:space="preserve" font-family="SourceCodePro-Regular" font-size="30.0" fill="#52575F" transform="matrix(1.00, 0.00, -0.00, -1.00, 539.0, 66.0)"> </text><text xml:space="preserve" font-family="SourceCodePro-Regular" font-size="30.0" fill="#52575F" transform="matrix(1.00, 0.00, -0.00, -1.00, 557.0, 66.0)">D</text><text xml:space="preserve" font-family="SourceCodePro-Regular" font-size="30.0" fill="#52575F" transform="matrix(1.00, 0.00, -0.00, -1.00, 575.0, 66.0)">o</text><text xml:space="preserve" font-family="SourceCodePro-Regular" font-size="30.0" fill="#52575F" transform="matrix(1.00, 0.00, -0.00, -1.00, 593.0, 66.0)">c</text><text xml:space="preserve" font-family="SourceCodePro-Regular" font-size="30.0" fill="#52575F" transform="matrix(1.00, 0.00, -0.00, -1.00, 611.0, 66.0)">u</text><text xml:space="preserve" font-family="SourceCodePro-Regular" font-size="30.0" fill="#52575F" transform="matrix(1.00, 0.00, -0.00, -1.00, 629.0, 66.0)">m</text><text xml:space="preserve" font-family="SourceCodePro-Regular" font-size="30.0" fill="#52575F" transform="matrix(1.00, 0.00, -0.00, -1.00, 647.0, 66.0)">e</text><text xml:space="preserve" font-family="SourceCodePro-Regular" font-size="30.0" fill="#52575F" transform="matrix(1.00, 0.00, -0.00, -1.00, 665.0, 66.0)">n</text><text xml:space="preserve" font-family="SourceCodePro-Regular" font-size="30.0" fill="#52575F" transform="matrix(1.00, 0.00, -0.00, -1.00, 683.0, 66.0)">t</text><text xml:space="preserve" font-family="SourceCodePro-Regular" font-size="30.0" fill="#52575F" transform="matrix(1.00, 0.00, -0.00, -1.00, 701.0, 66.0)">a</text><text xml:space="preserve" font-family="SourceCodePro-Regular" font-size="30.0" fill="#52575F" transform="matrix(1.00, 0.00, -0.00, -1.00, 719.0, 66.0)">t</text><text xml:space="preserve" font-family="SourceCodePro-Regular" font-size="30.0" fill="#52575F" transform="matrix(1.00, 0.00, -0.00, -1.00, 737.0, 66.0)">i</text><text xml:space="preserve" font-family="SourceCodePro-Regular" font-size="30.0" fill="#52575F" transform="matrix(1.00, 0.00, -0.00, -1.00, 755.0, 66.0)">o</text><text xml:space="preserve" font-family="SourceCodePro-Regular" font-size="30.0" fill="#52575F" transform="matrix(1.00, 0.00, -0.00, -1.00, 773.0, 66.0)">n</text><text xml:space="preserve" font-family="SourceCodePro-Regular" font-size="30.0" fill="#52575F" transform="matrix(1.00, 0.00, -0.00, -1.00, 791.0, 66.0)"> </text><g><clipPath id="clip-48"><path d="M 448.0 62.4 L 791.0 62.4 L 791.0 65.9 L 448.0 65.9 Z M 448.0 62.4 "></path></clipPath><g clip-path="url(#clip-48)"><path d="M 229.5 36.1 L 571.5 36.1 " fill="none" stroke="#52575F" stroke-width="1.50" stroke-miterlimit="0.00" transform="matrix(1.00, 0.00, 0.00, -1.00, 219.5, 100.2)"></path></g></g><image xlink:href="DD4DF1C8B9A0E90249F88DBE57F2B3AB.png" width="847.00" height="145.00" transform="matrix(1.00, 0.00, -0.00, -1.00, 89.0, 456.0)"></image><text xml:space="preserve" font-family="Lora-Bold" font-weight="bold" font-size="80.0" fill="#212121" transform="matrix(1.00, 0.00, -0.00, -1.00, 190.0, 673.0)">T</text><text xml:space="preserve" font-family="Lora-Bold" font-weight="bold" font-size="80.0" fill="#212121" transform="matrix(1.00, 0.00, -0.00, -1.00, 241.7, 673.0)">r</text><text xml:space="preserve" font-family="Lora-Bold" font-weight="bold" font-size="80.0" fill="#212121" transform="matrix(1.00, 0.00, -0.00, -1.00, 279.8, 673.0)">a</text><text xml:space="preserve" font-family="Lora-Bold" font-weight="bold" font-size="80.0" fill="#212121" transform="matrix(1.00, 0.00, -0.00, -1.00, 321.7, 673.0)">n</text><text xml:space="preserve" font-family="Lora-Bold" font-weight="bold" font-size="80.0" fill="#212121" transform="matrix(1.00, 0.00, -0.00, -1.00, 372.6, 673.0)">s</text><text xml:space="preserve" font-family="Lora-Bold" font-weight="bold" font-size="80.0" fill="#212121" transform="matrix(1.00, 0.00, -0.00, -1.00, 411.4, 673.0)">f</text><text xml:space="preserve" font-family="Lora-Bold" font-weight="bold" font-size="80.0" fill="#212121" transform="matrix(1.00, 0.00, -0.00, -1.00, 440.4, 673.0)">o</text><text xml:space="preserve" font-family="Lora-Bold" font-weight="bold" font-size="80.0" fill="#212121" transform="matrix(1.00, 0.00, -0.00, -1.00, 485.7, 673.0)">r</text><text xml:space="preserve" font-family="Lora-Bold" font-weight="bold" font-size="80.0" fill="#212121" transform="matrix(1.00, 0.00, -0.00, -1.00, 524.2, 673.0)">m</text><text xml:space="preserve" font-family="Lora-Bold" font-weight="bold" font-size="80.0" fill="#212121" transform="matrix(1.00, 0.00, -0.00, -1.00, 597.9, 673.0)">a</text><text xml:space="preserve" font-family="Lora-Bold" font-weight="bold" font-size="80.0" fill="#212121" transform="matrix(1.00, 0.00, -0.00, -1.00, 639.6, 673.0)">t</text><text xml:space="preserve" font-family="Lora-Bold" font-weight="bold" font-size="80.0" fill="#212121" transform="matrix(1.00, 0.00, -0.00, -1.00, 672.6, 673.0)">i</text><text xml:space="preserve" font-family="Lora-Bold" font-weight="bold" font-size="80.0" fill="#212121" transform="matrix(1.00, 0.00, -0.00, -1.00, 698.8, 673.0)">o</text><text xml:space="preserve" font-family="Lora-Bold" font-weight="bold" font-size="80.0" fill="#212121" transform="matrix(1.00, 0.00, -0.00, -1.00, 744.1, 673.0)">n</text><text xml:space="preserve" font-family="Lora-Bold" font-weight="bold" font-size="80.0" fill="#212121" transform="matrix(1.00, 0.00, -0.00, -1.00, 795.0, 673.0)">s</text><text xml:space="preserve" font-family="Raleway-ExtraLight" font-size="45.0" fill="#414141" transform="matrix(1.00, 0.00, -0.00, -1.00, 471.0, 608.0)">J</text><text xml:space="preserve" font-family="Raleway-ExtraLight" font-size="45.0" fill="#414141" transform="matrix(1.00, 0.00, -0.00, -1.00, 492.3, 608.0)">o</text><text xml:space="preserve" font-family="Raleway-ExtraLight" font-size="45.0" fill="#414141" transform="matrix(1.00, 0.00, -0.00, -1.00, 518.8, 608.0)">i</text><text xml:space="preserve" font-family="Raleway-ExtraLight" font-size="45.0" fill="#414141" transform="matrix(1.00, 0.00, -0.00, -1.00, 527.6, 608.0)">n</text></g></svg>