<?xml version="1.0" encoding="UTF-8" standalone="no"?><svg xmlns="http://www.w3.org/2000/svg" xmlns:xlink="http://www.w3.org/1999/xlink" clip-rule="evenodd" stroke-miterlimit="4.00" viewBox="0 0 212 32"><desc>SVG generated by Keynote</desc><defs></defs><g transform="matrix(1.00, 0.00, -0.00, -1.00, 0.0, 32.0)"><text xml:space="preserve" font-family="SourceCodePro-Regular" font-size="30.0" fill="#A6AAA8" transform="matrix(1.00, 0.00, -0.00, -1.00, 0.0, 9.0)">d</text><text xml:space="preserve" font-family="SourceCodePro-Regular" font-size="30.0" fill="#A6AAA8" transform="matrix(1.00, 0.00, -0.00, -1.00, 18.0, 9.0)">r</text><text xml:space="preserve" font-family="SourceCodePro-Regular" font-size="30.0" fill="#A6AAA8" transform="matrix(1.00, 0.00, -0.00, -1.00, 36.0, 9.0)">o</text><text xml:space="preserve" font-family="SourceCodePro-Regular" font-size="30.0" fill="#A6AAA8" transform="matrix(1.00, 0.00, -0.00, -1.00, 54.0, 9.0)">p</text><text xml:space="preserve" font-family="SourceCodePro-Regular" font-size="30.0" fill="#A6AAA8" transform="matrix(1.00, 0.00, -0.00, -1.00, 72.0, 9.0)">o</text><text xml:space="preserve" font-family="SourceCodePro-Regular" font-size="30.0" fill="#A6AAA8" transform="matrix(1.00, 0.00, -0.00, -1.00, 90.0, 9.0)">f</text><text xml:space="preserve" font-family="SourceCodePro-Regular" font-size="30.0" fill="#A6AAA8" transform="matrix(1.00, 0.00, -0.00, -1.00, 108.0, 9.0)">f</text><text xml:space="preserve" font-family="SourceCodePro-Regular" font-size="30.0" fill="#A6AAA8" transform="matrix(1.00, 0.00, -0.00, -1.00, 126.0, 9.0)">C</text><text xml:space="preserve" font-family="SourceCodePro-Regular" font-size="30.0" fill="#A6AAA8" transform="matrix(1.00, 0.00, -0.00, -1.00, 144.0, 9.0)">e</text><text xml:space="preserve" font-family="SourceCodePro-Regular" font-size="30.0" fill="#A6AAA8" transform="matrix(1.00, 0.00, -0.00, -1.00, 162.0, 9.0)">l</text><text xml:space="preserve" font-family="SourceCodePro-Regular" font-size="30.0" fill="#A6AAA8" transform="matrix(1.00, 0.00, -0.00, -1.00, 180.0, 9.0)">l</text><text xml:space="preserve" font-family="SourceCodePro-Regular" font-size="30.0" fill="#A6AAA8" transform="matrix(1.00, 0.00, -0.00, -1.00, 198.0, 9.0)">;</text></g></svg>