<?xml version="1.0" encoding="UTF-8" standalone="no"?><svg xmlns="http://www.w3.org/2000/svg" xmlns:xlink="http://www.w3.org/1999/xlink" clip-rule="evenodd" stroke-miterlimit="4.00" viewBox="0 0 213 26"><desc>SVG generated by Keynote</desc><defs></defs><g transform="matrix(1.00, 0.00, -0.00, -1.00, 0.0, 26.0)"><text xml:space="preserve" font-family="SourceCodePro-Regular" font-size="30.0" fill="#00C752" transform="matrix(1.00, 0.00, -0.00, -1.00, -2.0, 3.0)">&lt;</text><text xml:space="preserve" font-family="SourceCodePro-Regular" font-size="30.0" fill="#00C752" transform="matrix(1.00, 0.00, -0.00, -1.00, 16.0, 3.0)"> </text><text xml:space="preserve" font-family="SourceCodePro-Regular" font-size="30.0" fill="#00C752" transform="matrix(1.00, 0.00, -0.00, -1.00, 34.0, 3.0)">t</text><text xml:space="preserve" font-family="SourceCodePro-Regular" font-size="30.0" fill="#00C752" transform="matrix(1.00, 0.00, -0.00, -1.00, 52.0, 3.0)">a</text><text xml:space="preserve" font-family="SourceCodePro-Regular" font-size="30.0" fill="#00C752" transform="matrix(1.00, 0.00, -0.00, -1.00, 70.0, 3.0)">x</text><text xml:space="preserve" font-family="SourceCodePro-Regular" font-size="30.0" fill="#00C752" transform="matrix(1.00, 0.00, -0.00, -1.00, 88.0, 3.0)">i</text><text xml:space="preserve" font-family="SourceCodePro-Regular" font-size="30.0" fill="#00C752" transform="matrix(1.00, 0.00, -0.00, -1.00, 106.0, 3.0)">R</text><text xml:space="preserve" font-family="SourceCodePro-Regular" font-size="30.0" fill="#00C752" transform="matrix(1.00, 0.00, -0.00, -1.00, 124.0, 3.0)">i</text><text xml:space="preserve" font-family="SourceCodePro-Regular" font-size="30.0" fill="#00C752" transform="matrix(1.00, 0.00, -0.00, -1.00, 142.0, 3.0)">d</text><text xml:space="preserve" font-family="SourceCodePro-Regular" font-size="30.0" fill="#00C752" transform="matrix(1.00, 0.00, -0.00, -1.00, 160.0, 3.0)">e</text><text xml:space="preserve" font-family="SourceCodePro-Regular" font-size="30.0" fill="#00C752" transform="matrix(1.00, 0.00, -0.00, -1.00, 178.0, 3.0)"> </text><text xml:space="preserve" font-family="SourceCodePro-Regular" font-size="30.0" fill="#00C752" transform="matrix(1.00, 0.00, -0.00, -1.00, 196.0, 3.0)">&gt;</text></g></svg>