<?xml version="1.0" encoding="UTF-8" standalone="no"?><svg xmlns="http://www.w3.org/2000/svg" xmlns:xlink="http://www.w3.org/1999/xlink" clip-rule="evenodd" stroke-miterlimit="4.00" viewBox="0 0 207 33"><desc>SVG generated by Keynote</desc><defs></defs><g transform="matrix(1.00, 0.00, -0.00, -1.00, 0.0, 33.0)"><text xml:space="preserve" font-family="SourceCodePro-Regular" font-size="30.0" fill="#E82662" transform="matrix(1.00, 0.00, -0.00, -1.00, -4.0, 9.0)">.</text><text xml:space="preserve" font-family="SourceCodePro-Regular" font-size="30.0" fill="#E82662" transform="matrix(1.00, 0.00, -0.00, -1.00, 14.0, 9.0)">j</text><text xml:space="preserve" font-family="SourceCodePro-Regular" font-size="30.0" fill="#E82662" transform="matrix(1.00, 0.00, -0.00, -1.00, 32.0, 9.0)">o</text><text xml:space="preserve" font-family="SourceCodePro-Regular" font-size="30.0" fill="#E82662" transform="matrix(1.00, 0.00, -0.00, -1.00, 50.0, 9.0)">i</text><text xml:space="preserve" font-family="SourceCodePro-Regular" font-size="30.0" fill="#E82662" transform="matrix(1.00, 0.00, -0.00, -1.00, 68.0, 9.0)">n</text><text xml:space="preserve" font-family="SourceCodePro-Regular" font-size="30.0" fill="#E82662" transform="matrix(1.00, 0.00, -0.00, -1.00, 86.0, 9.0)">(</text><text xml:space="preserve" font-family="SourceCodePro-Regular" font-size="30.0" fill="#E82662" transform="matrix(1.00, 0.00, -0.00, -1.00, 104.0, 9.0)">c</text><text xml:space="preserve" font-family="SourceCodePro-Regular" font-size="30.0" fill="#E82662" transform="matrix(1.00, 0.00, -0.00, -1.00, 122.0, 9.0)">o</text><text xml:space="preserve" font-family="SourceCodePro-Regular" font-size="30.0" fill="#E82662" transform="matrix(1.00, 0.00, -0.00, -1.00, 140.0, 9.0)">u</text><text xml:space="preserve" font-family="SourceCodePro-Regular" font-size="30.0" fill="#E82662" transform="matrix(1.00, 0.00, -0.00, -1.00, 158.0, 9.0)">n</text><text xml:space="preserve" font-family="SourceCodePro-Regular" font-size="30.0" fill="#E82662" transform="matrix(1.00, 0.00, -0.00, -1.00, 176.0, 9.0)">t</text><text xml:space="preserve" font-family="SourceCodePro-Regular" font-size="30.0" fill="#E82662" transform="matrix(1.00, 0.00, -0.00, -1.00, 194.0, 9.0)">)</text></g></svg>