<?xml version="1.0" encoding="UTF-8" standalone="no"?><svg xmlns="http://www.w3.org/2000/svg" xmlns:xlink="http://www.w3.org/1999/xlink" clip-rule="evenodd" stroke-miterlimit="4.00" viewBox="0 0 146 25"><desc>SVG generated by Keynote</desc><defs></defs><g transform="matrix(1.00, 0.00, -0.00, -1.00, 0.0, 25.0)"><text xml:space="preserve" font-family="SourceCodePro-Regular" font-size="22.0" fill="#616060" transform="matrix(1.00, 0.00, -0.00, -1.00, 0.0, 7.0)">s</text><text xml:space="preserve" font-family="SourceCodePro-Regular" font-size="22.0" fill="#616060" transform="matrix(1.00, 0.00, -0.00, -1.00, 13.2, 7.0)">n</text><text xml:space="preserve" font-family="SourceCodePro-Regular" font-size="22.0" fill="#616060" transform="matrix(1.00, 0.00, -0.00, -1.00, 26.4, 7.0)">a</text><text xml:space="preserve" font-family="SourceCodePro-Regular" font-size="22.0" fill="#616060" transform="matrix(1.00, 0.00, -0.00, -1.00, 39.6, 7.0)">p</text><text xml:space="preserve" font-family="SourceCodePro-Regular" font-size="22.0" fill="#616060" transform="matrix(1.00, 0.00, -0.00, -1.00, 52.8, 7.0)">s</text><text xml:space="preserve" font-family="SourceCodePro-Regular" font-size="22.0" fill="#616060" transform="matrix(1.00, 0.00, -0.00, -1.00, 66.0, 7.0)">h</text><text xml:space="preserve" font-family="SourceCodePro-Regular" font-size="22.0" fill="#616060" transform="matrix(1.00, 0.00, -0.00, -1.00, 79.2, 7.0)">o</text><text xml:space="preserve" font-family="SourceCodePro-Regular" font-size="22.0" fill="#616060" transform="matrix(1.00, 0.00, -0.00, -1.00, 92.4, 7.0)">t</text><text xml:space="preserve" font-family="SourceCodePro-Regular" font-size="22.0" fill="#616060" transform="matrix(1.00, 0.00, -0.00, -1.00, 105.6, 7.0)"> </text><text xml:space="preserve" font-family="SourceCodePro-Regular" font-size="22.0" fill="#616060" transform="matrix(1.00, 0.00, -0.00, -1.00, 118.8, 7.0)">i</text><text xml:space="preserve" font-family="SourceCodePro-Regular" font-size="22.0" fill="#616060" transform="matrix(1.00, 0.00, -0.00, -1.00, 132.0, 7.0)">s</text></g></svg>