<?xml version="1.0" encoding="UTF-8" standalone="no"?><svg xmlns="http://www.w3.org/2000/svg" xmlns:xlink="http://www.w3.org/1999/xlink" clip-rule="evenodd" stroke-miterlimit="4.00" viewBox="0 0 242 173"><desc>SVG generated by Keynote</desc><defs></defs><g transform="matrix(1.00, 0.00, -0.00, -1.00, 0.0, 173.0)"><path d="M 41.0 171.0 L 201.8 171.0 C 213.0 171.0 218.7 171.0 224.7 169.1 C 231.3 166.7 236.5 161.5 238.9 154.9 C 240.8 148.9 240.8 143.2 240.8 131.9 L 240.8 40.0 C 240.8 28.8 240.8 23.2 238.9 17.1 C 236.5 10.5 231.3 5.3 224.7 2.9 C 218.7 1.0 213.0 1.0 201.7 1.0 L 41.0 1.0 C 29.8 1.0 24.1 1.0 18.1 2.9 C 11.5 5.3 6.3 10.5 3.9 17.1 C 2.0 23.2 2.0 28.8 2.0 40.2 L 2.0 132.0 C 2.0 143.2 2.0 148.9 3.9 154.9 C 6.3 161.5 11.5 166.7 18.1 169.1 C 24.1 171.0 29.8 171.0 41.1 171.0 Z M 41.0 171.0 " fill="#00C752"></path></g></svg>