<?xml version="1.0" encoding="UTF-8" standalone="no"?><svg xmlns="http://www.w3.org/2000/svg" xmlns:xlink="http://www.w3.org/1999/xlink" clip-rule="evenodd" stroke-miterlimit="4.00" viewBox="0 0 162 25"><desc>SVG generated by Keynote</desc><defs></defs><g transform="matrix(1.00, 0.00, -0.00, -1.00, 0.0, 25.0)"><text xml:space="preserve" font-family="SourceCodePro-Regular" font-size="30.0" fill="#0091E9" transform="matrix(1.00, 0.00, -0.00, -1.00, -1.0, 3.0)">1</text><text xml:space="preserve" font-family="SourceCodePro-Regular" font-size="30.0" fill="#0091E9" transform="matrix(1.00, 0.00, -0.00, -1.00, 17.0, 3.0)">.</text><text xml:space="preserve" font-family="SourceCodePro-Regular" font-size="30.0" fill="#0091E9" transform="matrix(1.00, 0.00, -0.00, -1.00, 35.0, 3.0)">M</text><text xml:space="preserve" font-family="SourceCodePro-Regular" font-size="30.0" fill="#0091E9" transform="matrix(1.00, 0.00, -0.00, -1.00, 53.0, 3.0)">I</text><text xml:space="preserve" font-family="SourceCodePro-Regular" font-size="30.0" fill="#0091E9" transform="matrix(1.00, 0.00, -0.00, -1.00, 71.0, 3.0)">N</text><text xml:space="preserve" font-family="SourceCodePro-Regular" font-size="30.0" fill="#0091E9" transform="matrix(1.00, 0.00, -0.00, -1.00, 89.0, 3.0)">U</text><text xml:space="preserve" font-family="SourceCodePro-Regular" font-size="30.0" fill="#0091E9" transform="matrix(1.00, 0.00, -0.00, -1.00, 107.0, 3.0)">T</text><text xml:space="preserve" font-family="SourceCodePro-Regular" font-size="30.0" fill="#0091E9" transform="matrix(1.00, 0.00, -0.00, -1.00, 125.0, 3.0)">E</text><text xml:space="preserve" font-family="SourceCodePro-Regular" font-size="30.0" fill="#0091E9" transform="matrix(1.00, 0.00, -0.00, -1.00, 143.0, 3.0)">S</text></g></svg>