<?xml version="1.0" encoding="UTF-8" standalone="no"?><svg xmlns="http://www.w3.org/2000/svg" xmlns:xlink="http://www.w3.org/1999/xlink" clip-rule="evenodd" stroke-miterlimit="4.00" viewBox="0 0 1024 768"><desc>SVG generated by Keynote</desc><defs></defs><g transform="matrix(1.00, 0.00, -0.00, -1.00, 0.0, 768.0)"><path d="M 0.0 768.0 L 1024.0 768.0 L 1024.0 0.0 L 0.0 0.0 Z M 0.0 768.0 " fill="#FEFFFF"></path><text xml:space="preserve" font-family="SourceCodePro-Regular" font-size="12.0" fill="#747474" transform="matrix(1.00, 0.00, -0.00, -1.00, 19.0, 19.0)">L</text><text xml:space="preserve" font-family="SourceCodePro-Regular" font-size="12.0" fill="#747474" transform="matrix(1.00, 0.00, -0.00, -1.00, 26.2, 19.0)">o</text><text xml:space="preserve" font-family="SourceCodePro-Regular" font-size="12.0" fill="#747474" transform="matrix(1.00, 0.00, -0.00, -1.00, 33.4, 19.0)">r</text><text xml:space="preserve" font-family="SourceCodePro-Regular" font-size="12.0" fill="#747474" transform="matrix(1.00, 0.00, -0.00, -1.00, 40.6, 19.0)">e</text><text xml:space="preserve" font-family="SourceCodePro-Regular" font-size="12.0" fill="#747474" transform="matrix(1.00, 0.00, -0.00, -1.00, 47.8, 19.0)">n</text><text xml:space="preserve" font-family="SourceCodePro-Regular" font-size="12.0" fill="#747474" transform="matrix(1.00, 0.00, -0.00, -1.00, 55.0, 19.0)">z</text><text xml:space="preserve" font-family="SourceCodePro-Regular" font-size="12.0" fill="#747474" transform="matrix(1.00, 0.00, -0.00, -1.00, 62.2, 19.0)">o</text><text xml:space="preserve" font-family="SourceCodePro-Regular" font-size="12.0" fill="#747474" transform="matrix(1.00, 0.00, -0.00, -1.00, 69.4, 19.0)"> </text><text xml:space="preserve" font-family="SourceCodePro-Regular" font-size="12.0" fill="#747474" transform="matrix(1.00, 0.00, -0.00, -1.00, 76.6, 19.0)">A</text><text xml:space="preserve" font-family="SourceCodePro-Regular" font-size="12.0" fill="#747474" transform="matrix(1.00, 0.00, -0.00, -1.00, 83.8, 19.0)">f</text><text xml:space="preserve" font-family="SourceCodePro-Regular" font-size="12.0" fill="#747474" transform="matrix(1.00, 0.00, -0.00, -1.00, 91.0, 19.0)">f</text><text xml:space="preserve" font-family="SourceCodePro-Regular" font-size="12.0" fill="#747474" transform="matrix(1.00, 0.00, -0.00, -1.00, 98.2, 19.0)">e</text><text xml:space="preserve" font-family="SourceCodePro-Regular" font-size="12.0" fill="#747474" transform="matrix(1.00, 0.00, -0.00, -1.00, 105.4, 19.0)">t</text><text xml:space="preserve" font-family="SourceCodePro-Regular" font-size="12.0" fill="#747474" transform="matrix(1.00, 0.00, -0.00, -1.00, 112.6, 19.0)">t</text><text xml:space="preserve" font-family="SourceCodePro-Regular" font-size="12.0" fill="#747474" transform="matrix(1.00, 0.00, -0.00, -1.00, 119.8, 19.0)">i</text><text xml:space="preserve" font-family="SourceCodePro-Regular" font-size="12.0" fill="#747474" transform="matrix(1.00, 0.00, -0.00, -1.00, 127.0, 19.0)"> </text><text xml:space="preserve" font-family="SourceCodePro-Regular" font-size="12.0" fill="#747474" transform="matrix(1.00, 0.00, -0.00, -1.00, 134.2, 19.0)">(</text><text xml:space="preserve" font-family="SourceCodePro-Regular" font-size="12.0" fill="#747474" transform="matrix(1.00, 0.00, -0.00, -1.00, 141.4, 19.0)">l</text><text xml:space="preserve" font-family="SourceCodePro-Regular" font-size="12.0" fill="#747474" transform="matrix(1.00, 0.00, -0.00, -1.00, 148.6, 19.0)">o</text><text xml:space="preserve" font-family="SourceCodePro-Regular" font-size="12.0" fill="#747474" transform="matrix(1.00, 0.00, -0.00, -1.00, 155.8, 19.0)">r</text><text xml:space="preserve" font-family="SourceCodePro-Regular" font-size="12.0" fill="#747474" transform="matrix(1.00, 0.00, -0.00, -1.00, 163.0, 19.0)">e</text><text xml:space="preserve" font-family="SourceCodePro-Regular" font-size="12.0" fill="#747474" transform="matrix(1.00, 0.00, -0.00, -1.00, 170.2, 19.0)">n</text><text xml:space="preserve" font-family="SourceCodePro-Regular" font-size="12.0" fill="#747474" transform="matrix(1.00, 0.00, -0.00, -1.00, 177.4, 19.0)">z</text><text xml:space="preserve" font-family="SourceCodePro-Regular" font-size="12.0" fill="#747474" transform="matrix(1.00, 0.00, -0.00, -1.00, 184.6, 19.0)">o</text><text xml:space="preserve" font-family="SourceCodePro-Regular" font-size="12.0" fill="#747474" transform="matrix(1.00, 0.00, -0.00, -1.00, 191.8, 19.0)">.</text><text xml:space="preserve" font-family="SourceCodePro-Regular" font-size="12.0" fill="#747474" transform="matrix(1.00, 0.00, -0.00, -1.00, 199.0, 19.0)">a</text><text xml:space="preserve" font-family="SourceCodePro-Regular" font-size="12.0" fill="#747474" transform="matrix(1.00, 0.00, -0.00, -1.00, 206.2, 19.0)">f</text><text xml:space="preserve" font-family="SourceCodePro-Regular" font-size="12.0" fill="#747474" transform="matrix(1.00, 0.00, -0.00, -1.00, 213.4, 19.0)">f</text><text xml:space="preserve" font-family="SourceCodePro-Regular" font-size="12.0" fill="#747474" transform="matrix(1.00, 0.00, -0.00, -1.00, 220.6, 19.0)">e</text><text xml:space="preserve" font-family="SourceCodePro-Regular" font-size="12.0" fill="#747474" transform="matrix(1.00, 0.00, -0.00, -1.00, 227.8, 19.0)">t</text><text xml:space="preserve" font-family="SourceCodePro-Regular" font-size="12.0" fill="#747474" transform="matrix(1.00, 0.00, -0.00, -1.00, 235.0, 19.0)">t</text><text xml:space="preserve" font-family="SourceCodePro-Regular" font-size="12.0" fill="#747474" transform="matrix(1.00, 0.00, -0.00, -1.00, 242.2, 19.0)">i</text><text xml:space="preserve" font-family="SourceCodePro-Regular" font-size="12.0" fill="#747474" transform="matrix(1.00, 0.00, -0.00, -1.00, 249.4, 19.0)">@</text><text xml:space="preserve" font-family="SourceCodePro-Regular" font-size="12.0" fill="#747474" transform="matrix(1.00, 0.00, -0.00, -1.00, 256.6, 19.0)">p</text><text xml:space="preserve" font-family="SourceCodePro-Regular" font-size="12.0" fill="#747474" transform="matrix(1.00, 0.00, -0.00, -1.00, 263.8, 19.0)">o</text><text xml:space="preserve" font-family="SourceCodePro-Regular" font-size="12.0" fill="#747474" transform="matrix(1.00, 0.00, -0.00, -1.00, 271.0, 19.0)">l</text><text xml:space="preserve" font-family="SourceCodePro-Regular" font-size="12.0" fill="#747474" transform="matrix(1.00, 0.00, -0.00, -1.00, 278.2, 19.0)">i</text><text xml:space="preserve" font-family="SourceCodePro-Regular" font-size="12.0" fill="#747474" transform="matrix(1.00, 0.00, -0.00, -1.00, 285.4, 19.0)">m</text><text xml:space="preserve" font-family="SourceCodePro-Regular" font-size="12.0" fill="#747474" transform="matrix(1.00, 0.00, -0.00, -1.00, 292.6, 19.0)">i</text><text xml:space="preserve" font-family="SourceCodePro-Regular" font-size="12.0" fill="#747474" transform="matrix(1.00, 0.00, -0.00, -1.00, 299.8, 19.0)">.</text><text xml:space="preserve" font-family="SourceCodePro-Regular" font-size="12.0" fill="#747474" transform="matrix(1.00, 0.00, -0.00, -1.00, 307.0, 19.0)">i</text><text xml:space="preserve" font-family="SourceCodePro-Regular" font-size="12.0" fill="#747474" transform="matrix(1.00, 0.00, -0.00, -1.00, 314.2, 19.0)">t</text><text xml:space="preserve" font-family="SourceCodePro-Regular" font-size="12.0" fill="#747474" transform="matrix(1.00, 0.00, -0.00, -1.00, 321.4, 19.0)">)</text><text xml:space="preserve" font-family="SourceCodePro-Regular" font-size="12.0" fill="#747474" transform="matrix(1.00, 0.00, -0.00, -1.00, 328.6, 19.0)"> </text><text xml:space="preserve" font-family="SourceCodePro-Regular" font-size="12.0" fill="#747474" transform="matrix(1.00, 0.00, -0.00, -1.00, 335.8, 19.0)">-</text><text xml:space="preserve" font-family="SourceCodePro-Regular" font-size="12.0" fill="#747474" transform="matrix(1.00, 0.00, -0.00, -1.00, 343.0, 19.0)"> </text><text xml:space="preserve" font-family="SourceCodePro-Regular" font-size="12.0" fill="#747474" transform="matrix(1.00, 0.00, -0.00, -1.00, 350.2, 19.0)">P</text><text xml:space="preserve" font-family="SourceCodePro-Regular" font-size="12.0" fill="#747474" transform="matrix(1.00, 0.00, -0.00, -1.00, 357.4, 19.0)">o</text><text xml:space="preserve" font-family="SourceCodePro-Regular" font-size="12.0" fill="#747474" transform="matrix(1.00, 0.00, -0.00, -1.00, 364.6, 19.0)">l</text><text xml:space="preserve" font-family="SourceCodePro-Regular" font-size="12.0" fill="#747474" transform="matrix(1.00, 0.00, -0.00, -1.00, 371.8, 19.0)">i</text><text xml:space="preserve" font-family="SourceCodePro-Regular" font-size="12.0" fill="#747474" transform="matrix(1.00, 0.00, -0.00, -1.00, 379.0, 19.0)">t</text><text xml:space="preserve" font-family="SourceCodePro-Regular" font-size="12.0" fill="#747474" transform="matrix(1.00, 0.00, -0.00, -1.00, 386.2, 19.0)">e</text><text xml:space="preserve" font-family="SourceCodePro-Regular" font-size="12.0" fill="#747474" transform="matrix(1.00, 0.00, -0.00, -1.00, 393.4, 19.0)">c</text><text xml:space="preserve" font-family="SourceCodePro-Regular" font-size="12.0" fill="#747474" transform="matrix(1.00, 0.00, -0.00, -1.00, 400.6, 19.0)">n</text><text xml:space="preserve" font-family="SourceCodePro-Regular" font-size="12.0" fill="#747474" transform="matrix(1.00, 0.00, -0.00, -1.00, 407.8, 19.0)">i</text><text xml:space="preserve" font-family="SourceCodePro-Regular" font-size="12.0" fill="#747474" transform="matrix(1.00, 0.00, -0.00, -1.00, 415.0, 19.0)">c</text><text xml:space="preserve" font-family="SourceCodePro-Regular" font-size="12.0" fill="#747474" transform="matrix(1.00, 0.00, -0.00, -1.00, 422.2, 19.0)">o</text><text xml:space="preserve" font-family="SourceCodePro-Regular" font-size="12.0" fill="#747474" transform="matrix(1.00, 0.00, -0.00, -1.00, 429.4, 19.0)"> </text><text xml:space="preserve" font-family="SourceCodePro-Regular" font-size="12.0" fill="#747474" transform="matrix(1.00, 0.00, -0.00, -1.00, 436.6, 19.0)">d</text><text xml:space="preserve" font-family="SourceCodePro-Regular" font-size="12.0" fill="#747474" transform="matrix(1.00, 0.00, -0.00, -1.00, 443.8, 19.0)">i</text><text xml:space="preserve" font-family="SourceCodePro-Regular" font-size="12.0" fill="#747474" transform="matrix(1.00, 0.00, -0.00, -1.00, 451.0, 19.0)"> </text><text xml:space="preserve" font-family="SourceCodePro-Regular" font-size="12.0" fill="#747474" transform="matrix(1.00, 0.00, -0.00, -1.00, 458.2, 19.0)">M</text><text xml:space="preserve" font-family="SourceCodePro-Regular" font-size="12.0" fill="#747474" transform="matrix(1.00, 0.00, -0.00, -1.00, 465.4, 19.0)">i</text><text xml:space="preserve" font-family="SourceCodePro-Regular" font-size="12.0" fill="#747474" transform="matrix(1.00, 0.00, -0.00, -1.00, 472.6, 19.0)">l</text><text xml:space="preserve" font-family="SourceCodePro-Regular" font-size="12.0" fill="#747474" transform="matrix(1.00, 0.00, -0.00, -1.00, 479.8, 19.0)">a</text><text xml:space="preserve" font-family="SourceCodePro-Regular" font-size="12.0" fill="#747474" transform="matrix(1.00, 0.00, -0.00, -1.00, 487.0, 19.0)">n</text><text xml:space="preserve" font-family="SourceCodePro-Regular" font-size="12.0" fill="#747474" transform="matrix(1.00, 0.00, -0.00, -1.00, 494.2, 19.0)">o</text><text xml:space="preserve" font-family="SourceCodePro-Regular" font-size="12.0" fill="#747474" transform="matrix(1.00, 0.00, -0.00, -1.00, 501.4, 19.0)">,</text><text xml:space="preserve" font-family="SourceCodePro-Regular" font-size="12.0" fill="#747474" transform="matrix(1.00, 0.00, -0.00, -1.00, 508.6, 19.0)"> </text><text xml:space="preserve" font-family="SourceCodePro-Regular" font-size="12.0" fill="#747474" transform="matrix(1.00, 0.00, -0.00, -1.00, 515.8, 19.0)">D</text><text xml:space="preserve" font-family="SourceCodePro-Regular" font-size="12.0" fill="#747474" transform="matrix(1.00, 0.00, -0.00, -1.00, 523.0, 19.0)">E</text><text xml:space="preserve" font-family="SourceCodePro-Regular" font-size="12.0" fill="#747474" transform="matrix(1.00, 0.00, -0.00, -1.00, 530.2, 19.0)">I</text><text xml:space="preserve" font-family="SourceCodePro-Regular" font-size="12.0" fill="#747474" transform="matrix(1.00, 0.00, -0.00, -1.00, 537.4, 19.0)">B</text><g><clipPath id="clip-239"><path d="M 140.8 16.1 L 321.8 16.1 L 321.8 18.7 L 140.8 18.7 Z M 140.8 16.1 "></path></clipPath><g clip-path="url(#clip-239)"><path d="M 126.9 17.1 L 306.9 17.1 " fill="none" stroke="#747474" stroke-width="0.60" stroke-miterlimit="0.00" transform="matrix(1.00, 0.00, 0.00, -1.00, 14.9, 34.5)"></path></g></g><text xml:space="preserve" font-family="Lora-Bold" font-weight="bold" font-size="80.0" fill="#212121" transform="matrix(1.00, 0.00, -0.00, -1.00, 318.0, 678.0)">T</text><text xml:space="preserve" font-family="Lora-Bold" font-weight="bold" font-size="80.0" fill="#212121" transform="matrix(1.00, 0.00, -0.00, -1.00, 367.4, 678.0)">a</text><text xml:space="preserve" font-family="Lora-Bold" font-weight="bold" font-size="80.0" fill="#212121" transform="matrix(1.00, 0.00, -0.00, -1.00, 409.4, 678.0)">s</text><text xml:space="preserve" font-family="Lora-Bold" font-weight="bold" font-size="80.0" fill="#212121" transform="matrix(1.00, 0.00, -0.00, -1.00, 448.2, 678.0)">k</text><text xml:space="preserve" font-family="Lora-Bold" font-weight="bold" font-size="80.0" fill="#212121" transform="matrix(1.00, 0.00, -0.00, -1.00, 495.7, 678.0)"> </text><text xml:space="preserve" font-family="Lora-Bold" font-weight="bold" font-size="80.0" fill="#212121" transform="matrix(1.00, 0.00, -0.00, -1.00, 516.7, 678.0)">S</text><text xml:space="preserve" font-family="Lora-Bold" font-weight="bold" font-size="80.0" fill="#212121" transform="matrix(1.00, 0.00, -0.00, -1.00, 564.2, 678.0)">l</text><text xml:space="preserve" font-family="Lora-Bold" font-weight="bold" font-size="80.0" fill="#212121" transform="matrix(1.00, 0.00, -0.00, -1.00, 589.2, 678.0)">o</text><text xml:space="preserve" font-family="Lora-Bold" font-weight="bold" font-size="80.0" fill="#212121" transform="matrix(1.00, 0.00, -0.00, -1.00, 634.4, 678.0)">t</text><text xml:space="preserve" font-family="Lora-Bold" font-weight="bold" font-size="80.0" fill="#212121" transform="matrix(1.00, 0.00, -0.00, -1.00, 667.5, 678.0)">s</text><text xml:space="preserve" font-family="Helvetica-Light" font-size="18.0" fill="#000000" transform="matrix(1.00, 0.00, -0.00, -1.00, 992.0, 16.0)">2</text><text xml:space="preserve" font-family="Helvetica-Light" font-size="18.0" fill="#000000" transform="matrix(1.00, 0.00, -0.00, -1.00, 1002.0, 16.0)">2</text><path d="M 0.0 0.0 L 346.3 0.0 L 346.3 381.2 L 0.0 381.2 Z M 0.0 0.0 " fill="none" stroke="#616060" stroke-width="3.00" transform="matrix(1.00, 0.00, 0.00, -1.00, 126.1, 472.9)"></path><g><clipPath id="clip-240"><path d="M 122.7 93.7 L 475.9 93.7 L 475.9 476.4 L 122.7 476.4 Z M 122.7 93.7 "></path></clipPath><g clip-path="url(#clip-240)"><text xml:space="preserve" font-family="SourceCodePro-Semibold" font-weight="bold" font-size="30.0" fill="#616060" transform="matrix(1.00, 0.00, -0.00, -1.00, 191.0, 437.0)">T</text><text xml:space="preserve" font-family="SourceCodePro-Semibold" font-weight="bold" font-size="30.0" fill="#616060" transform="matrix(1.00, 0.00, -0.00, -1.00, 209.0, 437.0)">a</text><text xml:space="preserve" font-family="SourceCodePro-Semibold" font-weight="bold" font-size="30.0" fill="#616060" transform="matrix(1.00, 0.00, -0.00, -1.00, 227.0, 437.0)">s</text><text xml:space="preserve" font-family="SourceCodePro-Semibold" font-weight="bold" font-size="30.0" fill="#616060" transform="matrix(1.00, 0.00, -0.00, -1.00, 245.0, 437.0)">k</text><text xml:space="preserve" font-family="SourceCodePro-Semibold" font-weight="bold" font-size="30.0" fill="#616060" transform="matrix(1.00, 0.00, -0.00, -1.00, 263.0, 437.0)">M</text><text xml:space="preserve" font-family="SourceCodePro-Semibold" font-weight="bold" font-size="30.0" fill="#616060" transform="matrix(1.00, 0.00, -0.00, -1.00, 281.0, 437.0)">a</text><text xml:space="preserve" font-family="SourceCodePro-Semibold" font-weight="bold" font-size="30.0" fill="#616060" transform="matrix(1.00, 0.00, -0.00, -1.00, 299.0, 437.0)">n</text><text xml:space="preserve" font-family="SourceCodePro-Semibold" font-weight="bold" font-size="30.0" fill="#616060" transform="matrix(1.00, 0.00, -0.00, -1.00, 317.0, 437.0)">a</text><text xml:space="preserve" font-family="SourceCodePro-Semibold" font-weight="bold" font-size="30.0" fill="#616060" transform="matrix(1.00, 0.00, -0.00, -1.00, 335.0, 437.0)">g</text><text xml:space="preserve" font-family="SourceCodePro-Semibold" font-weight="bold" font-size="30.0" fill="#616060" transform="matrix(1.00, 0.00, -0.00, -1.00, 353.0, 437.0)">e</text><text xml:space="preserve" font-family="SourceCodePro-Semibold" font-weight="bold" font-size="30.0" fill="#616060" transform="matrix(1.00, 0.00, -0.00, -1.00, 371.0, 437.0)">r</text><text xml:space="preserve" font-family="SourceCodePro-Semibold" font-weight="bold" font-size="30.0" fill="#616060" transform="matrix(1.00, 0.00, -0.00, -1.00, 389.0, 437.0)">1</text></g></g><path d="M 0.0 0.0 L 293.5 0.0 L 293.5 85.4 L 0.0 85.4 Z M 0.0 0.0 " fill="none" stroke="#BCBCBC" stroke-width="5.00" transform="matrix(1.00, 0.00, 0.00, -1.00, 152.5, 403.2)"></path><g><clipPath id="clip-241"><path d="M 152.0 320.8 L 446.6 320.8 L 446.6 400.2 L 152.0 400.2 Z M 152.0 320.8 "></path></clipPath><g clip-path="url(#clip-241)"><text xml:space="preserve" font-family="SourceCodePro-Semibold" font-weight="bold" font-size="24.0" fill="#BCBCBC" transform="matrix(1.00, 0.00, -0.00, -1.00, 263.0, 352.0)">S</text><text xml:space="preserve" font-family="SourceCodePro-Semibold" font-weight="bold" font-size="24.0" fill="#BCBCBC" transform="matrix(1.00, 0.00, -0.00, -1.00, 277.4, 352.0)">l</text><text xml:space="preserve" font-family="SourceCodePro-Semibold" font-weight="bold" font-size="24.0" fill="#BCBCBC" transform="matrix(1.00, 0.00, -0.00, -1.00, 291.8, 352.0)">o</text><text xml:space="preserve" font-family="SourceCodePro-Semibold" font-weight="bold" font-size="24.0" fill="#BCBCBC" transform="matrix(1.00, 0.00, -0.00, -1.00, 306.2, 352.0)">t</text><text xml:space="preserve" font-family="SourceCodePro-Semibold" font-weight="bold" font-size="24.0" fill="#BCBCBC" transform="matrix(1.00, 0.00, -0.00, -1.00, 320.6, 352.0)">1</text></g></g><path d="M 0.0 0.0 L 293.5 0.0 L 293.5 85.4 L 0.0 85.4 Z M 0.0 0.0 " fill="none" stroke="#BCBCBC" stroke-width="5.00" transform="matrix(1.00, 0.00, 0.00, -1.00, 152.5, 301.5)"></path><g><clipPath id="clip-242"><path d="M 152.0 219.1 L 446.6 219.1 L 446.6 298.5 L 152.0 298.5 Z M 152.0 219.1 "></path></clipPath><g clip-path="url(#clip-242)"><text xml:space="preserve" font-family="SourceCodePro-Semibold" font-weight="bold" font-size="24.0" fill="#BCBCBC" transform="matrix(1.00, 0.00, -0.00, -1.00, 263.0, 250.0)">S</text><text xml:space="preserve" font-family="SourceCodePro-Semibold" font-weight="bold" font-size="24.0" fill="#BCBCBC" transform="matrix(1.00, 0.00, -0.00, -1.00, 277.4, 250.0)">l</text><text xml:space="preserve" font-family="SourceCodePro-Semibold" font-weight="bold" font-size="24.0" fill="#BCBCBC" transform="matrix(1.00, 0.00, -0.00, -1.00, 291.8, 250.0)">o</text><text xml:space="preserve" font-family="SourceCodePro-Semibold" font-weight="bold" font-size="24.0" fill="#BCBCBC" transform="matrix(1.00, 0.00, -0.00, -1.00, 306.2, 250.0)">t</text><text xml:space="preserve" font-family="SourceCodePro-Semibold" font-weight="bold" font-size="24.0" fill="#BCBCBC" transform="matrix(1.00, 0.00, -0.00, -1.00, 320.6, 250.0)">2</text></g></g><path d="M 0.0 0.0 L 293.5 0.0 L 293.5 85.4 L 0.0 85.4 Z M 0.0 0.0 " fill="none" stroke="#BCBCBC" stroke-width="5.00" transform="matrix(1.00, 0.00, 0.00, -1.00, 152.5, 199.8)"></path><g><clipPath id="clip-243"><path d="M 152.0 117.4 L 446.6 117.4 L 446.6 196.8 L 152.0 196.8 Z M 152.0 117.4 "></path></clipPath><g clip-path="url(#clip-243)"><text xml:space="preserve" font-family="SourceCodePro-Semibold" font-weight="bold" font-size="24.0" fill="#BCBCBC" transform="matrix(1.00, 0.00, -0.00, -1.00, 263.0, 148.0)">S</text><text xml:space="preserve" font-family="SourceCodePro-Semibold" font-weight="bold" font-size="24.0" fill="#BCBCBC" transform="matrix(1.00, 0.00, -0.00, -1.00, 277.4, 148.0)">l</text><text xml:space="preserve" font-family="SourceCodePro-Semibold" font-weight="bold" font-size="24.0" fill="#BCBCBC" transform="matrix(1.00, 0.00, -0.00, -1.00, 291.8, 148.0)">o</text><text xml:space="preserve" font-family="SourceCodePro-Semibold" font-weight="bold" font-size="24.0" fill="#BCBCBC" transform="matrix(1.00, 0.00, -0.00, -1.00, 306.2, 148.0)">t</text><text xml:space="preserve" font-family="SourceCodePro-Semibold" font-weight="bold" font-size="24.0" fill="#BCBCBC" transform="matrix(1.00, 0.00, -0.00, -1.00, 320.6, 148.0)">3</text></g></g><path d="M 100.4 647.4 C 97.6 647.4 95.4 645.2 95.4 642.4 L 95.4 522.4 C 95.4 519.7 97.6 517.4 100.4 517.4 L 198.4 517.4 L 238.6 495.2 L 278.8 517.4 L 923.6 517.4 C 926.4 517.4 928.6 519.7 928.6 522.4 L 928.6 642.4 C 928.6 645.2 926.4 647.4 923.6 647.4 L 100.4 647.4 Z M 100.4 647.4 " fill="#E82662"></path><g><clipPath id="clip-244"><path d="M 89.0 517.4 L 935.0 517.4 L 935.0 647.4 L 89.0 647.4 Z M 89.0 517.4 "></path></clipPath><g clip-path="url(#clip-244)"><text xml:space="preserve" font-family="SourceCodePro-Semibold" font-weight="bold" font-size="33.0" fill="#FEFFFE" transform="matrix(1.00, 0.00, -0.00, -1.00, 99.0, 591.0)">f</text><text xml:space="preserve" font-family="SourceCodePro-Semibold" font-weight="bold" font-size="33.0" fill="#FEFFFE" transform="matrix(1.00, 0.00, -0.00, -1.00, 118.8, 591.0)">l</text><text xml:space="preserve" font-family="SourceCodePro-Semibold" font-weight="bold" font-size="33.0" fill="#FEFFFE" transform="matrix(1.00, 0.00, -0.00, -1.00, 138.6, 591.0)">i</text><text xml:space="preserve" font-family="SourceCodePro-Semibold" font-weight="bold" font-size="33.0" fill="#FEFFFE" transform="matrix(1.00, 0.00, -0.00, -1.00, 158.4, 591.0)">n</text><text xml:space="preserve" font-family="SourceCodePro-Semibold" font-weight="bold" font-size="33.0" fill="#FEFFFE" transform="matrix(1.00, 0.00, -0.00, -1.00, 178.2, 591.0)">k</text><text xml:space="preserve" font-family="SourceCodePro-Semibold" font-weight="bold" font-size="33.0" fill="#FEFFFE" transform="matrix(1.00, 0.00, -0.00, -1.00, 198.0, 591.0)">-</text><text xml:space="preserve" font-family="SourceCodePro-Semibold" font-weight="bold" font-size="33.0" fill="#FEFFFE" transform="matrix(1.00, 0.00, -0.00, -1.00, 217.8, 591.0)">c</text><text xml:space="preserve" font-family="SourceCodePro-Semibold" font-weight="bold" font-size="33.0" fill="#FEFFFE" transform="matrix(1.00, 0.00, -0.00, -1.00, 237.6, 591.0)">o</text><text xml:space="preserve" font-family="SourceCodePro-Semibold" font-weight="bold" font-size="33.0" fill="#FEFFFE" transform="matrix(1.00, 0.00, -0.00, -1.00, 257.4, 591.0)">n</text><text xml:space="preserve" font-family="SourceCodePro-Semibold" font-weight="bold" font-size="33.0" fill="#FEFFFE" transform="matrix(1.00, 0.00, -0.00, -1.00, 277.2, 591.0)">f</text><text xml:space="preserve" font-family="SourceCodePro-Semibold" font-weight="bold" font-size="33.0" fill="#FEFFFE" transform="matrix(1.00, 0.00, -0.00, -1.00, 297.0, 591.0)">i</text><text xml:space="preserve" font-family="SourceCodePro-Semibold" font-weight="bold" font-size="33.0" fill="#FEFFFE" transform="matrix(1.00, 0.00, -0.00, -1.00, 316.8, 591.0)">g</text><text xml:space="preserve" font-family="SourceCodePro-Semibold" font-weight="bold" font-size="33.0" fill="#FEFFFE" transform="matrix(1.00, 0.00, -0.00, -1.00, 336.6, 591.0)">.</text><text xml:space="preserve" font-family="SourceCodePro-Semibold" font-weight="bold" font-size="33.0" fill="#FEFFFE" transform="matrix(1.00, 0.00, -0.00, -1.00, 356.4, 591.0)">y</text><text xml:space="preserve" font-family="SourceCodePro-Semibold" font-weight="bold" font-size="33.0" fill="#FEFFFE" transform="matrix(1.00, 0.00, -0.00, -1.00, 376.2, 591.0)">m</text><text xml:space="preserve" font-family="SourceCodePro-Semibold" font-weight="bold" font-size="33.0" fill="#FEFFFE" transform="matrix(1.00, 0.00, -0.00, -1.00, 396.0, 591.0)">l</text><text xml:space="preserve" font-family="SourceCodePro-Semibold" font-weight="bold" font-size="33.0" fill="#FEFFFE" transform="matrix(1.00, 0.00, -0.00, -1.00, 415.8, 591.0)">:</text><text xml:space="preserve" font-family="SourceCodePro-Semibold" font-weight="bold" font-size="33.0" fill="#FEFFFE" transform="matrix(1.00, 0.00, -0.00, -1.00, 435.6, 591.0)"> </text><text xml:space="preserve" font-family="SourceCodePro-Regular" font-size="33.0" fill="#FEFFFE" transform="matrix(1.00, 0.00, -0.00, -1.00, 99.0, 550.0)">p</text><text xml:space="preserve" font-family="SourceCodePro-Regular" font-size="33.0" fill="#FEFFFE" transform="matrix(1.00, 0.00, -0.00, -1.00, 118.8, 550.0)">a</text><text xml:space="preserve" font-family="SourceCodePro-Regular" font-size="33.0" fill="#FEFFFE" transform="matrix(1.00, 0.00, -0.00, -1.00, 138.6, 550.0)">r</text><text xml:space="preserve" font-family="SourceCodePro-Regular" font-size="33.0" fill="#FEFFFE" transform="matrix(1.00, 0.00, -0.00, -1.00, 158.4, 550.0)">a</text><text xml:space="preserve" font-family="SourceCodePro-Regular" font-size="33.0" fill="#FEFFFE" transform="matrix(1.00, 0.00, -0.00, -1.00, 178.2, 550.0)">l</text><text xml:space="preserve" font-family="SourceCodePro-Regular" font-size="33.0" fill="#FEFFFE" transform="matrix(1.00, 0.00, -0.00, -1.00, 198.0, 550.0)">l</text><text xml:space="preserve" font-family="SourceCodePro-Regular" font-size="33.0" fill="#FEFFFE" transform="matrix(1.00, 0.00, -0.00, -1.00, 217.8, 550.0)">e</text><text xml:space="preserve" font-family="SourceCodePro-Regular" font-size="33.0" fill="#FEFFFE" transform="matrix(1.00, 0.00, -0.00, -1.00, 237.6, 550.0)">l</text><text xml:space="preserve" font-family="SourceCodePro-Regular" font-size="33.0" fill="#FEFFFE" transform="matrix(1.00, 0.00, -0.00, -1.00, 257.4, 550.0)">i</text><text xml:space="preserve" font-family="SourceCodePro-Regular" font-size="33.0" fill="#FEFFFE" transform="matrix(1.00, 0.00, -0.00, -1.00, 277.2, 550.0)">s</text><text xml:space="preserve" font-family="SourceCodePro-Regular" font-size="33.0" fill="#FEFFFE" transform="matrix(1.00, 0.00, -0.00, -1.00, 297.0, 550.0)">m</text><text xml:space="preserve" font-family="SourceCodePro-Regular" font-size="33.0" fill="#FEFFFE" transform="matrix(1.00, 0.00, -0.00, -1.00, 316.8, 550.0)">.</text><text xml:space="preserve" font-family="SourceCodePro-Regular" font-size="33.0" fill="#FEFFFE" transform="matrix(1.00, 0.00, -0.00, -1.00, 336.6, 550.0)">d</text><text xml:space="preserve" font-family="SourceCodePro-Regular" font-size="33.0" fill="#FEFFFE" transform="matrix(1.00, 0.00, -0.00, -1.00, 356.4, 550.0)">e</text><text xml:space="preserve" font-family="SourceCodePro-Regular" font-size="33.0" fill="#FEFFFE" transform="matrix(1.00, 0.00, -0.00, -1.00, 376.2, 550.0)">f</text><text xml:space="preserve" font-family="SourceCodePro-Regular" font-size="33.0" fill="#FEFFFE" transform="matrix(1.00, 0.00, -0.00, -1.00, 396.0, 550.0)">a</text><text xml:space="preserve" font-family="SourceCodePro-Regular" font-size="33.0" fill="#FEFFFE" transform="matrix(1.00, 0.00, -0.00, -1.00, 415.8, 550.0)">u</text><text xml:space="preserve" font-family="SourceCodePro-Regular" font-size="33.0" fill="#FEFFFE" transform="matrix(1.00, 0.00, -0.00, -1.00, 435.6, 550.0)">l</text><text xml:space="preserve" font-family="SourceCodePro-Regular" font-size="33.0" fill="#FEFFFE" transform="matrix(1.00, 0.00, -0.00, -1.00, 455.4, 550.0)">t</text><text xml:space="preserve" font-family="SourceCodePro-Regular" font-size="33.0" fill="#FEFFFE" transform="matrix(1.00, 0.00, -0.00, -1.00, 475.2, 550.0)">:</text><text xml:space="preserve" font-family="SourceCodePro-Regular" font-size="33.0" fill="#FEFFFE" transform="matrix(1.00, 0.00, -0.00, -1.00, 495.0, 550.0)"> </text><text xml:space="preserve" font-family="SourceCodePro-Regular" font-size="33.0" fill="#FEFFFE" transform="matrix(1.00, 0.00, -0.00, -1.00, 514.8, 550.0)">1</text></g></g><path d="M 0.0 0.0 L 346.3 0.0 L 346.3 381.2 L 0.0 381.2 Z M 0.0 0.0 " fill="none" stroke="#616060" stroke-width="3.00" transform="matrix(1.00, 0.00, 0.00, -1.00, 544.6, 472.9)"></path><g><clipPath id="clip-245"><path d="M 541.2 93.7 L 894.4 93.7 L 894.4 476.4 L 541.2 476.4 Z M 541.2 93.7 "></path></clipPath><g clip-path="url(#clip-245)"><text xml:space="preserve" font-family="SourceCodePro-Semibold" font-weight="bold" font-size="30.0" fill="#616060" transform="matrix(1.00, 0.00, -0.00, -1.00, 610.0, 437.0)">T</text><text xml:space="preserve" font-family="SourceCodePro-Semibold" font-weight="bold" font-size="30.0" fill="#616060" transform="matrix(1.00, 0.00, -0.00, -1.00, 628.0, 437.0)">a</text><text xml:space="preserve" font-family="SourceCodePro-Semibold" font-weight="bold" font-size="30.0" fill="#616060" transform="matrix(1.00, 0.00, -0.00, -1.00, 646.0, 437.0)">s</text><text xml:space="preserve" font-family="SourceCodePro-Semibold" font-weight="bold" font-size="30.0" fill="#616060" transform="matrix(1.00, 0.00, -0.00, -1.00, 664.0, 437.0)">k</text><text xml:space="preserve" font-family="SourceCodePro-Semibold" font-weight="bold" font-size="30.0" fill="#616060" transform="matrix(1.00, 0.00, -0.00, -1.00, 682.0, 437.0)">M</text><text xml:space="preserve" font-family="SourceCodePro-Semibold" font-weight="bold" font-size="30.0" fill="#616060" transform="matrix(1.00, 0.00, -0.00, -1.00, 700.0, 437.0)">a</text><text xml:space="preserve" font-family="SourceCodePro-Semibold" font-weight="bold" font-size="30.0" fill="#616060" transform="matrix(1.00, 0.00, -0.00, -1.00, 718.0, 437.0)">n</text><text xml:space="preserve" font-family="SourceCodePro-Semibold" font-weight="bold" font-size="30.0" fill="#616060" transform="matrix(1.00, 0.00, -0.00, -1.00, 736.0, 437.0)">a</text><text xml:space="preserve" font-family="SourceCodePro-Semibold" font-weight="bold" font-size="30.0" fill="#616060" transform="matrix(1.00, 0.00, -0.00, -1.00, 754.0, 437.0)">g</text><text xml:space="preserve" font-family="SourceCodePro-Semibold" font-weight="bold" font-size="30.0" fill="#616060" transform="matrix(1.00, 0.00, -0.00, -1.00, 772.0, 437.0)">e</text><text xml:space="preserve" font-family="SourceCodePro-Semibold" font-weight="bold" font-size="30.0" fill="#616060" transform="matrix(1.00, 0.00, -0.00, -1.00, 790.0, 437.0)">r</text><text xml:space="preserve" font-family="SourceCodePro-Semibold" font-weight="bold" font-size="30.0" fill="#616060" transform="matrix(1.00, 0.00, -0.00, -1.00, 808.0, 437.0)">2</text></g></g><path d="M 0.0 0.0 L 293.5 0.0 L 293.5 85.4 L 0.0 85.4 Z M 0.0 0.0 " fill="none" stroke="#BCBCBC" stroke-width="5.00" transform="matrix(1.00, 0.00, 0.00, -1.00, 571.0, 403.2)"></path><g><clipPath id="clip-246"><path d="M 570.5 320.8 L 865.0 320.8 L 865.0 400.2 L 570.5 400.2 Z M 570.5 320.8 "></path></clipPath><g clip-path="url(#clip-246)"><text xml:space="preserve" font-family="SourceCodePro-Semibold" font-weight="bold" font-size="24.0" fill="#BCBCBC" transform="matrix(1.00, 0.00, -0.00, -1.00, 682.0, 352.0)">S</text><text xml:space="preserve" font-family="SourceCodePro-Semibold" font-weight="bold" font-size="24.0" fill="#BCBCBC" transform="matrix(1.00, 0.00, -0.00, -1.00, 696.4, 352.0)">l</text><text xml:space="preserve" font-family="SourceCodePro-Semibold" font-weight="bold" font-size="24.0" fill="#BCBCBC" transform="matrix(1.00, 0.00, -0.00, -1.00, 710.8, 352.0)">o</text><text xml:space="preserve" font-family="SourceCodePro-Semibold" font-weight="bold" font-size="24.0" fill="#BCBCBC" transform="matrix(1.00, 0.00, -0.00, -1.00, 725.2, 352.0)">t</text><text xml:space="preserve" font-family="SourceCodePro-Semibold" font-weight="bold" font-size="24.0" fill="#BCBCBC" transform="matrix(1.00, 0.00, -0.00, -1.00, 739.6, 352.0)">1</text></g></g><path d="M 0.0 0.0 L 293.5 0.0 L 293.5 85.4 L 0.0 85.4 Z M 0.0 0.0 " fill="none" stroke="#BCBCBC" stroke-width="5.00" transform="matrix(1.00, 0.00, 0.00, -1.00, 571.0, 301.5)"></path><g><clipPath id="clip-247"><path d="M 570.5 219.1 L 865.0 219.1 L 865.0 298.5 L 570.5 298.5 Z M 570.5 219.1 "></path></clipPath><g clip-path="url(#clip-247)"><text xml:space="preserve" font-family="SourceCodePro-Semibold" font-weight="bold" font-size="24.0" fill="#BCBCBC" transform="matrix(1.00, 0.00, -0.00, -1.00, 682.0, 250.0)">S</text><text xml:space="preserve" font-family="SourceCodePro-Semibold" font-weight="bold" font-size="24.0" fill="#BCBCBC" transform="matrix(1.00, 0.00, -0.00, -1.00, 696.4, 250.0)">l</text><text xml:space="preserve" font-family="SourceCodePro-Semibold" font-weight="bold" font-size="24.0" fill="#BCBCBC" transform="matrix(1.00, 0.00, -0.00, -1.00, 710.8, 250.0)">o</text><text xml:space="preserve" font-family="SourceCodePro-Semibold" font-weight="bold" font-size="24.0" fill="#BCBCBC" transform="matrix(1.00, 0.00, -0.00, -1.00, 725.2, 250.0)">t</text><text xml:space="preserve" font-family="SourceCodePro-Semibold" font-weight="bold" font-size="24.0" fill="#BCBCBC" transform="matrix(1.00, 0.00, -0.00, -1.00, 739.6, 250.0)">2</text></g></g><path d="M 0.0 0.0 L 293.5 0.0 L 293.5 85.4 L 0.0 85.4 Z M 0.0 0.0 " fill="none" stroke="#BCBCBC" stroke-width="5.00" transform="matrix(1.00, 0.00, 0.00, -1.00, 571.0, 199.8)"></path><g><clipPath id="clip-248"><path d="M 570.5 117.4 L 865.0 117.4 L 865.0 196.8 L 570.5 196.8 Z M 570.5 117.4 "></path></clipPath><g clip-path="url(#clip-248)"><text xml:space="preserve" font-family="SourceCodePro-Semibold" font-weight="bold" font-size="24.0" fill="#BCBCBC" transform="matrix(1.00, 0.00, -0.00, -1.00, 682.0, 148.0)">S</text><text xml:space="preserve" font-family="SourceCodePro-Semibold" font-weight="bold" font-size="24.0" fill="#BCBCBC" transform="matrix(1.00, 0.00, -0.00, -1.00, 696.4, 148.0)">l</text><text xml:space="preserve" font-family="SourceCodePro-Semibold" font-weight="bold" font-size="24.0" fill="#BCBCBC" transform="matrix(1.00, 0.00, -0.00, -1.00, 710.8, 148.0)">o</text><text xml:space="preserve" font-family="SourceCodePro-Semibold" font-weight="bold" font-size="24.0" fill="#BCBCBC" transform="matrix(1.00, 0.00, -0.00, -1.00, 725.2, 148.0)">t</text><text xml:space="preserve" font-family="SourceCodePro-Semibold" font-weight="bold" font-size="24.0" fill="#BCBCBC" transform="matrix(1.00, 0.00, -0.00, -1.00, 739.6, 148.0)">3</text></g></g><g><clipPath id="clip-249"><path d="M 330.2 320.1 L 449.5 320.1 L 449.5 400.9 L 330.2 400.9 Z M 330.2 320.1 "></path></clipPath><g clip-path="url(#clip-249)"><path d="M 431.0 388.0 C 453.7 372.8 453.7 348.2 431.0 333.0 C 408.3 317.8 371.4 317.8 348.7 333.0 C 326.0 348.2 326.0 372.8 348.7 388.0 C 371.4 403.2 408.3 403.2 431.0 388.0 Z M 431.0 388.0 " fill="#00E676"></path><path d="M 99.3 11.4 C 122.0 26.6 122.0 51.2 99.3 66.4 C 76.6 81.6 39.7 81.6 17.0 66.4 C -5.7 51.2 -5.7 26.6 17.0 11.4 C 39.7 -3.8 76.6 -3.8 99.3 11.4 Z M 99.3 11.4 " fill="none" stroke="#FEFFFF" stroke-width="1.00" transform="matrix(1.00, 0.00, 0.00, -1.00, 331.7, 399.4)"></path></g></g><g><clipPath id="clip-250"><path d="M 331.7 321.6 L 448.0 321.6 L 448.0 399.4 L 331.7 399.4 Z M 331.7 321.6 "></path></clipPath><g clip-path="url(#clip-250)"><text xml:space="preserve" font-family="SourceCodePro-Semibold" font-weight="bold" font-size="20.0" fill="#FEFFFE" transform="matrix(1.00, 0.00, -0.00, -1.00, 360.0, 353.0)">p</text><text xml:space="preserve" font-family="SourceCodePro-Semibold" font-weight="bold" font-size="20.0" fill="#FEFFFE" transform="matrix(1.00, 0.00, -0.00, -1.00, 372.0, 353.0)">r</text><text xml:space="preserve" font-family="SourceCodePro-Semibold" font-weight="bold" font-size="20.0" fill="#FEFFFE" transform="matrix(1.00, 0.00, -0.00, -1.00, 384.0, 353.0)">i</text><text xml:space="preserve" font-family="SourceCodePro-Semibold" font-weight="bold" font-size="20.0" fill="#FEFFFE" transform="matrix(1.00, 0.00, -0.00, -1.00, 396.0, 353.0)">n</text><text xml:space="preserve" font-family="SourceCodePro-Semibold" font-weight="bold" font-size="20.0" fill="#FEFFFE" transform="matrix(1.00, 0.00, -0.00, -1.00, 408.0, 353.0)">t</text></g></g><g><clipPath id="clip-251"><path d="M 239.6 320.1 L 358.9 320.1 L 358.9 400.9 L 239.6 400.9 Z M 239.6 320.1 "></path></clipPath><g clip-path="url(#clip-251)"><path d="M 340.4 388.0 C 363.1 372.8 363.1 348.2 340.4 333.0 C 317.7 317.8 280.9 317.8 258.2 333.0 C 235.4 348.2 235.4 372.8 258.2 388.0 C 280.9 403.2 317.7 403.2 340.4 388.0 Z M 340.4 388.0 " fill="#00E676"></path><path d="M 99.3 11.4 C 122.0 26.6 122.0 51.2 99.3 66.4 C 76.6 81.6 39.7 81.6 17.0 66.4 C -5.7 51.2 -5.7 26.6 17.0 11.4 C 39.7 -3.8 76.6 -3.8 99.3 11.4 Z M 99.3 11.4 " fill="none" stroke="#FEFFFF" stroke-width="1.00" transform="matrix(1.00, 0.00, 0.00, -1.00, 241.1, 399.4)"></path></g></g><g><clipPath id="clip-252"><path d="M 241.1 321.6 L 357.4 321.6 L 357.4 399.4 L 241.1 399.4 Z M 241.1 321.6 "></path></clipPath><g clip-path="url(#clip-252)"><text xml:space="preserve" font-family="SourceCodePro-Semibold" font-weight="bold" font-size="20.0" fill="#FEFFFE" transform="matrix(1.00, 0.00, -0.00, -1.00, 281.0, 353.0)">s</text><text xml:space="preserve" font-family="SourceCodePro-Semibold" font-weight="bold" font-size="20.0" fill="#FEFFFE" transform="matrix(1.00, 0.00, -0.00, -1.00, 293.0, 353.0)">u</text><text xml:space="preserve" font-family="SourceCodePro-Semibold" font-weight="bold" font-size="20.0" fill="#FEFFFE" transform="matrix(1.00, 0.00, -0.00, -1.00, 305.0, 353.0)">m</text></g></g><g><clipPath id="clip-253"><path d="M 148.4 320.1 L 267.8 320.1 L 267.8 400.9 L 148.4 400.9 Z M 148.4 320.1 "></path></clipPath><g clip-path="url(#clip-253)"><path d="M 249.2 388.0 C 271.9 372.8 271.9 348.2 249.2 333.0 C 226.5 317.8 189.7 317.8 167.0 333.0 C 144.3 348.2 144.3 372.8 167.0 388.0 C 189.7 403.2 226.5 403.2 249.2 388.0 Z M 249.2 388.0 " fill="#00E676"></path><path d="M 99.3 11.4 C 122.0 26.6 122.0 51.2 99.3 66.4 C 76.6 81.6 39.7 81.6 17.0 66.4 C -5.7 51.2 -5.7 26.6 17.0 11.4 C 39.7 -3.8 76.6 -3.8 99.3 11.4 Z M 99.3 11.4 " fill="none" stroke="#FEFFFF" stroke-width="1.00" transform="matrix(1.00, 0.00, 0.00, -1.00, 149.9, 399.4)"></path></g></g><g><clipPath id="clip-254"><path d="M 149.9 321.6 L 266.3 321.6 L 266.3 399.4 L 149.9 399.4 Z M 149.9 321.6 "></path></clipPath><g clip-path="url(#clip-254)"><text xml:space="preserve" font-family="SourceCodePro-Semibold" font-weight="bold" font-size="20.0" fill="#FEFFFE" transform="matrix(1.00, 0.00, -0.00, -1.00, 172.0, 366.0)">s</text><text xml:space="preserve" font-family="SourceCodePro-Semibold" font-weight="bold" font-size="20.0" fill="#FEFFFE" transform="matrix(1.00, 0.00, -0.00, -1.00, 184.0, 366.0)">o</text><text xml:space="preserve" font-family="SourceCodePro-Semibold" font-weight="bold" font-size="20.0" fill="#FEFFFE" transform="matrix(1.00, 0.00, -0.00, -1.00, 196.0, 366.0)">u</text><text xml:space="preserve" font-family="SourceCodePro-Semibold" font-weight="bold" font-size="20.0" fill="#FEFFFE" transform="matrix(1.00, 0.00, -0.00, -1.00, 208.0, 366.0)">r</text><text xml:space="preserve" font-family="SourceCodePro-Semibold" font-weight="bold" font-size="20.0" fill="#FEFFFE" transform="matrix(1.00, 0.00, -0.00, -1.00, 220.0, 366.0)">c</text><text xml:space="preserve" font-family="SourceCodePro-Semibold" font-weight="bold" font-size="20.0" fill="#FEFFFE" transform="matrix(1.00, 0.00, -0.00, -1.00, 232.0, 366.0)">e</text><text xml:space="preserve" font-family="SourceCodePro-Semibold" font-weight="bold" font-size="20.0" fill="#FEFFFE" transform="matrix(1.00, 0.00, -0.00, -1.00, 244.0, 366.0)"> </text><text xml:space="preserve" font-family="SourceCodePro-Semibold" font-weight="bold" font-size="20.0" fill="#FEFFFE" transform="matrix(1.00, 0.00, -0.00, -1.00, 172.0, 341.0)">-</text><text xml:space="preserve" font-family="SourceCodePro-Semibold" font-weight="bold" font-size="20.0" fill="#FEFFFE" transform="matrix(1.00, 0.00, -0.00, -1.00, 184.0, 341.0)">&gt;</text><text xml:space="preserve" font-family="SourceCodePro-Semibold" font-weight="bold" font-size="20.0" fill="#FEFFFE" transform="matrix(1.00, 0.00, -0.00, -1.00, 196.0, 341.0)"> </text><text xml:space="preserve" font-family="SourceCodePro-Semibold" font-weight="bold" font-size="20.0" fill="#FEFFFE" transform="matrix(1.00, 0.00, -0.00, -1.00, 208.0, 341.0)">m</text><text xml:space="preserve" font-family="SourceCodePro-Semibold" font-weight="bold" font-size="20.0" fill="#FEFFFE" transform="matrix(1.00, 0.00, -0.00, -1.00, 220.0, 341.0)">a</text><text xml:space="preserve" font-family="SourceCodePro-Semibold" font-weight="bold" font-size="20.0" fill="#FEFFFE" transform="matrix(1.00, 0.00, -0.00, -1.00, 232.0, 341.0)">p</text></g></g></g></svg>