<?xml version="1.0" encoding="UTF-8" standalone="no"?><svg xmlns="http://www.w3.org/2000/svg" xmlns:xlink="http://www.w3.org/1999/xlink" clip-rule="evenodd" stroke-miterlimit="4.00" viewBox="0 0 143 103"><desc>SVG generated by Keynote</desc><defs></defs><g transform="matrix(1.00, 0.00, -0.00, -1.00, 0.0, 103.0)"><path d="M 24.3 101.7 L 118.9 101.7 C 125.5 101.7 128.9 101.7 132.4 100.6 C 136.3 99.2 139.3 96.1 140.7 92.2 C 141.9 88.7 141.9 85.4 141.9 78.7 L 141.9 24.6 C 141.9 18.1 141.9 14.7 140.7 11.2 C 139.3 7.3 136.3 4.2 132.4 2.8 C 128.9 1.7 125.5 1.7 118.8 1.7 L 24.3 1.7 C 17.7 1.7 14.4 1.7 10.8 2.8 C 7.0 4.2 3.9 7.3 2.5 11.2 C 1.4 14.7 1.4 18.1 1.4 24.7 L 1.4 78.8 C 1.4 85.4 1.4 88.7 2.5 92.2 C 3.9 96.1 7.0 99.2 10.8 100.6 C 14.4 101.7 17.7 101.7 24.4 101.7 Z M 24.3 101.7 " fill="#00C752"></path></g></svg>