<?xml version="1.0" encoding="UTF-8" standalone="no"?><svg xmlns="http://www.w3.org/2000/svg" xmlns:xlink="http://www.w3.org/1999/xlink" clip-rule="evenodd" stroke-miterlimit="4.00" viewBox="0 0 210 32"><desc>SVG generated by Keynote</desc><defs></defs><g transform="matrix(1.00, 0.00, -0.00, -1.00, 0.0, 32.0)"><text xml:space="preserve" font-family="SourceCodePro-Regular" font-size="30.0" fill="#0091E9" transform="matrix(1.00, 0.00, -0.00, -1.00, -5.0, 8.0)">.</text><text xml:space="preserve" font-family="SourceCodePro-Regular" font-size="30.0" fill="#0091E9" transform="matrix(1.00, 0.00, -0.00, -1.00, 13.0, 8.0)">t</text><text xml:space="preserve" font-family="SourceCodePro-Regular" font-size="30.0" fill="#0091E9" transform="matrix(1.00, 0.00, -0.00, -1.00, 31.0, 8.0)">i</text><text xml:space="preserve" font-family="SourceCodePro-Regular" font-size="30.0" fill="#0091E9" transform="matrix(1.00, 0.00, -0.00, -1.00, 49.0, 8.0)">m</text><text xml:space="preserve" font-family="SourceCodePro-Regular" font-size="30.0" fill="#0091E9" transform="matrix(1.00, 0.00, -0.00, -1.00, 67.0, 8.0)">e</text><text xml:space="preserve" font-family="SourceCodePro-Regular" font-size="30.0" fill="#0091E9" transform="matrix(1.00, 0.00, -0.00, -1.00, 85.0, 8.0)">W</text><text xml:space="preserve" font-family="SourceCodePro-Regular" font-size="30.0" fill="#0091E9" transform="matrix(1.00, 0.00, -0.00, -1.00, 103.0, 8.0)">i</text><text xml:space="preserve" font-family="SourceCodePro-Regular" font-size="30.0" fill="#0091E9" transform="matrix(1.00, 0.00, -0.00, -1.00, 121.0, 8.0)">n</text><text xml:space="preserve" font-family="SourceCodePro-Regular" font-size="30.0" fill="#0091E9" transform="matrix(1.00, 0.00, -0.00, -1.00, 139.0, 8.0)">d</text><text xml:space="preserve" font-family="SourceCodePro-Regular" font-size="30.0" fill="#0091E9" transform="matrix(1.00, 0.00, -0.00, -1.00, 157.0, 8.0)">o</text><text xml:space="preserve" font-family="SourceCodePro-Regular" font-size="30.0" fill="#0091E9" transform="matrix(1.00, 0.00, -0.00, -1.00, 175.0, 8.0)">w</text><text xml:space="preserve" font-family="SourceCodePro-Regular" font-size="30.0" fill="#0091E9" transform="matrix(1.00, 0.00, -0.00, -1.00, 193.0, 8.0)">(</text></g></svg>