<?xml version="1.0" encoding="UTF-8" standalone="no"?><svg xmlns="http://www.w3.org/2000/svg" xmlns:xlink="http://www.w3.org/1999/xlink" clip-rule="evenodd" stroke-miterlimit="4.00" viewBox="0 0 175 103"><desc>SVG generated by Keynote</desc><defs></defs><g transform="matrix(1.00, 0.00, -0.00, -1.00, 0.0, 103.0)"><path d="M 24.3 101.7 L 150.7 101.7 C 157.3 101.7 160.6 101.7 164.2 100.6 C 168.0 99.1 171.1 96.1 172.5 92.2 C 173.6 88.7 173.6 85.3 173.6 78.6 L 173.6 24.6 C 173.6 18.0 173.6 14.7 172.5 11.1 C 171.1 7.3 168.0 4.2 164.2 2.8 C 160.6 1.7 157.3 1.7 150.6 1.7 L 24.3 1.7 C 17.7 1.7 14.4 1.7 10.8 2.8 C 6.9 4.2 3.9 7.3 2.5 11.1 C 1.3 14.7 1.3 18.0 1.3 24.7 L 1.3 78.7 C 1.3 85.3 1.3 88.7 2.5 92.2 C 3.9 96.1 6.9 99.1 10.8 100.6 C 14.4 101.7 17.7 101.7 24.4 101.7 Z M 24.3 101.7 " fill="#00B0FF"></path></g></svg>