<?xml version="1.0" encoding="UTF-8" standalone="no"?><svg xmlns="http://www.w3.org/2000/svg" xmlns:xlink="http://www.w3.org/1999/xlink" clip-rule="evenodd" stroke-miterlimit="4.00" viewBox="0 0 378 31"><desc>SVG generated by Keynote</desc><defs></defs><g transform="matrix(1.00, 0.00, -0.00, -1.00, 0.0, 31.0)"><text xml:space="preserve" font-family="SourceCodePro-Regular" font-size="30.0" fill="#0091E9" transform="matrix(1.00, 0.00, -0.00, -1.00, 0.0, 8.0)">T</text><text xml:space="preserve" font-family="SourceCodePro-Regular" font-size="30.0" fill="#0091E9" transform="matrix(1.00, 0.00, -0.00, -1.00, 18.0, 8.0)">S</text><text xml:space="preserve" font-family="SourceCodePro-Regular" font-size="30.0" fill="#0091E9" transform="matrix(1.00, 0.00, -0.00, -1.00, 36.0, 8.0)">_</text><text xml:space="preserve" font-family="SourceCodePro-Regular" font-size="30.0" fill="#0091E9" transform="matrix(1.00, 0.00, -0.00, -1.00, 54.0, 8.0)">p</text><text xml:space="preserve" font-family="SourceCodePro-Regular" font-size="30.0" fill="#0091E9" transform="matrix(1.00, 0.00, -0.00, -1.00, 72.0, 8.0)">r</text><text xml:space="preserve" font-family="SourceCodePro-Regular" font-size="30.0" fill="#0091E9" transform="matrix(1.00, 0.00, -0.00, -1.00, 90.0, 8.0)">o</text><text xml:space="preserve" font-family="SourceCodePro-Regular" font-size="30.0" fill="#0091E9" transform="matrix(1.00, 0.00, -0.00, -1.00, 108.0, 8.0)">f</text><text xml:space="preserve" font-family="SourceCodePro-Regular" font-size="30.0" fill="#0091E9" transform="matrix(1.00, 0.00, -0.00, -1.00, 126.0, 8.0)">i</text><text xml:space="preserve" font-family="SourceCodePro-Regular" font-size="30.0" fill="#0091E9" transform="matrix(1.00, 0.00, -0.00, -1.00, 144.0, 8.0)">t</text><text xml:space="preserve" font-family="SourceCodePro-Regular" font-size="30.0" fill="#0091E9" transform="matrix(1.00, 0.00, -0.00, -1.00, 162.0, 8.0)"> </text><text xml:space="preserve" font-family="SourceCodePro-Regular" font-size="30.0" fill="#0091E9" transform="matrix(1.00, 0.00, -0.00, -1.00, 180.0, 8.0)">=</text><text xml:space="preserve" font-family="SourceCodePro-Regular" font-size="30.0" fill="#0091E9" transform="matrix(1.00, 0.00, -0.00, -1.00, 198.0, 8.0)"> </text><text xml:space="preserve" font-family="SourceCodePro-Regular" font-size="30.0" fill="#0091E9" transform="matrix(1.00, 0.00, -0.00, -1.00, 216.0, 8.0)">w</text><text xml:space="preserve" font-family="SourceCodePro-Regular" font-size="30.0" fill="#0091E9" transform="matrix(1.00, 0.00, -0.00, -1.00, 234.0, 8.0)">i</text><text xml:space="preserve" font-family="SourceCodePro-Regular" font-size="30.0" fill="#0091E9" transform="matrix(1.00, 0.00, -0.00, -1.00, 252.0, 8.0)">n</text><text xml:space="preserve" font-family="SourceCodePro-Regular" font-size="30.0" fill="#0091E9" transform="matrix(1.00, 0.00, -0.00, -1.00, 270.0, 8.0)">d</text><text xml:space="preserve" font-family="SourceCodePro-Regular" font-size="30.0" fill="#0091E9" transform="matrix(1.00, 0.00, -0.00, -1.00, 288.0, 8.0)">o</text><text xml:space="preserve" font-family="SourceCodePro-Regular" font-size="30.0" fill="#0091E9" transform="matrix(1.00, 0.00, -0.00, -1.00, 306.0, 8.0)">w</text><text xml:space="preserve" font-family="SourceCodePro-Regular" font-size="30.0" fill="#0091E9" transform="matrix(1.00, 0.00, -0.00, -1.00, 324.0, 8.0)">E</text><text xml:space="preserve" font-family="SourceCodePro-Regular" font-size="30.0" fill="#0091E9" transform="matrix(1.00, 0.00, -0.00, -1.00, 342.0, 8.0)">n</text><text xml:space="preserve" font-family="SourceCodePro-Regular" font-size="30.0" fill="#0091E9" transform="matrix(1.00, 0.00, -0.00, -1.00, 360.0, 8.0)">d</text></g></svg>