<?xml version="1.0" encoding="UTF-8" standalone="no"?><svg xmlns="http://www.w3.org/2000/svg" xmlns:xlink="http://www.w3.org/1999/xlink" clip-rule="evenodd" stroke-miterlimit="4.00" viewBox="0 0 234 32"><desc>SVG generated by Keynote</desc><defs></defs><g transform="matrix(1.00, 0.00, -0.00, -1.00, 0.0, 32.0)"><text xml:space="preserve" font-family="SourceCodePro-Regular" font-size="30.0" fill="#00C752" transform="matrix(1.00, 0.00, -0.00, -1.00, -1.0, 8.0)">p</text><text xml:space="preserve" font-family="SourceCodePro-Regular" font-size="30.0" fill="#00C752" transform="matrix(1.00, 0.00, -0.00, -1.00, 17.0, 8.0)">r</text><text xml:space="preserve" font-family="SourceCodePro-Regular" font-size="30.0" fill="#00C752" transform="matrix(1.00, 0.00, -0.00, -1.00, 35.0, 8.0)">o</text><text xml:space="preserve" font-family="SourceCodePro-Regular" font-size="30.0" fill="#00C752" transform="matrix(1.00, 0.00, -0.00, -1.00, 53.0, 8.0)">f</text><text xml:space="preserve" font-family="SourceCodePro-Regular" font-size="30.0" fill="#00C752" transform="matrix(1.00, 0.00, -0.00, -1.00, 71.0, 8.0)">i</text><text xml:space="preserve" font-family="SourceCodePro-Regular" font-size="30.0" fill="#00C752" transform="matrix(1.00, 0.00, -0.00, -1.00, 89.0, 8.0)">t</text><text xml:space="preserve" font-family="SourceCodePro-Regular" font-size="30.0" fill="#00C752" transform="matrix(1.00, 0.00, -0.00, -1.00, 107.0, 8.0)">a</text><text xml:space="preserve" font-family="SourceCodePro-Regular" font-size="30.0" fill="#00C752" transform="matrix(1.00, 0.00, -0.00, -1.00, 125.0, 8.0)">b</text><text xml:space="preserve" font-family="SourceCodePro-Regular" font-size="30.0" fill="#00C752" transform="matrix(1.00, 0.00, -0.00, -1.00, 143.0, 8.0)">i</text><text xml:space="preserve" font-family="SourceCodePro-Regular" font-size="30.0" fill="#00C752" transform="matrix(1.00, 0.00, -0.00, -1.00, 161.0, 8.0)">l</text><text xml:space="preserve" font-family="SourceCodePro-Regular" font-size="30.0" fill="#00C752" transform="matrix(1.00, 0.00, -0.00, -1.00, 179.0, 8.0)">i</text><text xml:space="preserve" font-family="SourceCodePro-Regular" font-size="30.0" fill="#00C752" transform="matrix(1.00, 0.00, -0.00, -1.00, 197.0, 8.0)">t</text><text xml:space="preserve" font-family="SourceCodePro-Regular" font-size="30.0" fill="#00C752" transform="matrix(1.00, 0.00, -0.00, -1.00, 215.0, 8.0)">y</text></g></svg>