<?xml version="1.0" encoding="UTF-8" standalone="no"?><svg xmlns="http://www.w3.org/2000/svg" xmlns:xlink="http://www.w3.org/1999/xlink" clip-rule="evenodd" stroke-miterlimit="4.00" viewBox="0 0 146 20"><desc>SVG generated by Keynote</desc><defs></defs><g transform="matrix(1.00, 0.00, -0.00, -1.00, 0.0, 20.0)"><text xml:space="preserve" font-family="SourceCodePro-Semibold" font-weight="bold" font-size="22.0" fill="#E82662" transform="matrix(1.00, 0.00, -0.00, -1.00, 0.0, 2.0)">c</text><text xml:space="preserve" font-family="SourceCodePro-Semibold" font-weight="bold" font-size="22.0" fill="#E82662" transform="matrix(1.00, 0.00, -0.00, -1.00, 13.2, 2.0)">o</text><text xml:space="preserve" font-family="SourceCodePro-Semibold" font-weight="bold" font-size="22.0" fill="#E82662" transform="matrix(1.00, 0.00, -0.00, -1.00, 26.4, 2.0)">o</text><text xml:space="preserve" font-family="SourceCodePro-Semibold" font-weight="bold" font-size="22.0" fill="#E82662" transform="matrix(1.00, 0.00, -0.00, -1.00, 39.6, 2.0)">r</text><text xml:space="preserve" font-family="SourceCodePro-Semibold" font-weight="bold" font-size="22.0" fill="#E82662" transform="matrix(1.00, 0.00, -0.00, -1.00, 52.8, 2.0)">d</text><text xml:space="preserve" font-family="SourceCodePro-Semibold" font-weight="bold" font-size="22.0" fill="#E82662" transform="matrix(1.00, 0.00, -0.00, -1.00, 66.0, 2.0)">i</text><text xml:space="preserve" font-family="SourceCodePro-Semibold" font-weight="bold" font-size="22.0" fill="#E82662" transform="matrix(1.00, 0.00, -0.00, -1.00, 79.2, 2.0)">n</text><text xml:space="preserve" font-family="SourceCodePro-Semibold" font-weight="bold" font-size="22.0" fill="#E82662" transform="matrix(1.00, 0.00, -0.00, -1.00, 92.4, 2.0)">a</text><text xml:space="preserve" font-family="SourceCodePro-Semibold" font-weight="bold" font-size="22.0" fill="#E82662" transform="matrix(1.00, 0.00, -0.00, -1.00, 105.6, 2.0)">t</text><text xml:space="preserve" font-family="SourceCodePro-Semibold" font-weight="bold" font-size="22.0" fill="#E82662" transform="matrix(1.00, 0.00, -0.00, -1.00, 118.8, 2.0)">o</text><text xml:space="preserve" font-family="SourceCodePro-Semibold" font-weight="bold" font-size="22.0" fill="#E82662" transform="matrix(1.00, 0.00, -0.00, -1.00, 132.0, 2.0)">r</text></g></svg>