<?xml version="1.0" encoding="UTF-8" standalone="no"?><svg xmlns="http://www.w3.org/2000/svg" xmlns:xlink="http://www.w3.org/1999/xlink" clip-rule="evenodd" stroke-miterlimit="4.00" viewBox="0 0 222 187"><desc>SVG generated by Keynote</desc><defs></defs><g transform="matrix(1.00, 0.00, -0.00, -1.00, 0.0, 187.0)"><path d="M 106.6 -19.8 L 82.0 0.0 L 5.0 0.0 C 2.2 0.0 0.0 2.2 0.0 5.0 L 0.0 154.9 C 0.0 157.7 2.2 159.9 5.0 159.9 L 210.6 159.9 C 213.3 159.9 215.6 157.7 215.6 154.9 L 215.6 5.0 C 215.6 2.2 213.3 0.0 210.6 0.0 L 131.1 0.0 L 106.6 -19.8 Z M 106.6 -19.8 " fill="none" stroke="#616060" stroke-width="4.00" transform="matrix(1.00, 0.00, 0.00, -1.00, 3.1, 163.1)"></path><g><clipPath id="clip-489"><path d="M 2.1 3.2 L 219.5 3.2 L 219.5 163.1 L 2.1 163.1 Z M 2.1 3.2 "></path></clipPath><g clip-path="url(#clip-489)"><text xml:space="preserve" font-family="SourceCodePro-Regular" font-size="22.0" fill="#616060" transform="matrix(1.00, 0.00, -0.00, -1.00, 9.0, 132.0)">T</text><text xml:space="preserve" font-family="SourceCodePro-Regular" font-size="22.0" fill="#616060" transform="matrix(1.00, 0.00, -0.00, -1.00, 22.2, 132.0)">e</text><text xml:space="preserve" font-family="SourceCodePro-Regular" font-size="22.0" fill="#616060" transform="matrix(1.00, 0.00, -0.00, -1.00, 35.4, 132.0)">l</text><text xml:space="preserve" font-family="SourceCodePro-Regular" font-size="22.0" fill="#616060" transform="matrix(1.00, 0.00, -0.00, -1.00, 48.6, 132.0)">l</text><text xml:space="preserve" font-family="SourceCodePro-Regular" font-size="22.0" fill="#616060" transform="matrix(1.00, 0.00, -0.00, -1.00, 61.8, 132.0)"> </text><text xml:space="preserve" font-family="SourceCodePro-Regular" font-size="22.0" fill="#616060" transform="matrix(1.00, 0.00, -0.00, -1.00, 75.0, 132.0)">t</text><text xml:space="preserve" font-family="SourceCodePro-Regular" font-size="22.0" fill="#616060" transform="matrix(1.00, 0.00, -0.00, -1.00, 88.2, 132.0)">h</text><text xml:space="preserve" font-family="SourceCodePro-Regular" font-size="22.0" fill="#616060" transform="matrix(1.00, 0.00, -0.00, -1.00, 101.4, 132.0)">e</text><text xml:space="preserve" font-family="SourceCodePro-Regular" font-size="22.0" fill="#616060" transform="matrix(1.00, 0.00, -0.00, -1.00, 114.6, 132.0)"> </text><text xml:space="preserve" font-family="SourceCodePro-Semibold" font-weight="bold" font-size="22.0" fill="#E82662" transform="matrix(1.00, 0.00, -0.00, -1.00, 9.0, 104.0)">c</text><text xml:space="preserve" font-family="SourceCodePro-Semibold" font-weight="bold" font-size="22.0" fill="#E82662" transform="matrix(1.00, 0.00, -0.00, -1.00, 22.2, 104.0)">h</text><text xml:space="preserve" font-family="SourceCodePro-Semibold" font-weight="bold" font-size="22.0" fill="#E82662" transform="matrix(1.00, 0.00, -0.00, -1.00, 35.4, 104.0)">e</text><text xml:space="preserve" font-family="SourceCodePro-Semibold" font-weight="bold" font-size="22.0" fill="#E82662" transform="matrix(1.00, 0.00, -0.00, -1.00, 48.6, 104.0)">c</text><text xml:space="preserve" font-family="SourceCodePro-Semibold" font-weight="bold" font-size="22.0" fill="#E82662" transform="matrix(1.00, 0.00, -0.00, -1.00, 61.8, 104.0)">k</text><text xml:space="preserve" font-family="SourceCodePro-Semibold" font-weight="bold" font-size="22.0" fill="#E82662" transform="matrix(1.00, 0.00, -0.00, -1.00, 75.0, 104.0)">p</text><text xml:space="preserve" font-family="SourceCodePro-Semibold" font-weight="bold" font-size="22.0" fill="#E82662" transform="matrix(1.00, 0.00, -0.00, -1.00, 88.2, 104.0)">o</text><text xml:space="preserve" font-family="SourceCodePro-Semibold" font-weight="bold" font-size="22.0" fill="#E82662" transform="matrix(1.00, 0.00, -0.00, -1.00, 101.4, 104.0)">i</text><text xml:space="preserve" font-family="SourceCodePro-Semibold" font-weight="bold" font-size="22.0" fill="#E82662" transform="matrix(1.00, 0.00, -0.00, -1.00, 114.6, 104.0)">n</text><text xml:space="preserve" font-family="SourceCodePro-Semibold" font-weight="bold" font-size="22.0" fill="#E82662" transform="matrix(1.00, 0.00, -0.00, -1.00, 127.8, 104.0)">t</text><text xml:space="preserve" font-family="SourceCodePro-Semibold" font-weight="bold" font-size="22.0" fill="#E82662" transform="matrix(1.00, 0.00, -0.00, -1.00, 141.0, 104.0)"> </text><text xml:space="preserve" font-family="SourceCodePro-Semibold" font-weight="bold" font-size="22.0" fill="#E82662" transform="matrix(1.00, 0.00, -0.00, -1.00, 9.0, 76.0)">c</text><text xml:space="preserve" font-family="SourceCodePro-Semibold" font-weight="bold" font-size="22.0" fill="#E82662" transform="matrix(1.00, 0.00, -0.00, -1.00, 22.2, 76.0)">o</text><text xml:space="preserve" font-family="SourceCodePro-Semibold" font-weight="bold" font-size="22.0" fill="#E82662" transform="matrix(1.00, 0.00, -0.00, -1.00, 35.4, 76.0)">o</text><text xml:space="preserve" font-family="SourceCodePro-Semibold" font-weight="bold" font-size="22.0" fill="#E82662" transform="matrix(1.00, 0.00, -0.00, -1.00, 48.6, 76.0)">r</text><text xml:space="preserve" font-family="SourceCodePro-Semibold" font-weight="bold" font-size="22.0" fill="#E82662" transform="matrix(1.00, 0.00, -0.00, -1.00, 61.8, 76.0)">d</text><text xml:space="preserve" font-family="SourceCodePro-Semibold" font-weight="bold" font-size="22.0" fill="#E82662" transform="matrix(1.00, 0.00, -0.00, -1.00, 75.0, 76.0)">i</text><text xml:space="preserve" font-family="SourceCodePro-Semibold" font-weight="bold" font-size="22.0" fill="#E82662" transform="matrix(1.00, 0.00, -0.00, -1.00, 88.2, 76.0)">n</text><text xml:space="preserve" font-family="SourceCodePro-Semibold" font-weight="bold" font-size="22.0" fill="#E82662" transform="matrix(1.00, 0.00, -0.00, -1.00, 101.4, 76.0)">a</text><text xml:space="preserve" font-family="SourceCodePro-Semibold" font-weight="bold" font-size="22.0" fill="#E82662" transform="matrix(1.00, 0.00, -0.00, -1.00, 114.6, 76.0)">t</text><text xml:space="preserve" font-family="SourceCodePro-Semibold" font-weight="bold" font-size="22.0" fill="#E82662" transform="matrix(1.00, 0.00, -0.00, -1.00, 127.8, 76.0)">o</text><text xml:space="preserve" font-family="SourceCodePro-Semibold" font-weight="bold" font-size="22.0" fill="#E82662" transform="matrix(1.00, 0.00, -0.00, -1.00, 141.0, 76.0)">r</text><text xml:space="preserve" font-family="SourceCodePro-Regular" font-size="22.0" fill="#616060" transform="matrix(1.00, 0.00, -0.00, -1.00, 154.2, 76.0)"> </text><text xml:space="preserve" font-family="SourceCodePro-Regular" font-size="22.0" fill="#616060" transform="matrix(1.00, 0.00, -0.00, -1.00, 9.0, 48.0)">(</text><text xml:space="preserve" font-family="SourceCodePro-Regular" font-size="22.0" fill="#616060" transform="matrix(1.00, 0.00, -0.00, -1.00, 22.2, 48.0)">a</text><text xml:space="preserve" font-family="SourceCodePro-Regular" font-size="22.0" fill="#616060" transform="matrix(1.00, 0.00, -0.00, -1.00, 35.4, 48.0)">k</text><text xml:space="preserve" font-family="SourceCodePro-Regular" font-size="22.0" fill="#616060" transform="matrix(1.00, 0.00, -0.00, -1.00, 48.6, 48.0)">a</text><text xml:space="preserve" font-family="SourceCodePro-Regular" font-size="22.0" fill="#616060" transform="matrix(1.00, 0.00, -0.00, -1.00, 61.8, 48.0)"> </text><text xml:space="preserve" font-family="SourceCodePro-Regular" font-size="22.0" fill="#616060" transform="matrix(1.00, 0.00, -0.00, -1.00, 9.0, 20.0)">J</text><text xml:space="preserve" font-family="SourceCodePro-Regular" font-size="22.0" fill="#616060" transform="matrix(1.00, 0.00, -0.00, -1.00, 22.2, 20.0)">o</text><text xml:space="preserve" font-family="SourceCodePro-Regular" font-size="22.0" fill="#616060" transform="matrix(1.00, 0.00, -0.00, -1.00, 35.4, 20.0)">b</text><text xml:space="preserve" font-family="SourceCodePro-Regular" font-size="22.0" fill="#616060" transform="matrix(1.00, 0.00, -0.00, -1.00, 48.6, 20.0)">M</text><text xml:space="preserve" font-family="SourceCodePro-Regular" font-size="22.0" fill="#616060" transform="matrix(1.00, 0.00, -0.00, -1.00, 61.8, 20.0)">a</text><text xml:space="preserve" font-family="SourceCodePro-Regular" font-size="22.0" fill="#616060" transform="matrix(1.00, 0.00, -0.00, -1.00, 75.0, 20.0)">n</text><text xml:space="preserve" font-family="SourceCodePro-Regular" font-size="22.0" fill="#616060" transform="matrix(1.00, 0.00, -0.00, -1.00, 88.2, 20.0)">a</text><text xml:space="preserve" font-family="SourceCodePro-Regular" font-size="22.0" fill="#616060" transform="matrix(1.00, 0.00, -0.00, -1.00, 101.4, 20.0)">g</text><text xml:space="preserve" font-family="SourceCodePro-Regular" font-size="22.0" fill="#616060" transform="matrix(1.00, 0.00, -0.00, -1.00, 114.6, 20.0)">e</text><text xml:space="preserve" font-family="SourceCodePro-Regular" font-size="22.0" fill="#616060" transform="matrix(1.00, 0.00, -0.00, -1.00, 127.8, 20.0)">r</text><text xml:space="preserve" font-family="SourceCodePro-Regular" font-size="22.0" fill="#616060" transform="matrix(1.00, 0.00, -0.00, -1.00, 141.0, 20.0)">)</text></g></g></g></svg>