<?xml version="1.0" encoding="UTF-8" standalone="no"?><svg xmlns="http://www.w3.org/2000/svg" xmlns:xlink="http://www.w3.org/1999/xlink" clip-rule="evenodd" stroke-miterlimit="4.00" viewBox="0 0 186 21"><desc>SVG generated by Keynote</desc><defs></defs><g transform="matrix(1.00, 0.00, -0.00, -1.00, 0.0, 21.0)"><text xml:space="preserve" font-family="SourceCodePro-Regular" font-size="24.0" fill="#616060" transform="matrix(1.00, 0.00, -0.00, -1.00, -2.0, 3.0)">L</text><text xml:space="preserve" font-family="SourceCodePro-Regular" font-size="24.0" fill="#616060" transform="matrix(1.00, 0.00, -0.00, -1.00, 12.4, 3.0)">e</text><text xml:space="preserve" font-family="SourceCodePro-Regular" font-size="24.0" fill="#616060" transform="matrix(1.00, 0.00, -0.00, -1.00, 26.8, 3.0)">t</text><text xml:space="preserve" font-family="SourceCodePro-Regular" font-size="24.0" fill="#616060" transform="matrix(1.00, 0.00, -0.00, -1.00, 41.2, 3.0)">’</text><text xml:space="preserve" font-family="SourceCodePro-Regular" font-size="24.0" fill="#616060" transform="matrix(1.00, 0.00, -0.00, -1.00, 55.6, 3.0)">s</text><text xml:space="preserve" font-family="SourceCodePro-Regular" font-size="24.0" fill="#616060" transform="matrix(1.00, 0.00, -0.00, -1.00, 70.0, 3.0)"> </text><text xml:space="preserve" font-family="SourceCodePro-Regular" font-size="24.0" fill="#616060" transform="matrix(1.00, 0.00, -0.00, -1.00, 84.4, 3.0)">s</text><text xml:space="preserve" font-family="SourceCodePro-Regular" font-size="24.0" fill="#616060" transform="matrix(1.00, 0.00, -0.00, -1.00, 98.8, 3.0)">t</text><text xml:space="preserve" font-family="SourceCodePro-Regular" font-size="24.0" fill="#616060" transform="matrix(1.00, 0.00, -0.00, -1.00, 113.2, 3.0)">a</text><text xml:space="preserve" font-family="SourceCodePro-Regular" font-size="24.0" fill="#616060" transform="matrix(1.00, 0.00, -0.00, -1.00, 127.6, 3.0)">r</text><text xml:space="preserve" font-family="SourceCodePro-Regular" font-size="24.0" fill="#616060" transform="matrix(1.00, 0.00, -0.00, -1.00, 142.0, 3.0)">t</text><text xml:space="preserve" font-family="SourceCodePro-Regular" font-size="24.0" fill="#616060" transform="matrix(1.00, 0.00, -0.00, -1.00, 156.4, 3.0)"> </text><text xml:space="preserve" font-family="SourceCodePro-Regular" font-size="24.0" fill="#616060" transform="matrix(1.00, 0.00, -0.00, -1.00, 170.8, 3.0)">a</text></g></svg>