<?xml version="1.0" encoding="UTF-8" standalone="no"?><svg xmlns="http://www.w3.org/2000/svg" xmlns:xlink="http://www.w3.org/1999/xlink" clip-rule="evenodd" stroke-miterlimit="4.00" viewBox="0 0 133 24"><desc>SVG generated by Keynote</desc><defs></defs><g transform="matrix(1.00, 0.00, -0.00, -1.00, 0.0, 24.0)"><text xml:space="preserve" font-family="SourceCodePro-Semibold" font-weight="bold" font-size="22.0" fill="#E82662" transform="matrix(1.00, 0.00, -0.00, -1.00, 0.0, 6.0)">c</text><text xml:space="preserve" font-family="SourceCodePro-Semibold" font-weight="bold" font-size="22.0" fill="#E82662" transform="matrix(1.00, 0.00, -0.00, -1.00, 13.2, 6.0)">h</text><text xml:space="preserve" font-family="SourceCodePro-Semibold" font-weight="bold" font-size="22.0" fill="#E82662" transform="matrix(1.00, 0.00, -0.00, -1.00, 26.4, 6.0)">e</text><text xml:space="preserve" font-family="SourceCodePro-Semibold" font-weight="bold" font-size="22.0" fill="#E82662" transform="matrix(1.00, 0.00, -0.00, -1.00, 39.6, 6.0)">c</text><text xml:space="preserve" font-family="SourceCodePro-Semibold" font-weight="bold" font-size="22.0" fill="#E82662" transform="matrix(1.00, 0.00, -0.00, -1.00, 52.8, 6.0)">k</text><text xml:space="preserve" font-family="SourceCodePro-Semibold" font-weight="bold" font-size="22.0" fill="#E82662" transform="matrix(1.00, 0.00, -0.00, -1.00, 66.0, 6.0)">p</text><text xml:space="preserve" font-family="SourceCodePro-Semibold" font-weight="bold" font-size="22.0" fill="#E82662" transform="matrix(1.00, 0.00, -0.00, -1.00, 79.2, 6.0)">o</text><text xml:space="preserve" font-family="SourceCodePro-Semibold" font-weight="bold" font-size="22.0" fill="#E82662" transform="matrix(1.00, 0.00, -0.00, -1.00, 92.4, 6.0)">i</text><text xml:space="preserve" font-family="SourceCodePro-Semibold" font-weight="bold" font-size="22.0" fill="#E82662" transform="matrix(1.00, 0.00, -0.00, -1.00, 105.6, 6.0)">n</text><text xml:space="preserve" font-family="SourceCodePro-Semibold" font-weight="bold" font-size="22.0" fill="#E82662" transform="matrix(1.00, 0.00, -0.00, -1.00, 118.8, 6.0)">t</text></g></svg>