<?xml version="1.0" encoding="UTF-8" standalone="no"?><svg xmlns="http://www.w3.org/2000/svg" xmlns:xlink="http://www.w3.org/1999/xlink" clip-rule="evenodd" stroke-miterlimit="4.00" viewBox="0 0 222 190"><desc>SVG generated by Keynote</desc><defs></defs><g transform="matrix(1.00, 0.00, -0.00, -1.00, 0.0, 190.0)"><path d="M 5.0 0.0 C 2.2 0.0 0.0 2.2 0.0 5.0 L 0.0 154.9 C 0.0 157.7 2.2 159.9 5.0 159.9 L 77.9 159.9 L 102.5 182.3 L 127.0 159.9 L 210.6 159.9 C 213.3 159.9 215.6 157.7 215.6 154.9 L 215.6 5.0 C 215.6 2.2 213.3 0.0 210.6 0.0 L 5.0 0.0 Z M 5.0 0.0 " fill="none" stroke="#616060" stroke-width="4.00" transform="matrix(1.00, 0.00, 0.00, -1.00, 3.1, 186.8)"></path><g><clipPath id="clip-487"><path d="M 1.5 26.9 L 220.2 26.9 L 220.2 186.8 L 1.5 186.8 Z M 1.5 26.9 "></path></clipPath><g clip-path="url(#clip-487)"><text xml:space="preserve" font-family="SourceCodePro-Regular" font-size="24.0" fill="#616060" transform="matrix(1.00, 0.00, -0.00, -1.00, 9.0, 113.0)">L</text><text xml:space="preserve" font-family="SourceCodePro-Regular" font-size="24.0" fill="#616060" transform="matrix(1.00, 0.00, -0.00, -1.00, 23.4, 113.0)">e</text><text xml:space="preserve" font-family="SourceCodePro-Regular" font-size="24.0" fill="#616060" transform="matrix(1.00, 0.00, -0.00, -1.00, 37.8, 113.0)">t</text><text xml:space="preserve" font-family="SourceCodePro-Regular" font-size="24.0" fill="#616060" transform="matrix(1.00, 0.00, -0.00, -1.00, 52.2, 113.0)">’</text><text xml:space="preserve" font-family="SourceCodePro-Regular" font-size="24.0" fill="#616060" transform="matrix(1.00, 0.00, -0.00, -1.00, 66.6, 113.0)">s</text><text xml:space="preserve" font-family="SourceCodePro-Regular" font-size="24.0" fill="#616060" transform="matrix(1.00, 0.00, -0.00, -1.00, 81.0, 113.0)"> </text><text xml:space="preserve" font-family="SourceCodePro-Regular" font-size="24.0" fill="#616060" transform="matrix(1.00, 0.00, -0.00, -1.00, 95.4, 113.0)">s</text><text xml:space="preserve" font-family="SourceCodePro-Regular" font-size="24.0" fill="#616060" transform="matrix(1.00, 0.00, -0.00, -1.00, 109.8, 113.0)">t</text><text xml:space="preserve" font-family="SourceCodePro-Regular" font-size="24.0" fill="#616060" transform="matrix(1.00, 0.00, -0.00, -1.00, 124.2, 113.0)">a</text><text xml:space="preserve" font-family="SourceCodePro-Regular" font-size="24.0" fill="#616060" transform="matrix(1.00, 0.00, -0.00, -1.00, 138.6, 113.0)">r</text><text xml:space="preserve" font-family="SourceCodePro-Regular" font-size="24.0" fill="#616060" transform="matrix(1.00, 0.00, -0.00, -1.00, 153.0, 113.0)">t</text><text xml:space="preserve" font-family="SourceCodePro-Regular" font-size="24.0" fill="#616060" transform="matrix(1.00, 0.00, -0.00, -1.00, 167.4, 113.0)"> </text><text xml:space="preserve" font-family="SourceCodePro-Regular" font-size="24.0" fill="#616060" transform="matrix(1.00, 0.00, -0.00, -1.00, 181.8, 113.0)">a</text><text xml:space="preserve" font-family="SourceCodePro-Regular" font-size="24.0" fill="#616060" transform="matrix(1.00, 0.00, -0.00, -1.00, 196.2, 113.0)"> </text><text xml:space="preserve" font-family="SourceCodePro-Semibold" font-weight="bold" font-size="24.0" fill="#616060" transform="matrix(1.00, 0.00, -0.00, -1.00, 9.0, 82.0)">S</text><text xml:space="preserve" font-family="SourceCodePro-Semibold" font-weight="bold" font-size="24.0" fill="#616060" transform="matrix(1.00, 0.00, -0.00, -1.00, 23.4, 82.0)">n</text><text xml:space="preserve" font-family="SourceCodePro-Semibold" font-weight="bold" font-size="24.0" fill="#616060" transform="matrix(1.00, 0.00, -0.00, -1.00, 37.8, 82.0)">a</text><text xml:space="preserve" font-family="SourceCodePro-Semibold" font-weight="bold" font-size="24.0" fill="#616060" transform="matrix(1.00, 0.00, -0.00, -1.00, 52.2, 82.0)">p</text><text xml:space="preserve" font-family="SourceCodePro-Semibold" font-weight="bold" font-size="24.0" fill="#616060" transform="matrix(1.00, 0.00, -0.00, -1.00, 66.6, 82.0)">s</text><text xml:space="preserve" font-family="SourceCodePro-Semibold" font-weight="bold" font-size="24.0" fill="#616060" transform="matrix(1.00, 0.00, -0.00, -1.00, 81.0, 82.0)">h</text><text xml:space="preserve" font-family="SourceCodePro-Semibold" font-weight="bold" font-size="24.0" fill="#616060" transform="matrix(1.00, 0.00, -0.00, -1.00, 95.4, 82.0)">o</text><text xml:space="preserve" font-family="SourceCodePro-Semibold" font-weight="bold" font-size="24.0" fill="#616060" transform="matrix(1.00, 0.00, -0.00, -1.00, 109.8, 82.0)">t</text><text xml:space="preserve" font-family="SourceCodePro-Semibold" font-weight="bold" font-size="24.0" fill="#616060" transform="matrix(1.00, 0.00, -0.00, -1.00, 124.2, 82.0)">*</text><text xml:space="preserve" font-family="SourceCodePro-Semibold" font-weight="bold" font-size="24.0" fill="#616060" transform="matrix(1.00, 0.00, -0.00, -1.00, 138.6, 82.0)">*</text></g></g></g></svg>