<?xml version="1.0" encoding="UTF-8" standalone="no"?><svg xmlns="http://www.w3.org/2000/svg" xmlns:xlink="http://www.w3.org/1999/xlink" clip-rule="evenodd" stroke-miterlimit="4.00" viewBox="0 0 1024 768"><desc>SVG generated by Keynote</desc><defs></defs><g transform="matrix(1.00, 0.00, -0.00, -1.00, 0.0, 768.0)"><path d="M 0.0 768.0 L 1024.0 768.0 L 1024.0 0.0 L 0.0 0.0 Z M 0.0 768.0 " fill="#FEFFFF"></path><text xml:space="preserve" font-family="SourceCodePro-Regular" font-size="12.0" fill="#747474" transform="matrix(1.00, 0.00, -0.00, -1.00, 19.0, 19.0)">L</text><text xml:space="preserve" font-family="SourceCodePro-Regular" font-size="12.0" fill="#747474" transform="matrix(1.00, 0.00, -0.00, -1.00, 26.2, 19.0)">o</text><text xml:space="preserve" font-family="SourceCodePro-Regular" font-size="12.0" fill="#747474" transform="matrix(1.00, 0.00, -0.00, -1.00, 33.4, 19.0)">r</text><text xml:space="preserve" font-family="SourceCodePro-Regular" font-size="12.0" fill="#747474" transform="matrix(1.00, 0.00, -0.00, -1.00, 40.6, 19.0)">e</text><text xml:space="preserve" font-family="SourceCodePro-Regular" font-size="12.0" fill="#747474" transform="matrix(1.00, 0.00, -0.00, -1.00, 47.8, 19.0)">n</text><text xml:space="preserve" font-family="SourceCodePro-Regular" font-size="12.0" fill="#747474" transform="matrix(1.00, 0.00, -0.00, -1.00, 55.0, 19.0)">z</text><text xml:space="preserve" font-family="SourceCodePro-Regular" font-size="12.0" fill="#747474" transform="matrix(1.00, 0.00, -0.00, -1.00, 62.2, 19.0)">o</text><text xml:space="preserve" font-family="SourceCodePro-Regular" font-size="12.0" fill="#747474" transform="matrix(1.00, 0.00, -0.00, -1.00, 69.4, 19.0)"> </text><text xml:space="preserve" font-family="SourceCodePro-Regular" font-size="12.0" fill="#747474" transform="matrix(1.00, 0.00, -0.00, -1.00, 76.6, 19.0)">A</text><text xml:space="preserve" font-family="SourceCodePro-Regular" font-size="12.0" fill="#747474" transform="matrix(1.00, 0.00, -0.00, -1.00, 83.8, 19.0)">f</text><text xml:space="preserve" font-family="SourceCodePro-Regular" font-size="12.0" fill="#747474" transform="matrix(1.00, 0.00, -0.00, -1.00, 91.0, 19.0)">f</text><text xml:space="preserve" font-family="SourceCodePro-Regular" font-size="12.0" fill="#747474" transform="matrix(1.00, 0.00, -0.00, -1.00, 98.2, 19.0)">e</text><text xml:space="preserve" font-family="SourceCodePro-Regular" font-size="12.0" fill="#747474" transform="matrix(1.00, 0.00, -0.00, -1.00, 105.4, 19.0)">t</text><text xml:space="preserve" font-family="SourceCodePro-Regular" font-size="12.0" fill="#747474" transform="matrix(1.00, 0.00, -0.00, -1.00, 112.6, 19.0)">t</text><text xml:space="preserve" font-family="SourceCodePro-Regular" font-size="12.0" fill="#747474" transform="matrix(1.00, 0.00, -0.00, -1.00, 119.8, 19.0)">i</text><text xml:space="preserve" font-family="SourceCodePro-Regular" font-size="12.0" fill="#747474" transform="matrix(1.00, 0.00, -0.00, -1.00, 127.0, 19.0)"> </text><text xml:space="preserve" font-family="SourceCodePro-Regular" font-size="12.0" fill="#747474" transform="matrix(1.00, 0.00, -0.00, -1.00, 134.2, 19.0)">(</text><text xml:space="preserve" font-family="SourceCodePro-Regular" font-size="12.0" fill="#747474" transform="matrix(1.00, 0.00, -0.00, -1.00, 141.4, 19.0)">l</text><text xml:space="preserve" font-family="SourceCodePro-Regular" font-size="12.0" fill="#747474" transform="matrix(1.00, 0.00, -0.00, -1.00, 148.6, 19.0)">o</text><text xml:space="preserve" font-family="SourceCodePro-Regular" font-size="12.0" fill="#747474" transform="matrix(1.00, 0.00, -0.00, -1.00, 155.8, 19.0)">r</text><text xml:space="preserve" font-family="SourceCodePro-Regular" font-size="12.0" fill="#747474" transform="matrix(1.00, 0.00, -0.00, -1.00, 163.0, 19.0)">e</text><text xml:space="preserve" font-family="SourceCodePro-Regular" font-size="12.0" fill="#747474" transform="matrix(1.00, 0.00, -0.00, -1.00, 170.2, 19.0)">n</text><text xml:space="preserve" font-family="SourceCodePro-Regular" font-size="12.0" fill="#747474" transform="matrix(1.00, 0.00, -0.00, -1.00, 177.4, 19.0)">z</text><text xml:space="preserve" font-family="SourceCodePro-Regular" font-size="12.0" fill="#747474" transform="matrix(1.00, 0.00, -0.00, -1.00, 184.6, 19.0)">o</text><text xml:space="preserve" font-family="SourceCodePro-Regular" font-size="12.0" fill="#747474" transform="matrix(1.00, 0.00, -0.00, -1.00, 191.8, 19.0)">.</text><text xml:space="preserve" font-family="SourceCodePro-Regular" font-size="12.0" fill="#747474" transform="matrix(1.00, 0.00, -0.00, -1.00, 199.0, 19.0)">a</text><text xml:space="preserve" font-family="SourceCodePro-Regular" font-size="12.0" fill="#747474" transform="matrix(1.00, 0.00, -0.00, -1.00, 206.2, 19.0)">f</text><text xml:space="preserve" font-family="SourceCodePro-Regular" font-size="12.0" fill="#747474" transform="matrix(1.00, 0.00, -0.00, -1.00, 213.4, 19.0)">f</text><text xml:space="preserve" font-family="SourceCodePro-Regular" font-size="12.0" fill="#747474" transform="matrix(1.00, 0.00, -0.00, -1.00, 220.6, 19.0)">e</text><text xml:space="preserve" font-family="SourceCodePro-Regular" font-size="12.0" fill="#747474" transform="matrix(1.00, 0.00, -0.00, -1.00, 227.8, 19.0)">t</text><text xml:space="preserve" font-family="SourceCodePro-Regular" font-size="12.0" fill="#747474" transform="matrix(1.00, 0.00, -0.00, -1.00, 235.0, 19.0)">t</text><text xml:space="preserve" font-family="SourceCodePro-Regular" font-size="12.0" fill="#747474" transform="matrix(1.00, 0.00, -0.00, -1.00, 242.2, 19.0)">i</text><text xml:space="preserve" font-family="SourceCodePro-Regular" font-size="12.0" fill="#747474" transform="matrix(1.00, 0.00, -0.00, -1.00, 249.4, 19.0)">@</text><text xml:space="preserve" font-family="SourceCodePro-Regular" font-size="12.0" fill="#747474" transform="matrix(1.00, 0.00, -0.00, -1.00, 256.6, 19.0)">p</text><text xml:space="preserve" font-family="SourceCodePro-Regular" font-size="12.0" fill="#747474" transform="matrix(1.00, 0.00, -0.00, -1.00, 263.8, 19.0)">o</text><text xml:space="preserve" font-family="SourceCodePro-Regular" font-size="12.0" fill="#747474" transform="matrix(1.00, 0.00, -0.00, -1.00, 271.0, 19.0)">l</text><text xml:space="preserve" font-family="SourceCodePro-Regular" font-size="12.0" fill="#747474" transform="matrix(1.00, 0.00, -0.00, -1.00, 278.2, 19.0)">i</text><text xml:space="preserve" font-family="SourceCodePro-Regular" font-size="12.0" fill="#747474" transform="matrix(1.00, 0.00, -0.00, -1.00, 285.4, 19.0)">m</text><text xml:space="preserve" font-family="SourceCodePro-Regular" font-size="12.0" fill="#747474" transform="matrix(1.00, 0.00, -0.00, -1.00, 292.6, 19.0)">i</text><text xml:space="preserve" font-family="SourceCodePro-Regular" font-size="12.0" fill="#747474" transform="matrix(1.00, 0.00, -0.00, -1.00, 299.8, 19.0)">.</text><text xml:space="preserve" font-family="SourceCodePro-Regular" font-size="12.0" fill="#747474" transform="matrix(1.00, 0.00, -0.00, -1.00, 307.0, 19.0)">i</text><text xml:space="preserve" font-family="SourceCodePro-Regular" font-size="12.0" fill="#747474" transform="matrix(1.00, 0.00, -0.00, -1.00, 314.2, 19.0)">t</text><text xml:space="preserve" font-family="SourceCodePro-Regular" font-size="12.0" fill="#747474" transform="matrix(1.00, 0.00, -0.00, -1.00, 321.4, 19.0)">)</text><text xml:space="preserve" font-family="SourceCodePro-Regular" font-size="12.0" fill="#747474" transform="matrix(1.00, 0.00, -0.00, -1.00, 328.6, 19.0)"> </text><text xml:space="preserve" font-family="SourceCodePro-Regular" font-size="12.0" fill="#747474" transform="matrix(1.00, 0.00, -0.00, -1.00, 335.8, 19.0)">-</text><text xml:space="preserve" font-family="SourceCodePro-Regular" font-size="12.0" fill="#747474" transform="matrix(1.00, 0.00, -0.00, -1.00, 343.0, 19.0)"> </text><text xml:space="preserve" font-family="SourceCodePro-Regular" font-size="12.0" fill="#747474" transform="matrix(1.00, 0.00, -0.00, -1.00, 350.2, 19.0)">P</text><text xml:space="preserve" font-family="SourceCodePro-Regular" font-size="12.0" fill="#747474" transform="matrix(1.00, 0.00, -0.00, -1.00, 357.4, 19.0)">o</text><text xml:space="preserve" font-family="SourceCodePro-Regular" font-size="12.0" fill="#747474" transform="matrix(1.00, 0.00, -0.00, -1.00, 364.6, 19.0)">l</text><text xml:space="preserve" font-family="SourceCodePro-Regular" font-size="12.0" fill="#747474" transform="matrix(1.00, 0.00, -0.00, -1.00, 371.8, 19.0)">i</text><text xml:space="preserve" font-family="SourceCodePro-Regular" font-size="12.0" fill="#747474" transform="matrix(1.00, 0.00, -0.00, -1.00, 379.0, 19.0)">t</text><text xml:space="preserve" font-family="SourceCodePro-Regular" font-size="12.0" fill="#747474" transform="matrix(1.00, 0.00, -0.00, -1.00, 386.2, 19.0)">e</text><text xml:space="preserve" font-family="SourceCodePro-Regular" font-size="12.0" fill="#747474" transform="matrix(1.00, 0.00, -0.00, -1.00, 393.4, 19.0)">c</text><text xml:space="preserve" font-family="SourceCodePro-Regular" font-size="12.0" fill="#747474" transform="matrix(1.00, 0.00, -0.00, -1.00, 400.6, 19.0)">n</text><text xml:space="preserve" font-family="SourceCodePro-Regular" font-size="12.0" fill="#747474" transform="matrix(1.00, 0.00, -0.00, -1.00, 407.8, 19.0)">i</text><text xml:space="preserve" font-family="SourceCodePro-Regular" font-size="12.0" fill="#747474" transform="matrix(1.00, 0.00, -0.00, -1.00, 415.0, 19.0)">c</text><text xml:space="preserve" font-family="SourceCodePro-Regular" font-size="12.0" fill="#747474" transform="matrix(1.00, 0.00, -0.00, -1.00, 422.2, 19.0)">o</text><text xml:space="preserve" font-family="SourceCodePro-Regular" font-size="12.0" fill="#747474" transform="matrix(1.00, 0.00, -0.00, -1.00, 429.4, 19.0)"> </text><text xml:space="preserve" font-family="SourceCodePro-Regular" font-size="12.0" fill="#747474" transform="matrix(1.00, 0.00, -0.00, -1.00, 436.6, 19.0)">d</text><text xml:space="preserve" font-family="SourceCodePro-Regular" font-size="12.0" fill="#747474" transform="matrix(1.00, 0.00, -0.00, -1.00, 443.8, 19.0)">i</text><text xml:space="preserve" font-family="SourceCodePro-Regular" font-size="12.0" fill="#747474" transform="matrix(1.00, 0.00, -0.00, -1.00, 451.0, 19.0)"> </text><text xml:space="preserve" font-family="SourceCodePro-Regular" font-size="12.0" fill="#747474" transform="matrix(1.00, 0.00, -0.00, -1.00, 458.2, 19.0)">M</text><text xml:space="preserve" font-family="SourceCodePro-Regular" font-size="12.0" fill="#747474" transform="matrix(1.00, 0.00, -0.00, -1.00, 465.4, 19.0)">i</text><text xml:space="preserve" font-family="SourceCodePro-Regular" font-size="12.0" fill="#747474" transform="matrix(1.00, 0.00, -0.00, -1.00, 472.6, 19.0)">l</text><text xml:space="preserve" font-family="SourceCodePro-Regular" font-size="12.0" fill="#747474" transform="matrix(1.00, 0.00, -0.00, -1.00, 479.8, 19.0)">a</text><text xml:space="preserve" font-family="SourceCodePro-Regular" font-size="12.0" fill="#747474" transform="matrix(1.00, 0.00, -0.00, -1.00, 487.0, 19.0)">n</text><text xml:space="preserve" font-family="SourceCodePro-Regular" font-size="12.0" fill="#747474" transform="matrix(1.00, 0.00, -0.00, -1.00, 494.2, 19.0)">o</text><text xml:space="preserve" font-family="SourceCodePro-Regular" font-size="12.0" fill="#747474" transform="matrix(1.00, 0.00, -0.00, -1.00, 501.4, 19.0)">,</text><text xml:space="preserve" font-family="SourceCodePro-Regular" font-size="12.0" fill="#747474" transform="matrix(1.00, 0.00, -0.00, -1.00, 508.6, 19.0)"> </text><text xml:space="preserve" font-family="SourceCodePro-Regular" font-size="12.0" fill="#747474" transform="matrix(1.00, 0.00, -0.00, -1.00, 515.8, 19.0)">D</text><text xml:space="preserve" font-family="SourceCodePro-Regular" font-size="12.0" fill="#747474" transform="matrix(1.00, 0.00, -0.00, -1.00, 523.0, 19.0)">E</text><text xml:space="preserve" font-family="SourceCodePro-Regular" font-size="12.0" fill="#747474" transform="matrix(1.00, 0.00, -0.00, -1.00, 530.2, 19.0)">I</text><text xml:space="preserve" font-family="SourceCodePro-Regular" font-size="12.0" fill="#747474" transform="matrix(1.00, 0.00, -0.00, -1.00, 537.4, 19.0)">B</text><g><clipPath id="clip-525"><path d="M 140.8 16.1 L 321.8 16.1 L 321.8 18.7 L 140.8 18.7 Z M 140.8 16.1 "></path></clipPath><g clip-path="url(#clip-525)"><path d="M 126.9 17.1 L 306.9 17.1 " fill="none" stroke="#747474" stroke-width="0.60" stroke-miterlimit="0.00" transform="matrix(1.00, 0.00, 0.00, -1.00, 14.9, 34.5)"></path></g></g><text xml:space="preserve" font-family="Lora-Bold" font-weight="bold" font-size="80.0" fill="#212121" transform="matrix(1.00, 0.00, -0.00, -1.00, 341.0, 648.0)">T</text><text xml:space="preserve" font-family="Lora-Bold" font-weight="bold" font-size="80.0" fill="#212121" transform="matrix(1.00, 0.00, -0.00, -1.00, 393.0, 648.0)">h</text><text xml:space="preserve" font-family="Lora-Bold" font-weight="bold" font-size="80.0" fill="#212121" transform="matrix(1.00, 0.00, -0.00, -1.00, 442.6, 648.0)">e</text><text xml:space="preserve" font-family="Lora-Bold" font-weight="bold" font-size="80.0" fill="#212121" transform="matrix(1.00, 0.00, -0.00, -1.00, 485.7, 648.0)"> </text><text xml:space="preserve" font-family="Lora-Bold" font-weight="bold" font-size="80.0" fill="#212121" transform="matrix(1.00, 0.00, -0.00, -1.00, 506.7, 648.0)">D</text><text xml:space="preserve" font-family="Lora-Bold" font-weight="bold" font-size="80.0" fill="#212121" transform="matrix(1.00, 0.00, -0.00, -1.00, 567.0, 648.0)">a</text><text xml:space="preserve" font-family="Lora-Bold" font-weight="bold" font-size="80.0" fill="#212121" transform="matrix(1.00, 0.00, -0.00, -1.00, 608.7, 648.0)">t</text><text xml:space="preserve" font-family="Lora-Bold" font-weight="bold" font-size="80.0" fill="#212121" transform="matrix(1.00, 0.00, -0.00, -1.00, 641.7, 648.0)">a</text><text xml:space="preserve" font-family="Helvetica-Light" font-size="18.0" fill="#000000" transform="matrix(1.00, 0.00, -0.00, -1.00, 992.0, 16.0)">4</text><text xml:space="preserve" font-family="Helvetica-Light" font-size="18.0" fill="#000000" transform="matrix(1.00, 0.00, -0.00, -1.00, 1002.0, 16.0)">1</text><text xml:space="preserve" font-family="Raleway-ExtraLight" font-size="41.0" fill="#52575F" transform="matrix(1.00, 0.00, -0.00, -1.00, 341.0, 589.0)">(</text><text xml:space="preserve" font-family="Raleway-ExtraLight" font-size="41.0" fill="#52575F" transform="matrix(1.00, 0.00, -0.00, -1.00, 351.1, 589.0)"> </text><text xml:space="preserve" font-family="Raleway-ExtraLight" font-size="41.0" fill="#52575F" transform="matrix(1.00, 0.00, -0.00, -1.00, 362.0, 589.0)">a</text><text xml:space="preserve" font-family="Raleway-ExtraLight" font-size="41.0" fill="#52575F" transform="matrix(1.00, 0.00, -0.00, -1.00, 383.8, 589.0)">r</text><text xml:space="preserve" font-family="Raleway-ExtraLight" font-size="41.0" fill="#52575F" transform="matrix(1.00, 0.00, -0.00, -1.00, 397.5, 589.0)">e</text><text xml:space="preserve" font-family="Raleway-ExtraLight" font-size="41.0" fill="#52575F" transform="matrix(1.00, 0.00, -0.00, -1.00, 421.3, 589.0)">a</text><text xml:space="preserve" font-family="Raleway-ExtraLight" font-size="41.0" fill="#52575F" transform="matrix(1.00, 0.00, -0.00, -1.00, 443.1, 589.0)">,</text><text xml:space="preserve" font-family="Raleway-ExtraLight" font-size="41.0" fill="#52575F" transform="matrix(1.00, 0.00, -0.00, -1.00, 450.8, 589.0)"> </text><text xml:space="preserve" font-family="Raleway-ExtraLight" font-size="41.0" fill="#52575F" transform="matrix(1.00, 0.00, -0.00, -1.00, 461.7, 589.0)">t</text><text xml:space="preserve" font-family="Raleway-ExtraLight" font-size="41.0" fill="#52575F" transform="matrix(1.00, 0.00, -0.00, -1.00, 474.2, 589.0)">e</text><text xml:space="preserve" font-family="Raleway-ExtraLight" font-size="41.0" fill="#52575F" transform="matrix(1.00, 0.00, -0.00, -1.00, 498.1, 589.0)">m</text><text xml:space="preserve" font-family="Raleway-ExtraLight" font-size="41.0" fill="#52575F" transform="matrix(1.00, 0.00, -0.00, -1.00, 535.3, 589.0)">p</text><text xml:space="preserve" font-family="Raleway-ExtraLight" font-size="41.0" fill="#52575F" transform="matrix(1.00, 0.00, -0.00, -1.00, 560.2, 589.0)">e</text><text xml:space="preserve" font-family="Raleway-ExtraLight" font-size="41.0" fill="#52575F" transform="matrix(1.00, 0.00, -0.00, -1.00, 584.0, 589.0)">r</text><text xml:space="preserve" font-family="Raleway-ExtraLight" font-size="41.0" fill="#52575F" transform="matrix(1.00, 0.00, -0.00, -1.00, 597.2, 589.0)">a</text><text xml:space="preserve" font-family="Raleway-ExtraLight" font-size="41.0" fill="#52575F" transform="matrix(1.00, 0.00, -0.00, -1.00, 618.8, 589.0)">t</text><text xml:space="preserve" font-family="Raleway-ExtraLight" font-size="41.0" fill="#52575F" transform="matrix(1.00, 0.00, -0.00, -1.00, 631.3, 589.0)">u</text><text xml:space="preserve" font-family="Raleway-ExtraLight" font-size="41.0" fill="#52575F" transform="matrix(1.00, 0.00, -0.00, -1.00, 655.1, 589.0)">r</text><text xml:space="preserve" font-family="Raleway-ExtraLight" font-size="41.0" fill="#52575F" transform="matrix(1.00, 0.00, -0.00, -1.00, 668.8, 589.0)">e</text><text xml:space="preserve" font-family="Raleway-ExtraLight" font-size="41.0" fill="#52575F" transform="matrix(1.00, 0.00, -0.00, -1.00, 692.6, 589.0)"> </text><text xml:space="preserve" font-family="Raleway-ExtraLight" font-size="41.0" fill="#52575F" transform="matrix(1.00, 0.00, -0.00, -1.00, 703.4, 589.0)">)</text><text xml:space="preserve" font-family="SourceCodePro-Regular" font-size="21.0" fill="#52575F" transform="matrix(1.00, 0.00, -0.00, -1.00, 21.0, 331.0)">(</text><text xml:space="preserve" font-family="SourceCodePro-Semibold" font-weight="bold" font-size="21.0" fill="#52575F" transform="matrix(1.00, 0.00, -0.00, -1.00, 33.6, 331.0)">a</text><text xml:space="preserve" font-family="SourceCodePro-Semibold" font-weight="bold" font-size="21.0" fill="#52575F" transform="matrix(1.00, 0.00, -0.00, -1.00, 46.2, 331.0)">1</text><text xml:space="preserve" font-family="SourceCodePro-Regular" font-size="21.0" fill="#52575F" transform="matrix(1.00, 0.00, -0.00, -1.00, 58.8, 331.0)">,</text><text xml:space="preserve" font-family="SourceCodePro-Regular" font-size="21.0" fill="#52575F" transform="matrix(1.00, 0.00, -0.00, -1.00, 71.4, 331.0)"> </text><text xml:space="preserve" font-family="SourceCodePro-Semibold" font-weight="bold" font-size="21.0" fill="#52575F" transform="matrix(1.00, 0.00, -0.00, -1.00, 84.0, 331.0)">1</text><text xml:space="preserve" font-family="SourceCodePro-Semibold" font-weight="bold" font-size="21.0" fill="#52575F" transform="matrix(1.00, 0.00, -0.00, -1.00, 96.6, 331.0)">2</text><text xml:space="preserve" font-family="SourceCodePro-Regular" font-size="21.0" fill="#52575F" transform="matrix(1.00, 0.00, -0.00, -1.00, 109.2, 331.0)">)</text><text xml:space="preserve" font-family="SourceCodePro-Regular" font-size="21.0" fill="#52575F" transform="matrix(1.00, 0.00, -0.00, -1.00, 121.8, 331.0)">,</text><text xml:space="preserve" font-family="SourceCodePro-Regular" font-size="21.0" fill="#52575F" transform="matrix(1.00, 0.00, -0.00, -1.00, 134.4, 331.0)"> </text><text xml:space="preserve" font-family="SourceCodePro-Regular" font-size="21.0" fill="#52575F" transform="matrix(1.00, 0.00, -0.00, -1.00, 147.0, 331.0)">(</text><text xml:space="preserve" font-family="SourceCodePro-Semibold" font-weight="bold" font-size="21.0" fill="#52575F" transform="matrix(1.00, 0.00, -0.00, -1.00, 159.6, 331.0)">a</text><text xml:space="preserve" font-family="SourceCodePro-Semibold" font-weight="bold" font-size="21.0" fill="#52575F" transform="matrix(1.00, 0.00, -0.00, -1.00, 172.2, 331.0)">2</text><text xml:space="preserve" font-family="SourceCodePro-Regular" font-size="21.0" fill="#52575F" transform="matrix(1.00, 0.00, -0.00, -1.00, 184.8, 331.0)">,</text><text xml:space="preserve" font-family="SourceCodePro-Regular" font-size="21.0" fill="#52575F" transform="matrix(1.00, 0.00, -0.00, -1.00, 197.4, 331.0)"> </text><text xml:space="preserve" font-family="SourceCodePro-Semibold" font-weight="bold" font-size="21.0" fill="#52575F" transform="matrix(1.00, 0.00, -0.00, -1.00, 210.0, 331.0)">1</text><text xml:space="preserve" font-family="SourceCodePro-Semibold" font-weight="bold" font-size="21.0" fill="#52575F" transform="matrix(1.00, 0.00, -0.00, -1.00, 222.6, 331.0)">5</text><text xml:space="preserve" font-family="SourceCodePro-Regular" font-size="21.0" fill="#52575F" transform="matrix(1.00, 0.00, -0.00, -1.00, 235.2, 331.0)">)</text><text xml:space="preserve" font-family="SourceCodePro-Regular" font-size="21.0" fill="#52575F" transform="matrix(1.00, 0.00, -0.00, -1.00, 247.8, 331.0)">,</text><text xml:space="preserve" font-family="SourceCodePro-Regular" font-size="21.0" fill="#52575F" transform="matrix(1.00, 0.00, -0.00, -1.00, 260.4, 331.0)"> </text><text xml:space="preserve" font-family="SourceCodePro-Regular" font-size="21.0" fill="#52575F" transform="matrix(1.00, 0.00, -0.00, -1.00, 273.0, 331.0)">(</text><text xml:space="preserve" font-family="SourceCodePro-Semibold" font-weight="bold" font-size="21.0" fill="#52575F" transform="matrix(1.00, 0.00, -0.00, -1.00, 285.6, 331.0)">a</text><text xml:space="preserve" font-family="SourceCodePro-Semibold" font-weight="bold" font-size="21.0" fill="#52575F" transform="matrix(1.00, 0.00, -0.00, -1.00, 298.2, 331.0)">1</text><text xml:space="preserve" font-family="SourceCodePro-Regular" font-size="21.0" fill="#52575F" transform="matrix(1.00, 0.00, -0.00, -1.00, 310.8, 331.0)">,</text><text xml:space="preserve" font-family="SourceCodePro-Regular" font-size="21.0" fill="#52575F" transform="matrix(1.00, 0.00, -0.00, -1.00, 323.4, 331.0)"> </text><text xml:space="preserve" font-family="SourceCodePro-Semibold" font-weight="bold" font-size="21.0" fill="#52575F" transform="matrix(1.00, 0.00, -0.00, -1.00, 336.0, 331.0)">1</text><text xml:space="preserve" font-family="SourceCodePro-Semibold" font-weight="bold" font-size="21.0" fill="#52575F" transform="matrix(1.00, 0.00, -0.00, -1.00, 348.6, 331.0)">5</text><text xml:space="preserve" font-family="SourceCodePro-Regular" font-size="21.0" fill="#52575F" transform="matrix(1.00, 0.00, -0.00, -1.00, 361.2, 331.0)">)</text><text xml:space="preserve" font-family="SourceCodePro-Regular" font-size="21.0" fill="#52575F" transform="matrix(1.00, 0.00, -0.00, -1.00, 373.8, 331.0)">,</text><text xml:space="preserve" font-family="SourceCodePro-Regular" font-size="21.0" fill="#52575F" transform="matrix(1.00, 0.00, -0.00, -1.00, 386.4, 331.0)"> </text><text xml:space="preserve" font-family="SourceCodePro-Regular" font-size="21.0" fill="#52575F" transform="matrix(1.00, 0.00, -0.00, -1.00, 399.0, 331.0)">(</text><text xml:space="preserve" font-family="SourceCodePro-Semibold" font-weight="bold" font-size="21.0" fill="#52575F" transform="matrix(1.00, 0.00, -0.00, -1.00, 411.6, 331.0)">a</text><text xml:space="preserve" font-family="SourceCodePro-Semibold" font-weight="bold" font-size="21.0" fill="#52575F" transform="matrix(1.00, 0.00, -0.00, -1.00, 424.2, 331.0)">3</text><text xml:space="preserve" font-family="SourceCodePro-Regular" font-size="21.0" fill="#52575F" transform="matrix(1.00, 0.00, -0.00, -1.00, 436.8, 331.0)">,</text><text xml:space="preserve" font-family="SourceCodePro-Regular" font-size="21.0" fill="#52575F" transform="matrix(1.00, 0.00, -0.00, -1.00, 449.4, 331.0)"> </text><text xml:space="preserve" font-family="SourceCodePro-Semibold" font-weight="bold" font-size="21.0" fill="#52575F" transform="matrix(1.00, 0.00, -0.00, -1.00, 462.0, 331.0)">1</text><text xml:space="preserve" font-family="SourceCodePro-Semibold" font-weight="bold" font-size="21.0" fill="#52575F" transform="matrix(1.00, 0.00, -0.00, -1.00, 474.6, 331.0)">8</text><text xml:space="preserve" font-family="SourceCodePro-Regular" font-size="21.0" fill="#52575F" transform="matrix(1.00, 0.00, -0.00, -1.00, 487.2, 331.0)">)</text><text xml:space="preserve" font-family="SourceCodePro-Regular" font-size="21.0" fill="#52575F" transform="matrix(1.00, 0.00, -0.00, -1.00, 499.8, 331.0)">,</text><text xml:space="preserve" font-family="SourceCodePro-Regular" font-size="21.0" fill="#52575F" transform="matrix(1.00, 0.00, -0.00, -1.00, 512.4, 331.0)"> </text><text xml:space="preserve" font-family="SourceCodePro-Regular" font-size="21.0" fill="#52575F" transform="matrix(1.00, 0.00, -0.00, -1.00, 525.0, 331.0)">(</text><text xml:space="preserve" font-family="SourceCodePro-Semibold" font-weight="bold" font-size="21.0" fill="#52575F" transform="matrix(1.00, 0.00, -0.00, -1.00, 537.6, 331.0)">a</text><text xml:space="preserve" font-family="SourceCodePro-Semibold" font-weight="bold" font-size="21.0" fill="#52575F" transform="matrix(1.00, 0.00, -0.00, -1.00, 550.2, 331.0)">3</text><text xml:space="preserve" font-family="SourceCodePro-Regular" font-size="21.0" fill="#52575F" transform="matrix(1.00, 0.00, -0.00, -1.00, 562.8, 331.0)">,</text><text xml:space="preserve" font-family="SourceCodePro-Regular" font-size="21.0" fill="#52575F" transform="matrix(1.00, 0.00, -0.00, -1.00, 575.4, 331.0)"> </text><text xml:space="preserve" font-family="SourceCodePro-Semibold" font-weight="bold" font-size="21.0" fill="#52575F" transform="matrix(1.00, 0.00, -0.00, -1.00, 588.0, 331.0)">1</text><text xml:space="preserve" font-family="SourceCodePro-Semibold" font-weight="bold" font-size="21.0" fill="#52575F" transform="matrix(1.00, 0.00, -0.00, -1.00, 600.6, 331.0)">8</text><text xml:space="preserve" font-family="SourceCodePro-Regular" font-size="21.0" fill="#52575F" transform="matrix(1.00, 0.00, -0.00, -1.00, 613.2, 331.0)">)</text><text xml:space="preserve" font-family="SourceCodePro-Regular" font-size="21.0" fill="#52575F" transform="matrix(1.00, 0.00, -0.00, -1.00, 625.8, 331.0)">,</text><text xml:space="preserve" font-family="SourceCodePro-Regular" font-size="21.0" fill="#52575F" transform="matrix(1.00, 0.00, -0.00, -1.00, 638.4, 331.0)"> </text><text xml:space="preserve" font-family="SourceCodePro-Regular" font-size="21.0" fill="#52575F" transform="matrix(1.00, 0.00, -0.00, -1.00, 651.0, 331.0)">(</text><text xml:space="preserve" font-family="SourceCodePro-Semibold" font-weight="bold" font-size="21.0" fill="#52575F" transform="matrix(1.00, 0.00, -0.00, -1.00, 663.6, 331.0)">a</text><text xml:space="preserve" font-family="SourceCodePro-Semibold" font-weight="bold" font-size="21.0" fill="#52575F" transform="matrix(1.00, 0.00, -0.00, -1.00, 676.2, 331.0)">2</text><text xml:space="preserve" font-family="SourceCodePro-Regular" font-size="21.0" fill="#52575F" transform="matrix(1.00, 0.00, -0.00, -1.00, 688.8, 331.0)">,</text><text xml:space="preserve" font-family="SourceCodePro-Regular" font-size="21.0" fill="#52575F" transform="matrix(1.00, 0.00, -0.00, -1.00, 701.4, 331.0)"> </text><text xml:space="preserve" font-family="SourceCodePro-Semibold" font-weight="bold" font-size="21.0" fill="#52575F" transform="matrix(1.00, 0.00, -0.00, -1.00, 714.0, 331.0)">1</text><text xml:space="preserve" font-family="SourceCodePro-Semibold" font-weight="bold" font-size="21.0" fill="#52575F" transform="matrix(1.00, 0.00, -0.00, -1.00, 726.6, 331.0)">1</text><text xml:space="preserve" font-family="SourceCodePro-Regular" font-size="21.0" fill="#52575F" transform="matrix(1.00, 0.00, -0.00, -1.00, 739.2, 331.0)">)</text><text xml:space="preserve" font-family="SourceCodePro-Regular" font-size="21.0" fill="#52575F" transform="matrix(1.00, 0.00, -0.00, -1.00, 751.8, 331.0)">,</text><text xml:space="preserve" font-family="SourceCodePro-Regular" font-size="21.0" fill="#52575F" transform="matrix(1.00, 0.00, -0.00, -1.00, 764.4, 331.0)"> </text><text xml:space="preserve" font-family="SourceCodePro-Regular" font-size="21.0" fill="#52575F" transform="matrix(1.00, 0.00, -0.00, -1.00, 777.0, 331.0)">(</text><text xml:space="preserve" font-family="SourceCodePro-Semibold" font-weight="bold" font-size="21.0" fill="#52575F" transform="matrix(1.00, 0.00, -0.00, -1.00, 789.6, 331.0)">a</text><text xml:space="preserve" font-family="SourceCodePro-Semibold" font-weight="bold" font-size="21.0" fill="#52575F" transform="matrix(1.00, 0.00, -0.00, -1.00, 802.2, 331.0)">2</text><text xml:space="preserve" font-family="SourceCodePro-Regular" font-size="21.0" fill="#52575F" transform="matrix(1.00, 0.00, -0.00, -1.00, 814.8, 331.0)">,</text><text xml:space="preserve" font-family="SourceCodePro-Regular" font-size="21.0" fill="#52575F" transform="matrix(1.00, 0.00, -0.00, -1.00, 827.4, 331.0)"> </text><text xml:space="preserve" font-family="SourceCodePro-Semibold" font-weight="bold" font-size="21.0" fill="#52575F" transform="matrix(1.00, 0.00, -0.00, -1.00, 840.0, 331.0)">1</text><text xml:space="preserve" font-family="SourceCodePro-Semibold" font-weight="bold" font-size="21.0" fill="#52575F" transform="matrix(1.00, 0.00, -0.00, -1.00, 852.6, 331.0)">1</text><text xml:space="preserve" font-family="SourceCodePro-Regular" font-size="21.0" fill="#52575F" transform="matrix(1.00, 0.00, -0.00, -1.00, 865.2, 331.0)">)</text><text xml:space="preserve" font-family="SourceCodePro-Regular" font-size="21.0" fill="#52575F" transform="matrix(1.00, 0.00, -0.00, -1.00, 877.8, 331.0)">,</text><text xml:space="preserve" font-family="SourceCodePro-Regular" font-size="21.0" fill="#52575F" transform="matrix(1.00, 0.00, -0.00, -1.00, 890.4, 331.0)"> </text><text xml:space="preserve" font-family="SourceCodePro-Regular" font-size="21.0" fill="#52575F" transform="matrix(1.00, 0.00, -0.00, -1.00, 903.0, 331.0)">(</text><text xml:space="preserve" font-family="SourceCodePro-Semibold" font-weight="bold" font-size="21.0" fill="#52575F" transform="matrix(1.00, 0.00, -0.00, -1.00, 915.6, 331.0)">a</text><text xml:space="preserve" font-family="SourceCodePro-Semibold" font-weight="bold" font-size="21.0" fill="#52575F" transform="matrix(1.00, 0.00, -0.00, -1.00, 928.2, 331.0)">1</text><text xml:space="preserve" font-family="SourceCodePro-Regular" font-size="21.0" fill="#52575F" transform="matrix(1.00, 0.00, -0.00, -1.00, 940.8, 331.0)">,</text><text xml:space="preserve" font-family="SourceCodePro-Regular" font-size="21.0" fill="#52575F" transform="matrix(1.00, 0.00, -0.00, -1.00, 953.4, 331.0)"> </text><text xml:space="preserve" font-family="SourceCodePro-Semibold" font-weight="bold" font-size="21.0" fill="#52575F" transform="matrix(1.00, 0.00, -0.00, -1.00, 966.0, 331.0)">1</text><text xml:space="preserve" font-family="SourceCodePro-Semibold" font-weight="bold" font-size="21.0" fill="#52575F" transform="matrix(1.00, 0.00, -0.00, -1.00, 978.6, 331.0)">2</text><text xml:space="preserve" font-family="SourceCodePro-Regular" font-size="21.0" fill="#52575F" transform="matrix(1.00, 0.00, -0.00, -1.00, 991.2, 331.0)">)</text><path d="M 0.0 0.0 L 320.2 0.0 L 322.2 0.0 " fill="none" stroke="#E82662" stroke-width="4.00" stroke-linecap="round" stroke-linejoin="round" stroke-dasharray="0.0, 12.0" transform="matrix(1.00, 0.00, 0.00, -1.00, 343.8, 398.3)"></path><path d="M 0.0 0.0 L 3.0 5.0 L 6.0 0.0 M 3.0 0.0 L 3.0 5.0 " fill="none" stroke="#E82662" stroke-width="1.43" stroke-miterlimit="10.00" stroke-linejoin="round" transform="matrix(0.00, 2.80, 2.80, 0.00, 664.1, 389.9)"></path><text xml:space="preserve" font-family="SourceCodePro-Semibold" font-weight="bold" font-size="28.0" fill="#52575F" transform="matrix(1.00, 0.00, -0.00, -1.00, 469.0, 415.0)">c</text><text xml:space="preserve" font-family="SourceCodePro-Semibold" font-weight="bold" font-size="28.0" fill="#52575F" transform="matrix(1.00, 0.00, -0.00, -1.00, 485.8, 415.0)">o</text><text xml:space="preserve" font-family="SourceCodePro-Semibold" font-weight="bold" font-size="28.0" fill="#52575F" transform="matrix(1.00, 0.00, -0.00, -1.00, 502.6, 415.0)">u</text><text xml:space="preserve" font-family="SourceCodePro-Semibold" font-weight="bold" font-size="28.0" fill="#52575F" transform="matrix(1.00, 0.00, -0.00, -1.00, 519.4, 415.0)">n</text><text xml:space="preserve" font-family="SourceCodePro-Semibold" font-weight="bold" font-size="28.0" fill="#52575F" transform="matrix(1.00, 0.00, -0.00, -1.00, 536.2, 415.0)">t</text></g></svg>