<?xml version="1.0" encoding="UTF-8" standalone="no"?><svg xmlns="http://www.w3.org/2000/svg" xmlns:xlink="http://www.w3.org/1999/xlink" clip-rule="evenodd" stroke-miterlimit="4.00" viewBox="0 0 1024 768"><desc>SVG generated by Keynote</desc><defs></defs><g transform="matrix(1.00, 0.00, -0.00, -1.00, 0.0, 768.0)"><path d="M 0.0 768.0 L 1024.0 768.0 L 1024.0 0.0 L 0.0 0.0 Z M 0.0 768.0 " fill="#FEFFFF"></path><text xml:space="preserve" font-family="SourceCodePro-Regular" font-size="12.0" fill="#747474" transform="matrix(1.00, 0.00, -0.00, -1.00, 19.0, 19.0)">L</text><text xml:space="preserve" font-family="SourceCodePro-Regular" font-size="12.0" fill="#747474" transform="matrix(1.00, 0.00, -0.00, -1.00, 26.2, 19.0)">o</text><text xml:space="preserve" font-family="SourceCodePro-Regular" font-size="12.0" fill="#747474" transform="matrix(1.00, 0.00, -0.00, -1.00, 33.4, 19.0)">r</text><text xml:space="preserve" font-family="SourceCodePro-Regular" font-size="12.0" fill="#747474" transform="matrix(1.00, 0.00, -0.00, -1.00, 40.6, 19.0)">e</text><text xml:space="preserve" font-family="SourceCodePro-Regular" font-size="12.0" fill="#747474" transform="matrix(1.00, 0.00, -0.00, -1.00, 47.8, 19.0)">n</text><text xml:space="preserve" font-family="SourceCodePro-Regular" font-size="12.0" fill="#747474" transform="matrix(1.00, 0.00, -0.00, -1.00, 55.0, 19.0)">z</text><text xml:space="preserve" font-family="SourceCodePro-Regular" font-size="12.0" fill="#747474" transform="matrix(1.00, 0.00, -0.00, -1.00, 62.2, 19.0)">o</text><text xml:space="preserve" font-family="SourceCodePro-Regular" font-size="12.0" fill="#747474" transform="matrix(1.00, 0.00, -0.00, -1.00, 69.4, 19.0)"> </text><text xml:space="preserve" font-family="SourceCodePro-Regular" font-size="12.0" fill="#747474" transform="matrix(1.00, 0.00, -0.00, -1.00, 76.6, 19.0)">A</text><text xml:space="preserve" font-family="SourceCodePro-Regular" font-size="12.0" fill="#747474" transform="matrix(1.00, 0.00, -0.00, -1.00, 83.8, 19.0)">f</text><text xml:space="preserve" font-family="SourceCodePro-Regular" font-size="12.0" fill="#747474" transform="matrix(1.00, 0.00, -0.00, -1.00, 91.0, 19.0)">f</text><text xml:space="preserve" font-family="SourceCodePro-Regular" font-size="12.0" fill="#747474" transform="matrix(1.00, 0.00, -0.00, -1.00, 98.2, 19.0)">e</text><text xml:space="preserve" font-family="SourceCodePro-Regular" font-size="12.0" fill="#747474" transform="matrix(1.00, 0.00, -0.00, -1.00, 105.4, 19.0)">t</text><text xml:space="preserve" font-family="SourceCodePro-Regular" font-size="12.0" fill="#747474" transform="matrix(1.00, 0.00, -0.00, -1.00, 112.6, 19.0)">t</text><text xml:space="preserve" font-family="SourceCodePro-Regular" font-size="12.0" fill="#747474" transform="matrix(1.00, 0.00, -0.00, -1.00, 119.8, 19.0)">i</text><text xml:space="preserve" font-family="SourceCodePro-Regular" font-size="12.0" fill="#747474" transform="matrix(1.00, 0.00, -0.00, -1.00, 127.0, 19.0)"> </text><text xml:space="preserve" font-family="SourceCodePro-Regular" font-size="12.0" fill="#747474" transform="matrix(1.00, 0.00, -0.00, -1.00, 134.2, 19.0)">(</text><text xml:space="preserve" font-family="SourceCodePro-Regular" font-size="12.0" fill="#747474" transform="matrix(1.00, 0.00, -0.00, -1.00, 141.4, 19.0)">l</text><text xml:space="preserve" font-family="SourceCodePro-Regular" font-size="12.0" fill="#747474" transform="matrix(1.00, 0.00, -0.00, -1.00, 148.6, 19.0)">o</text><text xml:space="preserve" font-family="SourceCodePro-Regular" font-size="12.0" fill="#747474" transform="matrix(1.00, 0.00, -0.00, -1.00, 155.8, 19.0)">r</text><text xml:space="preserve" font-family="SourceCodePro-Regular" font-size="12.0" fill="#747474" transform="matrix(1.00, 0.00, -0.00, -1.00, 163.0, 19.0)">e</text><text xml:space="preserve" font-family="SourceCodePro-Regular" font-size="12.0" fill="#747474" transform="matrix(1.00, 0.00, -0.00, -1.00, 170.2, 19.0)">n</text><text xml:space="preserve" font-family="SourceCodePro-Regular" font-size="12.0" fill="#747474" transform="matrix(1.00, 0.00, -0.00, -1.00, 177.4, 19.0)">z</text><text xml:space="preserve" font-family="SourceCodePro-Regular" font-size="12.0" fill="#747474" transform="matrix(1.00, 0.00, -0.00, -1.00, 184.6, 19.0)">o</text><text xml:space="preserve" font-family="SourceCodePro-Regular" font-size="12.0" fill="#747474" transform="matrix(1.00, 0.00, -0.00, -1.00, 191.8, 19.0)">.</text><text xml:space="preserve" font-family="SourceCodePro-Regular" font-size="12.0" fill="#747474" transform="matrix(1.00, 0.00, -0.00, -1.00, 199.0, 19.0)">a</text><text xml:space="preserve" font-family="SourceCodePro-Regular" font-size="12.0" fill="#747474" transform="matrix(1.00, 0.00, -0.00, -1.00, 206.2, 19.0)">f</text><text xml:space="preserve" font-family="SourceCodePro-Regular" font-size="12.0" fill="#747474" transform="matrix(1.00, 0.00, -0.00, -1.00, 213.4, 19.0)">f</text><text xml:space="preserve" font-family="SourceCodePro-Regular" font-size="12.0" fill="#747474" transform="matrix(1.00, 0.00, -0.00, -1.00, 220.6, 19.0)">e</text><text xml:space="preserve" font-family="SourceCodePro-Regular" font-size="12.0" fill="#747474" transform="matrix(1.00, 0.00, -0.00, -1.00, 227.8, 19.0)">t</text><text xml:space="preserve" font-family="SourceCodePro-Regular" font-size="12.0" fill="#747474" transform="matrix(1.00, 0.00, -0.00, -1.00, 235.0, 19.0)">t</text><text xml:space="preserve" font-family="SourceCodePro-Regular" font-size="12.0" fill="#747474" transform="matrix(1.00, 0.00, -0.00, -1.00, 242.2, 19.0)">i</text><text xml:space="preserve" font-family="SourceCodePro-Regular" font-size="12.0" fill="#747474" transform="matrix(1.00, 0.00, -0.00, -1.00, 249.4, 19.0)">@</text><text xml:space="preserve" font-family="SourceCodePro-Regular" font-size="12.0" fill="#747474" transform="matrix(1.00, 0.00, -0.00, -1.00, 256.6, 19.0)">p</text><text xml:space="preserve" font-family="SourceCodePro-Regular" font-size="12.0" fill="#747474" transform="matrix(1.00, 0.00, -0.00, -1.00, 263.8, 19.0)">o</text><text xml:space="preserve" font-family="SourceCodePro-Regular" font-size="12.0" fill="#747474" transform="matrix(1.00, 0.00, -0.00, -1.00, 271.0, 19.0)">l</text><text xml:space="preserve" font-family="SourceCodePro-Regular" font-size="12.0" fill="#747474" transform="matrix(1.00, 0.00, -0.00, -1.00, 278.2, 19.0)">i</text><text xml:space="preserve" font-family="SourceCodePro-Regular" font-size="12.0" fill="#747474" transform="matrix(1.00, 0.00, -0.00, -1.00, 285.4, 19.0)">m</text><text xml:space="preserve" font-family="SourceCodePro-Regular" font-size="12.0" fill="#747474" transform="matrix(1.00, 0.00, -0.00, -1.00, 292.6, 19.0)">i</text><text xml:space="preserve" font-family="SourceCodePro-Regular" font-size="12.0" fill="#747474" transform="matrix(1.00, 0.00, -0.00, -1.00, 299.8, 19.0)">.</text><text xml:space="preserve" font-family="SourceCodePro-Regular" font-size="12.0" fill="#747474" transform="matrix(1.00, 0.00, -0.00, -1.00, 307.0, 19.0)">i</text><text xml:space="preserve" font-family="SourceCodePro-Regular" font-size="12.0" fill="#747474" transform="matrix(1.00, 0.00, -0.00, -1.00, 314.2, 19.0)">t</text><text xml:space="preserve" font-family="SourceCodePro-Regular" font-size="12.0" fill="#747474" transform="matrix(1.00, 0.00, -0.00, -1.00, 321.4, 19.0)">)</text><text xml:space="preserve" font-family="SourceCodePro-Regular" font-size="12.0" fill="#747474" transform="matrix(1.00, 0.00, -0.00, -1.00, 328.6, 19.0)"> </text><text xml:space="preserve" font-family="SourceCodePro-Regular" font-size="12.0" fill="#747474" transform="matrix(1.00, 0.00, -0.00, -1.00, 335.8, 19.0)">-</text><text xml:space="preserve" font-family="SourceCodePro-Regular" font-size="12.0" fill="#747474" transform="matrix(1.00, 0.00, -0.00, -1.00, 343.0, 19.0)"> </text><text xml:space="preserve" font-family="SourceCodePro-Regular" font-size="12.0" fill="#747474" transform="matrix(1.00, 0.00, -0.00, -1.00, 350.2, 19.0)">P</text><text xml:space="preserve" font-family="SourceCodePro-Regular" font-size="12.0" fill="#747474" transform="matrix(1.00, 0.00, -0.00, -1.00, 357.4, 19.0)">o</text><text xml:space="preserve" font-family="SourceCodePro-Regular" font-size="12.0" fill="#747474" transform="matrix(1.00, 0.00, -0.00, -1.00, 364.6, 19.0)">l</text><text xml:space="preserve" font-family="SourceCodePro-Regular" font-size="12.0" fill="#747474" transform="matrix(1.00, 0.00, -0.00, -1.00, 371.8, 19.0)">i</text><text xml:space="preserve" font-family="SourceCodePro-Regular" font-size="12.0" fill="#747474" transform="matrix(1.00, 0.00, -0.00, -1.00, 379.0, 19.0)">t</text><text xml:space="preserve" font-family="SourceCodePro-Regular" font-size="12.0" fill="#747474" transform="matrix(1.00, 0.00, -0.00, -1.00, 386.2, 19.0)">e</text><text xml:space="preserve" font-family="SourceCodePro-Regular" font-size="12.0" fill="#747474" transform="matrix(1.00, 0.00, -0.00, -1.00, 393.4, 19.0)">c</text><text xml:space="preserve" font-family="SourceCodePro-Regular" font-size="12.0" fill="#747474" transform="matrix(1.00, 0.00, -0.00, -1.00, 400.6, 19.0)">n</text><text xml:space="preserve" font-family="SourceCodePro-Regular" font-size="12.0" fill="#747474" transform="matrix(1.00, 0.00, -0.00, -1.00, 407.8, 19.0)">i</text><text xml:space="preserve" font-family="SourceCodePro-Regular" font-size="12.0" fill="#747474" transform="matrix(1.00, 0.00, -0.00, -1.00, 415.0, 19.0)">c</text><text xml:space="preserve" font-family="SourceCodePro-Regular" font-size="12.0" fill="#747474" transform="matrix(1.00, 0.00, -0.00, -1.00, 422.2, 19.0)">o</text><text xml:space="preserve" font-family="SourceCodePro-Regular" font-size="12.0" fill="#747474" transform="matrix(1.00, 0.00, -0.00, -1.00, 429.4, 19.0)"> </text><text xml:space="preserve" font-family="SourceCodePro-Regular" font-size="12.0" fill="#747474" transform="matrix(1.00, 0.00, -0.00, -1.00, 436.6, 19.0)">d</text><text xml:space="preserve" font-family="SourceCodePro-Regular" font-size="12.0" fill="#747474" transform="matrix(1.00, 0.00, -0.00, -1.00, 443.8, 19.0)">i</text><text xml:space="preserve" font-family="SourceCodePro-Regular" font-size="12.0" fill="#747474" transform="matrix(1.00, 0.00, -0.00, -1.00, 451.0, 19.0)"> </text><text xml:space="preserve" font-family="SourceCodePro-Regular" font-size="12.0" fill="#747474" transform="matrix(1.00, 0.00, -0.00, -1.00, 458.2, 19.0)">M</text><text xml:space="preserve" font-family="SourceCodePro-Regular" font-size="12.0" fill="#747474" transform="matrix(1.00, 0.00, -0.00, -1.00, 465.4, 19.0)">i</text><text xml:space="preserve" font-family="SourceCodePro-Regular" font-size="12.0" fill="#747474" transform="matrix(1.00, 0.00, -0.00, -1.00, 472.6, 19.0)">l</text><text xml:space="preserve" font-family="SourceCodePro-Regular" font-size="12.0" fill="#747474" transform="matrix(1.00, 0.00, -0.00, -1.00, 479.8, 19.0)">a</text><text xml:space="preserve" font-family="SourceCodePro-Regular" font-size="12.0" fill="#747474" transform="matrix(1.00, 0.00, -0.00, -1.00, 487.0, 19.0)">n</text><text xml:space="preserve" font-family="SourceCodePro-Regular" font-size="12.0" fill="#747474" transform="matrix(1.00, 0.00, -0.00, -1.00, 494.2, 19.0)">o</text><text xml:space="preserve" font-family="SourceCodePro-Regular" font-size="12.0" fill="#747474" transform="matrix(1.00, 0.00, -0.00, -1.00, 501.4, 19.0)">,</text><text xml:space="preserve" font-family="SourceCodePro-Regular" font-size="12.0" fill="#747474" transform="matrix(1.00, 0.00, -0.00, -1.00, 508.6, 19.0)"> </text><text xml:space="preserve" font-family="SourceCodePro-Regular" font-size="12.0" fill="#747474" transform="matrix(1.00, 0.00, -0.00, -1.00, 515.8, 19.0)">D</text><text xml:space="preserve" font-family="SourceCodePro-Regular" font-size="12.0" fill="#747474" transform="matrix(1.00, 0.00, -0.00, -1.00, 523.0, 19.0)">E</text><text xml:space="preserve" font-family="SourceCodePro-Regular" font-size="12.0" fill="#747474" transform="matrix(1.00, 0.00, -0.00, -1.00, 530.2, 19.0)">I</text><text xml:space="preserve" font-family="SourceCodePro-Regular" font-size="12.0" fill="#747474" transform="matrix(1.00, 0.00, -0.00, -1.00, 537.4, 19.0)">B</text><g><clipPath id="clip-484"><path d="M 140.8 16.1 L 321.8 16.1 L 321.8 18.7 L 140.8 18.7 Z M 140.8 16.1 "></path></clipPath><g clip-path="url(#clip-484)"><path d="M 126.9 17.1 L 306.9 17.1 " fill="none" stroke="#747474" stroke-width="0.60" stroke-miterlimit="0.00" transform="matrix(1.00, 0.00, 0.00, -1.00, 14.9, 34.5)"></path></g></g><path d="M 183.2 381.9 C 202.7 362.4 202.7 330.7 183.2 311.2 C 163.7 291.7 132.0 291.7 112.5 311.2 C 93.0 330.7 93.0 362.4 112.5 381.9 C 132.0 401.5 163.7 401.5 183.2 381.9 Z M 183.2 381.9 " fill="#42A4F5"></path><text xml:space="preserve" font-family="Lora-Bold" font-weight="bold" font-size="80.0" fill="#212121" transform="matrix(1.00, 0.00, -0.00, -1.00, 231.0, 672.0)">C</text><text xml:space="preserve" font-family="Lora-Bold" font-weight="bold" font-size="80.0" fill="#212121" transform="matrix(1.00, 0.00, -0.00, -1.00, 286.1, 672.0)">h</text><text xml:space="preserve" font-family="Lora-Bold" font-weight="bold" font-size="80.0" fill="#212121" transform="matrix(1.00, 0.00, -0.00, -1.00, 335.7, 672.0)">e</text><text xml:space="preserve" font-family="Lora-Bold" font-weight="bold" font-size="80.0" fill="#212121" transform="matrix(1.00, 0.00, -0.00, -1.00, 378.8, 672.0)">c</text><text xml:space="preserve" font-family="Lora-Bold" font-weight="bold" font-size="80.0" fill="#212121" transform="matrix(1.00, 0.00, -0.00, -1.00, 420.2, 672.0)">k</text><text xml:space="preserve" font-family="Lora-Bold" font-weight="bold" font-size="80.0" fill="#212121" transform="matrix(1.00, 0.00, -0.00, -1.00, 467.6, 672.0)">p</text><text xml:space="preserve" font-family="Lora-Bold" font-weight="bold" font-size="80.0" fill="#212121" transform="matrix(1.00, 0.00, -0.00, -1.00, 515.8, 672.0)">o</text><text xml:space="preserve" font-family="Lora-Bold" font-weight="bold" font-size="80.0" fill="#212121" transform="matrix(1.00, 0.00, -0.00, -1.00, 561.0, 672.0)">i</text><text xml:space="preserve" font-family="Lora-Bold" font-weight="bold" font-size="80.0" fill="#212121" transform="matrix(1.00, 0.00, -0.00, -1.00, 587.2, 672.0)">n</text><text xml:space="preserve" font-family="Lora-Bold" font-weight="bold" font-size="80.0" fill="#212121" transform="matrix(1.00, 0.00, -0.00, -1.00, 637.7, 672.0)">t</text><text xml:space="preserve" font-family="Lora-Bold" font-weight="bold" font-size="80.0" fill="#212121" transform="matrix(1.00, 0.00, -0.00, -1.00, 670.8, 672.0)">i</text><text xml:space="preserve" font-family="Lora-Bold" font-weight="bold" font-size="80.0" fill="#212121" transform="matrix(1.00, 0.00, -0.00, -1.00, 697.0, 672.0)">n</text><text xml:space="preserve" font-family="Lora-Bold" font-weight="bold" font-size="80.0" fill="#212121" transform="matrix(1.00, 0.00, -0.00, -1.00, 747.9, 672.0)">g</text><text xml:space="preserve" font-family="Helvetica-Light" font-size="18.0" fill="#000000" transform="matrix(1.00, 0.00, -0.00, -1.00, 992.0, 16.0)">3</text><text xml:space="preserve" font-family="Helvetica-Light" font-size="18.0" fill="#000000" transform="matrix(1.00, 0.00, -0.00, -1.00, 1002.0, 16.0)">0</text><path d="M 911.5 381.9 C 931.0 362.4 931.0 330.7 911.5 311.2 C 892.0 291.7 860.3 291.7 840.8 311.2 C 821.3 330.7 821.3 362.4 840.8 381.9 C 860.3 401.5 892.0 401.5 911.5 381.9 Z M 911.5 381.9 " fill="#E82662"></path><path d="M 425.9 532.1 C 445.4 512.6 445.4 481.0 425.9 461.4 C 406.4 441.9 374.7 441.9 355.2 461.4 C 335.7 481.0 335.7 512.6 355.2 532.1 C 374.7 551.7 406.4 551.7 425.9 532.1 Z M 425.9 532.1 " fill="#F6BE19"></path><path d="M 677.0 381.9 C 696.5 362.4 696.5 330.7 677.0 311.2 C 657.4 291.7 625.8 291.7 606.2 311.2 C 586.7 330.7 586.7 362.4 606.2 381.9 C 625.8 401.5 657.4 401.5 677.0 381.9 Z M 677.0 381.9 " fill="#F6BE19"></path><path d="M 425.9 233.9 C 445.4 214.3 445.4 182.7 425.9 163.2 C 406.4 143.6 374.7 143.6 355.2 163.2 C 335.7 182.7 335.7 214.3 355.2 233.9 C 374.7 253.4 406.4 253.4 425.9 233.9 Z M 425.9 233.9 " fill="#F6BE19"></path><path d="M 0.0 97.6 C 52.6 65.1 105.1 32.5 157.7 0.0 " fill="none" stroke="#A6AAA8" stroke-width="4.00" transform="matrix(1.00, 0.00, 0.00, -1.00, 190.4, 470.5)"></path><path d="M 0.0 0.0 C 55.1 33.0 110.1 65.9 165.2 98.9 " fill="none" stroke="#A6AAA8" stroke-width="4.00" transform="matrix(1.00, 0.00, 0.00, -1.00, 433.5, 471.1)"></path><path d="M 0.0 97.2 C 55.0 64.8 109.9 32.4 164.9 0.0 " fill="none" stroke="#A6AAA8" stroke-width="4.00" transform="matrix(1.00, 0.00, 0.00, -1.00, 433.6, 321.2)"></path><path d="M 0.0 0.0 C 52.4 32.0 104.9 64.0 157.3 96.0 " fill="none" stroke="#A6AAA8" stroke-width="4.00" transform="matrix(1.00, 0.00, 0.00, -1.00, 190.5, 320.5)"></path><path d="M 0.0 0.0 C 44.9 0.0 89.7 0.0 134.6 0.0 " fill="none" stroke="#A6AAA8" stroke-width="4.00" transform="matrix(1.00, 0.00, 0.00, -1.00, 691.6, 346.6)"></path><path d="M 5.0 0.0 C 2.2 0.0 0.0 2.2 0.0 5.0 L 0.0 154.9 C 0.0 157.7 2.2 159.9 5.0 159.9 L 16.7 159.9 L 26.7 170.0 L 36.6 159.9 L 301.8 159.9 C 304.6 159.9 306.8 157.7 306.8 154.9 L 306.8 5.0 C 306.8 2.2 304.6 0.0 301.8 0.0 L 5.0 0.0 Z M 5.0 0.0 " fill="none" stroke="#616060" stroke-width="4.00" transform="matrix(1.00, 0.00, 0.00, -1.00, 613.4, 602.8)"></path><g><clipPath id="clip-485"><path d="M 611.9 442.9 L 921.8 442.9 L 921.8 602.8 L 611.9 602.8 Z M 611.9 442.9 "></path></clipPath><g clip-path="url(#clip-485)"><text xml:space="preserve" font-family="SourceCodePro-Regular" font-size="24.0" fill="#616060" transform="matrix(1.00, 0.00, -0.00, -1.00, 619.0, 529.0)">T</text><text xml:space="preserve" font-family="SourceCodePro-Regular" font-size="24.0" fill="#616060" transform="matrix(1.00, 0.00, -0.00, -1.00, 633.4, 529.0)">r</text><text xml:space="preserve" font-family="SourceCodePro-Regular" font-size="24.0" fill="#616060" transform="matrix(1.00, 0.00, -0.00, -1.00, 647.8, 529.0)">a</text><text xml:space="preserve" font-family="SourceCodePro-Regular" font-size="24.0" fill="#616060" transform="matrix(1.00, 0.00, -0.00, -1.00, 662.2, 529.0)">f</text><text xml:space="preserve" font-family="SourceCodePro-Regular" font-size="24.0" fill="#616060" transform="matrix(1.00, 0.00, -0.00, -1.00, 676.6, 529.0)">f</text><text xml:space="preserve" font-family="SourceCodePro-Regular" font-size="24.0" fill="#616060" transform="matrix(1.00, 0.00, -0.00, -1.00, 691.0, 529.0)">i</text><text xml:space="preserve" font-family="SourceCodePro-Regular" font-size="24.0" fill="#616060" transform="matrix(1.00, 0.00, -0.00, -1.00, 705.4, 529.0)">c</text><text xml:space="preserve" font-family="SourceCodePro-Regular" font-size="24.0" fill="#616060" transform="matrix(1.00, 0.00, -0.00, -1.00, 719.8, 529.0)"> </text><text xml:space="preserve" font-family="SourceCodePro-Regular" font-size="24.0" fill="#616060" transform="matrix(1.00, 0.00, -0.00, -1.00, 734.2, 529.0)">f</text><text xml:space="preserve" font-family="SourceCodePro-Regular" font-size="24.0" fill="#616060" transform="matrix(1.00, 0.00, -0.00, -1.00, 748.6, 529.0)">l</text><text xml:space="preserve" font-family="SourceCodePro-Regular" font-size="24.0" fill="#616060" transform="matrix(1.00, 0.00, -0.00, -1.00, 763.0, 529.0)">o</text><text xml:space="preserve" font-family="SourceCodePro-Regular" font-size="24.0" fill="#616060" transform="matrix(1.00, 0.00, -0.00, -1.00, 777.4, 529.0)">w</text><text xml:space="preserve" font-family="SourceCodePro-Regular" font-size="24.0" fill="#616060" transform="matrix(1.00, 0.00, -0.00, -1.00, 791.8, 529.0)">s</text><text xml:space="preserve" font-family="SourceCodePro-Regular" font-size="24.0" fill="#616060" transform="matrix(1.00, 0.00, -0.00, -1.00, 806.2, 529.0)"> </text><text xml:space="preserve" font-family="SourceCodePro-Regular" font-size="24.0" fill="#616060" transform="matrix(1.00, 0.00, -0.00, -1.00, 820.6, 529.0)">a</text><text xml:space="preserve" font-family="SourceCodePro-Regular" font-size="24.0" fill="#616060" transform="matrix(1.00, 0.00, -0.00, -1.00, 835.0, 529.0)">s</text><text xml:space="preserve" font-family="SourceCodePro-Regular" font-size="24.0" fill="#616060" transform="matrix(1.00, 0.00, -0.00, -1.00, 849.4, 529.0)"> </text><text xml:space="preserve" font-family="SourceCodePro-Regular" font-size="24.0" fill="#616060" transform="matrix(1.00, 0.00, -0.00, -1.00, 863.8, 529.0)">i</text><text xml:space="preserve" font-family="SourceCodePro-Regular" font-size="24.0" fill="#616060" transform="matrix(1.00, 0.00, -0.00, -1.00, 878.2, 529.0)">s</text><text xml:space="preserve" font-family="SourceCodePro-Regular" font-size="24.0" fill="#616060" transform="matrix(1.00, 0.00, -0.00, -1.00, 892.6, 529.0)"> </text><text xml:space="preserve" font-family="SourceCodePro-Regular" font-size="24.0" fill="#616060" transform="matrix(1.00, 0.00, -0.00, -1.00, 619.0, 498.0)">s</text><text xml:space="preserve" font-family="SourceCodePro-Regular" font-size="24.0" fill="#616060" transform="matrix(1.00, 0.00, -0.00, -1.00, 633.4, 498.0)">h</text><text xml:space="preserve" font-family="SourceCodePro-Regular" font-size="24.0" fill="#616060" transform="matrix(1.00, 0.00, -0.00, -1.00, 647.8, 498.0)">o</text><text xml:space="preserve" font-family="SourceCodePro-Regular" font-size="24.0" fill="#616060" transform="matrix(1.00, 0.00, -0.00, -1.00, 662.2, 498.0)">u</text><text xml:space="preserve" font-family="SourceCodePro-Regular" font-size="24.0" fill="#616060" transform="matrix(1.00, 0.00, -0.00, -1.00, 676.6, 498.0)">l</text><text xml:space="preserve" font-family="SourceCodePro-Regular" font-size="24.0" fill="#616060" transform="matrix(1.00, 0.00, -0.00, -1.00, 691.0, 498.0)">d</text></g></g></g></svg>