<?xml version="1.0" encoding="UTF-8" standalone="no"?><svg xmlns="http://www.w3.org/2000/svg" xmlns:xlink="http://www.w3.org/1999/xlink" clip-rule="evenodd" stroke-miterlimit="4.00" viewBox="0 0 314 178"><desc>SVG generated by Keynote</desc><defs></defs><g transform="matrix(1.00, 0.00, -0.00, -1.00, 0.0, 178.0)"><path d="M 5.0 0.0 C 2.2 0.0 0.0 2.2 0.0 5.0 L 0.0 154.9 C 0.0 157.7 2.2 159.9 5.0 159.9 L 16.7 159.9 L 26.7 170.0 L 36.6 159.9 L 301.8 159.9 C 304.6 159.9 306.8 157.7 306.8 154.9 L 306.8 5.0 C 306.8 2.2 304.6 0.0 301.8 0.0 L 5.0 0.0 Z M 5.0 0.0 " fill="none" stroke="#616060" stroke-width="4.00" transform="matrix(1.00, 0.00, 0.00, -1.00, 3.4, 174.8)"></path><g><clipPath id="clip-480"><path d="M 1.9 14.9 L 311.8 14.9 L 311.8 174.8 L 1.9 174.8 Z M 1.9 14.9 "></path></clipPath><g clip-path="url(#clip-480)"><text xml:space="preserve" font-family="SourceCodePro-Regular" font-size="24.0" fill="#616060" transform="matrix(1.00, 0.00, -0.00, -1.00, 9.0, 101.0)">T</text><text xml:space="preserve" font-family="SourceCodePro-Regular" font-size="24.0" fill="#616060" transform="matrix(1.00, 0.00, -0.00, -1.00, 23.4, 101.0)">r</text><text xml:space="preserve" font-family="SourceCodePro-Regular" font-size="24.0" fill="#616060" transform="matrix(1.00, 0.00, -0.00, -1.00, 37.8, 101.0)">a</text><text xml:space="preserve" font-family="SourceCodePro-Regular" font-size="24.0" fill="#616060" transform="matrix(1.00, 0.00, -0.00, -1.00, 52.2, 101.0)">f</text><text xml:space="preserve" font-family="SourceCodePro-Regular" font-size="24.0" fill="#616060" transform="matrix(1.00, 0.00, -0.00, -1.00, 66.6, 101.0)">f</text><text xml:space="preserve" font-family="SourceCodePro-Regular" font-size="24.0" fill="#616060" transform="matrix(1.00, 0.00, -0.00, -1.00, 81.0, 101.0)">i</text><text xml:space="preserve" font-family="SourceCodePro-Regular" font-size="24.0" fill="#616060" transform="matrix(1.00, 0.00, -0.00, -1.00, 95.4, 101.0)">c</text><text xml:space="preserve" font-family="SourceCodePro-Regular" font-size="24.0" fill="#616060" transform="matrix(1.00, 0.00, -0.00, -1.00, 109.8, 101.0)"> </text><text xml:space="preserve" font-family="SourceCodePro-Regular" font-size="24.0" fill="#616060" transform="matrix(1.00, 0.00, -0.00, -1.00, 124.2, 101.0)">f</text><text xml:space="preserve" font-family="SourceCodePro-Regular" font-size="24.0" fill="#616060" transform="matrix(1.00, 0.00, -0.00, -1.00, 138.6, 101.0)">l</text><text xml:space="preserve" font-family="SourceCodePro-Regular" font-size="24.0" fill="#616060" transform="matrix(1.00, 0.00, -0.00, -1.00, 153.0, 101.0)">o</text><text xml:space="preserve" font-family="SourceCodePro-Regular" font-size="24.0" fill="#616060" transform="matrix(1.00, 0.00, -0.00, -1.00, 167.4, 101.0)">w</text><text xml:space="preserve" font-family="SourceCodePro-Regular" font-size="24.0" fill="#616060" transform="matrix(1.00, 0.00, -0.00, -1.00, 181.8, 101.0)">s</text><text xml:space="preserve" font-family="SourceCodePro-Regular" font-size="24.0" fill="#616060" transform="matrix(1.00, 0.00, -0.00, -1.00, 196.2, 101.0)"> </text><text xml:space="preserve" font-family="SourceCodePro-Regular" font-size="24.0" fill="#616060" transform="matrix(1.00, 0.00, -0.00, -1.00, 210.6, 101.0)">a</text><text xml:space="preserve" font-family="SourceCodePro-Regular" font-size="24.0" fill="#616060" transform="matrix(1.00, 0.00, -0.00, -1.00, 225.0, 101.0)">s</text><text xml:space="preserve" font-family="SourceCodePro-Regular" font-size="24.0" fill="#616060" transform="matrix(1.00, 0.00, -0.00, -1.00, 239.4, 101.0)"> </text><text xml:space="preserve" font-family="SourceCodePro-Regular" font-size="24.0" fill="#616060" transform="matrix(1.00, 0.00, -0.00, -1.00, 253.8, 101.0)">i</text><text xml:space="preserve" font-family="SourceCodePro-Regular" font-size="24.0" fill="#616060" transform="matrix(1.00, 0.00, -0.00, -1.00, 268.2, 101.0)">s</text><text xml:space="preserve" font-family="SourceCodePro-Regular" font-size="24.0" fill="#616060" transform="matrix(1.00, 0.00, -0.00, -1.00, 282.6, 101.0)"> </text><text xml:space="preserve" font-family="SourceCodePro-Regular" font-size="24.0" fill="#616060" transform="matrix(1.00, 0.00, -0.00, -1.00, 9.0, 70.0)">s</text><text xml:space="preserve" font-family="SourceCodePro-Regular" font-size="24.0" fill="#616060" transform="matrix(1.00, 0.00, -0.00, -1.00, 23.4, 70.0)">h</text><text xml:space="preserve" font-family="SourceCodePro-Regular" font-size="24.0" fill="#616060" transform="matrix(1.00, 0.00, -0.00, -1.00, 37.8, 70.0)">o</text><text xml:space="preserve" font-family="SourceCodePro-Regular" font-size="24.0" fill="#616060" transform="matrix(1.00, 0.00, -0.00, -1.00, 52.2, 70.0)">u</text><text xml:space="preserve" font-family="SourceCodePro-Regular" font-size="24.0" fill="#616060" transform="matrix(1.00, 0.00, -0.00, -1.00, 66.6, 70.0)">l</text><text xml:space="preserve" font-family="SourceCodePro-Regular" font-size="24.0" fill="#616060" transform="matrix(1.00, 0.00, -0.00, -1.00, 81.0, 70.0)">d</text></g></g></g></svg>