<?xml version="1.0" encoding="UTF-8" standalone="no"?><svg xmlns="http://www.w3.org/2000/svg" xmlns:xlink="http://www.w3.org/1999/xlink" clip-rule="evenodd" stroke-miterlimit="4.00" viewBox="0 0 1024 768"><desc>SVG generated by Keynote</desc><defs></defs><g transform="matrix(1.00, 0.00, -0.00, -1.00, 0.0, 768.0)"><path d="M 0.0 768.0 L 1024.0 768.0 L 1024.0 0.0 L 0.0 0.0 Z M 0.0 768.0 " fill="#00B0FF"></path><text xml:space="preserve" font-family="SourceCodePro-Regular" font-size="12.0" fill="#FEFFFF" transform="matrix(1.00, 0.00, -0.00, -1.00, 19.0, 19.0)">L</text><text xml:space="preserve" font-family="SourceCodePro-Regular" font-size="12.0" fill="#FEFFFF" transform="matrix(1.00, 0.00, -0.00, -1.00, 26.2, 19.0)">o</text><text xml:space="preserve" font-family="SourceCodePro-Regular" font-size="12.0" fill="#FEFFFF" transform="matrix(1.00, 0.00, -0.00, -1.00, 33.4, 19.0)">r</text><text xml:space="preserve" font-family="SourceCodePro-Regular" font-size="12.0" fill="#FEFFFF" transform="matrix(1.00, 0.00, -0.00, -1.00, 40.6, 19.0)">e</text><text xml:space="preserve" font-family="SourceCodePro-Regular" font-size="12.0" fill="#FEFFFF" transform="matrix(1.00, 0.00, -0.00, -1.00, 47.8, 19.0)">n</text><text xml:space="preserve" font-family="SourceCodePro-Regular" font-size="12.0" fill="#FEFFFF" transform="matrix(1.00, 0.00, -0.00, -1.00, 55.0, 19.0)">z</text><text xml:space="preserve" font-family="SourceCodePro-Regular" font-size="12.0" fill="#FEFFFF" transform="matrix(1.00, 0.00, -0.00, -1.00, 62.2, 19.0)">o</text><text xml:space="preserve" font-family="SourceCodePro-Regular" font-size="12.0" fill="#FEFFFF" transform="matrix(1.00, 0.00, -0.00, -1.00, 69.4, 19.0)"> </text><text xml:space="preserve" font-family="SourceCodePro-Regular" font-size="12.0" fill="#FEFFFF" transform="matrix(1.00, 0.00, -0.00, -1.00, 76.6, 19.0)">A</text><text xml:space="preserve" font-family="SourceCodePro-Regular" font-size="12.0" fill="#FEFFFF" transform="matrix(1.00, 0.00, -0.00, -1.00, 83.8, 19.0)">f</text><text xml:space="preserve" font-family="SourceCodePro-Regular" font-size="12.0" fill="#FEFFFF" transform="matrix(1.00, 0.00, -0.00, -1.00, 91.0, 19.0)">f</text><text xml:space="preserve" font-family="SourceCodePro-Regular" font-size="12.0" fill="#FEFFFF" transform="matrix(1.00, 0.00, -0.00, -1.00, 98.2, 19.0)">e</text><text xml:space="preserve" font-family="SourceCodePro-Regular" font-size="12.0" fill="#FEFFFF" transform="matrix(1.00, 0.00, -0.00, -1.00, 105.4, 19.0)">t</text><text xml:space="preserve" font-family="SourceCodePro-Regular" font-size="12.0" fill="#FEFFFF" transform="matrix(1.00, 0.00, -0.00, -1.00, 112.6, 19.0)">t</text><text xml:space="preserve" font-family="SourceCodePro-Regular" font-size="12.0" fill="#FEFFFF" transform="matrix(1.00, 0.00, -0.00, -1.00, 119.8, 19.0)">i</text><text xml:space="preserve" font-family="SourceCodePro-Regular" font-size="12.0" fill="#FEFFFF" transform="matrix(1.00, 0.00, -0.00, -1.00, 127.0, 19.0)"> </text><text xml:space="preserve" font-family="SourceCodePro-Regular" font-size="12.0" fill="#FEFFFF" transform="matrix(1.00, 0.00, -0.00, -1.00, 134.2, 19.0)">(</text><text xml:space="preserve" font-family="SourceCodePro-Regular" font-size="12.0" fill="#FEFFFF" transform="matrix(1.00, 0.00, -0.00, -1.00, 141.4, 19.0)">l</text><text xml:space="preserve" font-family="SourceCodePro-Regular" font-size="12.0" fill="#FEFFFF" transform="matrix(1.00, 0.00, -0.00, -1.00, 148.6, 19.0)">o</text><text xml:space="preserve" font-family="SourceCodePro-Regular" font-size="12.0" fill="#FEFFFF" transform="matrix(1.00, 0.00, -0.00, -1.00, 155.8, 19.0)">r</text><text xml:space="preserve" font-family="SourceCodePro-Regular" font-size="12.0" fill="#FEFFFF" transform="matrix(1.00, 0.00, -0.00, -1.00, 163.0, 19.0)">e</text><text xml:space="preserve" font-family="SourceCodePro-Regular" font-size="12.0" fill="#FEFFFF" transform="matrix(1.00, 0.00, -0.00, -1.00, 170.2, 19.0)">n</text><text xml:space="preserve" font-family="SourceCodePro-Regular" font-size="12.0" fill="#FEFFFF" transform="matrix(1.00, 0.00, -0.00, -1.00, 177.4, 19.0)">z</text><text xml:space="preserve" font-family="SourceCodePro-Regular" font-size="12.0" fill="#FEFFFF" transform="matrix(1.00, 0.00, -0.00, -1.00, 184.6, 19.0)">o</text><text xml:space="preserve" font-family="SourceCodePro-Regular" font-size="12.0" fill="#FEFFFF" transform="matrix(1.00, 0.00, -0.00, -1.00, 191.8, 19.0)">.</text><text xml:space="preserve" font-family="SourceCodePro-Regular" font-size="12.0" fill="#FEFFFF" transform="matrix(1.00, 0.00, -0.00, -1.00, 199.0, 19.0)">a</text><text xml:space="preserve" font-family="SourceCodePro-Regular" font-size="12.0" fill="#FEFFFF" transform="matrix(1.00, 0.00, -0.00, -1.00, 206.2, 19.0)">f</text><text xml:space="preserve" font-family="SourceCodePro-Regular" font-size="12.0" fill="#FEFFFF" transform="matrix(1.00, 0.00, -0.00, -1.00, 213.4, 19.0)">f</text><text xml:space="preserve" font-family="SourceCodePro-Regular" font-size="12.0" fill="#FEFFFF" transform="matrix(1.00, 0.00, -0.00, -1.00, 220.6, 19.0)">e</text><text xml:space="preserve" font-family="SourceCodePro-Regular" font-size="12.0" fill="#FEFFFF" transform="matrix(1.00, 0.00, -0.00, -1.00, 227.8, 19.0)">t</text><text xml:space="preserve" font-family="SourceCodePro-Regular" font-size="12.0" fill="#FEFFFF" transform="matrix(1.00, 0.00, -0.00, -1.00, 235.0, 19.0)">t</text><text xml:space="preserve" font-family="SourceCodePro-Regular" font-size="12.0" fill="#FEFFFF" transform="matrix(1.00, 0.00, -0.00, -1.00, 242.2, 19.0)">i</text><text xml:space="preserve" font-family="SourceCodePro-Regular" font-size="12.0" fill="#FEFFFF" transform="matrix(1.00, 0.00, -0.00, -1.00, 249.4, 19.0)">@</text><text xml:space="preserve" font-family="SourceCodePro-Regular" font-size="12.0" fill="#FEFFFF" transform="matrix(1.00, 0.00, -0.00, -1.00, 256.6, 19.0)">p</text><text xml:space="preserve" font-family="SourceCodePro-Regular" font-size="12.0" fill="#FEFFFF" transform="matrix(1.00, 0.00, -0.00, -1.00, 263.8, 19.0)">o</text><text xml:space="preserve" font-family="SourceCodePro-Regular" font-size="12.0" fill="#FEFFFF" transform="matrix(1.00, 0.00, -0.00, -1.00, 271.0, 19.0)">l</text><text xml:space="preserve" font-family="SourceCodePro-Regular" font-size="12.0" fill="#FEFFFF" transform="matrix(1.00, 0.00, -0.00, -1.00, 278.2, 19.0)">i</text><text xml:space="preserve" font-family="SourceCodePro-Regular" font-size="12.0" fill="#FEFFFF" transform="matrix(1.00, 0.00, -0.00, -1.00, 285.4, 19.0)">m</text><text xml:space="preserve" font-family="SourceCodePro-Regular" font-size="12.0" fill="#FEFFFF" transform="matrix(1.00, 0.00, -0.00, -1.00, 292.6, 19.0)">i</text><text xml:space="preserve" font-family="SourceCodePro-Regular" font-size="12.0" fill="#FEFFFF" transform="matrix(1.00, 0.00, -0.00, -1.00, 299.8, 19.0)">.</text><text xml:space="preserve" font-family="SourceCodePro-Regular" font-size="12.0" fill="#FEFFFF" transform="matrix(1.00, 0.00, -0.00, -1.00, 307.0, 19.0)">i</text><text xml:space="preserve" font-family="SourceCodePro-Regular" font-size="12.0" fill="#FEFFFF" transform="matrix(1.00, 0.00, -0.00, -1.00, 314.2, 19.0)">t</text><text xml:space="preserve" font-family="SourceCodePro-Regular" font-size="12.0" fill="#FEFFFF" transform="matrix(1.00, 0.00, -0.00, -1.00, 321.4, 19.0)">)</text><text xml:space="preserve" font-family="SourceCodePro-Regular" font-size="12.0" fill="#FEFFFF" transform="matrix(1.00, 0.00, -0.00, -1.00, 328.6, 19.0)"> </text><text xml:space="preserve" font-family="SourceCodePro-Regular" font-size="12.0" fill="#FEFFFF" transform="matrix(1.00, 0.00, -0.00, -1.00, 335.8, 19.0)">-</text><text xml:space="preserve" font-family="SourceCodePro-Regular" font-size="12.0" fill="#FEFFFF" transform="matrix(1.00, 0.00, -0.00, -1.00, 343.0, 19.0)"> </text><text xml:space="preserve" font-family="SourceCodePro-Regular" font-size="12.0" fill="#FEFFFF" transform="matrix(1.00, 0.00, -0.00, -1.00, 350.2, 19.0)">P</text><text xml:space="preserve" font-family="SourceCodePro-Regular" font-size="12.0" fill="#FEFFFF" transform="matrix(1.00, 0.00, -0.00, -1.00, 357.4, 19.0)">o</text><text xml:space="preserve" font-family="SourceCodePro-Regular" font-size="12.0" fill="#FEFFFF" transform="matrix(1.00, 0.00, -0.00, -1.00, 364.6, 19.0)">l</text><text xml:space="preserve" font-family="SourceCodePro-Regular" font-size="12.0" fill="#FEFFFF" transform="matrix(1.00, 0.00, -0.00, -1.00, 371.8, 19.0)">i</text><text xml:space="preserve" font-family="SourceCodePro-Regular" font-size="12.0" fill="#FEFFFF" transform="matrix(1.00, 0.00, -0.00, -1.00, 379.0, 19.0)">t</text><text xml:space="preserve" font-family="SourceCodePro-Regular" font-size="12.0" fill="#FEFFFF" transform="matrix(1.00, 0.00, -0.00, -1.00, 386.2, 19.0)">e</text><text xml:space="preserve" font-family="SourceCodePro-Regular" font-size="12.0" fill="#FEFFFF" transform="matrix(1.00, 0.00, -0.00, -1.00, 393.4, 19.0)">c</text><text xml:space="preserve" font-family="SourceCodePro-Regular" font-size="12.0" fill="#FEFFFF" transform="matrix(1.00, 0.00, -0.00, -1.00, 400.6, 19.0)">n</text><text xml:space="preserve" font-family="SourceCodePro-Regular" font-size="12.0" fill="#FEFFFF" transform="matrix(1.00, 0.00, -0.00, -1.00, 407.8, 19.0)">i</text><text xml:space="preserve" font-family="SourceCodePro-Regular" font-size="12.0" fill="#FEFFFF" transform="matrix(1.00, 0.00, -0.00, -1.00, 415.0, 19.0)">c</text><text xml:space="preserve" font-family="SourceCodePro-Regular" font-size="12.0" fill="#FEFFFF" transform="matrix(1.00, 0.00, -0.00, -1.00, 422.2, 19.0)">o</text><text xml:space="preserve" font-family="SourceCodePro-Regular" font-size="12.0" fill="#FEFFFF" transform="matrix(1.00, 0.00, -0.00, -1.00, 429.4, 19.0)"> </text><text xml:space="preserve" font-family="SourceCodePro-Regular" font-size="12.0" fill="#FEFFFF" transform="matrix(1.00, 0.00, -0.00, -1.00, 436.6, 19.0)">d</text><text xml:space="preserve" font-family="SourceCodePro-Regular" font-size="12.0" fill="#FEFFFF" transform="matrix(1.00, 0.00, -0.00, -1.00, 443.8, 19.0)">i</text><text xml:space="preserve" font-family="SourceCodePro-Regular" font-size="12.0" fill="#FEFFFF" transform="matrix(1.00, 0.00, -0.00, -1.00, 451.0, 19.0)"> </text><text xml:space="preserve" font-family="SourceCodePro-Regular" font-size="12.0" fill="#FEFFFF" transform="matrix(1.00, 0.00, -0.00, -1.00, 458.2, 19.0)">M</text><text xml:space="preserve" font-family="SourceCodePro-Regular" font-size="12.0" fill="#FEFFFF" transform="matrix(1.00, 0.00, -0.00, -1.00, 465.4, 19.0)">i</text><text xml:space="preserve" font-family="SourceCodePro-Regular" font-size="12.0" fill="#FEFFFF" transform="matrix(1.00, 0.00, -0.00, -1.00, 472.6, 19.0)">l</text><text xml:space="preserve" font-family="SourceCodePro-Regular" font-size="12.0" fill="#FEFFFF" transform="matrix(1.00, 0.00, -0.00, -1.00, 479.8, 19.0)">a</text><text xml:space="preserve" font-family="SourceCodePro-Regular" font-size="12.0" fill="#FEFFFF" transform="matrix(1.00, 0.00, -0.00, -1.00, 487.0, 19.0)">n</text><text xml:space="preserve" font-family="SourceCodePro-Regular" font-size="12.0" fill="#FEFFFF" transform="matrix(1.00, 0.00, -0.00, -1.00, 494.2, 19.0)">o</text><text xml:space="preserve" font-family="SourceCodePro-Regular" font-size="12.0" fill="#FEFFFF" transform="matrix(1.00, 0.00, -0.00, -1.00, 501.4, 19.0)">,</text><text xml:space="preserve" font-family="SourceCodePro-Regular" font-size="12.0" fill="#FEFFFF" transform="matrix(1.00, 0.00, -0.00, -1.00, 508.6, 19.0)"> </text><text xml:space="preserve" font-family="SourceCodePro-Regular" font-size="12.0" fill="#FEFFFF" transform="matrix(1.00, 0.00, -0.00, -1.00, 515.8, 19.0)">D</text><text xml:space="preserve" font-family="SourceCodePro-Regular" font-size="12.0" fill="#FEFFFF" transform="matrix(1.00, 0.00, -0.00, -1.00, 523.0, 19.0)">E</text><text xml:space="preserve" font-family="SourceCodePro-Regular" font-size="12.0" fill="#FEFFFF" transform="matrix(1.00, 0.00, -0.00, -1.00, 530.2, 19.0)">I</text><text xml:space="preserve" font-family="SourceCodePro-Regular" font-size="12.0" fill="#FEFFFF" transform="matrix(1.00, 0.00, -0.00, -1.00, 537.4, 19.0)">B</text><g><clipPath id="clip-664"><path d="M 140.8 16.1 L 321.8 16.1 L 321.8 18.7 L 140.8 18.7 Z M 140.8 16.1 "></path></clipPath><g clip-path="url(#clip-664)"><path d="M 126.9 17.1 L 306.9 17.1 " fill="none" stroke="#FEFFFF" stroke-width="0.60" stroke-miterlimit="0.00" transform="matrix(1.00, 0.00, 0.00, -1.00, 14.9, 34.5)"></path></g></g><text xml:space="preserve" font-family="Lora-Bold" font-weight="bold" font-size="80.0" fill="#FEFFFF" transform="matrix(1.00, 0.00, -0.00, -1.00, 300.0, 583.0)">R</text><text xml:space="preserve" font-family="Lora-Bold" font-weight="bold" font-size="80.0" fill="#FEFFFF" transform="matrix(1.00, 0.00, -0.00, -1.00, 353.7, 583.0)">e</text><text xml:space="preserve" font-family="Lora-Bold" font-weight="bold" font-size="80.0" fill="#FEFFFF" transform="matrix(1.00, 0.00, -0.00, -1.00, 396.8, 583.0)">f</text><text xml:space="preserve" font-family="Lora-Bold" font-weight="bold" font-size="80.0" fill="#FEFFFF" transform="matrix(1.00, 0.00, -0.00, -1.00, 425.7, 583.0)">e</text><text xml:space="preserve" font-family="Lora-Bold" font-weight="bold" font-size="80.0" fill="#FEFFFF" transform="matrix(1.00, 0.00, -0.00, -1.00, 468.8, 583.0)">r</text><text xml:space="preserve" font-family="Lora-Bold" font-weight="bold" font-size="80.0" fill="#FEFFFF" transform="matrix(1.00, 0.00, -0.00, -1.00, 506.6, 583.0)">e</text><text xml:space="preserve" font-family="Lora-Bold" font-weight="bold" font-size="80.0" fill="#FEFFFF" transform="matrix(1.00, 0.00, -0.00, -1.00, 549.7, 583.0)">n</text><text xml:space="preserve" font-family="Lora-Bold" font-weight="bold" font-size="80.0" fill="#FEFFFF" transform="matrix(1.00, 0.00, -0.00, -1.00, 600.6, 583.0)">c</text><text xml:space="preserve" font-family="Lora-Bold" font-weight="bold" font-size="80.0" fill="#FEFFFF" transform="matrix(1.00, 0.00, -0.00, -1.00, 642.0, 583.0)">e</text><text xml:space="preserve" font-family="Lora-Bold" font-weight="bold" font-size="80.0" fill="#FEFFFF" transform="matrix(1.00, 0.00, -0.00, -1.00, 685.1, 583.0)">s</text><text xml:space="preserve" font-family="Helvetica-Light" font-size="18.0" fill="#FEFFFF" transform="matrix(1.00, 0.00, -0.00, -1.00, 992.0, 16.0)">5</text><text xml:space="preserve" font-family="Helvetica-Light" font-size="18.0" fill="#FEFFFF" transform="matrix(1.00, 0.00, -0.00, -1.00, 1002.0, 16.0)">8</text><text xml:space="preserve" font-family="SourceCodePro-Regular" font-size="27.0" fill="#FEFFFF" transform="matrix(1.00, 0.00, -0.00, -1.00, 104.0, 487.3)">•</text><text xml:space="preserve" font-family="SourceCodePro-Regular" font-size="36.0" fill="#FEFFFF" transform="matrix(1.00, 0.00, -0.00, -1.00, 162.0, 484.0)">D</text><text xml:space="preserve" font-family="SourceCodePro-Regular" font-size="36.0" fill="#FEFFFF" transform="matrix(1.00, 0.00, -0.00, -1.00, 183.6, 484.0)">a</text><text xml:space="preserve" font-family="SourceCodePro-Regular" font-size="36.0" fill="#FEFFFF" transform="matrix(1.00, 0.00, -0.00, -1.00, 205.2, 484.0)">t</text><text xml:space="preserve" font-family="SourceCodePro-Regular" font-size="36.0" fill="#FEFFFF" transform="matrix(1.00, 0.00, -0.00, -1.00, 226.8, 484.0)">a</text><text xml:space="preserve" font-family="SourceCodePro-Regular" font-size="36.0" fill="#FEFFFF" transform="matrix(1.00, 0.00, -0.00, -1.00, 248.4, 484.0)"> </text><text xml:space="preserve" font-family="SourceCodePro-Regular" font-size="36.0" fill="#FEFFFF" transform="matrix(1.00, 0.00, -0.00, -1.00, 270.0, 484.0)">A</text><text xml:space="preserve" font-family="SourceCodePro-Regular" font-size="36.0" fill="#FEFFFF" transform="matrix(1.00, 0.00, -0.00, -1.00, 291.6, 484.0)">r</text><text xml:space="preserve" font-family="SourceCodePro-Regular" font-size="36.0" fill="#FEFFFF" transform="matrix(1.00, 0.00, -0.00, -1.00, 313.2, 484.0)">t</text><text xml:space="preserve" font-family="SourceCodePro-Regular" font-size="36.0" fill="#FEFFFF" transform="matrix(1.00, 0.00, -0.00, -1.00, 334.8, 484.0)">i</text><text xml:space="preserve" font-family="SourceCodePro-Regular" font-size="36.0" fill="#FEFFFF" transform="matrix(1.00, 0.00, -0.00, -1.00, 356.4, 484.0)">s</text><text xml:space="preserve" font-family="SourceCodePro-Regular" font-size="36.0" fill="#FEFFFF" transform="matrix(1.00, 0.00, -0.00, -1.00, 378.0, 484.0)">a</text><text xml:space="preserve" font-family="SourceCodePro-Regular" font-size="36.0" fill="#FEFFFF" transform="matrix(1.00, 0.00, -0.00, -1.00, 399.6, 484.0)">n</text><text xml:space="preserve" font-family="SourceCodePro-Regular" font-size="36.0" fill="#FEFFFF" transform="matrix(1.00, 0.00, -0.00, -1.00, 421.2, 484.0)">s</text><text xml:space="preserve" font-family="SourceCodePro-Regular" font-size="36.0" fill="#FEFFFF" transform="matrix(1.00, 0.00, -0.00, -1.00, 442.8, 484.0)"> </text><text xml:space="preserve" font-family="SourceCodePro-Regular" font-size="36.0" fill="#FEFFFF" transform="matrix(1.00, 0.00, -0.00, -1.00, 464.4, 484.0)">B</text><text xml:space="preserve" font-family="SourceCodePro-Regular" font-size="36.0" fill="#FEFFFF" transform="matrix(1.00, 0.00, -0.00, -1.00, 486.0, 484.0)">l</text><text xml:space="preserve" font-family="SourceCodePro-Regular" font-size="36.0" fill="#FEFFFF" transform="matrix(1.00, 0.00, -0.00, -1.00, 507.6, 484.0)">o</text><text xml:space="preserve" font-family="SourceCodePro-Regular" font-size="36.0" fill="#FEFFFF" transform="matrix(1.00, 0.00, -0.00, -1.00, 529.2, 484.0)">g</text><text xml:space="preserve" font-family="SourceCodePro-Regular" font-size="36.0" fill="#FEFFFF" transform="matrix(1.00, 0.00, -0.00, -1.00, 550.8, 484.0)"> </text><g><clipPath id="clip-665"><path d="M 161.3 479.7 L 551.1 479.7 L 551.1 483.5 L 161.3 483.5 Z M 161.3 479.7 "></path></clipPath><g clip-path="url(#clip-665)"><path d="M 62.3 84.9 L 451.1 84.9 " fill="none" stroke="#FEFFFF" stroke-width="1.80" stroke-miterlimit="0.00" transform="matrix(1.00, 0.00, 0.00, -1.00, 100.0, 566.5)"></path></g></g><text xml:space="preserve" font-family="SourceCodePro-Regular" font-size="27.0" fill="#FEFFFF" transform="matrix(1.00, 0.00, -0.00, -1.00, 104.0, 419.8)">•</text><text xml:space="preserve" font-family="SourceCodePro-Regular" font-size="36.0" fill="#FEFFFF" transform="matrix(1.00, 0.00, -0.00, -1.00, 162.0, 417.0)">F</text><text xml:space="preserve" font-family="SourceCodePro-Regular" font-size="36.0" fill="#FEFFFF" transform="matrix(1.00, 0.00, -0.00, -1.00, 183.6, 417.0)">l</text><text xml:space="preserve" font-family="SourceCodePro-Regular" font-size="36.0" fill="#FEFFFF" transform="matrix(1.00, 0.00, -0.00, -1.00, 205.2, 417.0)">i</text><text xml:space="preserve" font-family="SourceCodePro-Regular" font-size="36.0" fill="#FEFFFF" transform="matrix(1.00, 0.00, -0.00, -1.00, 226.8, 417.0)">n</text><text xml:space="preserve" font-family="SourceCodePro-Regular" font-size="36.0" fill="#FEFFFF" transform="matrix(1.00, 0.00, -0.00, -1.00, 248.4, 417.0)">k</text><text xml:space="preserve" font-family="SourceCodePro-Regular" font-size="36.0" fill="#FEFFFF" transform="matrix(1.00, 0.00, -0.00, -1.00, 270.0, 417.0)"> </text><text xml:space="preserve" font-family="SourceCodePro-Regular" font-size="36.0" fill="#FEFFFF" transform="matrix(1.00, 0.00, -0.00, -1.00, 291.6, 417.0)">P</text><text xml:space="preserve" font-family="SourceCodePro-Regular" font-size="36.0" fill="#FEFFFF" transform="matrix(1.00, 0.00, -0.00, -1.00, 313.2, 417.0)">r</text><text xml:space="preserve" font-family="SourceCodePro-Regular" font-size="36.0" fill="#FEFFFF" transform="matrix(1.00, 0.00, -0.00, -1.00, 334.8, 417.0)">o</text><text xml:space="preserve" font-family="SourceCodePro-Regular" font-size="36.0" fill="#FEFFFF" transform="matrix(1.00, 0.00, -0.00, -1.00, 356.4, 417.0)">g</text><text xml:space="preserve" font-family="SourceCodePro-Regular" font-size="36.0" fill="#FEFFFF" transform="matrix(1.00, 0.00, -0.00, -1.00, 378.0, 417.0)">r</text><text xml:space="preserve" font-family="SourceCodePro-Regular" font-size="36.0" fill="#FEFFFF" transform="matrix(1.00, 0.00, -0.00, -1.00, 399.6, 417.0)">a</text><text xml:space="preserve" font-family="SourceCodePro-Regular" font-size="36.0" fill="#FEFFFF" transform="matrix(1.00, 0.00, -0.00, -1.00, 421.2, 417.0)">m</text><text xml:space="preserve" font-family="SourceCodePro-Regular" font-size="36.0" fill="#FEFFFF" transform="matrix(1.00, 0.00, -0.00, -1.00, 442.8, 417.0)">m</text><text xml:space="preserve" font-family="SourceCodePro-Regular" font-size="36.0" fill="#FEFFFF" transform="matrix(1.00, 0.00, -0.00, -1.00, 464.4, 417.0)">i</text><text xml:space="preserve" font-family="SourceCodePro-Regular" font-size="36.0" fill="#FEFFFF" transform="matrix(1.00, 0.00, -0.00, -1.00, 486.0, 417.0)">n</text><text xml:space="preserve" font-family="SourceCodePro-Regular" font-size="36.0" fill="#FEFFFF" transform="matrix(1.00, 0.00, -0.00, -1.00, 507.6, 417.0)">g</text><text xml:space="preserve" font-family="SourceCodePro-Regular" font-size="36.0" fill="#FEFFFF" transform="matrix(1.00, 0.00, -0.00, -1.00, 529.2, 417.0)"> </text><text xml:space="preserve" font-family="SourceCodePro-Regular" font-size="36.0" fill="#FEFFFF" transform="matrix(1.00, 0.00, -0.00, -1.00, 550.8, 417.0)">G</text><text xml:space="preserve" font-family="SourceCodePro-Regular" font-size="36.0" fill="#FEFFFF" transform="matrix(1.00, 0.00, -0.00, -1.00, 572.4, 417.0)">u</text><text xml:space="preserve" font-family="SourceCodePro-Regular" font-size="36.0" fill="#FEFFFF" transform="matrix(1.00, 0.00, -0.00, -1.00, 594.0, 417.0)">i</text><text xml:space="preserve" font-family="SourceCodePro-Regular" font-size="36.0" fill="#FEFFFF" transform="matrix(1.00, 0.00, -0.00, -1.00, 615.6, 417.0)">d</text><text xml:space="preserve" font-family="SourceCodePro-Regular" font-size="36.0" fill="#FEFFFF" transform="matrix(1.00, 0.00, -0.00, -1.00, 637.2, 417.0)">e</text><text xml:space="preserve" font-family="SourceCodePro-Regular" font-size="36.0" fill="#FEFFFF" transform="matrix(1.00, 0.00, -0.00, -1.00, 658.8, 417.0)"> </text><g><clipPath id="clip-666"><path d="M 161.3 412.2 L 659.1 412.2 L 659.1 416.0 L 161.3 416.0 Z M 161.3 412.2 "></path></clipPath><g clip-path="url(#clip-666)"><path d="M 62.3 152.4 L 559.1 152.4 " fill="none" stroke="#FEFFFF" stroke-width="1.80" stroke-miterlimit="0.00" transform="matrix(1.00, 0.00, 0.00, -1.00, 100.0, 566.5)"></path></g></g><text xml:space="preserve" font-family="SourceCodePro-Regular" font-size="27.0" fill="#FEFFFF" transform="matrix(1.00, 0.00, -0.00, -1.00, 104.0, 352.3)">•</text><text xml:space="preserve" font-family="SourceCodePro-Regular" font-size="36.0" fill="#FEFFFF" transform="matrix(1.00, 0.00, -0.00, -1.00, 162.0, 349.0)">L</text><text xml:space="preserve" font-family="SourceCodePro-Regular" font-size="36.0" fill="#FEFFFF" transform="matrix(1.00, 0.00, -0.00, -1.00, 183.6, 349.0)">i</text><text xml:space="preserve" font-family="SourceCodePro-Regular" font-size="36.0" fill="#FEFFFF" transform="matrix(1.00, 0.00, -0.00, -1.00, 205.2, 349.0)">g</text><text xml:space="preserve" font-family="SourceCodePro-Regular" font-size="36.0" fill="#FEFFFF" transform="matrix(1.00, 0.00, -0.00, -1.00, 226.8, 349.0)">h</text><text xml:space="preserve" font-family="SourceCodePro-Regular" font-size="36.0" fill="#FEFFFF" transform="matrix(1.00, 0.00, -0.00, -1.00, 248.4, 349.0)">t</text><text xml:space="preserve" font-family="SourceCodePro-Regular" font-size="36.0" fill="#FEFFFF" transform="matrix(1.00, 0.00, -0.00, -1.00, 270.0, 349.0)">w</text><text xml:space="preserve" font-family="SourceCodePro-Regular" font-size="36.0" fill="#FEFFFF" transform="matrix(1.00, 0.00, -0.00, -1.00, 291.6, 349.0)">e</text><text xml:space="preserve" font-family="SourceCodePro-Regular" font-size="36.0" fill="#FEFFFF" transform="matrix(1.00, 0.00, -0.00, -1.00, 313.2, 349.0)">i</text><text xml:space="preserve" font-family="SourceCodePro-Regular" font-size="36.0" fill="#FEFFFF" transform="matrix(1.00, 0.00, -0.00, -1.00, 334.8, 349.0)">g</text><text xml:space="preserve" font-family="SourceCodePro-Regular" font-size="36.0" fill="#FEFFFF" transform="matrix(1.00, 0.00, -0.00, -1.00, 356.4, 349.0)">h</text><text xml:space="preserve" font-family="SourceCodePro-Regular" font-size="36.0" fill="#FEFFFF" transform="matrix(1.00, 0.00, -0.00, -1.00, 378.0, 349.0)">t</text><text xml:space="preserve" font-family="SourceCodePro-Regular" font-size="36.0" fill="#FEFFFF" transform="matrix(1.00, 0.00, -0.00, -1.00, 399.6, 349.0)"> </text><text xml:space="preserve" font-family="SourceCodePro-Regular" font-size="36.0" fill="#FEFFFF" transform="matrix(1.00, 0.00, -0.00, -1.00, 421.2, 349.0)">A</text><text xml:space="preserve" font-family="SourceCodePro-Regular" font-size="36.0" fill="#FEFFFF" transform="matrix(1.00, 0.00, -0.00, -1.00, 442.8, 349.0)">s</text><text xml:space="preserve" font-family="SourceCodePro-Regular" font-size="36.0" fill="#FEFFFF" transform="matrix(1.00, 0.00, -0.00, -1.00, 464.4, 349.0)">y</text><text xml:space="preserve" font-family="SourceCodePro-Regular" font-size="36.0" fill="#FEFFFF" transform="matrix(1.00, 0.00, -0.00, -1.00, 486.0, 349.0)">n</text><text xml:space="preserve" font-family="SourceCodePro-Regular" font-size="36.0" fill="#FEFFFF" transform="matrix(1.00, 0.00, -0.00, -1.00, 507.6, 349.0)">c</text><text xml:space="preserve" font-family="SourceCodePro-Regular" font-size="36.0" fill="#FEFFFF" transform="matrix(1.00, 0.00, -0.00, -1.00, 529.2, 349.0)">h</text><text xml:space="preserve" font-family="SourceCodePro-Regular" font-size="36.0" fill="#FEFFFF" transform="matrix(1.00, 0.00, -0.00, -1.00, 550.8, 349.0)">r</text><text xml:space="preserve" font-family="SourceCodePro-Regular" font-size="36.0" fill="#FEFFFF" transform="matrix(1.00, 0.00, -0.00, -1.00, 572.4, 349.0)">o</text><text xml:space="preserve" font-family="SourceCodePro-Regular" font-size="36.0" fill="#FEFFFF" transform="matrix(1.00, 0.00, -0.00, -1.00, 594.0, 349.0)">n</text><text xml:space="preserve" font-family="SourceCodePro-Regular" font-size="36.0" fill="#FEFFFF" transform="matrix(1.00, 0.00, -0.00, -1.00, 615.6, 349.0)">o</text><text xml:space="preserve" font-family="SourceCodePro-Regular" font-size="36.0" fill="#FEFFFF" transform="matrix(1.00, 0.00, -0.00, -1.00, 637.2, 349.0)">u</text><text xml:space="preserve" font-family="SourceCodePro-Regular" font-size="36.0" fill="#FEFFFF" transform="matrix(1.00, 0.00, -0.00, -1.00, 658.8, 349.0)">s</text><text xml:space="preserve" font-family="SourceCodePro-Regular" font-size="36.0" fill="#FEFFFF" transform="matrix(1.00, 0.00, -0.00, -1.00, 680.4, 349.0)"> </text><text xml:space="preserve" font-family="SourceCodePro-Regular" font-size="36.0" fill="#FEFFFF" transform="matrix(1.00, 0.00, -0.00, -1.00, 702.0, 349.0)">S</text><text xml:space="preserve" font-family="SourceCodePro-Regular" font-size="36.0" fill="#FEFFFF" transform="matrix(1.00, 0.00, -0.00, -1.00, 723.6, 349.0)">n</text><text xml:space="preserve" font-family="SourceCodePro-Regular" font-size="36.0" fill="#FEFFFF" transform="matrix(1.00, 0.00, -0.00, -1.00, 745.2, 349.0)">a</text><text xml:space="preserve" font-family="SourceCodePro-Regular" font-size="36.0" fill="#FEFFFF" transform="matrix(1.00, 0.00, -0.00, -1.00, 766.8, 349.0)">p</text><text xml:space="preserve" font-family="SourceCodePro-Regular" font-size="36.0" fill="#FEFFFF" transform="matrix(1.00, 0.00, -0.00, -1.00, 788.4, 349.0)">s</text><text xml:space="preserve" font-family="SourceCodePro-Regular" font-size="36.0" fill="#FEFFFF" transform="matrix(1.00, 0.00, -0.00, -1.00, 810.0, 349.0)">h</text><text xml:space="preserve" font-family="SourceCodePro-Regular" font-size="36.0" fill="#FEFFFF" transform="matrix(1.00, 0.00, -0.00, -1.00, 831.6, 349.0)">o</text><text xml:space="preserve" font-family="SourceCodePro-Regular" font-size="36.0" fill="#FEFFFF" transform="matrix(1.00, 0.00, -0.00, -1.00, 853.2, 349.0)">t</text><text xml:space="preserve" font-family="SourceCodePro-Regular" font-size="36.0" fill="#FEFFFF" transform="matrix(1.00, 0.00, -0.00, -1.00, 874.8, 349.0)">s</text><text xml:space="preserve" font-family="SourceCodePro-Regular" font-size="36.0" fill="#FEFFFF" transform="matrix(1.00, 0.00, -0.00, -1.00, 896.4, 349.0)"> </text><g><clipPath id="clip-667"><path d="M 161.3 344.7 L 896.7 344.7 L 896.7 348.5 L 161.3 348.5 Z M 161.3 344.7 "></path></clipPath><g clip-path="url(#clip-667)"><path d="M 62.3 219.9 L 796.7 219.9 " fill="none" stroke="#FEFFFF" stroke-width="1.80" stroke-miterlimit="0.00" transform="matrix(1.00, 0.00, 0.00, -1.00, 100.0, 566.5)"></path></g></g><text xml:space="preserve" font-family="SourceCodePro-Regular" font-size="36.0" fill="#FEFFFF" transform="matrix(1.00, 0.00, -0.00, -1.00, 162.0, 282.0)">f</text><text xml:space="preserve" font-family="SourceCodePro-Regular" font-size="36.0" fill="#FEFFFF" transform="matrix(1.00, 0.00, -0.00, -1.00, 183.6, 282.0)">o</text><text xml:space="preserve" font-family="SourceCodePro-Regular" font-size="36.0" fill="#FEFFFF" transform="matrix(1.00, 0.00, -0.00, -1.00, 205.2, 282.0)">r</text><text xml:space="preserve" font-family="SourceCodePro-Regular" font-size="36.0" fill="#FEFFFF" transform="matrix(1.00, 0.00, -0.00, -1.00, 226.8, 282.0)"> </text><text xml:space="preserve" font-family="SourceCodePro-Regular" font-size="36.0" fill="#FEFFFF" transform="matrix(1.00, 0.00, -0.00, -1.00, 248.4, 282.0)">D</text><text xml:space="preserve" font-family="SourceCodePro-Regular" font-size="36.0" fill="#FEFFFF" transform="matrix(1.00, 0.00, -0.00, -1.00, 270.0, 282.0)">i</text><text xml:space="preserve" font-family="SourceCodePro-Regular" font-size="36.0" fill="#FEFFFF" transform="matrix(1.00, 0.00, -0.00, -1.00, 291.6, 282.0)">s</text><text xml:space="preserve" font-family="SourceCodePro-Regular" font-size="36.0" fill="#FEFFFF" transform="matrix(1.00, 0.00, -0.00, -1.00, 313.2, 282.0)">t</text><text xml:space="preserve" font-family="SourceCodePro-Regular" font-size="36.0" fill="#FEFFFF" transform="matrix(1.00, 0.00, -0.00, -1.00, 334.8, 282.0)">r</text><text xml:space="preserve" font-family="SourceCodePro-Regular" font-size="36.0" fill="#FEFFFF" transform="matrix(1.00, 0.00, -0.00, -1.00, 356.4, 282.0)">i</text><text xml:space="preserve" font-family="SourceCodePro-Regular" font-size="36.0" fill="#FEFFFF" transform="matrix(1.00, 0.00, -0.00, -1.00, 378.0, 282.0)">b</text><text xml:space="preserve" font-family="SourceCodePro-Regular" font-size="36.0" fill="#FEFFFF" transform="matrix(1.00, 0.00, -0.00, -1.00, 399.6, 282.0)">u</text><text xml:space="preserve" font-family="SourceCodePro-Regular" font-size="36.0" fill="#FEFFFF" transform="matrix(1.00, 0.00, -0.00, -1.00, 421.2, 282.0)">t</text><text xml:space="preserve" font-family="SourceCodePro-Regular" font-size="36.0" fill="#FEFFFF" transform="matrix(1.00, 0.00, -0.00, -1.00, 442.8, 282.0)">e</text><text xml:space="preserve" font-family="SourceCodePro-Regular" font-size="36.0" fill="#FEFFFF" transform="matrix(1.00, 0.00, -0.00, -1.00, 464.4, 282.0)">d</text><text xml:space="preserve" font-family="SourceCodePro-Regular" font-size="36.0" fill="#FEFFFF" transform="matrix(1.00, 0.00, -0.00, -1.00, 486.0, 282.0)"> </text><text xml:space="preserve" font-family="SourceCodePro-Regular" font-size="36.0" fill="#FEFFFF" transform="matrix(1.00, 0.00, -0.00, -1.00, 507.6, 282.0)">D</text><text xml:space="preserve" font-family="SourceCodePro-Regular" font-size="36.0" fill="#FEFFFF" transform="matrix(1.00, 0.00, -0.00, -1.00, 529.2, 282.0)">a</text><text xml:space="preserve" font-family="SourceCodePro-Regular" font-size="36.0" fill="#FEFFFF" transform="matrix(1.00, 0.00, -0.00, -1.00, 550.8, 282.0)">t</text><text xml:space="preserve" font-family="SourceCodePro-Regular" font-size="36.0" fill="#FEFFFF" transform="matrix(1.00, 0.00, -0.00, -1.00, 572.4, 282.0)">a</text><text xml:space="preserve" font-family="SourceCodePro-Regular" font-size="36.0" fill="#FEFFFF" transform="matrix(1.00, 0.00, -0.00, -1.00, 594.0, 282.0)">f</text><text xml:space="preserve" font-family="SourceCodePro-Regular" font-size="36.0" fill="#FEFFFF" transform="matrix(1.00, 0.00, -0.00, -1.00, 615.6, 282.0)">l</text><text xml:space="preserve" font-family="SourceCodePro-Regular" font-size="36.0" fill="#FEFFFF" transform="matrix(1.00, 0.00, -0.00, -1.00, 637.2, 282.0)">o</text><text xml:space="preserve" font-family="SourceCodePro-Regular" font-size="36.0" fill="#FEFFFF" transform="matrix(1.00, 0.00, -0.00, -1.00, 658.8, 282.0)">w</text><text xml:space="preserve" font-family="SourceCodePro-Regular" font-size="36.0" fill="#FEFFFF" transform="matrix(1.00, 0.00, -0.00, -1.00, 680.4, 282.0)">s</text><text xml:space="preserve" font-family="SourceCodePro-Regular" font-size="36.0" fill="#FEFFFF" transform="matrix(1.00, 0.00, -0.00, -1.00, 702.0, 282.0)"> </text><text xml:space="preserve" font-family="SourceCodePro-Regular" font-size="36.0" fill="#FEFFFF" transform="matrix(1.00, 0.00, -0.00, -1.00, 723.6, 282.0)">-</text><text xml:space="preserve" font-family="SourceCodePro-Regular" font-size="36.0" fill="#FEFFFF" transform="matrix(1.00, 0.00, -0.00, -1.00, 745.2, 282.0)"> </text><text xml:space="preserve" font-family="SourceCodePro-Regular" font-size="36.0" fill="#FEFFFF" transform="matrix(1.00, 0.00, -0.00, -1.00, 766.8, 282.0)">P</text><text xml:space="preserve" font-family="SourceCodePro-Regular" font-size="36.0" fill="#FEFFFF" transform="matrix(1.00, 0.00, -0.00, -1.00, 788.4, 282.0)">a</text><text xml:space="preserve" font-family="SourceCodePro-Regular" font-size="36.0" fill="#FEFFFF" transform="matrix(1.00, 0.00, -0.00, -1.00, 810.0, 282.0)">r</text><text xml:space="preserve" font-family="SourceCodePro-Regular" font-size="36.0" fill="#FEFFFF" transform="matrix(1.00, 0.00, -0.00, -1.00, 831.6, 282.0)">i</text><text xml:space="preserve" font-family="SourceCodePro-Regular" font-size="36.0" fill="#FEFFFF" transform="matrix(1.00, 0.00, -0.00, -1.00, 853.2, 282.0)">s</text><text xml:space="preserve" font-family="SourceCodePro-Regular" font-size="36.0" fill="#FEFFFF" transform="matrix(1.00, 0.00, -0.00, -1.00, 874.8, 282.0)"> </text><g><clipPath id="clip-668"><path d="M 161.3 277.2 L 702.3 277.2 L 702.3 281.0 L 161.3 281.0 Z M 161.3 277.2 "></path></clipPath><g clip-path="url(#clip-668)"><path d="M 62.3 287.4 L 602.3 287.4 " fill="none" stroke="#FEFFFF" stroke-width="1.80" stroke-miterlimit="0.00" transform="matrix(1.00, 0.00, 0.00, -1.00, 100.0, 566.5)"></path></g></g><text xml:space="preserve" font-family="SourceCodePro-Regular" font-size="36.0" fill="#FEFFFF" transform="matrix(1.00, 0.00, -0.00, -1.00, 162.0, 214.0)">C</text><text xml:space="preserve" font-family="SourceCodePro-Regular" font-size="36.0" fill="#FEFFFF" transform="matrix(1.00, 0.00, -0.00, -1.00, 183.6, 214.0)">a</text><text xml:space="preserve" font-family="SourceCodePro-Regular" font-size="36.0" fill="#FEFFFF" transform="matrix(1.00, 0.00, -0.00, -1.00, 205.2, 214.0)">r</text><text xml:space="preserve" font-family="SourceCodePro-Regular" font-size="36.0" fill="#FEFFFF" transform="matrix(1.00, 0.00, -0.00, -1.00, 226.8, 214.0)">b</text><text xml:space="preserve" font-family="SourceCodePro-Regular" font-size="36.0" fill="#FEFFFF" transform="matrix(1.00, 0.00, -0.00, -1.00, 248.4, 214.0)">o</text><text xml:space="preserve" font-family="SourceCodePro-Regular" font-size="36.0" fill="#FEFFFF" transform="matrix(1.00, 0.00, -0.00, -1.00, 270.0, 214.0)">n</text><text xml:space="preserve" font-family="SourceCodePro-Regular" font-size="36.0" fill="#FEFFFF" transform="matrix(1.00, 0.00, -0.00, -1.00, 291.6, 214.0)">e</text><text xml:space="preserve" font-family="SourceCodePro-Regular" font-size="36.0" fill="#FEFFFF" transform="matrix(1.00, 0.00, -0.00, -1.00, 313.2, 214.0)"> </text><text xml:space="preserve" font-family="SourceCodePro-Regular" font-size="36.0" fill="#FEFFFF" transform="matrix(1.00, 0.00, -0.00, -1.00, 334.8, 214.0)">e</text><text xml:space="preserve" font-family="SourceCodePro-Regular" font-size="36.0" fill="#FEFFFF" transform="matrix(1.00, 0.00, -0.00, -1.00, 356.4, 214.0)">t</text><text xml:space="preserve" font-family="SourceCodePro-Regular" font-size="36.0" fill="#FEFFFF" transform="matrix(1.00, 0.00, -0.00, -1.00, 378.0, 214.0)"> </text><text xml:space="preserve" font-family="SourceCodePro-Regular" font-size="36.0" fill="#FEFFFF" transform="matrix(1.00, 0.00, -0.00, -1.00, 399.6, 214.0)">a</text><text xml:space="preserve" font-family="SourceCodePro-Regular" font-size="36.0" fill="#FEFFFF" transform="matrix(1.00, 0.00, -0.00, -1.00, 421.2, 214.0)">l</text><text xml:space="preserve" font-family="SourceCodePro-Regular" font-size="36.0" fill="#FEFFFF" transform="matrix(1.00, 0.00, -0.00, -1.00, 442.8, 214.0)">.</text><text xml:space="preserve" font-family="SourceCodePro-Regular" font-size="36.0" fill="#FEFFFF" transform="matrix(1.00, 0.00, -0.00, -1.00, 464.4, 214.0)"> </text><text xml:space="preserve" font-family="SourceCodePro-Regular" font-size="27.0" fill="#FEFFFF" transform="matrix(1.00, 0.00, -0.00, -1.00, 104.0, 149.8)">•</text><text xml:space="preserve" font-family="SourceCodePro-Regular" font-size="36.0" fill="#FEFFFF" transform="matrix(1.00, 0.00, -0.00, -1.00, 162.0, 147.0)">C</text><text xml:space="preserve" font-family="SourceCodePro-Regular" font-size="36.0" fill="#FEFFFF" transform="matrix(1.00, 0.00, -0.00, -1.00, 183.6, 147.0)">o</text><text xml:space="preserve" font-family="SourceCodePro-Regular" font-size="36.0" fill="#FEFFFF" transform="matrix(1.00, 0.00, -0.00, -1.00, 205.2, 147.0)">d</text><text xml:space="preserve" font-family="SourceCodePro-Regular" font-size="36.0" fill="#FEFFFF" transform="matrix(1.00, 0.00, -0.00, -1.00, 226.8, 147.0)">e</text><text xml:space="preserve" font-family="SourceCodePro-Regular" font-size="36.0" fill="#FEFFFF" transform="matrix(1.00, 0.00, -0.00, -1.00, 248.4, 147.0)"> </text><text xml:space="preserve" font-family="SourceCodePro-Regular" font-size="36.0" fill="#FEFFFF" transform="matrix(1.00, 0.00, -0.00, -1.00, 270.0, 147.0)">f</text><text xml:space="preserve" font-family="SourceCodePro-Regular" font-size="36.0" fill="#FEFFFF" transform="matrix(1.00, 0.00, -0.00, -1.00, 291.6, 147.0)">o</text><text xml:space="preserve" font-family="SourceCodePro-Regular" font-size="36.0" fill="#FEFFFF" transform="matrix(1.00, 0.00, -0.00, -1.00, 313.2, 147.0)">r</text><text xml:space="preserve" font-family="SourceCodePro-Regular" font-size="36.0" fill="#FEFFFF" transform="matrix(1.00, 0.00, -0.00, -1.00, 334.8, 147.0)"> </text><text xml:space="preserve" font-family="SourceCodePro-Regular" font-size="36.0" fill="#FEFFFF" transform="matrix(1.00, 0.00, -0.00, -1.00, 356.4, 147.0)">D</text><text xml:space="preserve" font-family="SourceCodePro-Regular" font-size="36.0" fill="#FEFFFF" transform="matrix(1.00, 0.00, -0.00, -1.00, 378.0, 147.0)">E</text><text xml:space="preserve" font-family="SourceCodePro-Regular" font-size="36.0" fill="#FEFFFF" transform="matrix(1.00, 0.00, -0.00, -1.00, 399.6, 147.0)">B</text><text xml:space="preserve" font-family="SourceCodePro-Regular" font-size="36.0" fill="#FEFFFF" transform="matrix(1.00, 0.00, -0.00, -1.00, 421.2, 147.0)">S</text><text xml:space="preserve" font-family="SourceCodePro-Regular" font-size="36.0" fill="#FEFFFF" transform="matrix(1.00, 0.00, -0.00, -1.00, 442.8, 147.0)"> </text><text xml:space="preserve" font-family="SourceCodePro-Regular" font-size="36.0" fill="#FEFFFF" transform="matrix(1.00, 0.00, -0.00, -1.00, 464.4, 147.0)">q</text><text xml:space="preserve" font-family="SourceCodePro-Regular" font-size="36.0" fill="#FEFFFF" transform="matrix(1.00, 0.00, -0.00, -1.00, 486.0, 147.0)">u</text><text xml:space="preserve" font-family="SourceCodePro-Regular" font-size="36.0" fill="#FEFFFF" transform="matrix(1.00, 0.00, -0.00, -1.00, 507.6, 147.0)">e</text><text xml:space="preserve" font-family="SourceCodePro-Regular" font-size="36.0" fill="#FEFFFF" transform="matrix(1.00, 0.00, -0.00, -1.00, 529.2, 147.0)">r</text><text xml:space="preserve" font-family="SourceCodePro-Regular" font-size="36.0" fill="#FEFFFF" transform="matrix(1.00, 0.00, -0.00, -1.00, 550.8, 147.0)">y</text><g><clipPath id="clip-669"><path d="M 161.3 142.2 L 248.7 142.2 L 248.7 146.0 L 161.3 146.0 Z M 161.3 142.2 "></path></clipPath><g clip-path="url(#clip-669)"><path d="M 62.3 422.4 L 148.7 422.4 " fill="none" stroke="#FEFFFF" stroke-width="1.80" stroke-miterlimit="0.00" transform="matrix(1.00, 0.00, 0.00, -1.00, 100.0, 566.5)"></path></g></g></g></svg>