<?xml version="1.0" encoding="UTF-8" standalone="no"?><svg xmlns="http://www.w3.org/2000/svg" xmlns:xlink="http://www.w3.org/1999/xlink" clip-rule="evenodd" stroke-miterlimit="4.00" viewBox="0 0 985 22"><desc>SVG generated by Keynote</desc><defs></defs><g transform="matrix(1.00, 0.00, -0.00, -1.00, 0.0, 22.0)"><text xml:space="preserve" font-family="SourceCodePro-Semibold" font-weight="bold" font-size="21.0" fill="#00B0FF" transform="matrix(1.00, 0.00, -0.00, -1.00, 1.0, 7.0)">a</text><text xml:space="preserve" font-family="SourceCodePro-Semibold" font-weight="bold" font-size="21.0" fill="#00B0FF" transform="matrix(1.00, 0.00, -0.00, -1.00, 13.6, 7.0)">1</text><text xml:space="preserve" font-family="SourceCodePro-Regular" font-size="21.0" fill="#52575F" transform="matrix(1.00, 0.00, -0.00, -1.00, 26.2, 7.0)"> </text><text xml:space="preserve" font-family="SourceCodePro-Regular" font-size="21.0" fill="#52575F" transform="matrix(1.00, 0.00, -0.00, -1.00, 38.8, 7.0)"> </text><text xml:space="preserve" font-family="SourceCodePro-Semibold" font-weight="bold" font-size="21.0" fill="#E82662" transform="matrix(1.00, 0.00, -0.00, -1.00, 51.4, 7.0)">1</text><text xml:space="preserve" font-family="SourceCodePro-Semibold" font-weight="bold" font-size="21.0" fill="#E82662" transform="matrix(1.00, 0.00, -0.00, -1.00, 64.0, 7.0)">3</text><text xml:space="preserve" font-family="SourceCodePro-Semibold" font-weight="bold" font-size="21.0" fill="#E82662" transform="matrix(1.00, 0.00, -0.00, -1.00, 76.6, 7.0)">.</text><text xml:space="preserve" font-family="SourceCodePro-Semibold" font-weight="bold" font-size="21.0" fill="#E82662" transform="matrix(1.00, 0.00, -0.00, -1.00, 89.2, 7.0)">0</text><text xml:space="preserve" font-family="SourceCodePro-Regular" font-size="21.0" fill="#52575F" transform="matrix(1.00, 0.00, -0.00, -1.00, 101.8, 7.0)">,</text><text xml:space="preserve" font-family="SourceCodePro-Regular" font-size="21.0" fill="#52575F" transform="matrix(1.00, 0.00, -0.00, -1.00, 114.4, 7.0)"> </text><text xml:space="preserve" font-family="SourceCodePro-Regular" font-size="21.0" fill="#52575F" transform="matrix(1.00, 0.00, -0.00, -1.00, 127.0, 7.0)"> </text><text xml:space="preserve" font-family="SourceCodePro-Regular" font-size="21.0" fill="#52575F" transform="matrix(1.00, 0.00, -0.00, -1.00, 139.6, 7.0)"> </text><text xml:space="preserve" font-family="SourceCodePro-Regular" font-size="21.0" fill="#52575F" transform="matrix(1.00, 0.00, -0.00, -1.00, 152.2, 7.0)"> </text><text xml:space="preserve" font-family="SourceCodePro-Semibold" font-weight="bold" font-size="21.0" fill="#E82662" transform="matrix(1.00, 0.00, -0.00, -1.00, 164.8, 7.0)"> </text><text xml:space="preserve" font-family="SourceCodePro-Semibold" font-weight="bold" font-size="21.0" fill="#E82662" transform="matrix(1.00, 0.00, -0.00, -1.00, 177.4, 7.0)"> </text><text xml:space="preserve" font-family="SourceCodePro-Semibold" font-weight="bold" font-size="21.0" fill="#E82662" transform="matrix(1.00, 0.00, -0.00, -1.00, 190.0, 7.0)"> </text><text xml:space="preserve" font-family="SourceCodePro-Semibold" font-weight="bold" font-size="21.0" fill="#E82662" transform="matrix(1.00, 0.00, -0.00, -1.00, 202.6, 7.0)"> </text><text xml:space="preserve" font-family="SourceCodePro-Semibold" font-weight="bold" font-size="21.0" fill="#E82662" transform="matrix(1.00, 0.00, -0.00, -1.00, 215.2, 7.0)"> </text><text xml:space="preserve" font-family="SourceCodePro-Semibold" font-weight="bold" font-size="21.0" fill="#E82662" transform="matrix(1.00, 0.00, -0.00, -1.00, 227.8, 7.0)"> </text><text xml:space="preserve" font-family="SourceCodePro-Regular" font-size="21.0" fill="#52575F" transform="matrix(1.00, 0.00, -0.00, -1.00, 240.4, 7.0)"> </text><text xml:space="preserve" font-family="SourceCodePro-Regular" font-size="21.0" fill="#52575F" transform="matrix(1.00, 0.00, -0.00, -1.00, 253.0, 7.0)"> </text><text xml:space="preserve" font-family="SourceCodePro-Regular" font-size="21.0" fill="#52575F" transform="matrix(1.00, 0.00, -0.00, -1.00, 265.6, 7.0)"> </text><text xml:space="preserve" font-family="SourceCodePro-Regular" font-size="21.0" fill="#52575F" transform="matrix(1.00, 0.00, -0.00, -1.00, 278.2, 7.0)"> </text><text xml:space="preserve" font-family="SourceCodePro-Semibold" font-weight="bold" font-size="21.0" fill="#E82662" transform="matrix(1.00, 0.00, -0.00, -1.00, 290.8, 7.0)">1</text><text xml:space="preserve" font-family="SourceCodePro-Semibold" font-weight="bold" font-size="21.0" fill="#E82662" transform="matrix(1.00, 0.00, -0.00, -1.00, 303.4, 7.0)">3</text><text xml:space="preserve" font-family="SourceCodePro-Semibold" font-weight="bold" font-size="21.0" fill="#E82662" transform="matrix(1.00, 0.00, -0.00, -1.00, 316.0, 7.0)">.</text><text xml:space="preserve" font-family="SourceCodePro-Semibold" font-weight="bold" font-size="21.0" fill="#E82662" transform="matrix(1.00, 0.00, -0.00, -1.00, 328.6, 7.0)">5</text><text xml:space="preserve" font-family="SourceCodePro-Semibold" font-weight="bold" font-size="21.0" fill="#E82662" transform="matrix(1.00, 0.00, -0.00, -1.00, 341.2, 7.0)">0</text><text xml:space="preserve" font-family="SourceCodePro-Regular" font-size="21.0" fill="#52575F" transform="matrix(1.00, 0.00, -0.00, -1.00, 353.8, 7.0)">,</text><text xml:space="preserve" font-family="SourceCodePro-Regular" font-size="21.0" fill="#52575F" transform="matrix(1.00, 0.00, -0.00, -1.00, 366.4, 7.0)"> </text><text xml:space="preserve" font-family="SourceCodePro-Regular" font-size="21.0" fill="#52575F" transform="matrix(1.00, 0.00, -0.00, -1.00, 379.0, 7.0)"> </text><text xml:space="preserve" font-family="SourceCodePro-Regular" font-size="21.0" fill="#52575F" transform="matrix(1.00, 0.00, -0.00, -1.00, 391.6, 7.0)"> </text><text xml:space="preserve" font-family="SourceCodePro-Regular" font-size="21.0" fill="#52575F" transform="matrix(1.00, 0.00, -0.00, -1.00, 404.2, 7.0)"> </text><text xml:space="preserve" font-family="SourceCodePro-Regular" font-size="21.0" fill="#52575F" transform="matrix(1.00, 0.00, -0.00, -1.00, 416.8, 7.0)"> </text><text xml:space="preserve" font-family="SourceCodePro-Semibold" font-weight="bold" font-size="21.0" fill="#E82662" transform="matrix(1.00, 0.00, -0.00, -1.00, 429.4, 7.0)"> </text><text xml:space="preserve" font-family="SourceCodePro-Semibold" font-weight="bold" font-size="21.0" fill="#E82662" transform="matrix(1.00, 0.00, -0.00, -1.00, 442.0, 7.0)"> </text><text xml:space="preserve" font-family="SourceCodePro-Semibold" font-weight="bold" font-size="21.0" fill="#E82662" transform="matrix(1.00, 0.00, -0.00, -1.00, 454.6, 7.0)"> </text><text xml:space="preserve" font-family="SourceCodePro-Semibold" font-weight="bold" font-size="21.0" fill="#E82662" transform="matrix(1.00, 0.00, -0.00, -1.00, 467.2, 7.0)"> </text><text xml:space="preserve" font-family="SourceCodePro-Semibold" font-weight="bold" font-size="21.0" fill="#E82662" transform="matrix(1.00, 0.00, -0.00, -1.00, 479.8, 7.0)"> </text><text xml:space="preserve" font-family="SourceCodePro-Semibold" font-weight="bold" font-size="21.0" fill="#E82662" transform="matrix(1.00, 0.00, -0.00, -1.00, 492.4, 7.0)"> </text><text xml:space="preserve" font-family="SourceCodePro-Semibold" font-weight="bold" font-size="21.0" fill="#E82662" transform="matrix(1.00, 0.00, -0.00, -1.00, 505.0, 7.0)"> </text><text xml:space="preserve" font-family="SourceCodePro-Semibold" font-weight="bold" font-size="21.0" fill="#E82662" transform="matrix(1.00, 0.00, -0.00, -1.00, 517.6, 7.0)"> </text><text xml:space="preserve" font-family="SourceCodePro-Semibold" font-weight="bold" font-size="21.0" fill="#E82662" transform="matrix(1.00, 0.00, -0.00, -1.00, 530.2, 7.0)"> </text><text xml:space="preserve" font-family="SourceCodePro-Semibold" font-weight="bold" font-size="21.0" fill="#E82662" transform="matrix(1.00, 0.00, -0.00, -1.00, 542.8, 7.0)"> </text><text xml:space="preserve" font-family="SourceCodePro-Semibold" font-weight="bold" font-size="21.0" fill="#E82662" transform="matrix(1.00, 0.00, -0.00, -1.00, 555.4, 7.0)"> </text><text xml:space="preserve" font-family="SourceCodePro-Semibold" font-weight="bold" font-size="21.0" fill="#E82662" transform="matrix(1.00, 0.00, -0.00, -1.00, 568.0, 7.0)"> </text><text xml:space="preserve" font-family="SourceCodePro-Semibold" font-weight="bold" font-size="21.0" fill="#E82662" transform="matrix(1.00, 0.00, -0.00, -1.00, 580.6, 7.0)"> </text><text xml:space="preserve" font-family="SourceCodePro-Semibold" font-weight="bold" font-size="21.0" fill="#E82662" transform="matrix(1.00, 0.00, -0.00, -1.00, 593.2, 7.0)"> </text><text xml:space="preserve" font-family="SourceCodePro-Semibold" font-weight="bold" font-size="21.0" fill="#E82662" transform="matrix(1.00, 0.00, -0.00, -1.00, 605.8, 7.0)"> </text><text xml:space="preserve" font-family="SourceCodePro-Semibold" font-weight="bold" font-size="21.0" fill="#E82662" transform="matrix(1.00, 0.00, -0.00, -1.00, 618.4, 7.0)"> </text><text xml:space="preserve" font-family="SourceCodePro-Semibold" font-weight="bold" font-size="21.0" fill="#E82662" transform="matrix(1.00, 0.00, -0.00, -1.00, 631.0, 7.0)"> </text><text xml:space="preserve" font-family="SourceCodePro-Semibold" font-weight="bold" font-size="21.0" fill="#E82662" transform="matrix(1.00, 0.00, -0.00, -1.00, 643.6, 7.0)"> </text><text xml:space="preserve" font-family="SourceCodePro-Semibold" font-weight="bold" font-size="21.0" fill="#E82662" transform="matrix(1.00, 0.00, -0.00, -1.00, 656.2, 7.0)"> </text><text xml:space="preserve" font-family="SourceCodePro-Semibold" font-weight="bold" font-size="21.0" fill="#E82662" transform="matrix(1.00, 0.00, -0.00, -1.00, 668.8, 7.0)"> </text><text xml:space="preserve" font-family="SourceCodePro-Semibold" font-weight="bold" font-size="21.0" fill="#E82662" transform="matrix(1.00, 0.00, -0.00, -1.00, 681.4, 7.0)"> </text><text xml:space="preserve" font-family="SourceCodePro-Semibold" font-weight="bold" font-size="21.0" fill="#E82662" transform="matrix(1.00, 0.00, -0.00, -1.00, 694.0, 7.0)"> </text><text xml:space="preserve" font-family="SourceCodePro-Semibold" font-weight="bold" font-size="21.0" fill="#E82662" transform="matrix(1.00, 0.00, -0.00, -1.00, 706.6, 7.0)"> </text><text xml:space="preserve" font-family="SourceCodePro-Semibold" font-weight="bold" font-size="21.0" fill="#E82662" transform="matrix(1.00, 0.00, -0.00, -1.00, 719.2, 7.0)"> </text><text xml:space="preserve" font-family="SourceCodePro-Semibold" font-weight="bold" font-size="21.0" fill="#E82662" transform="matrix(1.00, 0.00, -0.00, -1.00, 731.8, 7.0)"> </text><text xml:space="preserve" font-family="SourceCodePro-Semibold" font-weight="bold" font-size="21.0" fill="#E82662" transform="matrix(1.00, 0.00, -0.00, -1.00, 744.4, 7.0)"> </text><text xml:space="preserve" font-family="SourceCodePro-Semibold" font-weight="bold" font-size="21.0" fill="#E82662" transform="matrix(1.00, 0.00, -0.00, -1.00, 757.0, 7.0)"> </text><text xml:space="preserve" font-family="SourceCodePro-Semibold" font-weight="bold" font-size="21.0" fill="#E82662" transform="matrix(1.00, 0.00, -0.00, -1.00, 769.6, 7.0)"> </text><text xml:space="preserve" font-family="SourceCodePro-Semibold" font-weight="bold" font-size="21.0" fill="#E82662" transform="matrix(1.00, 0.00, -0.00, -1.00, 782.2, 7.0)"> </text><text xml:space="preserve" font-family="SourceCodePro-Semibold" font-weight="bold" font-size="21.0" fill="#E82662" transform="matrix(1.00, 0.00, -0.00, -1.00, 794.8, 7.0)"> </text><text xml:space="preserve" font-family="SourceCodePro-Semibold" font-weight="bold" font-size="21.0" fill="#E82662" transform="matrix(1.00, 0.00, -0.00, -1.00, 807.4, 7.0)"> </text><text xml:space="preserve" font-family="SourceCodePro-Semibold" font-weight="bold" font-size="21.0" fill="#E82662" transform="matrix(1.00, 0.00, -0.00, -1.00, 820.0, 7.0)"> </text><text xml:space="preserve" font-family="SourceCodePro-Semibold" font-weight="bold" font-size="21.0" fill="#E82662" transform="matrix(1.00, 0.00, -0.00, -1.00, 832.6, 7.0)"> </text><text xml:space="preserve" font-family="SourceCodePro-Semibold" font-weight="bold" font-size="21.0" fill="#E82662" transform="matrix(1.00, 0.00, -0.00, -1.00, 845.2, 7.0)"> </text><text xml:space="preserve" font-family="SourceCodePro-Semibold" font-weight="bold" font-size="21.0" fill="#E82662" transform="matrix(1.00, 0.00, -0.00, -1.00, 857.8, 7.0)"> </text><text xml:space="preserve" font-family="SourceCodePro-Semibold" font-weight="bold" font-size="21.0" fill="#E82662" transform="matrix(1.00, 0.00, -0.00, -1.00, 870.4, 7.0)"> </text><text xml:space="preserve" font-family="SourceCodePro-Semibold" font-weight="bold" font-size="21.0" fill="#E82662" transform="matrix(1.00, 0.00, -0.00, -1.00, 883.0, 7.0)"> </text><text xml:space="preserve" font-family="SourceCodePro-Semibold" font-weight="bold" font-size="21.0" fill="#E82662" transform="matrix(1.00, 0.00, -0.00, -1.00, 895.6, 7.0)"> </text><text xml:space="preserve" font-family="SourceCodePro-Semibold" font-weight="bold" font-size="21.0" fill="#E82662" transform="matrix(1.00, 0.00, -0.00, -1.00, 908.2, 7.0)"> </text><text xml:space="preserve" font-family="SourceCodePro-Semibold" font-weight="bold" font-size="21.0" fill="#E82662" transform="matrix(1.00, 0.00, -0.00, -1.00, 920.8, 7.0)"> </text><text xml:space="preserve" font-family="SourceCodePro-Semibold" font-weight="bold" font-size="21.0" fill="#E82662" transform="matrix(1.00, 0.00, -0.00, -1.00, 933.4, 7.0)">1</text><text xml:space="preserve" font-family="SourceCodePro-Semibold" font-weight="bold" font-size="21.0" fill="#E82662" transform="matrix(1.00, 0.00, -0.00, -1.00, 946.0, 7.0)">2</text><text xml:space="preserve" font-family="SourceCodePro-Semibold" font-weight="bold" font-size="21.0" fill="#E82662" transform="matrix(1.00, 0.00, -0.00, -1.00, 958.6, 7.0)">.</text><text xml:space="preserve" font-family="SourceCodePro-Semibold" font-weight="bold" font-size="21.0" fill="#E82662" transform="matrix(1.00, 0.00, -0.00, -1.00, 971.2, 7.0)">0</text></g></svg>