<?xml version="1.0" encoding="UTF-8" standalone="no"?><svg xmlns="http://www.w3.org/2000/svg" xmlns:xlink="http://www.w3.org/1999/xlink" clip-rule="evenodd" stroke-miterlimit="4.00" viewBox="0 0 979 24"><desc>SVG generated by Keynote</desc><defs></defs><g transform="matrix(1.00, 0.00, -0.00, -1.00, 0.0, 24.0)"><text xml:space="preserve" font-family="SourceCodePro-Regular" font-size="21.0" fill="#52575F" transform="matrix(1.00, 0.00, -0.00, -1.00, -2.0, 6.0)">(</text><text xml:space="preserve" font-family="SourceCodePro-Semibold" font-weight="bold" font-size="21.0" fill="#52575F" transform="matrix(1.00, 0.00, -0.00, -1.00, 10.6, 6.0)">a</text><text xml:space="preserve" font-family="SourceCodePro-Semibold" font-weight="bold" font-size="21.0" fill="#52575F" transform="matrix(1.00, 0.00, -0.00, -1.00, 23.2, 6.0)">1</text><text xml:space="preserve" font-family="SourceCodePro-Regular" font-size="21.0" fill="#52575F" transform="matrix(1.00, 0.00, -0.00, -1.00, 35.8, 6.0)">,</text><text xml:space="preserve" font-family="SourceCodePro-Regular" font-size="21.0" fill="#52575F" transform="matrix(1.00, 0.00, -0.00, -1.00, 48.4, 6.0)"> </text><text xml:space="preserve" font-family="SourceCodePro-Semibold" font-weight="bold" font-size="21.0" fill="#52575F" transform="matrix(1.00, 0.00, -0.00, -1.00, 61.0, 6.0)">1</text><text xml:space="preserve" font-family="SourceCodePro-Semibold" font-weight="bold" font-size="21.0" fill="#52575F" transform="matrix(1.00, 0.00, -0.00, -1.00, 73.6, 6.0)">2</text><text xml:space="preserve" font-family="SourceCodePro-Regular" font-size="21.0" fill="#52575F" transform="matrix(1.00, 0.00, -0.00, -1.00, 86.2, 6.0)">)</text><text xml:space="preserve" font-family="SourceCodePro-Regular" font-size="21.0" fill="#52575F" transform="matrix(1.00, 0.00, -0.00, -1.00, 98.8, 6.0)">,</text><text xml:space="preserve" font-family="SourceCodePro-Regular" font-size="21.0" fill="#52575F" transform="matrix(1.00, 0.00, -0.00, -1.00, 111.4, 6.0)"> </text><text xml:space="preserve" font-family="SourceCodePro-Regular" font-size="21.0" fill="#52575F" transform="matrix(1.00, 0.00, -0.00, -1.00, 124.0, 6.0)">(</text><text xml:space="preserve" font-family="SourceCodePro-Semibold" font-weight="bold" font-size="21.0" fill="#52575F" transform="matrix(1.00, 0.00, -0.00, -1.00, 136.6, 6.0)">a</text><text xml:space="preserve" font-family="SourceCodePro-Semibold" font-weight="bold" font-size="21.0" fill="#52575F" transform="matrix(1.00, 0.00, -0.00, -1.00, 149.2, 6.0)">2</text><text xml:space="preserve" font-family="SourceCodePro-Regular" font-size="21.0" fill="#52575F" transform="matrix(1.00, 0.00, -0.00, -1.00, 161.8, 6.0)">,</text><text xml:space="preserve" font-family="SourceCodePro-Regular" font-size="21.0" fill="#52575F" transform="matrix(1.00, 0.00, -0.00, -1.00, 174.4, 6.0)"> </text><text xml:space="preserve" font-family="SourceCodePro-Semibold" font-weight="bold" font-size="21.0" fill="#52575F" transform="matrix(1.00, 0.00, -0.00, -1.00, 187.0, 6.0)">1</text><text xml:space="preserve" font-family="SourceCodePro-Semibold" font-weight="bold" font-size="21.0" fill="#52575F" transform="matrix(1.00, 0.00, -0.00, -1.00, 199.6, 6.0)">5</text><text xml:space="preserve" font-family="SourceCodePro-Regular" font-size="21.0" fill="#52575F" transform="matrix(1.00, 0.00, -0.00, -1.00, 212.2, 6.0)">)</text><text xml:space="preserve" font-family="SourceCodePro-Regular" font-size="21.0" fill="#52575F" transform="matrix(1.00, 0.00, -0.00, -1.00, 224.8, 6.0)">,</text><text xml:space="preserve" font-family="SourceCodePro-Regular" font-size="21.0" fill="#52575F" transform="matrix(1.00, 0.00, -0.00, -1.00, 237.4, 6.0)"> </text><text xml:space="preserve" font-family="SourceCodePro-Regular" font-size="21.0" fill="#52575F" transform="matrix(1.00, 0.00, -0.00, -1.00, 250.0, 6.0)">(</text><text xml:space="preserve" font-family="SourceCodePro-Semibold" font-weight="bold" font-size="21.0" fill="#52575F" transform="matrix(1.00, 0.00, -0.00, -1.00, 262.6, 6.0)">a</text><text xml:space="preserve" font-family="SourceCodePro-Semibold" font-weight="bold" font-size="21.0" fill="#52575F" transform="matrix(1.00, 0.00, -0.00, -1.00, 275.2, 6.0)">1</text><text xml:space="preserve" font-family="SourceCodePro-Regular" font-size="21.0" fill="#52575F" transform="matrix(1.00, 0.00, -0.00, -1.00, 287.8, 6.0)">,</text><text xml:space="preserve" font-family="SourceCodePro-Regular" font-size="21.0" fill="#52575F" transform="matrix(1.00, 0.00, -0.00, -1.00, 300.4, 6.0)"> </text><text xml:space="preserve" font-family="SourceCodePro-Semibold" font-weight="bold" font-size="21.0" fill="#52575F" transform="matrix(1.00, 0.00, -0.00, -1.00, 313.0, 6.0)">1</text><text xml:space="preserve" font-family="SourceCodePro-Semibold" font-weight="bold" font-size="21.0" fill="#52575F" transform="matrix(1.00, 0.00, -0.00, -1.00, 325.6, 6.0)">5</text><text xml:space="preserve" font-family="SourceCodePro-Regular" font-size="21.0" fill="#52575F" transform="matrix(1.00, 0.00, -0.00, -1.00, 338.2, 6.0)">)</text><text xml:space="preserve" font-family="SourceCodePro-Regular" font-size="21.0" fill="#52575F" transform="matrix(1.00, 0.00, -0.00, -1.00, 350.8, 6.0)">,</text><text xml:space="preserve" font-family="SourceCodePro-Regular" font-size="21.0" fill="#52575F" transform="matrix(1.00, 0.00, -0.00, -1.00, 363.4, 6.0)"> </text><text xml:space="preserve" font-family="SourceCodePro-Regular" font-size="21.0" fill="#52575F" transform="matrix(1.00, 0.00, -0.00, -1.00, 376.0, 6.0)">(</text><text xml:space="preserve" font-family="SourceCodePro-Semibold" font-weight="bold" font-size="21.0" fill="#52575F" transform="matrix(1.00, 0.00, -0.00, -1.00, 388.6, 6.0)">a</text><text xml:space="preserve" font-family="SourceCodePro-Semibold" font-weight="bold" font-size="21.0" fill="#52575F" transform="matrix(1.00, 0.00, -0.00, -1.00, 401.2, 6.0)">3</text><text xml:space="preserve" font-family="SourceCodePro-Regular" font-size="21.0" fill="#52575F" transform="matrix(1.00, 0.00, -0.00, -1.00, 413.8, 6.0)">,</text><text xml:space="preserve" font-family="SourceCodePro-Regular" font-size="21.0" fill="#52575F" transform="matrix(1.00, 0.00, -0.00, -1.00, 426.4, 6.0)"> </text><text xml:space="preserve" font-family="SourceCodePro-Semibold" font-weight="bold" font-size="21.0" fill="#52575F" transform="matrix(1.00, 0.00, -0.00, -1.00, 439.0, 6.0)">1</text><text xml:space="preserve" font-family="SourceCodePro-Semibold" font-weight="bold" font-size="21.0" fill="#52575F" transform="matrix(1.00, 0.00, -0.00, -1.00, 451.6, 6.0)">8</text><text xml:space="preserve" font-family="SourceCodePro-Regular" font-size="21.0" fill="#52575F" transform="matrix(1.00, 0.00, -0.00, -1.00, 464.2, 6.0)">)</text><text xml:space="preserve" font-family="SourceCodePro-Regular" font-size="21.0" fill="#52575F" transform="matrix(1.00, 0.00, -0.00, -1.00, 476.8, 6.0)">,</text><text xml:space="preserve" font-family="SourceCodePro-Regular" font-size="21.0" fill="#52575F" transform="matrix(1.00, 0.00, -0.00, -1.00, 489.4, 6.0)"> </text><text xml:space="preserve" font-family="SourceCodePro-Regular" font-size="21.0" fill="#52575F" transform="matrix(1.00, 0.00, -0.00, -1.00, 502.0, 6.0)">(</text><text xml:space="preserve" font-family="SourceCodePro-Semibold" font-weight="bold" font-size="21.0" fill="#52575F" transform="matrix(1.00, 0.00, -0.00, -1.00, 514.6, 6.0)">a</text><text xml:space="preserve" font-family="SourceCodePro-Semibold" font-weight="bold" font-size="21.0" fill="#52575F" transform="matrix(1.00, 0.00, -0.00, -1.00, 527.2, 6.0)">3</text><text xml:space="preserve" font-family="SourceCodePro-Regular" font-size="21.0" fill="#52575F" transform="matrix(1.00, 0.00, -0.00, -1.00, 539.8, 6.0)">,</text><text xml:space="preserve" font-family="SourceCodePro-Regular" font-size="21.0" fill="#52575F" transform="matrix(1.00, 0.00, -0.00, -1.00, 552.4, 6.0)"> </text><text xml:space="preserve" font-family="SourceCodePro-Semibold" font-weight="bold" font-size="21.0" fill="#52575F" transform="matrix(1.00, 0.00, -0.00, -1.00, 565.0, 6.0)">1</text><text xml:space="preserve" font-family="SourceCodePro-Semibold" font-weight="bold" font-size="21.0" fill="#52575F" transform="matrix(1.00, 0.00, -0.00, -1.00, 577.6, 6.0)">8</text><text xml:space="preserve" font-family="SourceCodePro-Regular" font-size="21.0" fill="#52575F" transform="matrix(1.00, 0.00, -0.00, -1.00, 590.2, 6.0)">)</text><text xml:space="preserve" font-family="SourceCodePro-Regular" font-size="21.0" fill="#52575F" transform="matrix(1.00, 0.00, -0.00, -1.00, 602.8, 6.0)">,</text><text xml:space="preserve" font-family="SourceCodePro-Regular" font-size="21.0" fill="#52575F" transform="matrix(1.00, 0.00, -0.00, -1.00, 615.4, 6.0)"> </text><text xml:space="preserve" font-family="SourceCodePro-Regular" font-size="21.0" fill="#52575F" transform="matrix(1.00, 0.00, -0.00, -1.00, 628.0, 6.0)">(</text><text xml:space="preserve" font-family="SourceCodePro-Semibold" font-weight="bold" font-size="21.0" fill="#52575F" transform="matrix(1.00, 0.00, -0.00, -1.00, 640.6, 6.0)">a</text><text xml:space="preserve" font-family="SourceCodePro-Semibold" font-weight="bold" font-size="21.0" fill="#52575F" transform="matrix(1.00, 0.00, -0.00, -1.00, 653.2, 6.0)">2</text><text xml:space="preserve" font-family="SourceCodePro-Regular" font-size="21.0" fill="#52575F" transform="matrix(1.00, 0.00, -0.00, -1.00, 665.8, 6.0)">,</text><text xml:space="preserve" font-family="SourceCodePro-Regular" font-size="21.0" fill="#52575F" transform="matrix(1.00, 0.00, -0.00, -1.00, 678.4, 6.0)"> </text><text xml:space="preserve" font-family="SourceCodePro-Semibold" font-weight="bold" font-size="21.0" fill="#52575F" transform="matrix(1.00, 0.00, -0.00, -1.00, 691.0, 6.0)">1</text><text xml:space="preserve" font-family="SourceCodePro-Semibold" font-weight="bold" font-size="21.0" fill="#52575F" transform="matrix(1.00, 0.00, -0.00, -1.00, 703.6, 6.0)">1</text><text xml:space="preserve" font-family="SourceCodePro-Regular" font-size="21.0" fill="#52575F" transform="matrix(1.00, 0.00, -0.00, -1.00, 716.2, 6.0)">)</text><text xml:space="preserve" font-family="SourceCodePro-Regular" font-size="21.0" fill="#52575F" transform="matrix(1.00, 0.00, -0.00, -1.00, 728.8, 6.0)">,</text><text xml:space="preserve" font-family="SourceCodePro-Regular" font-size="21.0" fill="#52575F" transform="matrix(1.00, 0.00, -0.00, -1.00, 741.4, 6.0)"> </text><text xml:space="preserve" font-family="SourceCodePro-Regular" font-size="21.0" fill="#52575F" transform="matrix(1.00, 0.00, -0.00, -1.00, 754.0, 6.0)">(</text><text xml:space="preserve" font-family="SourceCodePro-Semibold" font-weight="bold" font-size="21.0" fill="#52575F" transform="matrix(1.00, 0.00, -0.00, -1.00, 766.6, 6.0)">a</text><text xml:space="preserve" font-family="SourceCodePro-Semibold" font-weight="bold" font-size="21.0" fill="#52575F" transform="matrix(1.00, 0.00, -0.00, -1.00, 779.2, 6.0)">2</text><text xml:space="preserve" font-family="SourceCodePro-Regular" font-size="21.0" fill="#52575F" transform="matrix(1.00, 0.00, -0.00, -1.00, 791.8, 6.0)">,</text><text xml:space="preserve" font-family="SourceCodePro-Regular" font-size="21.0" fill="#52575F" transform="matrix(1.00, 0.00, -0.00, -1.00, 804.4, 6.0)"> </text><text xml:space="preserve" font-family="SourceCodePro-Semibold" font-weight="bold" font-size="21.0" fill="#52575F" transform="matrix(1.00, 0.00, -0.00, -1.00, 817.0, 6.0)">1</text><text xml:space="preserve" font-family="SourceCodePro-Semibold" font-weight="bold" font-size="21.0" fill="#52575F" transform="matrix(1.00, 0.00, -0.00, -1.00, 829.6, 6.0)">1</text><text xml:space="preserve" font-family="SourceCodePro-Regular" font-size="21.0" fill="#52575F" transform="matrix(1.00, 0.00, -0.00, -1.00, 842.2, 6.0)">)</text><text xml:space="preserve" font-family="SourceCodePro-Regular" font-size="21.0" fill="#52575F" transform="matrix(1.00, 0.00, -0.00, -1.00, 854.8, 6.0)">,</text><text xml:space="preserve" font-family="SourceCodePro-Regular" font-size="21.0" fill="#52575F" transform="matrix(1.00, 0.00, -0.00, -1.00, 867.4, 6.0)"> </text><text xml:space="preserve" font-family="SourceCodePro-Regular" font-size="21.0" fill="#52575F" transform="matrix(1.00, 0.00, -0.00, -1.00, 880.0, 6.0)">(</text><text xml:space="preserve" font-family="SourceCodePro-Semibold" font-weight="bold" font-size="21.0" fill="#52575F" transform="matrix(1.00, 0.00, -0.00, -1.00, 892.6, 6.0)">a</text><text xml:space="preserve" font-family="SourceCodePro-Semibold" font-weight="bold" font-size="21.0" fill="#52575F" transform="matrix(1.00, 0.00, -0.00, -1.00, 905.2, 6.0)">1</text><text xml:space="preserve" font-family="SourceCodePro-Regular" font-size="21.0" fill="#52575F" transform="matrix(1.00, 0.00, -0.00, -1.00, 917.8, 6.0)">,</text><text xml:space="preserve" font-family="SourceCodePro-Regular" font-size="21.0" fill="#52575F" transform="matrix(1.00, 0.00, -0.00, -1.00, 930.4, 6.0)"> </text><text xml:space="preserve" font-family="SourceCodePro-Semibold" font-weight="bold" font-size="21.0" fill="#52575F" transform="matrix(1.00, 0.00, -0.00, -1.00, 943.0, 6.0)">1</text><text xml:space="preserve" font-family="SourceCodePro-Semibold" font-weight="bold" font-size="21.0" fill="#52575F" transform="matrix(1.00, 0.00, -0.00, -1.00, 955.6, 6.0)">2</text><text xml:space="preserve" font-family="SourceCodePro-Regular" font-size="21.0" fill="#52575F" transform="matrix(1.00, 0.00, -0.00, -1.00, 968.2, 6.0)">)</text></g></svg>