<?xml version="1.0" encoding="UTF-8" standalone="no"?><svg xmlns="http://www.w3.org/2000/svg" xmlns:xlink="http://www.w3.org/1999/xlink" clip-rule="evenodd" stroke-miterlimit="4.00" viewBox="0 0 374 43"><desc>SVG generated by Keynote</desc><defs></defs><g transform="matrix(1.00, 0.00, -0.00, -1.00, 0.0, 43.0)"><text xml:space="preserve" font-family="Raleway-ExtraLight" font-size="41.0" fill="#52575F" transform="matrix(1.00, 0.00, -0.00, -1.00, 0.0, 11.0)">(</text><text xml:space="preserve" font-family="Raleway-ExtraLight" font-size="41.0" fill="#52575F" transform="matrix(1.00, 0.00, -0.00, -1.00, 10.1, 11.0)"> </text><text xml:space="preserve" font-family="Raleway-ExtraLight" font-size="41.0" fill="#52575F" transform="matrix(1.00, 0.00, -0.00, -1.00, 21.0, 11.0)">a</text><text xml:space="preserve" font-family="Raleway-ExtraLight" font-size="41.0" fill="#52575F" transform="matrix(1.00, 0.00, -0.00, -1.00, 42.8, 11.0)">r</text><text xml:space="preserve" font-family="Raleway-ExtraLight" font-size="41.0" fill="#52575F" transform="matrix(1.00, 0.00, -0.00, -1.00, 56.5, 11.0)">e</text><text xml:space="preserve" font-family="Raleway-ExtraLight" font-size="41.0" fill="#52575F" transform="matrix(1.00, 0.00, -0.00, -1.00, 80.3, 11.0)">a</text><text xml:space="preserve" font-family="Raleway-ExtraLight" font-size="41.0" fill="#52575F" transform="matrix(1.00, 0.00, -0.00, -1.00, 102.1, 11.0)">,</text><text xml:space="preserve" font-family="Raleway-ExtraLight" font-size="41.0" fill="#52575F" transform="matrix(1.00, 0.00, -0.00, -1.00, 109.8, 11.0)"> </text><text xml:space="preserve" font-family="Raleway-ExtraLight" font-size="41.0" fill="#52575F" transform="matrix(1.00, 0.00, -0.00, -1.00, 120.7, 11.0)">t</text><text xml:space="preserve" font-family="Raleway-ExtraLight" font-size="41.0" fill="#52575F" transform="matrix(1.00, 0.00, -0.00, -1.00, 133.2, 11.0)">e</text><text xml:space="preserve" font-family="Raleway-ExtraLight" font-size="41.0" fill="#52575F" transform="matrix(1.00, 0.00, -0.00, -1.00, 157.1, 11.0)">m</text><text xml:space="preserve" font-family="Raleway-ExtraLight" font-size="41.0" fill="#52575F" transform="matrix(1.00, 0.00, -0.00, -1.00, 194.3, 11.0)">p</text><text xml:space="preserve" font-family="Raleway-ExtraLight" font-size="41.0" fill="#52575F" transform="matrix(1.00, 0.00, -0.00, -1.00, 219.2, 11.0)">e</text><text xml:space="preserve" font-family="Raleway-ExtraLight" font-size="41.0" fill="#52575F" transform="matrix(1.00, 0.00, -0.00, -1.00, 243.0, 11.0)">r</text><text xml:space="preserve" font-family="Raleway-ExtraLight" font-size="41.0" fill="#52575F" transform="matrix(1.00, 0.00, -0.00, -1.00, 256.2, 11.0)">a</text><text xml:space="preserve" font-family="Raleway-ExtraLight" font-size="41.0" fill="#52575F" transform="matrix(1.00, 0.00, -0.00, -1.00, 277.8, 11.0)">t</text><text xml:space="preserve" font-family="Raleway-ExtraLight" font-size="41.0" fill="#52575F" transform="matrix(1.00, 0.00, -0.00, -1.00, 290.3, 11.0)">u</text><text xml:space="preserve" font-family="Raleway-ExtraLight" font-size="41.0" fill="#52575F" transform="matrix(1.00, 0.00, -0.00, -1.00, 314.1, 11.0)">r</text><text xml:space="preserve" font-family="Raleway-ExtraLight" font-size="41.0" fill="#52575F" transform="matrix(1.00, 0.00, -0.00, -1.00, 327.8, 11.0)">e</text><text xml:space="preserve" font-family="Raleway-ExtraLight" font-size="41.0" fill="#52575F" transform="matrix(1.00, 0.00, -0.00, -1.00, 351.6, 11.0)"> </text><text xml:space="preserve" font-family="Raleway-ExtraLight" font-size="41.0" fill="#52575F" transform="matrix(1.00, 0.00, -0.00, -1.00, 362.4, 11.0)">)</text></g></svg>