<?xml version="1.0" encoding="UTF-8" standalone="no"?><svg xmlns="http://www.w3.org/2000/svg" xmlns:xlink="http://www.w3.org/1999/xlink" clip-rule="evenodd" stroke-miterlimit="4.00" viewBox="0 0 1024 768"><desc>SVG generated by Keynote</desc><defs></defs><g transform="matrix(1.00, 0.00, -0.00, -1.00, 0.0, 768.0)"><path d="M 0.0 768.0 L 1024.0 768.0 L 1024.0 0.0 L 0.0 0.0 Z M 0.0 768.0 " fill="#FEFFFF"></path><text xml:space="preserve" font-family="SourceCodePro-Regular" font-size="12.0" fill="#747474" transform="matrix(1.00, 0.00, -0.00, -1.00, 19.0, 19.0)">L</text><text xml:space="preserve" font-family="SourceCodePro-Regular" font-size="12.0" fill="#747474" transform="matrix(1.00, 0.00, -0.00, -1.00, 26.2, 19.0)">o</text><text xml:space="preserve" font-family="SourceCodePro-Regular" font-size="12.0" fill="#747474" transform="matrix(1.00, 0.00, -0.00, -1.00, 33.4, 19.0)">r</text><text xml:space="preserve" font-family="SourceCodePro-Regular" font-size="12.0" fill="#747474" transform="matrix(1.00, 0.00, -0.00, -1.00, 40.6, 19.0)">e</text><text xml:space="preserve" font-family="SourceCodePro-Regular" font-size="12.0" fill="#747474" transform="matrix(1.00, 0.00, -0.00, -1.00, 47.8, 19.0)">n</text><text xml:space="preserve" font-family="SourceCodePro-Regular" font-size="12.0" fill="#747474" transform="matrix(1.00, 0.00, -0.00, -1.00, 55.0, 19.0)">z</text><text xml:space="preserve" font-family="SourceCodePro-Regular" font-size="12.0" fill="#747474" transform="matrix(1.00, 0.00, -0.00, -1.00, 62.2, 19.0)">o</text><text xml:space="preserve" font-family="SourceCodePro-Regular" font-size="12.0" fill="#747474" transform="matrix(1.00, 0.00, -0.00, -1.00, 69.4, 19.0)"> </text><text xml:space="preserve" font-family="SourceCodePro-Regular" font-size="12.0" fill="#747474" transform="matrix(1.00, 0.00, -0.00, -1.00, 76.6, 19.0)">A</text><text xml:space="preserve" font-family="SourceCodePro-Regular" font-size="12.0" fill="#747474" transform="matrix(1.00, 0.00, -0.00, -1.00, 83.8, 19.0)">f</text><text xml:space="preserve" font-family="SourceCodePro-Regular" font-size="12.0" fill="#747474" transform="matrix(1.00, 0.00, -0.00, -1.00, 91.0, 19.0)">f</text><text xml:space="preserve" font-family="SourceCodePro-Regular" font-size="12.0" fill="#747474" transform="matrix(1.00, 0.00, -0.00, -1.00, 98.2, 19.0)">e</text><text xml:space="preserve" font-family="SourceCodePro-Regular" font-size="12.0" fill="#747474" transform="matrix(1.00, 0.00, -0.00, -1.00, 105.4, 19.0)">t</text><text xml:space="preserve" font-family="SourceCodePro-Regular" font-size="12.0" fill="#747474" transform="matrix(1.00, 0.00, -0.00, -1.00, 112.6, 19.0)">t</text><text xml:space="preserve" font-family="SourceCodePro-Regular" font-size="12.0" fill="#747474" transform="matrix(1.00, 0.00, -0.00, -1.00, 119.8, 19.0)">i</text><text xml:space="preserve" font-family="SourceCodePro-Regular" font-size="12.0" fill="#747474" transform="matrix(1.00, 0.00, -0.00, -1.00, 127.0, 19.0)"> </text><text xml:space="preserve" font-family="SourceCodePro-Regular" font-size="12.0" fill="#747474" transform="matrix(1.00, 0.00, -0.00, -1.00, 134.2, 19.0)">(</text><text xml:space="preserve" font-family="SourceCodePro-Regular" font-size="12.0" fill="#747474" transform="matrix(1.00, 0.00, -0.00, -1.00, 141.4, 19.0)">l</text><text xml:space="preserve" font-family="SourceCodePro-Regular" font-size="12.0" fill="#747474" transform="matrix(1.00, 0.00, -0.00, -1.00, 148.6, 19.0)">o</text><text xml:space="preserve" font-family="SourceCodePro-Regular" font-size="12.0" fill="#747474" transform="matrix(1.00, 0.00, -0.00, -1.00, 155.8, 19.0)">r</text><text xml:space="preserve" font-family="SourceCodePro-Regular" font-size="12.0" fill="#747474" transform="matrix(1.00, 0.00, -0.00, -1.00, 163.0, 19.0)">e</text><text xml:space="preserve" font-family="SourceCodePro-Regular" font-size="12.0" fill="#747474" transform="matrix(1.00, 0.00, -0.00, -1.00, 170.2, 19.0)">n</text><text xml:space="preserve" font-family="SourceCodePro-Regular" font-size="12.0" fill="#747474" transform="matrix(1.00, 0.00, -0.00, -1.00, 177.4, 19.0)">z</text><text xml:space="preserve" font-family="SourceCodePro-Regular" font-size="12.0" fill="#747474" transform="matrix(1.00, 0.00, -0.00, -1.00, 184.6, 19.0)">o</text><text xml:space="preserve" font-family="SourceCodePro-Regular" font-size="12.0" fill="#747474" transform="matrix(1.00, 0.00, -0.00, -1.00, 191.8, 19.0)">.</text><text xml:space="preserve" font-family="SourceCodePro-Regular" font-size="12.0" fill="#747474" transform="matrix(1.00, 0.00, -0.00, -1.00, 199.0, 19.0)">a</text><text xml:space="preserve" font-family="SourceCodePro-Regular" font-size="12.0" fill="#747474" transform="matrix(1.00, 0.00, -0.00, -1.00, 206.2, 19.0)">f</text><text xml:space="preserve" font-family="SourceCodePro-Regular" font-size="12.0" fill="#747474" transform="matrix(1.00, 0.00, -0.00, -1.00, 213.4, 19.0)">f</text><text xml:space="preserve" font-family="SourceCodePro-Regular" font-size="12.0" fill="#747474" transform="matrix(1.00, 0.00, -0.00, -1.00, 220.6, 19.0)">e</text><text xml:space="preserve" font-family="SourceCodePro-Regular" font-size="12.0" fill="#747474" transform="matrix(1.00, 0.00, -0.00, -1.00, 227.8, 19.0)">t</text><text xml:space="preserve" font-family="SourceCodePro-Regular" font-size="12.0" fill="#747474" transform="matrix(1.00, 0.00, -0.00, -1.00, 235.0, 19.0)">t</text><text xml:space="preserve" font-family="SourceCodePro-Regular" font-size="12.0" fill="#747474" transform="matrix(1.00, 0.00, -0.00, -1.00, 242.2, 19.0)">i</text><text xml:space="preserve" font-family="SourceCodePro-Regular" font-size="12.0" fill="#747474" transform="matrix(1.00, 0.00, -0.00, -1.00, 249.4, 19.0)">@</text><text xml:space="preserve" font-family="SourceCodePro-Regular" font-size="12.0" fill="#747474" transform="matrix(1.00, 0.00, -0.00, -1.00, 256.6, 19.0)">p</text><text xml:space="preserve" font-family="SourceCodePro-Regular" font-size="12.0" fill="#747474" transform="matrix(1.00, 0.00, -0.00, -1.00, 263.8, 19.0)">o</text><text xml:space="preserve" font-family="SourceCodePro-Regular" font-size="12.0" fill="#747474" transform="matrix(1.00, 0.00, -0.00, -1.00, 271.0, 19.0)">l</text><text xml:space="preserve" font-family="SourceCodePro-Regular" font-size="12.0" fill="#747474" transform="matrix(1.00, 0.00, -0.00, -1.00, 278.2, 19.0)">i</text><text xml:space="preserve" font-family="SourceCodePro-Regular" font-size="12.0" fill="#747474" transform="matrix(1.00, 0.00, -0.00, -1.00, 285.4, 19.0)">m</text><text xml:space="preserve" font-family="SourceCodePro-Regular" font-size="12.0" fill="#747474" transform="matrix(1.00, 0.00, -0.00, -1.00, 292.6, 19.0)">i</text><text xml:space="preserve" font-family="SourceCodePro-Regular" font-size="12.0" fill="#747474" transform="matrix(1.00, 0.00, -0.00, -1.00, 299.8, 19.0)">.</text><text xml:space="preserve" font-family="SourceCodePro-Regular" font-size="12.0" fill="#747474" transform="matrix(1.00, 0.00, -0.00, -1.00, 307.0, 19.0)">i</text><text xml:space="preserve" font-family="SourceCodePro-Regular" font-size="12.0" fill="#747474" transform="matrix(1.00, 0.00, -0.00, -1.00, 314.2, 19.0)">t</text><text xml:space="preserve" font-family="SourceCodePro-Regular" font-size="12.0" fill="#747474" transform="matrix(1.00, 0.00, -0.00, -1.00, 321.4, 19.0)">)</text><text xml:space="preserve" font-family="SourceCodePro-Regular" font-size="12.0" fill="#747474" transform="matrix(1.00, 0.00, -0.00, -1.00, 328.6, 19.0)"> </text><text xml:space="preserve" font-family="SourceCodePro-Regular" font-size="12.0" fill="#747474" transform="matrix(1.00, 0.00, -0.00, -1.00, 335.8, 19.0)">-</text><text xml:space="preserve" font-family="SourceCodePro-Regular" font-size="12.0" fill="#747474" transform="matrix(1.00, 0.00, -0.00, -1.00, 343.0, 19.0)"> </text><text xml:space="preserve" font-family="SourceCodePro-Regular" font-size="12.0" fill="#747474" transform="matrix(1.00, 0.00, -0.00, -1.00, 350.2, 19.0)">P</text><text xml:space="preserve" font-family="SourceCodePro-Regular" font-size="12.0" fill="#747474" transform="matrix(1.00, 0.00, -0.00, -1.00, 357.4, 19.0)">o</text><text xml:space="preserve" font-family="SourceCodePro-Regular" font-size="12.0" fill="#747474" transform="matrix(1.00, 0.00, -0.00, -1.00, 364.6, 19.0)">l</text><text xml:space="preserve" font-family="SourceCodePro-Regular" font-size="12.0" fill="#747474" transform="matrix(1.00, 0.00, -0.00, -1.00, 371.8, 19.0)">i</text><text xml:space="preserve" font-family="SourceCodePro-Regular" font-size="12.0" fill="#747474" transform="matrix(1.00, 0.00, -0.00, -1.00, 379.0, 19.0)">t</text><text xml:space="preserve" font-family="SourceCodePro-Regular" font-size="12.0" fill="#747474" transform="matrix(1.00, 0.00, -0.00, -1.00, 386.2, 19.0)">e</text><text xml:space="preserve" font-family="SourceCodePro-Regular" font-size="12.0" fill="#747474" transform="matrix(1.00, 0.00, -0.00, -1.00, 393.4, 19.0)">c</text><text xml:space="preserve" font-family="SourceCodePro-Regular" font-size="12.0" fill="#747474" transform="matrix(1.00, 0.00, -0.00, -1.00, 400.6, 19.0)">n</text><text xml:space="preserve" font-family="SourceCodePro-Regular" font-size="12.0" fill="#747474" transform="matrix(1.00, 0.00, -0.00, -1.00, 407.8, 19.0)">i</text><text xml:space="preserve" font-family="SourceCodePro-Regular" font-size="12.0" fill="#747474" transform="matrix(1.00, 0.00, -0.00, -1.00, 415.0, 19.0)">c</text><text xml:space="preserve" font-family="SourceCodePro-Regular" font-size="12.0" fill="#747474" transform="matrix(1.00, 0.00, -0.00, -1.00, 422.2, 19.0)">o</text><text xml:space="preserve" font-family="SourceCodePro-Regular" font-size="12.0" fill="#747474" transform="matrix(1.00, 0.00, -0.00, -1.00, 429.4, 19.0)"> </text><text xml:space="preserve" font-family="SourceCodePro-Regular" font-size="12.0" fill="#747474" transform="matrix(1.00, 0.00, -0.00, -1.00, 436.6, 19.0)">d</text><text xml:space="preserve" font-family="SourceCodePro-Regular" font-size="12.0" fill="#747474" transform="matrix(1.00, 0.00, -0.00, -1.00, 443.8, 19.0)">i</text><text xml:space="preserve" font-family="SourceCodePro-Regular" font-size="12.0" fill="#747474" transform="matrix(1.00, 0.00, -0.00, -1.00, 451.0, 19.0)"> </text><text xml:space="preserve" font-family="SourceCodePro-Regular" font-size="12.0" fill="#747474" transform="matrix(1.00, 0.00, -0.00, -1.00, 458.2, 19.0)">M</text><text xml:space="preserve" font-family="SourceCodePro-Regular" font-size="12.0" fill="#747474" transform="matrix(1.00, 0.00, -0.00, -1.00, 465.4, 19.0)">i</text><text xml:space="preserve" font-family="SourceCodePro-Regular" font-size="12.0" fill="#747474" transform="matrix(1.00, 0.00, -0.00, -1.00, 472.6, 19.0)">l</text><text xml:space="preserve" font-family="SourceCodePro-Regular" font-size="12.0" fill="#747474" transform="matrix(1.00, 0.00, -0.00, -1.00, 479.8, 19.0)">a</text><text xml:space="preserve" font-family="SourceCodePro-Regular" font-size="12.0" fill="#747474" transform="matrix(1.00, 0.00, -0.00, -1.00, 487.0, 19.0)">n</text><text xml:space="preserve" font-family="SourceCodePro-Regular" font-size="12.0" fill="#747474" transform="matrix(1.00, 0.00, -0.00, -1.00, 494.2, 19.0)">o</text><text xml:space="preserve" font-family="SourceCodePro-Regular" font-size="12.0" fill="#747474" transform="matrix(1.00, 0.00, -0.00, -1.00, 501.4, 19.0)">,</text><text xml:space="preserve" font-family="SourceCodePro-Regular" font-size="12.0" fill="#747474" transform="matrix(1.00, 0.00, -0.00, -1.00, 508.6, 19.0)"> </text><text xml:space="preserve" font-family="SourceCodePro-Regular" font-size="12.0" fill="#747474" transform="matrix(1.00, 0.00, -0.00, -1.00, 515.8, 19.0)">D</text><text xml:space="preserve" font-family="SourceCodePro-Regular" font-size="12.0" fill="#747474" transform="matrix(1.00, 0.00, -0.00, -1.00, 523.0, 19.0)">E</text><text xml:space="preserve" font-family="SourceCodePro-Regular" font-size="12.0" fill="#747474" transform="matrix(1.00, 0.00, -0.00, -1.00, 530.2, 19.0)">I</text><text xml:space="preserve" font-family="SourceCodePro-Regular" font-size="12.0" fill="#747474" transform="matrix(1.00, 0.00, -0.00, -1.00, 537.4, 19.0)">B</text><g><clipPath id="clip-101"><path d="M 140.8 16.1 L 321.8 16.1 L 321.8 18.7 L 140.8 18.7 Z M 140.8 16.1 "></path></clipPath><g clip-path="url(#clip-101)"><path d="M 126.9 17.1 L 306.9 17.1 " fill="none" stroke="#747474" stroke-width="0.60" stroke-miterlimit="0.00" transform="matrix(1.00, 0.00, 0.00, -1.00, 14.9, 34.5)"></path></g></g><text xml:space="preserve" font-family="Lora-Bold" font-weight="bold" font-size="80.0" fill="#212121" transform="matrix(1.00, 0.00, -0.00, -1.00, 268.0, 648.0)">A</text><text xml:space="preserve" font-family="Lora-Bold" font-weight="bold" font-size="80.0" fill="#212121" transform="matrix(1.00, 0.00, -0.00, -1.00, 321.0, 648.0)">r</text><text xml:space="preserve" font-family="Lora-Bold" font-weight="bold" font-size="80.0" fill="#212121" transform="matrix(1.00, 0.00, -0.00, -1.00, 358.9, 648.0)">c</text><text xml:space="preserve" font-family="Lora-Bold" font-weight="bold" font-size="80.0" fill="#212121" transform="matrix(1.00, 0.00, -0.00, -1.00, 400.3, 648.0)">h</text><text xml:space="preserve" font-family="Lora-Bold" font-weight="bold" font-size="80.0" fill="#212121" transform="matrix(1.00, 0.00, -0.00, -1.00, 450.0, 648.0)">i</text><text xml:space="preserve" font-family="Lora-Bold" font-weight="bold" font-size="80.0" fill="#212121" transform="matrix(1.00, 0.00, -0.00, -1.00, 475.9, 648.0)">t</text><text xml:space="preserve" font-family="Lora-Bold" font-weight="bold" font-size="80.0" fill="#212121" transform="matrix(1.00, 0.00, -0.00, -1.00, 508.9, 648.0)">e</text><text xml:space="preserve" font-family="Lora-Bold" font-weight="bold" font-size="80.0" fill="#212121" transform="matrix(1.00, 0.00, -0.00, -1.00, 552.0, 648.0)">c</text><text xml:space="preserve" font-family="Lora-Bold" font-weight="bold" font-size="80.0" fill="#212121" transform="matrix(1.00, 0.00, -0.00, -1.00, 593.4, 648.0)">t</text><text xml:space="preserve" font-family="Lora-Bold" font-weight="bold" font-size="80.0" fill="#212121" transform="matrix(1.00, 0.00, -0.00, -1.00, 626.4, 648.0)">u</text><text xml:space="preserve" font-family="Lora-Bold" font-weight="bold" font-size="80.0" fill="#212121" transform="matrix(1.00, 0.00, -0.00, -1.00, 675.9, 648.0)">r</text><text xml:space="preserve" font-family="Lora-Bold" font-weight="bold" font-size="80.0" fill="#212121" transform="matrix(1.00, 0.00, -0.00, -1.00, 713.8, 648.0)">e</text><text xml:space="preserve" font-family="Helvetica-Light" font-size="18.0" fill="#000000" transform="matrix(1.00, 0.00, -0.00, -1.00, 992.0, 16.0)">1</text><text xml:space="preserve" font-family="Helvetica-Light" font-size="18.0" fill="#000000" transform="matrix(1.00, 0.00, -0.00, -1.00, 1002.0, 16.0)">5</text><path d="M 0.0 0.0 L 476.9 0.0 L 476.9 422.8 L 0.0 422.8 Z M 0.0 0.0 " fill="none" stroke="#A6AAA8" stroke-width="3.00" stroke-dasharray="18.0, 18.0" transform="matrix(1.00, 0.00, 0.00, -1.00, 411.7, 559.1)"></path><g><clipPath id="clip-102"><path d="M 410.1 138.2 L 890.1 138.2 L 890.1 560.6 L 410.1 560.6 Z M 410.1 138.2 "></path></clipPath><g clip-path="url(#clip-102)"><text xml:space="preserve" font-family="SourceCodePro-Regular" font-size="24.0" fill="#747474" transform="matrix(1.00, 0.00, -0.00, -1.00, 695.4, 528.6)">F</text><text xml:space="preserve" font-family="SourceCodePro-Regular" font-size="24.0" fill="#747474" transform="matrix(1.00, 0.00, -0.00, -1.00, 709.8, 528.6)">l</text><text xml:space="preserve" font-family="SourceCodePro-Regular" font-size="24.0" fill="#747474" transform="matrix(1.00, 0.00, -0.00, -1.00, 724.2, 528.6)">i</text><text xml:space="preserve" font-family="SourceCodePro-Regular" font-size="24.0" fill="#747474" transform="matrix(1.00, 0.00, -0.00, -1.00, 738.6, 528.6)">n</text><text xml:space="preserve" font-family="SourceCodePro-Regular" font-size="24.0" fill="#747474" transform="matrix(1.00, 0.00, -0.00, -1.00, 753.0, 528.6)">k</text><text xml:space="preserve" font-family="SourceCodePro-Regular" font-size="24.0" fill="#747474" transform="matrix(1.00, 0.00, -0.00, -1.00, 767.4, 528.6)"> </text><text xml:space="preserve" font-family="SourceCodePro-Regular" font-size="24.0" fill="#747474" transform="matrix(1.00, 0.00, -0.00, -1.00, 781.8, 528.6)">C</text><text xml:space="preserve" font-family="SourceCodePro-Regular" font-size="24.0" fill="#747474" transform="matrix(1.00, 0.00, -0.00, -1.00, 796.2, 528.6)">l</text><text xml:space="preserve" font-family="SourceCodePro-Regular" font-size="24.0" fill="#747474" transform="matrix(1.00, 0.00, -0.00, -1.00, 810.6, 528.6)">u</text><text xml:space="preserve" font-family="SourceCodePro-Regular" font-size="24.0" fill="#747474" transform="matrix(1.00, 0.00, -0.00, -1.00, 825.0, 528.6)">s</text><text xml:space="preserve" font-family="SourceCodePro-Regular" font-size="24.0" fill="#747474" transform="matrix(1.00, 0.00, -0.00, -1.00, 839.4, 528.6)">t</text><text xml:space="preserve" font-family="SourceCodePro-Regular" font-size="24.0" fill="#747474" transform="matrix(1.00, 0.00, -0.00, -1.00, 853.8, 528.6)">e</text><text xml:space="preserve" font-family="SourceCodePro-Regular" font-size="24.0" fill="#747474" transform="matrix(1.00, 0.00, -0.00, -1.00, 868.2, 528.6)">r</text></g></g><path d="M 0.0 0.0 L 192.4 0.0 L 192.4 162.0 L 0.0 162.0 Z M 0.0 0.0 " fill="none" stroke="#616060" stroke-width="3.00" transform="matrix(1.00, 0.00, 0.00, -1.00, 133.9, 428.7)"></path><g><clipPath id="clip-103"><path d="M 131.7 268.6 L 328.5 268.6 L 328.5 430.8 L 131.7 430.8 Z M 131.7 268.6 "></path></clipPath><g clip-path="url(#clip-103)"><text xml:space="preserve" font-family="SourceCodePro-Semibold" font-weight="bold" font-size="26.0" fill="#616060" transform="matrix(1.00, 0.00, -0.00, -1.00, 168.0, 397.0)">M</text><text xml:space="preserve" font-family="SourceCodePro-Semibold" font-weight="bold" font-size="26.0" fill="#616060" transform="matrix(1.00, 0.00, -0.00, -1.00, 183.6, 397.0)">y</text><text xml:space="preserve" font-family="SourceCodePro-Semibold" font-weight="bold" font-size="26.0" fill="#616060" transform="matrix(1.00, 0.00, -0.00, -1.00, 199.2, 397.0)">L</text><text xml:space="preserve" font-family="SourceCodePro-Semibold" font-weight="bold" font-size="26.0" fill="#616060" transform="matrix(1.00, 0.00, -0.00, -1.00, 214.8, 397.0)">a</text><text xml:space="preserve" font-family="SourceCodePro-Semibold" font-weight="bold" font-size="26.0" fill="#616060" transform="matrix(1.00, 0.00, -0.00, -1.00, 230.4, 397.0)">p</text><text xml:space="preserve" font-family="SourceCodePro-Semibold" font-weight="bold" font-size="26.0" fill="#616060" transform="matrix(1.00, 0.00, -0.00, -1.00, 246.0, 397.0)">t</text><text xml:space="preserve" font-family="SourceCodePro-Semibold" font-weight="bold" font-size="26.0" fill="#616060" transform="matrix(1.00, 0.00, -0.00, -1.00, 261.6, 397.0)">o</text><text xml:space="preserve" font-family="SourceCodePro-Semibold" font-weight="bold" font-size="26.0" fill="#616060" transform="matrix(1.00, 0.00, -0.00, -1.00, 277.2, 397.0)">p</text></g></g><path d="M 153.8 375.2 L 306.5 375.2 L 306.5 283.9 L 153.8 283.9 Z M 153.8 375.2 " fill="#00C752"></path><g><clipPath id="clip-104"><path d="M 149.3 283.9 L 311.0 283.9 L 311.0 375.2 L 149.3 375.2 Z M 149.3 283.9 "></path></clipPath><g clip-path="url(#clip-104)"><text xml:space="preserve" font-family="SourceCodePro-Semibold" font-weight="bold" font-size="27.0" fill="#FEFFFE" transform="matrix(1.00, 0.00, -0.00, -1.00, 190.0, 337.0)">F</text><text xml:space="preserve" font-family="SourceCodePro-Semibold" font-weight="bold" font-size="27.0" fill="#FEFFFE" transform="matrix(1.00, 0.00, -0.00, -1.00, 206.2, 337.0)">l</text><text xml:space="preserve" font-family="SourceCodePro-Semibold" font-weight="bold" font-size="27.0" fill="#FEFFFE" transform="matrix(1.00, 0.00, -0.00, -1.00, 222.4, 337.0)">i</text><text xml:space="preserve" font-family="SourceCodePro-Semibold" font-weight="bold" font-size="27.0" fill="#FEFFFE" transform="matrix(1.00, 0.00, -0.00, -1.00, 238.6, 337.0)">n</text><text xml:space="preserve" font-family="SourceCodePro-Semibold" font-weight="bold" font-size="27.0" fill="#FEFFFE" transform="matrix(1.00, 0.00, -0.00, -1.00, 254.8, 337.0)">k</text><text xml:space="preserve" font-family="SourceCodePro-Semibold" font-weight="bold" font-size="27.0" fill="#FEFFFE" transform="matrix(1.00, 0.00, -0.00, -1.00, 271.0, 337.0)"> </text><text xml:space="preserve" font-family="SourceCodePro-Semibold" font-weight="bold" font-size="27.0" fill="#FEFFFE" transform="matrix(1.00, 0.00, -0.00, -1.00, 173.0, 303.0)">P</text><text xml:space="preserve" font-family="SourceCodePro-Semibold" font-weight="bold" font-size="27.0" fill="#FEFFFE" transform="matrix(1.00, 0.00, -0.00, -1.00, 189.2, 303.0)">r</text><text xml:space="preserve" font-family="SourceCodePro-Semibold" font-weight="bold" font-size="27.0" fill="#FEFFFE" transform="matrix(1.00, 0.00, -0.00, -1.00, 205.4, 303.0)">o</text><text xml:space="preserve" font-family="SourceCodePro-Semibold" font-weight="bold" font-size="27.0" fill="#FEFFFE" transform="matrix(1.00, 0.00, -0.00, -1.00, 221.6, 303.0)">g</text><text xml:space="preserve" font-family="SourceCodePro-Semibold" font-weight="bold" font-size="27.0" fill="#FEFFFE" transform="matrix(1.00, 0.00, -0.00, -1.00, 237.8, 303.0)">r</text><text xml:space="preserve" font-family="SourceCodePro-Semibold" font-weight="bold" font-size="27.0" fill="#FEFFFE" transform="matrix(1.00, 0.00, -0.00, -1.00, 254.0, 303.0)">a</text><text xml:space="preserve" font-family="SourceCodePro-Semibold" font-weight="bold" font-size="27.0" fill="#FEFFFE" transform="matrix(1.00, 0.00, -0.00, -1.00, 270.2, 303.0)">m</text></g></g><path d="M 0.0 0.0 L 192.4 0.0 L 192.4 162.0 L 0.0 162.0 Z M 0.0 0.0 " fill="none" stroke="#616060" stroke-width="3.00" transform="matrix(1.00, 0.00, 0.00, -1.00, 445.9, 501.8)"></path><g><clipPath id="clip-105"><path d="M 443.8 341.8 L 640.6 341.8 L 640.6 504.0 L 443.8 504.0 Z M 443.8 341.8 "></path></clipPath><g clip-path="url(#clip-105)"><text xml:space="preserve" font-family="SourceCodePro-Semibold" font-weight="bold" font-size="26.0" fill="#616060" transform="matrix(1.00, 0.00, -0.00, -1.00, 480.0, 470.0)">M</text><text xml:space="preserve" font-family="SourceCodePro-Semibold" font-weight="bold" font-size="26.0" fill="#616060" transform="matrix(1.00, 0.00, -0.00, -1.00, 495.6, 470.0)">a</text><text xml:space="preserve" font-family="SourceCodePro-Semibold" font-weight="bold" font-size="26.0" fill="#616060" transform="matrix(1.00, 0.00, -0.00, -1.00, 511.2, 470.0)">c</text><text xml:space="preserve" font-family="SourceCodePro-Semibold" font-weight="bold" font-size="26.0" fill="#616060" transform="matrix(1.00, 0.00, -0.00, -1.00, 526.8, 470.0)">h</text><text xml:space="preserve" font-family="SourceCodePro-Semibold" font-weight="bold" font-size="26.0" fill="#616060" transform="matrix(1.00, 0.00, -0.00, -1.00, 542.4, 470.0)">i</text><text xml:space="preserve" font-family="SourceCodePro-Semibold" font-weight="bold" font-size="26.0" fill="#616060" transform="matrix(1.00, 0.00, -0.00, -1.00, 558.0, 470.0)">n</text><text xml:space="preserve" font-family="SourceCodePro-Semibold" font-weight="bold" font-size="26.0" fill="#616060" transform="matrix(1.00, 0.00, -0.00, -1.00, 573.6, 470.0)">e</text><text xml:space="preserve" font-family="SourceCodePro-Semibold" font-weight="bold" font-size="26.0" fill="#616060" transform="matrix(1.00, 0.00, -0.00, -1.00, 589.2, 470.0)">0</text></g></g><path d="M 465.8 448.3 L 618.5 448.3 L 618.5 357.0 L 465.8 357.0 Z M 465.8 448.3 " fill="#E82662"></path><g><clipPath id="clip-106"><path d="M 461.3 357.0 L 623.0 357.0 L 623.0 448.3 L 461.3 448.3 Z M 461.3 357.0 "></path></clipPath><g clip-path="url(#clip-106)"><text xml:space="preserve" font-family="SourceCodePro-Semibold" font-weight="bold" font-size="27.0" fill="#FEFFFE" transform="matrix(1.00, 0.00, -0.00, -1.00, 518.0, 410.0)">J</text><text xml:space="preserve" font-family="SourceCodePro-Semibold" font-weight="bold" font-size="27.0" fill="#FEFFFE" transform="matrix(1.00, 0.00, -0.00, -1.00, 534.2, 410.0)">o</text><text xml:space="preserve" font-family="SourceCodePro-Semibold" font-weight="bold" font-size="27.0" fill="#FEFFFE" transform="matrix(1.00, 0.00, -0.00, -1.00, 550.4, 410.0)">b</text><text xml:space="preserve" font-family="SourceCodePro-Semibold" font-weight="bold" font-size="27.0" fill="#FEFFFE" transform="matrix(1.00, 0.00, -0.00, -1.00, 566.6, 410.0)"> </text><text xml:space="preserve" font-family="SourceCodePro-Semibold" font-weight="bold" font-size="27.0" fill="#FEFFFE" transform="matrix(1.00, 0.00, -0.00, -1.00, 485.0, 376.0)">M</text><text xml:space="preserve" font-family="SourceCodePro-Semibold" font-weight="bold" font-size="27.0" fill="#FEFFFE" transform="matrix(1.00, 0.00, -0.00, -1.00, 501.2, 376.0)">a</text><text xml:space="preserve" font-family="SourceCodePro-Semibold" font-weight="bold" font-size="27.0" fill="#FEFFFE" transform="matrix(1.00, 0.00, -0.00, -1.00, 517.4, 376.0)">n</text><text xml:space="preserve" font-family="SourceCodePro-Semibold" font-weight="bold" font-size="27.0" fill="#FEFFFE" transform="matrix(1.00, 0.00, -0.00, -1.00, 533.6, 376.0)">a</text><text xml:space="preserve" font-family="SourceCodePro-Semibold" font-weight="bold" font-size="27.0" fill="#FEFFFE" transform="matrix(1.00, 0.00, -0.00, -1.00, 549.8, 376.0)">g</text><text xml:space="preserve" font-family="SourceCodePro-Semibold" font-weight="bold" font-size="27.0" fill="#FEFFFE" transform="matrix(1.00, 0.00, -0.00, -1.00, 566.0, 376.0)">e</text><text xml:space="preserve" font-family="SourceCodePro-Semibold" font-weight="bold" font-size="27.0" fill="#FEFFFE" transform="matrix(1.00, 0.00, -0.00, -1.00, 582.2, 376.0)">r</text></g></g><path d="M 0.0 0.0 L 192.4 0.0 L 192.4 162.0 L 0.0 162.0 Z M 0.0 0.0 " fill="none" stroke="#616060" stroke-width="3.00" transform="matrix(1.00, 0.00, 0.00, -1.00, 661.9, 501.8)"></path><g><clipPath id="clip-107"><path d="M 659.7 341.8 L 856.5 341.8 L 856.5 504.0 L 659.7 504.0 Z M 659.7 341.8 "></path></clipPath><g clip-path="url(#clip-107)"><text xml:space="preserve" font-family="SourceCodePro-Semibold" font-weight="bold" font-size="26.0" fill="#616060" transform="matrix(1.00, 0.00, -0.00, -1.00, 696.0, 470.0)">M</text><text xml:space="preserve" font-family="SourceCodePro-Semibold" font-weight="bold" font-size="26.0" fill="#616060" transform="matrix(1.00, 0.00, -0.00, -1.00, 711.6, 470.0)">a</text><text xml:space="preserve" font-family="SourceCodePro-Semibold" font-weight="bold" font-size="26.0" fill="#616060" transform="matrix(1.00, 0.00, -0.00, -1.00, 727.2, 470.0)">c</text><text xml:space="preserve" font-family="SourceCodePro-Semibold" font-weight="bold" font-size="26.0" fill="#616060" transform="matrix(1.00, 0.00, -0.00, -1.00, 742.8, 470.0)">h</text><text xml:space="preserve" font-family="SourceCodePro-Semibold" font-weight="bold" font-size="26.0" fill="#616060" transform="matrix(1.00, 0.00, -0.00, -1.00, 758.4, 470.0)">i</text><text xml:space="preserve" font-family="SourceCodePro-Semibold" font-weight="bold" font-size="26.0" fill="#616060" transform="matrix(1.00, 0.00, -0.00, -1.00, 774.0, 470.0)">n</text><text xml:space="preserve" font-family="SourceCodePro-Semibold" font-weight="bold" font-size="26.0" fill="#616060" transform="matrix(1.00, 0.00, -0.00, -1.00, 789.6, 470.0)">e</text><text xml:space="preserve" font-family="SourceCodePro-Semibold" font-weight="bold" font-size="26.0" fill="#616060" transform="matrix(1.00, 0.00, -0.00, -1.00, 805.2, 470.0)">1</text></g></g><path d="M 681.7 448.3 L 834.5 448.3 L 834.5 357.0 L 681.7 357.0 Z M 681.7 448.3 " fill="#2978FF"></path><g><clipPath id="clip-108"><path d="M 677.2 357.0 L 839.0 357.0 L 839.0 448.3 L 677.2 448.3 Z M 677.2 357.0 "></path></clipPath><g clip-path="url(#clip-108)"><text xml:space="preserve" font-family="SourceCodePro-Semibold" font-weight="bold" font-size="27.0" fill="#FEFFFE" transform="matrix(1.00, 0.00, -0.00, -1.00, 726.0, 410.0)">T</text><text xml:space="preserve" font-family="SourceCodePro-Semibold" font-weight="bold" font-size="27.0" fill="#FEFFFE" transform="matrix(1.00, 0.00, -0.00, -1.00, 742.2, 410.0)">a</text><text xml:space="preserve" font-family="SourceCodePro-Semibold" font-weight="bold" font-size="27.0" fill="#FEFFFE" transform="matrix(1.00, 0.00, -0.00, -1.00, 758.4, 410.0)">s</text><text xml:space="preserve" font-family="SourceCodePro-Semibold" font-weight="bold" font-size="27.0" fill="#FEFFFE" transform="matrix(1.00, 0.00, -0.00, -1.00, 774.6, 410.0)">k</text><text xml:space="preserve" font-family="SourceCodePro-Semibold" font-weight="bold" font-size="27.0" fill="#FEFFFE" transform="matrix(1.00, 0.00, -0.00, -1.00, 790.8, 410.0)"> </text><text xml:space="preserve" font-family="SourceCodePro-Semibold" font-weight="bold" font-size="27.0" fill="#FEFFFE" transform="matrix(1.00, 0.00, -0.00, -1.00, 701.0, 376.0)">M</text><text xml:space="preserve" font-family="SourceCodePro-Semibold" font-weight="bold" font-size="27.0" fill="#FEFFFE" transform="matrix(1.00, 0.00, -0.00, -1.00, 717.2, 376.0)">a</text><text xml:space="preserve" font-family="SourceCodePro-Semibold" font-weight="bold" font-size="27.0" fill="#FEFFFE" transform="matrix(1.00, 0.00, -0.00, -1.00, 733.4, 376.0)">n</text><text xml:space="preserve" font-family="SourceCodePro-Semibold" font-weight="bold" font-size="27.0" fill="#FEFFFE" transform="matrix(1.00, 0.00, -0.00, -1.00, 749.6, 376.0)">a</text><text xml:space="preserve" font-family="SourceCodePro-Semibold" font-weight="bold" font-size="27.0" fill="#FEFFFE" transform="matrix(1.00, 0.00, -0.00, -1.00, 765.8, 376.0)">g</text><text xml:space="preserve" font-family="SourceCodePro-Semibold" font-weight="bold" font-size="27.0" fill="#FEFFFE" transform="matrix(1.00, 0.00, -0.00, -1.00, 782.0, 376.0)">e</text><text xml:space="preserve" font-family="SourceCodePro-Semibold" font-weight="bold" font-size="27.0" fill="#FEFFFE" transform="matrix(1.00, 0.00, -0.00, -1.00, 798.2, 376.0)">r</text></g></g><g><clipPath id="clip-109"><path d="M 443.4 157.1 L 640.9 157.1 L 640.9 324.2 L 443.4 324.2 Z M 443.4 157.1 "></path></clipPath><g clip-path="url(#clip-109)"><path d="M 0.0 0.0 L 192.4 0.0 L 192.4 162.0 L 0.0 162.0 Z M 0.0 0.0 " fill="none" stroke="#616060" stroke-width="3.00" transform="matrix(1.00, 0.00, 0.00, -1.00, 445.9, 321.7)"></path></g></g><g><clipPath id="clip-110"><path d="M 443.8 161.6 L 640.6 161.6 L 640.6 323.8 L 443.8 323.8 Z M 443.8 161.6 "></path></clipPath><g clip-path="url(#clip-110)"><text xml:space="preserve" font-family="SourceCodePro-Semibold" font-weight="bold" font-size="26.0" fill="#616060" transform="matrix(1.00, 0.00, -0.00, -1.00, 480.0, 290.0)">M</text><text xml:space="preserve" font-family="SourceCodePro-Semibold" font-weight="bold" font-size="26.0" fill="#616060" transform="matrix(1.00, 0.00, -0.00, -1.00, 495.6, 290.0)">a</text><text xml:space="preserve" font-family="SourceCodePro-Semibold" font-weight="bold" font-size="26.0" fill="#616060" transform="matrix(1.00, 0.00, -0.00, -1.00, 511.2, 290.0)">c</text><text xml:space="preserve" font-family="SourceCodePro-Semibold" font-weight="bold" font-size="26.0" fill="#616060" transform="matrix(1.00, 0.00, -0.00, -1.00, 526.8, 290.0)">h</text><text xml:space="preserve" font-family="SourceCodePro-Semibold" font-weight="bold" font-size="26.0" fill="#616060" transform="matrix(1.00, 0.00, -0.00, -1.00, 542.4, 290.0)">i</text><text xml:space="preserve" font-family="SourceCodePro-Semibold" font-weight="bold" font-size="26.0" fill="#616060" transform="matrix(1.00, 0.00, -0.00, -1.00, 558.0, 290.0)">n</text><text xml:space="preserve" font-family="SourceCodePro-Semibold" font-weight="bold" font-size="26.0" fill="#616060" transform="matrix(1.00, 0.00, -0.00, -1.00, 573.6, 290.0)">e</text><text xml:space="preserve" font-family="SourceCodePro-Semibold" font-weight="bold" font-size="26.0" fill="#616060" transform="matrix(1.00, 0.00, -0.00, -1.00, 589.2, 290.0)">2</text></g></g><g><clipPath id="clip-111"><path d="M 464.8 175.9 L 619.5 175.9 L 619.5 269.2 L 464.8 269.2 Z M 464.8 175.9 "></path></clipPath><g clip-path="url(#clip-111)"><path d="M 465.8 268.2 L 618.5 268.2 L 618.5 176.9 L 465.8 176.9 Z M 465.8 268.2 " fill="#2978FF"></path></g></g><g><clipPath id="clip-112"><path d="M 461.3 176.9 L 623.0 176.9 L 623.0 268.2 L 461.3 268.2 Z M 461.3 176.9 "></path></clipPath><g clip-path="url(#clip-112)"><text xml:space="preserve" font-family="SourceCodePro-Semibold" font-weight="bold" font-size="27.0" fill="#FEFFFE" transform="matrix(1.00, 0.00, -0.00, -1.00, 510.0, 230.0)">T</text><text xml:space="preserve" font-family="SourceCodePro-Semibold" font-weight="bold" font-size="27.0" fill="#FEFFFE" transform="matrix(1.00, 0.00, -0.00, -1.00, 526.2, 230.0)">a</text><text xml:space="preserve" font-family="SourceCodePro-Semibold" font-weight="bold" font-size="27.0" fill="#FEFFFE" transform="matrix(1.00, 0.00, -0.00, -1.00, 542.4, 230.0)">s</text><text xml:space="preserve" font-family="SourceCodePro-Semibold" font-weight="bold" font-size="27.0" fill="#FEFFFE" transform="matrix(1.00, 0.00, -0.00, -1.00, 558.6, 230.0)">k</text><text xml:space="preserve" font-family="SourceCodePro-Semibold" font-weight="bold" font-size="27.0" fill="#FEFFFE" transform="matrix(1.00, 0.00, -0.00, -1.00, 574.8, 230.0)"> </text><text xml:space="preserve" font-family="SourceCodePro-Semibold" font-weight="bold" font-size="27.0" fill="#FEFFFE" transform="matrix(1.00, 0.00, -0.00, -1.00, 485.0, 196.0)">M</text><text xml:space="preserve" font-family="SourceCodePro-Semibold" font-weight="bold" font-size="27.0" fill="#FEFFFE" transform="matrix(1.00, 0.00, -0.00, -1.00, 501.2, 196.0)">a</text><text xml:space="preserve" font-family="SourceCodePro-Semibold" font-weight="bold" font-size="27.0" fill="#FEFFFE" transform="matrix(1.00, 0.00, -0.00, -1.00, 517.4, 196.0)">n</text><text xml:space="preserve" font-family="SourceCodePro-Semibold" font-weight="bold" font-size="27.0" fill="#FEFFFE" transform="matrix(1.00, 0.00, -0.00, -1.00, 533.6, 196.0)">a</text><text xml:space="preserve" font-family="SourceCodePro-Semibold" font-weight="bold" font-size="27.0" fill="#FEFFFE" transform="matrix(1.00, 0.00, -0.00, -1.00, 549.8, 196.0)">g</text><text xml:space="preserve" font-family="SourceCodePro-Semibold" font-weight="bold" font-size="27.0" fill="#FEFFFE" transform="matrix(1.00, 0.00, -0.00, -1.00, 566.0, 196.0)">e</text><text xml:space="preserve" font-family="SourceCodePro-Semibold" font-weight="bold" font-size="27.0" fill="#FEFFFE" transform="matrix(1.00, 0.00, -0.00, -1.00, 582.2, 196.0)">r</text></g></g><g><clipPath id="clip-113"><path d="M 659.4 157.1 L 856.8 157.1 L 856.8 324.2 L 659.4 324.2 Z M 659.4 157.1 "></path></clipPath><g clip-path="url(#clip-113)"><path d="M 0.0 0.0 L 192.4 0.0 L 192.4 162.0 L 0.0 162.0 Z M 0.0 0.0 " fill="none" stroke="#616060" stroke-width="3.00" transform="matrix(1.00, 0.00, 0.00, -1.00, 661.9, 321.7)"></path></g></g><g><clipPath id="clip-114"><path d="M 659.7 161.6 L 856.5 161.6 L 856.5 323.8 L 659.7 323.8 Z M 659.7 161.6 "></path></clipPath><g clip-path="url(#clip-114)"><text xml:space="preserve" font-family="SourceCodePro-Semibold" font-weight="bold" font-size="26.0" fill="#616060" transform="matrix(1.00, 0.00, -0.00, -1.00, 696.0, 290.0)">M</text><text xml:space="preserve" font-family="SourceCodePro-Semibold" font-weight="bold" font-size="26.0" fill="#616060" transform="matrix(1.00, 0.00, -0.00, -1.00, 711.6, 290.0)">a</text><text xml:space="preserve" font-family="SourceCodePro-Semibold" font-weight="bold" font-size="26.0" fill="#616060" transform="matrix(1.00, 0.00, -0.00, -1.00, 727.2, 290.0)">c</text><text xml:space="preserve" font-family="SourceCodePro-Semibold" font-weight="bold" font-size="26.0" fill="#616060" transform="matrix(1.00, 0.00, -0.00, -1.00, 742.8, 290.0)">h</text><text xml:space="preserve" font-family="SourceCodePro-Semibold" font-weight="bold" font-size="26.0" fill="#616060" transform="matrix(1.00, 0.00, -0.00, -1.00, 758.4, 290.0)">i</text><text xml:space="preserve" font-family="SourceCodePro-Semibold" font-weight="bold" font-size="26.0" fill="#616060" transform="matrix(1.00, 0.00, -0.00, -1.00, 774.0, 290.0)">n</text><text xml:space="preserve" font-family="SourceCodePro-Semibold" font-weight="bold" font-size="26.0" fill="#616060" transform="matrix(1.00, 0.00, -0.00, -1.00, 789.6, 290.0)">e</text><text xml:space="preserve" font-family="SourceCodePro-Semibold" font-weight="bold" font-size="26.0" fill="#616060" transform="matrix(1.00, 0.00, -0.00, -1.00, 805.2, 290.0)">3</text></g></g><g><clipPath id="clip-115"><path d="M 679.7 175.9 L 834.5 175.9 L 834.5 269.2 L 679.7 269.2 Z M 679.7 175.9 "></path></clipPath><g clip-path="url(#clip-115)"><path d="M 680.7 268.2 L 833.5 268.2 L 833.5 176.9 L 680.7 176.9 Z M 680.7 268.2 " fill="#2978FF"></path></g></g><g><clipPath id="clip-116"><path d="M 676.2 176.9 L 838.0 176.9 L 838.0 268.2 L 676.2 268.2 Z M 676.2 176.9 "></path></clipPath><g clip-path="url(#clip-116)"><text xml:space="preserve" font-family="SourceCodePro-Semibold" font-weight="bold" font-size="27.0" fill="#FEFFFE" transform="matrix(1.00, 0.00, -0.00, -1.00, 725.0, 230.0)">T</text><text xml:space="preserve" font-family="SourceCodePro-Semibold" font-weight="bold" font-size="27.0" fill="#FEFFFE" transform="matrix(1.00, 0.00, -0.00, -1.00, 741.2, 230.0)">a</text><text xml:space="preserve" font-family="SourceCodePro-Semibold" font-weight="bold" font-size="27.0" fill="#FEFFFE" transform="matrix(1.00, 0.00, -0.00, -1.00, 757.4, 230.0)">s</text><text xml:space="preserve" font-family="SourceCodePro-Semibold" font-weight="bold" font-size="27.0" fill="#FEFFFE" transform="matrix(1.00, 0.00, -0.00, -1.00, 773.6, 230.0)">k</text><text xml:space="preserve" font-family="SourceCodePro-Semibold" font-weight="bold" font-size="27.0" fill="#FEFFFE" transform="matrix(1.00, 0.00, -0.00, -1.00, 789.8, 230.0)"> </text><text xml:space="preserve" font-family="SourceCodePro-Semibold" font-weight="bold" font-size="27.0" fill="#FEFFFE" transform="matrix(1.00, 0.00, -0.00, -1.00, 700.0, 196.0)">M</text><text xml:space="preserve" font-family="SourceCodePro-Semibold" font-weight="bold" font-size="27.0" fill="#FEFFFE" transform="matrix(1.00, 0.00, -0.00, -1.00, 716.2, 196.0)">a</text><text xml:space="preserve" font-family="SourceCodePro-Semibold" font-weight="bold" font-size="27.0" fill="#FEFFFE" transform="matrix(1.00, 0.00, -0.00, -1.00, 732.4, 196.0)">n</text><text xml:space="preserve" font-family="SourceCodePro-Semibold" font-weight="bold" font-size="27.0" fill="#FEFFFE" transform="matrix(1.00, 0.00, -0.00, -1.00, 748.6, 196.0)">a</text><text xml:space="preserve" font-family="SourceCodePro-Semibold" font-weight="bold" font-size="27.0" fill="#FEFFFE" transform="matrix(1.00, 0.00, -0.00, -1.00, 764.8, 196.0)">g</text><text xml:space="preserve" font-family="SourceCodePro-Semibold" font-weight="bold" font-size="27.0" fill="#FEFFFE" transform="matrix(1.00, 0.00, -0.00, -1.00, 781.0, 196.0)">e</text><text xml:space="preserve" font-family="SourceCodePro-Semibold" font-weight="bold" font-size="27.0" fill="#FEFFFE" transform="matrix(1.00, 0.00, -0.00, -1.00, 797.2, 196.0)">r</text></g></g></g></svg>