<?xml version="1.0" encoding="UTF-8" standalone="no"?><svg xmlns="http://www.w3.org/2000/svg" xmlns:xlink="http://www.w3.org/1999/xlink" clip-rule="evenodd" stroke-miterlimit="4.00" viewBox="0 0 142 20"><desc>SVG generated by Keynote</desc><defs></defs><g transform="matrix(1.00, 0.00, -0.00, -1.00, 0.0, 20.0)"><text xml:space="preserve" font-family="SourceCodePro-Regular" font-size="15.0" fill="#414141" transform="matrix(1.00, 0.00, -0.00, -1.00, 0.9, 4.5)">•</text><text xml:space="preserve" font-family="SourceCodePro-Regular" font-size="20.0" fill="#414141" transform="matrix(1.00, 0.00, -0.00, -1.00, 22.0, 3.0)">S</text><text xml:space="preserve" font-family="SourceCodePro-Regular" font-size="20.0" fill="#414141" transform="matrix(1.00, 0.00, -0.00, -1.00, 34.0, 3.0)">t</text><text xml:space="preserve" font-family="SourceCodePro-Regular" font-size="20.0" fill="#414141" transform="matrix(1.00, 0.00, -0.00, -1.00, 46.0, 3.0)">a</text><text xml:space="preserve" font-family="SourceCodePro-Regular" font-size="20.0" fill="#414141" transform="matrix(1.00, 0.00, -0.00, -1.00, 58.0, 3.0)">t</text><text xml:space="preserve" font-family="SourceCodePro-Regular" font-size="20.0" fill="#414141" transform="matrix(1.00, 0.00, -0.00, -1.00, 70.0, 3.0)">i</text><text xml:space="preserve" font-family="SourceCodePro-Regular" font-size="20.0" fill="#414141" transform="matrix(1.00, 0.00, -0.00, -1.00, 82.0, 3.0)">s</text><text xml:space="preserve" font-family="SourceCodePro-Regular" font-size="20.0" fill="#414141" transform="matrix(1.00, 0.00, -0.00, -1.00, 94.0, 3.0)">t</text><text xml:space="preserve" font-family="SourceCodePro-Regular" font-size="20.0" fill="#414141" transform="matrix(1.00, 0.00, -0.00, -1.00, 106.0, 3.0)">i</text><text xml:space="preserve" font-family="SourceCodePro-Regular" font-size="20.0" fill="#414141" transform="matrix(1.00, 0.00, -0.00, -1.00, 118.0, 3.0)">c</text><text xml:space="preserve" font-family="SourceCodePro-Regular" font-size="20.0" fill="#414141" transform="matrix(1.00, 0.00, -0.00, -1.00, 130.0, 3.0)">s</text></g></svg>