<?xml version="1.0" encoding="UTF-8" standalone="no"?><svg xmlns="http://www.w3.org/2000/svg" xmlns:xlink="http://www.w3.org/1999/xlink" clip-rule="evenodd" stroke-miterlimit="4.00" viewBox="0 0 209 209"><desc>SVG generated by Keynote</desc><defs></defs><g transform="matrix(1.00, 0.00, -0.00, -1.00, 0.0, 209.0)"><text xml:space="preserve" font-family="SourceCodePro-Regular" font-size="30.0" fill="#52575F" transform="matrix(0.71, 0.71, 0.71, -0.71, 15.8, 0.6)">I</text><text xml:space="preserve" font-family="SourceCodePro-Regular" font-size="30.0" fill="#52575F" transform="matrix(0.71, 0.71, 0.71, -0.71, 28.6, 13.4)">d</text><text xml:space="preserve" font-family="SourceCodePro-Regular" font-size="30.0" fill="#52575F" transform="matrix(0.71, 0.71, 0.71, -0.71, 41.3, 26.1)">e</text><text xml:space="preserve" font-family="SourceCodePro-Regular" font-size="30.0" fill="#52575F" transform="matrix(0.71, 0.71, 0.71, -0.71, 54.0, 38.8)">a</text><text xml:space="preserve" font-family="SourceCodePro-Regular" font-size="30.0" fill="#52575F" transform="matrix(0.71, 0.71, 0.71, -0.71, 66.7, 51.5)">l</text><text xml:space="preserve" font-family="SourceCodePro-Regular" font-size="30.0" fill="#52575F" transform="matrix(0.71, 0.71, 0.71, -0.71, 79.5, 64.3)"> </text><text xml:space="preserve" font-family="SourceCodePro-Regular" font-size="30.0" fill="#52575F" transform="matrix(0.71, 0.71, 0.71, -0.71, 92.2, 77.0)">W</text><text xml:space="preserve" font-family="SourceCodePro-Regular" font-size="30.0" fill="#52575F" transform="matrix(0.71, 0.71, 0.71, -0.71, 104.9, 89.7)">a</text><text xml:space="preserve" font-family="SourceCodePro-Regular" font-size="30.0" fill="#52575F" transform="matrix(0.71, 0.71, 0.71, -0.71, 117.6, 102.5)">t</text><text xml:space="preserve" font-family="SourceCodePro-Regular" font-size="30.0" fill="#52575F" transform="matrix(0.71, 0.71, 0.71, -0.71, 130.4, 115.2)">e</text><text xml:space="preserve" font-family="SourceCodePro-Regular" font-size="30.0" fill="#52575F" transform="matrix(0.71, 0.71, 0.71, -0.71, 143.1, 127.9)">r</text><text xml:space="preserve" font-family="SourceCodePro-Regular" font-size="30.0" fill="#52575F" transform="matrix(0.71, 0.71, 0.71, -0.71, 155.8, 140.6)">m</text><text xml:space="preserve" font-family="SourceCodePro-Regular" font-size="30.0" fill="#52575F" transform="matrix(0.71, 0.71, 0.71, -0.71, 168.6, 153.4)">a</text><text xml:space="preserve" font-family="SourceCodePro-Regular" font-size="30.0" fill="#52575F" transform="matrix(0.71, 0.71, 0.71, -0.71, 181.3, 166.1)">r</text><text xml:space="preserve" font-family="SourceCodePro-Regular" font-size="30.0" fill="#52575F" transform="matrix(0.71, 0.71, 0.71, -0.71, 194.0, 178.8)">k</text></g></svg>