<?xml version="1.0" encoding="UTF-8" standalone="no"?><svg xmlns="http://www.w3.org/2000/svg" xmlns:xlink="http://www.w3.org/1999/xlink" clip-rule="evenodd" stroke-miterlimit="4.00" viewBox="0 0 144 107"><desc>SVG generated by Keynote</desc><defs></defs><g transform="matrix(1.00, 0.00, -0.00, -1.00, 0.0, 107.0)"><path d="M 68.1 -14.0 L 55.6 0.0 L 2.6 0.0 C 1.2 0.0 0.0 1.2 0.0 2.6 L 0.0 83.0 C 0.0 84.4 1.2 85.6 2.6 85.6 L 133.6 85.6 C 135.0 85.6 136.2 84.4 136.2 83.0 L 136.2 2.6 C 136.2 1.2 135.0 0.0 133.6 0.0 L 80.7 0.0 L 68.1 -14.0 Z M 68.1 -14.0 " fill="none" stroke="#616060" stroke-width="4.00" transform="matrix(1.00, 0.00, 0.00, -1.00, 3.9, 88.8)"></path><g><clipPath id="clip-636"><path d="M 0.2 3.2 L 143.8 3.2 L 143.8 88.8 L 0.2 88.8 Z M 0.2 3.2 "></path></clipPath><g clip-path="url(#clip-636)"><text xml:space="preserve" font-family="SourceCodePro-Semibold" font-weight="bold" font-size="31.0" fill="#E82662" transform="matrix(1.00, 0.00, -0.00, -1.00, 26.0, 34.0)">3</text><text xml:space="preserve" font-family="SourceCodePro-Semibold" font-weight="bold" font-size="31.0" fill="#E82662" transform="matrix(1.00, 0.00, -0.00, -1.00, 44.6, 34.0)"> </text><text xml:space="preserve" font-family="SourceCodePro-Semibold" font-weight="bold" font-size="31.0" fill="#E82662" transform="matrix(1.00, 0.00, -0.00, -1.00, 63.2, 34.0)">&lt;</text><text xml:space="preserve" font-family="SourceCodePro-Semibold" font-weight="bold" font-size="31.0" fill="#E82662" transform="matrix(1.00, 0.00, -0.00, -1.00, 81.8, 34.0)"> </text><text xml:space="preserve" font-family="SourceCodePro-Semibold" font-weight="bold" font-size="31.0" fill="#E82662" transform="matrix(1.00, 0.00, -0.00, -1.00, 100.4, 34.0)">4</text></g></g></g></svg>