<?xml version="1.0" encoding="UTF-8" standalone="no"?><svg xmlns="http://www.w3.org/2000/svg" xmlns:xlink="http://www.w3.org/1999/xlink" clip-rule="evenodd" stroke-miterlimit="4.00" viewBox="0 0 244 158"><desc>SVG generated by Keynote</desc><defs></defs><g transform="matrix(1.00, 0.00, -0.00, -1.00, 0.0, 158.0)"><path d="M 116.4 -11.3 L 103.9 0.0 L 2.6 0.0 C 1.2 0.0 0.0 1.2 0.0 2.6 L 0.0 135.8 C 0.0 137.2 1.2 138.3 2.6 138.3 L 234.3 138.3 C 235.7 138.3 236.9 137.2 236.9 135.8 L 236.9 2.6 C 236.9 1.2 235.7 0.0 234.3 0.0 L 129.0 0.0 L 116.4 -11.3 Z M 116.4 -11.3 " fill="none" stroke="#616060" stroke-width="4.00" transform="matrix(1.00, 0.00, 0.00, -1.00, 3.6, 142.1)"></path><g><clipPath id="clip-637"><path d="M -0.2 3.8 L 244.2 3.8 L 244.2 142.1 L -0.2 142.1 Z M -0.2 3.8 "></path></clipPath><g clip-path="url(#clip-637)"><text xml:space="preserve" font-family="SourceCodePro-Semibold" font-weight="bold" font-size="31.0" fill="#E82662" transform="matrix(1.00, 0.00, -0.00, -1.00, 10.0, 82.0)">4</text><text xml:space="preserve" font-family="SourceCodePro-Semibold" font-weight="bold" font-size="31.0" fill="#E82662" transform="matrix(1.00, 0.00, -0.00, -1.00, 28.6, 82.0)"> </text><text xml:space="preserve" font-family="SourceCodePro-Semibold" font-weight="bold" font-size="31.0" fill="#E82662" transform="matrix(1.00, 0.00, -0.00, -1.00, 47.2, 82.0)">f</text><text xml:space="preserve" font-family="SourceCodePro-Semibold" font-weight="bold" font-size="31.0" fill="#E82662" transform="matrix(1.00, 0.00, -0.00, -1.00, 65.8, 82.0)">r</text><text xml:space="preserve" font-family="SourceCodePro-Semibold" font-weight="bold" font-size="31.0" fill="#E82662" transform="matrix(1.00, 0.00, -0.00, -1.00, 84.4, 82.0)">o</text><text xml:space="preserve" font-family="SourceCodePro-Semibold" font-weight="bold" font-size="31.0" fill="#E82662" transform="matrix(1.00, 0.00, -0.00, -1.00, 103.0, 82.0)">m</text><text xml:space="preserve" font-family="SourceCodePro-Semibold" font-weight="bold" font-size="31.0" fill="#E82662" transform="matrix(1.00, 0.00, -0.00, -1.00, 121.6, 82.0)"> </text><text xml:space="preserve" font-family="SourceCodePro-Semibold" font-weight="bold" font-size="31.0" fill="#E82662" transform="matrix(1.00, 0.00, -0.00, -1.00, 140.2, 82.0)">b</text><text xml:space="preserve" font-family="SourceCodePro-Semibold" font-weight="bold" font-size="31.0" fill="#E82662" transform="matrix(1.00, 0.00, -0.00, -1.00, 158.8, 82.0)">o</text><text xml:space="preserve" font-family="SourceCodePro-Semibold" font-weight="bold" font-size="31.0" fill="#E82662" transform="matrix(1.00, 0.00, -0.00, -1.00, 177.4, 82.0)">t</text><text xml:space="preserve" font-family="SourceCodePro-Semibold" font-weight="bold" font-size="31.0" fill="#E82662" transform="matrix(1.00, 0.00, -0.00, -1.00, 196.0, 82.0)">h</text><text xml:space="preserve" font-family="SourceCodePro-Semibold" font-weight="bold" font-size="31.0" fill="#E82662" transform="matrix(1.00, 0.00, -0.00, -1.00, 214.6, 82.0)">,</text><text xml:space="preserve" font-family="SourceCodePro-Semibold" font-weight="bold" font-size="31.0" fill="#E82662" transform="matrix(1.00, 0.00, -0.00, -1.00, 233.2, 82.0)"> </text><text xml:space="preserve" font-family="SourceCodePro-Semibold" font-weight="bold" font-size="31.0" fill="#E82662" transform="matrix(1.00, 0.00, -0.00, -1.00, 103.0, 43.0)">O</text><text xml:space="preserve" font-family="SourceCodePro-Semibold" font-weight="bold" font-size="31.0" fill="#E82662" transform="matrix(1.00, 0.00, -0.00, -1.00, 121.6, 43.0)">K</text></g></g></g></svg>