<?xml version="1.0" encoding="UTF-8" standalone="no"?><svg xmlns="http://www.w3.org/2000/svg" xmlns:xlink="http://www.w3.org/1999/xlink" clip-rule="evenodd" stroke-miterlimit="4.00" viewBox="0 0 1024 768"><desc>SVG generated by Keynote</desc><defs></defs><g transform="matrix(1.00, 0.00, -0.00, -1.00, 0.0, 768.0)"><path d="M 0.0 768.0 L 1024.0 768.0 L 1024.0 0.0 L 0.0 0.0 Z M 0.0 768.0 " fill="#FEFFFF"></path><text xml:space="preserve" font-family="SourceCodePro-Regular" font-size="12.0" fill="#747474" transform="matrix(1.00, 0.00, -0.00, -1.00, 19.0, 19.0)">L</text><text xml:space="preserve" font-family="SourceCodePro-Regular" font-size="12.0" fill="#747474" transform="matrix(1.00, 0.00, -0.00, -1.00, 26.2, 19.0)">o</text><text xml:space="preserve" font-family="SourceCodePro-Regular" font-size="12.0" fill="#747474" transform="matrix(1.00, 0.00, -0.00, -1.00, 33.4, 19.0)">r</text><text xml:space="preserve" font-family="SourceCodePro-Regular" font-size="12.0" fill="#747474" transform="matrix(1.00, 0.00, -0.00, -1.00, 40.6, 19.0)">e</text><text xml:space="preserve" font-family="SourceCodePro-Regular" font-size="12.0" fill="#747474" transform="matrix(1.00, 0.00, -0.00, -1.00, 47.8, 19.0)">n</text><text xml:space="preserve" font-family="SourceCodePro-Regular" font-size="12.0" fill="#747474" transform="matrix(1.00, 0.00, -0.00, -1.00, 55.0, 19.0)">z</text><text xml:space="preserve" font-family="SourceCodePro-Regular" font-size="12.0" fill="#747474" transform="matrix(1.00, 0.00, -0.00, -1.00, 62.2, 19.0)">o</text><text xml:space="preserve" font-family="SourceCodePro-Regular" font-size="12.0" fill="#747474" transform="matrix(1.00, 0.00, -0.00, -1.00, 69.4, 19.0)"> </text><text xml:space="preserve" font-family="SourceCodePro-Regular" font-size="12.0" fill="#747474" transform="matrix(1.00, 0.00, -0.00, -1.00, 76.6, 19.0)">A</text><text xml:space="preserve" font-family="SourceCodePro-Regular" font-size="12.0" fill="#747474" transform="matrix(1.00, 0.00, -0.00, -1.00, 83.8, 19.0)">f</text><text xml:space="preserve" font-family="SourceCodePro-Regular" font-size="12.0" fill="#747474" transform="matrix(1.00, 0.00, -0.00, -1.00, 91.0, 19.0)">f</text><text xml:space="preserve" font-family="SourceCodePro-Regular" font-size="12.0" fill="#747474" transform="matrix(1.00, 0.00, -0.00, -1.00, 98.2, 19.0)">e</text><text xml:space="preserve" font-family="SourceCodePro-Regular" font-size="12.0" fill="#747474" transform="matrix(1.00, 0.00, -0.00, -1.00, 105.4, 19.0)">t</text><text xml:space="preserve" font-family="SourceCodePro-Regular" font-size="12.0" fill="#747474" transform="matrix(1.00, 0.00, -0.00, -1.00, 112.6, 19.0)">t</text><text xml:space="preserve" font-family="SourceCodePro-Regular" font-size="12.0" fill="#747474" transform="matrix(1.00, 0.00, -0.00, -1.00, 119.8, 19.0)">i</text><text xml:space="preserve" font-family="SourceCodePro-Regular" font-size="12.0" fill="#747474" transform="matrix(1.00, 0.00, -0.00, -1.00, 127.0, 19.0)"> </text><text xml:space="preserve" font-family="SourceCodePro-Regular" font-size="12.0" fill="#747474" transform="matrix(1.00, 0.00, -0.00, -1.00, 134.2, 19.0)">(</text><text xml:space="preserve" font-family="SourceCodePro-Regular" font-size="12.0" fill="#747474" transform="matrix(1.00, 0.00, -0.00, -1.00, 141.4, 19.0)">l</text><text xml:space="preserve" font-family="SourceCodePro-Regular" font-size="12.0" fill="#747474" transform="matrix(1.00, 0.00, -0.00, -1.00, 148.6, 19.0)">o</text><text xml:space="preserve" font-family="SourceCodePro-Regular" font-size="12.0" fill="#747474" transform="matrix(1.00, 0.00, -0.00, -1.00, 155.8, 19.0)">r</text><text xml:space="preserve" font-family="SourceCodePro-Regular" font-size="12.0" fill="#747474" transform="matrix(1.00, 0.00, -0.00, -1.00, 163.0, 19.0)">e</text><text xml:space="preserve" font-family="SourceCodePro-Regular" font-size="12.0" fill="#747474" transform="matrix(1.00, 0.00, -0.00, -1.00, 170.2, 19.0)">n</text><text xml:space="preserve" font-family="SourceCodePro-Regular" font-size="12.0" fill="#747474" transform="matrix(1.00, 0.00, -0.00, -1.00, 177.4, 19.0)">z</text><text xml:space="preserve" font-family="SourceCodePro-Regular" font-size="12.0" fill="#747474" transform="matrix(1.00, 0.00, -0.00, -1.00, 184.6, 19.0)">o</text><text xml:space="preserve" font-family="SourceCodePro-Regular" font-size="12.0" fill="#747474" transform="matrix(1.00, 0.00, -0.00, -1.00, 191.8, 19.0)">.</text><text xml:space="preserve" font-family="SourceCodePro-Regular" font-size="12.0" fill="#747474" transform="matrix(1.00, 0.00, -0.00, -1.00, 199.0, 19.0)">a</text><text xml:space="preserve" font-family="SourceCodePro-Regular" font-size="12.0" fill="#747474" transform="matrix(1.00, 0.00, -0.00, -1.00, 206.2, 19.0)">f</text><text xml:space="preserve" font-family="SourceCodePro-Regular" font-size="12.0" fill="#747474" transform="matrix(1.00, 0.00, -0.00, -1.00, 213.4, 19.0)">f</text><text xml:space="preserve" font-family="SourceCodePro-Regular" font-size="12.0" fill="#747474" transform="matrix(1.00, 0.00, -0.00, -1.00, 220.6, 19.0)">e</text><text xml:space="preserve" font-family="SourceCodePro-Regular" font-size="12.0" fill="#747474" transform="matrix(1.00, 0.00, -0.00, -1.00, 227.8, 19.0)">t</text><text xml:space="preserve" font-family="SourceCodePro-Regular" font-size="12.0" fill="#747474" transform="matrix(1.00, 0.00, -0.00, -1.00, 235.0, 19.0)">t</text><text xml:space="preserve" font-family="SourceCodePro-Regular" font-size="12.0" fill="#747474" transform="matrix(1.00, 0.00, -0.00, -1.00, 242.2, 19.0)">i</text><text xml:space="preserve" font-family="SourceCodePro-Regular" font-size="12.0" fill="#747474" transform="matrix(1.00, 0.00, -0.00, -1.00, 249.4, 19.0)">@</text><text xml:space="preserve" font-family="SourceCodePro-Regular" font-size="12.0" fill="#747474" transform="matrix(1.00, 0.00, -0.00, -1.00, 256.6, 19.0)">p</text><text xml:space="preserve" font-family="SourceCodePro-Regular" font-size="12.0" fill="#747474" transform="matrix(1.00, 0.00, -0.00, -1.00, 263.8, 19.0)">o</text><text xml:space="preserve" font-family="SourceCodePro-Regular" font-size="12.0" fill="#747474" transform="matrix(1.00, 0.00, -0.00, -1.00, 271.0, 19.0)">l</text><text xml:space="preserve" font-family="SourceCodePro-Regular" font-size="12.0" fill="#747474" transform="matrix(1.00, 0.00, -0.00, -1.00, 278.2, 19.0)">i</text><text xml:space="preserve" font-family="SourceCodePro-Regular" font-size="12.0" fill="#747474" transform="matrix(1.00, 0.00, -0.00, -1.00, 285.4, 19.0)">m</text><text xml:space="preserve" font-family="SourceCodePro-Regular" font-size="12.0" fill="#747474" transform="matrix(1.00, 0.00, -0.00, -1.00, 292.6, 19.0)">i</text><text xml:space="preserve" font-family="SourceCodePro-Regular" font-size="12.0" fill="#747474" transform="matrix(1.00, 0.00, -0.00, -1.00, 299.8, 19.0)">.</text><text xml:space="preserve" font-family="SourceCodePro-Regular" font-size="12.0" fill="#747474" transform="matrix(1.00, 0.00, -0.00, -1.00, 307.0, 19.0)">i</text><text xml:space="preserve" font-family="SourceCodePro-Regular" font-size="12.0" fill="#747474" transform="matrix(1.00, 0.00, -0.00, -1.00, 314.2, 19.0)">t</text><text xml:space="preserve" font-family="SourceCodePro-Regular" font-size="12.0" fill="#747474" transform="matrix(1.00, 0.00, -0.00, -1.00, 321.4, 19.0)">)</text><text xml:space="preserve" font-family="SourceCodePro-Regular" font-size="12.0" fill="#747474" transform="matrix(1.00, 0.00, -0.00, -1.00, 328.6, 19.0)"> </text><text xml:space="preserve" font-family="SourceCodePro-Regular" font-size="12.0" fill="#747474" transform="matrix(1.00, 0.00, -0.00, -1.00, 335.8, 19.0)">-</text><text xml:space="preserve" font-family="SourceCodePro-Regular" font-size="12.0" fill="#747474" transform="matrix(1.00, 0.00, -0.00, -1.00, 343.0, 19.0)"> </text><text xml:space="preserve" font-family="SourceCodePro-Regular" font-size="12.0" fill="#747474" transform="matrix(1.00, 0.00, -0.00, -1.00, 350.2, 19.0)">P</text><text xml:space="preserve" font-family="SourceCodePro-Regular" font-size="12.0" fill="#747474" transform="matrix(1.00, 0.00, -0.00, -1.00, 357.4, 19.0)">o</text><text xml:space="preserve" font-family="SourceCodePro-Regular" font-size="12.0" fill="#747474" transform="matrix(1.00, 0.00, -0.00, -1.00, 364.6, 19.0)">l</text><text xml:space="preserve" font-family="SourceCodePro-Regular" font-size="12.0" fill="#747474" transform="matrix(1.00, 0.00, -0.00, -1.00, 371.8, 19.0)">i</text><text xml:space="preserve" font-family="SourceCodePro-Regular" font-size="12.0" fill="#747474" transform="matrix(1.00, 0.00, -0.00, -1.00, 379.0, 19.0)">t</text><text xml:space="preserve" font-family="SourceCodePro-Regular" font-size="12.0" fill="#747474" transform="matrix(1.00, 0.00, -0.00, -1.00, 386.2, 19.0)">e</text><text xml:space="preserve" font-family="SourceCodePro-Regular" font-size="12.0" fill="#747474" transform="matrix(1.00, 0.00, -0.00, -1.00, 393.4, 19.0)">c</text><text xml:space="preserve" font-family="SourceCodePro-Regular" font-size="12.0" fill="#747474" transform="matrix(1.00, 0.00, -0.00, -1.00, 400.6, 19.0)">n</text><text xml:space="preserve" font-family="SourceCodePro-Regular" font-size="12.0" fill="#747474" transform="matrix(1.00, 0.00, -0.00, -1.00, 407.8, 19.0)">i</text><text xml:space="preserve" font-family="SourceCodePro-Regular" font-size="12.0" fill="#747474" transform="matrix(1.00, 0.00, -0.00, -1.00, 415.0, 19.0)">c</text><text xml:space="preserve" font-family="SourceCodePro-Regular" font-size="12.0" fill="#747474" transform="matrix(1.00, 0.00, -0.00, -1.00, 422.2, 19.0)">o</text><text xml:space="preserve" font-family="SourceCodePro-Regular" font-size="12.0" fill="#747474" transform="matrix(1.00, 0.00, -0.00, -1.00, 429.4, 19.0)"> </text><text xml:space="preserve" font-family="SourceCodePro-Regular" font-size="12.0" fill="#747474" transform="matrix(1.00, 0.00, -0.00, -1.00, 436.6, 19.0)">d</text><text xml:space="preserve" font-family="SourceCodePro-Regular" font-size="12.0" fill="#747474" transform="matrix(1.00, 0.00, -0.00, -1.00, 443.8, 19.0)">i</text><text xml:space="preserve" font-family="SourceCodePro-Regular" font-size="12.0" fill="#747474" transform="matrix(1.00, 0.00, -0.00, -1.00, 451.0, 19.0)"> </text><text xml:space="preserve" font-family="SourceCodePro-Regular" font-size="12.0" fill="#747474" transform="matrix(1.00, 0.00, -0.00, -1.00, 458.2, 19.0)">M</text><text xml:space="preserve" font-family="SourceCodePro-Regular" font-size="12.0" fill="#747474" transform="matrix(1.00, 0.00, -0.00, -1.00, 465.4, 19.0)">i</text><text xml:space="preserve" font-family="SourceCodePro-Regular" font-size="12.0" fill="#747474" transform="matrix(1.00, 0.00, -0.00, -1.00, 472.6, 19.0)">l</text><text xml:space="preserve" font-family="SourceCodePro-Regular" font-size="12.0" fill="#747474" transform="matrix(1.00, 0.00, -0.00, -1.00, 479.8, 19.0)">a</text><text xml:space="preserve" font-family="SourceCodePro-Regular" font-size="12.0" fill="#747474" transform="matrix(1.00, 0.00, -0.00, -1.00, 487.0, 19.0)">n</text><text xml:space="preserve" font-family="SourceCodePro-Regular" font-size="12.0" fill="#747474" transform="matrix(1.00, 0.00, -0.00, -1.00, 494.2, 19.0)">o</text><text xml:space="preserve" font-family="SourceCodePro-Regular" font-size="12.0" fill="#747474" transform="matrix(1.00, 0.00, -0.00, -1.00, 501.4, 19.0)">,</text><text xml:space="preserve" font-family="SourceCodePro-Regular" font-size="12.0" fill="#747474" transform="matrix(1.00, 0.00, -0.00, -1.00, 508.6, 19.0)"> </text><text xml:space="preserve" font-family="SourceCodePro-Regular" font-size="12.0" fill="#747474" transform="matrix(1.00, 0.00, -0.00, -1.00, 515.8, 19.0)">D</text><text xml:space="preserve" font-family="SourceCodePro-Regular" font-size="12.0" fill="#747474" transform="matrix(1.00, 0.00, -0.00, -1.00, 523.0, 19.0)">E</text><text xml:space="preserve" font-family="SourceCodePro-Regular" font-size="12.0" fill="#747474" transform="matrix(1.00, 0.00, -0.00, -1.00, 530.2, 19.0)">I</text><text xml:space="preserve" font-family="SourceCodePro-Regular" font-size="12.0" fill="#747474" transform="matrix(1.00, 0.00, -0.00, -1.00, 537.4, 19.0)">B</text><g><clipPath id="clip-575"><path d="M 140.8 16.1 L 321.8 16.1 L 321.8 18.7 L 140.8 18.7 Z M 140.8 16.1 "></path></clipPath><g clip-path="url(#clip-575)"><path d="M 126.9 17.1 L 306.9 17.1 " fill="none" stroke="#747474" stroke-width="0.60" stroke-miterlimit="0.00" transform="matrix(1.00, 0.00, 0.00, -1.00, 14.9, 34.5)"></path></g></g><text xml:space="preserve" font-family="Lora-Bold" font-weight="bold" font-size="80.0" fill="#212121" transform="matrix(1.00, 0.00, -0.00, -1.00, 283.0, 680.0)">T</text><text xml:space="preserve" font-family="Lora-Bold" font-weight="bold" font-size="80.0" fill="#212121" transform="matrix(1.00, 0.00, -0.00, -1.00, 335.0, 680.0)">w</text><text xml:space="preserve" font-family="Lora-Bold" font-weight="bold" font-size="80.0" fill="#212121" transform="matrix(1.00, 0.00, -0.00, -1.00, 399.0, 680.0)">o</text><text xml:space="preserve" font-family="Lora-Bold" font-weight="bold" font-size="80.0" fill="#212121" transform="matrix(1.00, 0.00, -0.00, -1.00, 443.6, 680.0)">*</text><text xml:space="preserve" font-family="Lora-Bold" font-weight="bold" font-size="80.0" fill="#212121" transform="matrix(1.00, 0.00, -0.00, -1.00, 486.3, 680.0)"> </text><text xml:space="preserve" font-family="Lora-Bold" font-weight="bold" font-size="80.0" fill="#212121" transform="matrix(1.00, 0.00, -0.00, -1.00, 507.3, 680.0)">T</text><text xml:space="preserve" font-family="Lora-Bold" font-weight="bold" font-size="80.0" fill="#212121" transform="matrix(1.00, 0.00, -0.00, -1.00, 559.0, 680.0)">i</text><text xml:space="preserve" font-family="Lora-Bold" font-weight="bold" font-size="80.0" fill="#212121" transform="matrix(1.00, 0.00, -0.00, -1.00, 585.2, 680.0)">m</text><text xml:space="preserve" font-family="Lora-Bold" font-weight="bold" font-size="80.0" fill="#212121" transform="matrix(1.00, 0.00, -0.00, -1.00, 658.9, 680.0)">e</text><text xml:space="preserve" font-family="Lora-Bold" font-weight="bold" font-size="80.0" fill="#212121" transform="matrix(1.00, 0.00, -0.00, -1.00, 701.9, 680.0)">s</text><text xml:space="preserve" font-family="Helvetica-Light" font-size="18.0" fill="#000000" transform="matrix(1.00, 0.00, -0.00, -1.00, 992.0, 16.0)">4</text><text xml:space="preserve" font-family="Helvetica-Light" font-size="18.0" fill="#000000" transform="matrix(1.00, 0.00, -0.00, -1.00, 1002.0, 16.0)">8</text><text xml:space="preserve" font-family="Raleway-ExtraLight" font-size="50.0" fill="#414141" transform="matrix(1.00, 0.00, -0.00, -1.00, 385.0, 624.0)">E</text><text xml:space="preserve" font-family="Raleway-ExtraLight" font-size="50.0" fill="#414141" transform="matrix(1.00, 0.00, -0.00, -1.00, 414.4, 624.0)">v</text><text xml:space="preserve" font-family="Raleway-ExtraLight" font-size="50.0" fill="#414141" transform="matrix(1.00, 0.00, -0.00, -1.00, 440.6, 624.0)">e</text><text xml:space="preserve" font-family="Raleway-ExtraLight" font-size="50.0" fill="#414141" transform="matrix(1.00, 0.00, -0.00, -1.00, 469.6, 624.0)">n</text><text xml:space="preserve" font-family="Raleway-ExtraLight" font-size="50.0" fill="#414141" transform="matrix(1.00, 0.00, -0.00, -1.00, 497.8, 624.0)">t</text><text xml:space="preserve" font-family="Raleway-ExtraLight" font-size="50.0" fill="#414141" transform="matrix(1.00, 0.00, -0.00, -1.00, 513.1, 624.0)"> </text><text xml:space="preserve" font-family="Raleway-ExtraLight" font-size="50.0" fill="#414141" transform="matrix(1.00, 0.00, -0.00, -1.00, 525.0, 624.0)">T</text><text xml:space="preserve" font-family="Raleway-ExtraLight" font-size="50.0" fill="#414141" transform="matrix(1.00, 0.00, -0.00, -1.00, 555.6, 624.0)">i</text><text xml:space="preserve" font-family="Raleway-ExtraLight" font-size="50.0" fill="#414141" transform="matrix(1.00, 0.00, -0.00, -1.00, 565.3, 624.0)">m</text><text xml:space="preserve" font-family="Raleway-ExtraLight" font-size="50.0" fill="#414141" transform="matrix(1.00, 0.00, -0.00, -1.00, 610.8, 624.0)">e</text><g><clipPath id="clip-576"><path d="M 592.7 82.7 L 964.8 82.7 L 964.8 582.4 L 592.7 582.4 Z M 592.7 82.7 "></path></clipPath><g clip-path="url(#clip-576)"><path d="M 0.0 0.0 L 368.1 0.0 L 368.1 495.7 L 0.0 495.7 Z M 0.0 0.0 " fill="none" stroke="#414141" stroke-width="2.00" transform="matrix(1.00, 0.00, 0.00, -1.00, 594.7, 580.4)"></path></g></g><g><clipPath id="clip-577"><path d="M 593.5 85.7 L 964.1 85.7 L 964.1 581.7 L 593.5 581.7 Z M 593.5 85.7 "></path></clipPath><g clip-path="url(#clip-577)"><text xml:space="preserve" font-family="SourceCodePro-Semibold" font-weight="bold" font-size="20.0" fill="#414141" transform="matrix(1.00, 0.00, -0.00, -1.00, 801.8, 555.8)">F</text><text xml:space="preserve" font-family="SourceCodePro-Semibold" font-weight="bold" font-size="20.0" fill="#414141" transform="matrix(1.00, 0.00, -0.00, -1.00, 813.8, 555.8)">l</text><text xml:space="preserve" font-family="SourceCodePro-Semibold" font-weight="bold" font-size="20.0" fill="#414141" transform="matrix(1.00, 0.00, -0.00, -1.00, 825.8, 555.8)">i</text><text xml:space="preserve" font-family="SourceCodePro-Semibold" font-weight="bold" font-size="20.0" fill="#414141" transform="matrix(1.00, 0.00, -0.00, -1.00, 837.8, 555.8)">n</text><text xml:space="preserve" font-family="SourceCodePro-Semibold" font-weight="bold" font-size="20.0" fill="#414141" transform="matrix(1.00, 0.00, -0.00, -1.00, 849.8, 555.8)">k</text><text xml:space="preserve" font-family="SourceCodePro-Semibold" font-weight="bold" font-size="20.0" fill="#414141" transform="matrix(1.00, 0.00, -0.00, -1.00, 861.8, 555.8)"> </text><text xml:space="preserve" font-family="SourceCodePro-Semibold" font-weight="bold" font-size="20.0" fill="#414141" transform="matrix(1.00, 0.00, -0.00, -1.00, 873.8, 555.8)">C</text><text xml:space="preserve" font-family="SourceCodePro-Semibold" font-weight="bold" font-size="20.0" fill="#414141" transform="matrix(1.00, 0.00, -0.00, -1.00, 885.8, 555.8)">l</text><text xml:space="preserve" font-family="SourceCodePro-Semibold" font-weight="bold" font-size="20.0" fill="#414141" transform="matrix(1.00, 0.00, -0.00, -1.00, 897.8, 555.8)">u</text><text xml:space="preserve" font-family="SourceCodePro-Semibold" font-weight="bold" font-size="20.0" fill="#414141" transform="matrix(1.00, 0.00, -0.00, -1.00, 909.8, 555.8)">s</text><text xml:space="preserve" font-family="SourceCodePro-Semibold" font-weight="bold" font-size="20.0" fill="#414141" transform="matrix(1.00, 0.00, -0.00, -1.00, 921.8, 555.8)">t</text><text xml:space="preserve" font-family="SourceCodePro-Semibold" font-weight="bold" font-size="20.0" fill="#414141" transform="matrix(1.00, 0.00, -0.00, -1.00, 933.8, 555.8)">e</text><text xml:space="preserve" font-family="SourceCodePro-Semibold" font-weight="bold" font-size="20.0" fill="#414141" transform="matrix(1.00, 0.00, -0.00, -1.00, 945.8, 555.8)">r</text></g></g><g><clipPath id="clip-578"><path d="M 650.7 120.9 L 778.3 120.9 L 778.3 292.9 L 650.7 292.9 Z M 650.7 120.9 "></path></clipPath><g clip-path="url(#clip-578)"><path d="M 22.9 0.0 L 98.6 0.0 C 105.2 0.0 108.6 0.0 112.1 1.1 C 116.0 2.5 119.0 5.6 120.5 9.5 C 121.6 13.0 121.6 16.4 121.6 23.0 L 121.6 143.1 C 121.6 149.6 121.6 153.0 120.5 156.5 C 119.0 160.4 116.0 163.5 112.1 164.9 C 108.6 166.0 105.2 166.0 98.5 166.0 L 22.9 166.0 C 16.4 166.0 13.0 166.0 9.5 164.9 C 5.6 163.5 2.5 160.4 1.1 156.5 C 0.0 153.0 0.0 149.6 0.0 143.0 L 0.0 22.9 C 0.0 16.4 0.0 13.0 1.1 9.5 C 2.5 5.6 5.6 2.5 9.5 1.1 C 13.0 0.0 16.4 0.0 23.0 0.0 Z M 22.9 0.0 " fill="none" stroke="#63DC16" stroke-width="4.00" transform="matrix(1.00, 0.00, 0.00, -1.00, 653.7, 289.9)"></path></g></g><g><clipPath id="clip-579"><path d="M 653.7 123.9 L 775.3 123.9 L 775.3 289.9 L 653.7 289.9 Z M 653.7 123.9 "></path></clipPath><g clip-path="url(#clip-579)"><text xml:space="preserve" font-family="SourceCodePro-Semibold" font-weight="bold" font-size="20.0" fill="#747474" transform="matrix(1.00, 0.00, -0.00, -1.00, 673.0, 263.0)">M</text><text xml:space="preserve" font-family="SourceCodePro-Semibold" font-weight="bold" font-size="20.0" fill="#747474" transform="matrix(1.00, 0.00, -0.00, -1.00, 685.0, 263.0)">a</text><text xml:space="preserve" font-family="SourceCodePro-Semibold" font-weight="bold" font-size="20.0" fill="#747474" transform="matrix(1.00, 0.00, -0.00, -1.00, 697.0, 263.0)">c</text><text xml:space="preserve" font-family="SourceCodePro-Semibold" font-weight="bold" font-size="20.0" fill="#747474" transform="matrix(1.00, 0.00, -0.00, -1.00, 709.0, 263.0)">h</text><text xml:space="preserve" font-family="SourceCodePro-Semibold" font-weight="bold" font-size="20.0" fill="#747474" transform="matrix(1.00, 0.00, -0.00, -1.00, 721.0, 263.0)">i</text><text xml:space="preserve" font-family="SourceCodePro-Semibold" font-weight="bold" font-size="20.0" fill="#747474" transform="matrix(1.00, 0.00, -0.00, -1.00, 733.0, 263.0)">n</text><text xml:space="preserve" font-family="SourceCodePro-Semibold" font-weight="bold" font-size="20.0" fill="#747474" transform="matrix(1.00, 0.00, -0.00, -1.00, 745.0, 263.0)">e</text></g></g><g><clipPath id="clip-580"><path d="M 626.0 369.5 L 753.6 369.5 L 753.6 541.5 L 626.0 541.5 Z M 626.0 369.5 "></path></clipPath><g clip-path="url(#clip-580)"><path d="M 22.9 0.0 L 98.6 0.0 C 105.2 0.0 108.6 0.0 112.1 1.1 C 116.0 2.5 119.0 5.6 120.5 9.5 C 121.6 13.0 121.6 16.4 121.6 23.0 L 121.6 143.1 C 121.6 149.6 121.6 153.0 120.5 156.5 C 119.0 160.4 116.0 163.5 112.1 164.9 C 108.6 166.0 105.2 166.0 98.5 166.0 L 22.9 166.0 C 16.4 166.0 13.0 166.0 9.5 164.9 C 5.6 163.5 2.5 160.4 1.1 156.5 C 0.0 153.0 0.0 149.6 0.0 143.0 L 0.0 22.9 C 0.0 16.4 0.0 13.0 1.1 9.5 C 2.5 5.6 5.6 2.5 9.5 1.1 C 13.0 0.0 16.4 0.0 23.0 0.0 Z M 22.9 0.0 " fill="none" stroke="#FE2743" stroke-width="4.00" transform="matrix(1.00, 0.00, 0.00, -1.00, 629.0, 538.5)"></path></g></g><g><clipPath id="clip-581"><path d="M 629.0 372.5 L 750.6 372.5 L 750.6 538.5 L 629.0 538.5 Z M 629.0 372.5 "></path></clipPath><g clip-path="url(#clip-581)"><text xml:space="preserve" font-family="SourceCodePro-Semibold" font-weight="bold" font-size="20.0" fill="#747474" transform="matrix(1.00, 0.00, -0.00, -1.00, 648.0, 512.0)">M</text><text xml:space="preserve" font-family="SourceCodePro-Semibold" font-weight="bold" font-size="20.0" fill="#747474" transform="matrix(1.00, 0.00, -0.00, -1.00, 660.0, 512.0)">a</text><text xml:space="preserve" font-family="SourceCodePro-Semibold" font-weight="bold" font-size="20.0" fill="#747474" transform="matrix(1.00, 0.00, -0.00, -1.00, 672.0, 512.0)">c</text><text xml:space="preserve" font-family="SourceCodePro-Semibold" font-weight="bold" font-size="20.0" fill="#747474" transform="matrix(1.00, 0.00, -0.00, -1.00, 684.0, 512.0)">h</text><text xml:space="preserve" font-family="SourceCodePro-Semibold" font-weight="bold" font-size="20.0" fill="#747474" transform="matrix(1.00, 0.00, -0.00, -1.00, 696.0, 512.0)">i</text><text xml:space="preserve" font-family="SourceCodePro-Semibold" font-weight="bold" font-size="20.0" fill="#747474" transform="matrix(1.00, 0.00, -0.00, -1.00, 708.0, 512.0)">n</text><text xml:space="preserve" font-family="SourceCodePro-Semibold" font-weight="bold" font-size="20.0" fill="#747474" transform="matrix(1.00, 0.00, -0.00, -1.00, 720.0, 512.0)">e</text></g></g><g><clipPath id="clip-582"><path d="M 802.1 262.8 L 929.7 262.8 L 929.7 434.8 L 802.1 434.8 Z M 802.1 262.8 "></path></clipPath><g clip-path="url(#clip-582)"><path d="M 22.9 0.0 L 98.6 0.0 C 105.2 0.0 108.6 0.0 112.1 1.1 C 116.0 2.5 119.0 5.6 120.5 9.5 C 121.6 13.0 121.6 16.4 121.6 23.0 L 121.6 143.1 C 121.6 149.6 121.6 153.0 120.5 156.5 C 119.0 160.4 116.0 163.5 112.1 164.9 C 108.6 166.0 105.2 166.0 98.5 166.0 L 22.9 166.0 C 16.4 166.0 13.0 166.0 9.5 164.9 C 5.6 163.5 2.5 160.4 1.1 156.5 C 0.0 153.0 0.0 149.6 0.0 143.0 L 0.0 22.9 C 0.0 16.4 0.0 13.0 1.1 9.5 C 2.5 5.6 5.6 2.5 9.5 1.1 C 13.0 0.0 16.4 0.0 23.0 0.0 Z M 22.9 0.0 " fill="none" stroke="#FBC02D" stroke-width="4.00" transform="matrix(1.00, 0.00, 0.00, -1.00, 805.1, 431.8)"></path></g></g><g><clipPath id="clip-583"><path d="M 805.1 265.8 L 926.7 265.8 L 926.7 431.8 L 805.1 431.8 Z M 805.1 265.8 "></path></clipPath><g clip-path="url(#clip-583)"><text xml:space="preserve" font-family="SourceCodePro-Semibold" font-weight="bold" font-size="20.0" fill="#747474" transform="matrix(1.00, 0.00, -0.00, -1.00, 824.0, 405.0)">M</text><text xml:space="preserve" font-family="SourceCodePro-Semibold" font-weight="bold" font-size="20.0" fill="#747474" transform="matrix(1.00, 0.00, -0.00, -1.00, 836.0, 405.0)">a</text><text xml:space="preserve" font-family="SourceCodePro-Semibold" font-weight="bold" font-size="20.0" fill="#747474" transform="matrix(1.00, 0.00, -0.00, -1.00, 848.0, 405.0)">c</text><text xml:space="preserve" font-family="SourceCodePro-Semibold" font-weight="bold" font-size="20.0" fill="#747474" transform="matrix(1.00, 0.00, -0.00, -1.00, 860.0, 405.0)">h</text><text xml:space="preserve" font-family="SourceCodePro-Semibold" font-weight="bold" font-size="20.0" fill="#747474" transform="matrix(1.00, 0.00, -0.00, -1.00, 872.0, 405.0)">i</text><text xml:space="preserve" font-family="SourceCodePro-Semibold" font-weight="bold" font-size="20.0" fill="#747474" transform="matrix(1.00, 0.00, -0.00, -1.00, 884.0, 405.0)">n</text><text xml:space="preserve" font-family="SourceCodePro-Semibold" font-weight="bold" font-size="20.0" fill="#747474" transform="matrix(1.00, 0.00, -0.00, -1.00, 896.0, 405.0)">e</text></g></g><text xml:space="preserve" font-family="SourceCodePro-Regular" font-size="22.0" fill="#414141" transform="matrix(1.00, 0.00, -0.00, -1.00, 69.0, 419.0)">(</text><text xml:space="preserve" font-family="SourceCodePro-Semibold" font-weight="bold" font-size="22.0" fill="#414141" transform="matrix(1.00, 0.00, -0.00, -1.00, 82.2, 419.0)">2</text><text xml:space="preserve" font-family="SourceCodePro-Regular" font-size="22.0" fill="#414141" transform="matrix(1.00, 0.00, -0.00, -1.00, 95.4, 419.0)">,</text><text xml:space="preserve" font-family="SourceCodePro-Regular" font-size="22.0" fill="#414141" transform="matrix(1.00, 0.00, -0.00, -1.00, 108.6, 419.0)"> </text><text xml:space="preserve" font-family="SourceCodePro-Regular" font-size="22.0" fill="#414141" transform="matrix(1.00, 0.00, -0.00, -1.00, 121.8, 419.0)">b</text><text xml:space="preserve" font-family="SourceCodePro-Regular" font-size="22.0" fill="#414141" transform="matrix(1.00, 0.00, -0.00, -1.00, 135.0, 419.0)">a</text><text xml:space="preserve" font-family="SourceCodePro-Regular" font-size="22.0" fill="#414141" transform="matrix(1.00, 0.00, -0.00, -1.00, 148.2, 419.0)">r</text><text xml:space="preserve" font-family="SourceCodePro-Regular" font-size="22.0" fill="#414141" transform="matrix(1.00, 0.00, -0.00, -1.00, 161.4, 419.0)">)</text><text xml:space="preserve" font-family="SourceCodePro-Regular" font-size="22.0" fill="#414141" transform="matrix(1.00, 0.00, -0.00, -1.00, 174.6, 419.0)">,</text><text xml:space="preserve" font-family="SourceCodePro-Regular" font-size="22.0" fill="#414141" transform="matrix(1.00, 0.00, -0.00, -1.00, 187.8, 419.0)"> </text><text xml:space="preserve" font-family="SourceCodePro-Regular" font-size="22.0" fill="#414141" transform="matrix(1.00, 0.00, -0.00, -1.00, 201.0, 419.0)">(</text><text xml:space="preserve" font-family="SourceCodePro-Semibold" font-weight="bold" font-size="22.0" fill="#414141" transform="matrix(1.00, 0.00, -0.00, -1.00, 214.2, 419.0)">4</text><text xml:space="preserve" font-family="SourceCodePro-Regular" font-size="22.0" fill="#414141" transform="matrix(1.00, 0.00, -0.00, -1.00, 227.4, 419.0)">,</text><text xml:space="preserve" font-family="SourceCodePro-Regular" font-size="22.0" fill="#414141" transform="matrix(1.00, 0.00, -0.00, -1.00, 240.6, 419.0)"> </text><text xml:space="preserve" font-family="SourceCodePro-Regular" font-size="22.0" fill="#414141" transform="matrix(1.00, 0.00, -0.00, -1.00, 253.8, 419.0)">b</text><text xml:space="preserve" font-family="SourceCodePro-Regular" font-size="22.0" fill="#414141" transform="matrix(1.00, 0.00, -0.00, -1.00, 267.0, 419.0)">u</text><text xml:space="preserve" font-family="SourceCodePro-Regular" font-size="22.0" fill="#414141" transform="matrix(1.00, 0.00, -0.00, -1.00, 280.2, 419.0)">z</text><text xml:space="preserve" font-family="SourceCodePro-Regular" font-size="22.0" fill="#414141" transform="matrix(1.00, 0.00, -0.00, -1.00, 293.4, 419.0)">)</text><text xml:space="preserve" font-family="SourceCodePro-Regular" font-size="22.0" fill="#414141" transform="matrix(1.00, 0.00, -0.00, -1.00, 306.6, 419.0)">,</text><text xml:space="preserve" font-family="SourceCodePro-Regular" font-size="22.0" fill="#414141" transform="matrix(1.00, 0.00, -0.00, -1.00, 319.8, 419.0)"> </text><text xml:space="preserve" font-family="SourceCodePro-Regular" font-size="22.0" fill="#414141" transform="matrix(1.00, 0.00, -0.00, -1.00, 333.0, 419.0)">(</text><text xml:space="preserve" font-family="SourceCodePro-Semibold" font-weight="bold" font-size="22.0" fill="#414141" transform="matrix(1.00, 0.00, -0.00, -1.00, 346.2, 419.0)">6</text><text xml:space="preserve" font-family="SourceCodePro-Regular" font-size="22.0" fill="#414141" transform="matrix(1.00, 0.00, -0.00, -1.00, 359.4, 419.0)">,</text><text xml:space="preserve" font-family="SourceCodePro-Regular" font-size="22.0" fill="#414141" transform="matrix(1.00, 0.00, -0.00, -1.00, 372.6, 419.0)"> </text><text xml:space="preserve" font-family="SourceCodePro-Regular" font-size="22.0" fill="#414141" transform="matrix(1.00, 0.00, -0.00, -1.00, 385.8, 419.0)">f</text><text xml:space="preserve" font-family="SourceCodePro-Regular" font-size="22.0" fill="#414141" transform="matrix(1.00, 0.00, -0.00, -1.00, 399.0, 419.0)">o</text><text xml:space="preserve" font-family="SourceCodePro-Regular" font-size="22.0" fill="#414141" transform="matrix(1.00, 0.00, -0.00, -1.00, 412.2, 419.0)">o</text><text xml:space="preserve" font-family="SourceCodePro-Regular" font-size="22.0" fill="#414141" transform="matrix(1.00, 0.00, -0.00, -1.00, 425.4, 419.0)">)</text><text xml:space="preserve" font-family="SourceCodePro-Regular" font-size="22.0" fill="#414141" transform="matrix(1.00, 0.00, -0.00, -1.00, 438.6, 419.0)">,</text><text xml:space="preserve" font-family="SourceCodePro-Regular" font-size="22.0" fill="#414141" transform="matrix(1.00, 0.00, -0.00, -1.00, 451.8, 419.0)"> </text><text xml:space="preserve" font-family="SourceCodePro-Regular" font-size="22.0" fill="#414141" transform="matrix(1.00, 0.00, -0.00, -1.00, 465.0, 419.0)">(</text><text xml:space="preserve" font-family="SourceCodePro-Semibold" font-weight="bold" font-size="22.0" fill="#414141" transform="matrix(1.00, 0.00, -0.00, -1.00, 478.2, 419.0)">6</text><text xml:space="preserve" font-family="SourceCodePro-Regular" font-size="22.0" fill="#414141" transform="matrix(1.00, 0.00, -0.00, -1.00, 491.4, 419.0)">,</text><text xml:space="preserve" font-family="SourceCodePro-Regular" font-size="22.0" fill="#414141" transform="matrix(1.00, 0.00, -0.00, -1.00, 504.6, 419.0)"> </text><text xml:space="preserve" font-family="SourceCodePro-Regular" font-size="22.0" fill="#414141" transform="matrix(1.00, 0.00, -0.00, -1.00, 517.8, 419.0)">f</text><text xml:space="preserve" font-family="SourceCodePro-Regular" font-size="22.0" fill="#414141" transform="matrix(1.00, 0.00, -0.00, -1.00, 531.0, 419.0)">o</text><text xml:space="preserve" font-family="SourceCodePro-Regular" font-size="22.0" fill="#414141" transform="matrix(1.00, 0.00, -0.00, -1.00, 544.2, 419.0)">o</text><text xml:space="preserve" font-family="SourceCodePro-Regular" font-size="22.0" fill="#414141" transform="matrix(1.00, 0.00, -0.00, -1.00, 557.4, 419.0)">)</text><path d="M 0.0 0.4 C 161.9 0.3 323.8 0.1 485.7 0.0 L 487.2 0.0 " fill="none" stroke="#BCBCBC" stroke-width="3.00" stroke-dasharray="18.0, 18.0" transform="matrix(1.00, 0.00, 0.00, -1.00, 70.9, 380.6)"></path><path d="M 0.0 0.0 L 3.0 5.0 L 6.0 0.0 M 3.0 0.0 L 3.0 5.0 " fill="none" stroke="#BCBCBC" stroke-width="1.36" stroke-miterlimit="10.00" stroke-linejoin="round" transform="matrix(-0.00, 2.20, 2.20, 0.00, 556.6, 374.0)"></path><g><clipPath id="clip-584"><path d="M 254.5 205.7 L 385.5 205.7 L 385.5 336.7 L 254.5 336.7 Z M 254.5 205.7 "></path></clipPath><g clip-path="url(#clip-584)"><path d="M 106.7 18.3 C 131.1 42.7 131.1 82.3 106.7 106.7 C 82.3 131.1 42.7 131.1 18.3 106.7 C -6.1 82.3 -6.1 42.7 18.3 18.3 C 42.7 -6.1 82.3 -6.1 106.7 18.3 Z M 106.7 18.3 " fill="none" stroke="#414141" stroke-width="4.00" transform="matrix(1.00, 0.00, 0.00, -1.00, 257.5, 333.7)"></path></g></g><g><clipPath id="clip-585"><path d="M 304.3 268.2 L 346.3 268.2 L 346.3 274.2 L 304.3 274.2 Z M 304.3 268.2 "></path></clipPath><g clip-path="url(#clip-585)"><path d="M 0.0 0.0 L 40.1 0.0 " fill="none" stroke="#414141" stroke-width="4.00" transform="matrix(1.00, 0.00, 0.00, -1.00, 305.3, 271.2)"></path></g></g><g><clipPath id="clip-586"><path d="M 310.9 258.9 L 334.1 319.2 L 339.7 317.1 L 316.5 256.7 Z M 310.9 258.9 "></path></clipPath><g clip-path="url(#clip-586)"><path d="M 0.0 0.0 L 62.7 0.0 " fill="none" stroke="#414141" stroke-width="4.00" transform="matrix(0.36, 0.93, 0.93, -0.36, 314.0, 258.7)"></path></g></g></g></svg>