<?xml version="1.0" encoding="UTF-8" standalone="no"?><svg xmlns="http://www.w3.org/2000/svg" xmlns:xlink="http://www.w3.org/1999/xlink" clip-rule="evenodd" stroke-miterlimit="4.00" viewBox="0 0 146 27"><desc>SVG generated by Keynote</desc><defs></defs><g transform="matrix(1.00, 0.00, -0.00, -1.00, 0.0, 27.0)"><text xml:space="preserve" font-family="SourceCodePro-Semibold" font-weight="bold" font-size="24.0" fill="#FEFFFE" transform="matrix(1.00, 0.00, -0.00, -1.00, 1.0, 7.0)">C</text><text xml:space="preserve" font-family="SourceCodePro-Semibold" font-weight="bold" font-size="24.0" fill="#FEFFFE" transform="matrix(1.00, 0.00, -0.00, -1.00, 15.4, 7.0)">h</text><text xml:space="preserve" font-family="SourceCodePro-Semibold" font-weight="bold" font-size="24.0" fill="#FEFFFE" transform="matrix(1.00, 0.00, -0.00, -1.00, 29.8, 7.0)">e</text><text xml:space="preserve" font-family="SourceCodePro-Semibold" font-weight="bold" font-size="24.0" fill="#FEFFFE" transform="matrix(1.00, 0.00, -0.00, -1.00, 44.2, 7.0)">c</text><text xml:space="preserve" font-family="SourceCodePro-Semibold" font-weight="bold" font-size="24.0" fill="#FEFFFE" transform="matrix(1.00, 0.00, -0.00, -1.00, 58.6, 7.0)">k</text><text xml:space="preserve" font-family="SourceCodePro-Semibold" font-weight="bold" font-size="24.0" fill="#FEFFFE" transform="matrix(1.00, 0.00, -0.00, -1.00, 73.0, 7.0)">p</text><text xml:space="preserve" font-family="SourceCodePro-Semibold" font-weight="bold" font-size="24.0" fill="#FEFFFE" transform="matrix(1.00, 0.00, -0.00, -1.00, 87.4, 7.0)">o</text><text xml:space="preserve" font-family="SourceCodePro-Semibold" font-weight="bold" font-size="24.0" fill="#FEFFFE" transform="matrix(1.00, 0.00, -0.00, -1.00, 101.8, 7.0)">i</text><text xml:space="preserve" font-family="SourceCodePro-Semibold" font-weight="bold" font-size="24.0" fill="#FEFFFE" transform="matrix(1.00, 0.00, -0.00, -1.00, 116.2, 7.0)">n</text><text xml:space="preserve" font-family="SourceCodePro-Semibold" font-weight="bold" font-size="24.0" fill="#FEFFFE" transform="matrix(1.00, 0.00, -0.00, -1.00, 130.6, 7.0)">t</text></g></svg>