<?xml version="1.0" encoding="UTF-8" standalone="no"?><svg xmlns="http://www.w3.org/2000/svg" xmlns:xlink="http://www.w3.org/1999/xlink" clip-rule="evenodd" stroke-miterlimit="4.00" viewBox="0 0 168 398"><desc>SVG generated by Keynote</desc><defs></defs><g transform="matrix(1.00, 0.00, -0.00, -1.00, 0.0, 398.0)"><g><clipPath id="clip-156"><path d="M 123.3 95.0 L 167.4 95.0 L 167.4 139.1 L 123.3 139.1 Z M 123.3 95.0 "></path></clipPath><g clip-path="url(#clip-156)"><path d="M 160.2 131.9 C 168.4 123.7 168.4 110.3 160.2 102.1 C 152.0 93.9 138.7 93.9 130.4 102.1 C 122.2 110.3 122.2 123.7 130.4 131.9 C 138.7 140.1 152.0 140.1 160.2 131.9 Z M 160.2 131.9 " fill="#4489FF"></path></g></g><g><clipPath id="clip-157"><path d="M 22.5 353.8 L 66.6 353.8 L 66.6 397.9 L 22.5 397.9 Z M 22.5 353.8 "></path></clipPath><g clip-path="url(#clip-157)"><path d="M 59.5 390.8 C 67.7 382.5 67.7 369.2 59.5 361.0 C 51.2 352.8 37.9 352.8 29.7 361.0 C 21.5 369.2 21.5 382.5 29.7 390.8 C 37.9 399.0 51.2 399.0 59.5 390.8 Z M 59.5 390.8 " fill="#4489FF"></path></g></g><g><clipPath id="clip-158"><path d="M 52.0 235.6 L 96.1 235.6 L 96.1 279.6 L 52.0 279.6 Z M 52.0 235.6 "></path></clipPath><g clip-path="url(#clip-158)"><path d="M 88.9 272.5 C 97.1 264.3 97.1 250.9 88.9 242.7 C 80.7 234.5 67.4 234.5 59.1 242.7 C 50.9 250.9 50.9 264.3 59.1 272.5 C 67.4 280.7 80.7 280.7 88.9 272.5 Z M 88.9 272.5 " fill="#4489FF"></path></g></g><g><clipPath id="clip-159"><path d="M 51.1 346.8 L 65.0 279.9 L 61.0 279.1 L 47.2 346.0 Z M 51.1 346.8 "></path></clipPath><g clip-path="url(#clip-159)"><path d="M 0.0 0.0 L 66.3 0.0 " fill="none" stroke="#BCBCBC" stroke-width="2.00" transform="matrix(0.20, -0.98, -0.98, -0.20, 49.4, 345.4)"></path></g></g><g><clipPath id="clip-160"><path d="M 94.6 229.6 L 148.2 147.1 L 144.8 145.0 L 91.2 227.5 Z M 94.6 229.6 "></path></clipPath><g clip-path="url(#clip-160)"><path d="M 0.0 0.0 L 96.4 0.0 " fill="none" stroke="#BCBCBC" stroke-width="2.00" transform="matrix(0.54, -0.84, -0.84, -0.54, 93.4, 227.7)"></path></g></g><g><clipPath id="clip-161"><path d="M 0.6 155.0 L 44.7 155.0 L 44.7 199.1 L 0.6 199.1 Z M 0.6 155.0 "></path></clipPath><g clip-path="url(#clip-161)"><path d="M 37.5 191.9 C 45.7 183.7 45.7 170.4 37.5 162.2 C 29.3 154.0 16.0 154.0 7.7 162.2 C -0.5 170.4 -0.5 183.7 7.7 191.9 C 16.0 200.2 29.3 200.2 37.5 191.9 Z M 37.5 191.9 " fill="#4489FF"></path></g></g><g><clipPath id="clip-162"><path d="M 49.3 175.7 L 120.4 136.9 L 118.5 133.3 L 47.4 172.2 Z M 49.3 175.7 "></path></clipPath><g clip-path="url(#clip-162)"><path d="M 0.0 0.0 L 79.0 0.0 " fill="none" stroke="#BCBCBC" stroke-width="2.00" transform="matrix(0.88, -0.48, -0.48, -0.88, 49.3, 173.4)"></path></g></g><g><clipPath id="clip-163"><path d="M 0.6 0.4 L 44.7 0.4 L 44.7 44.5 L 0.6 44.5 Z M 0.6 0.4 "></path></clipPath><g clip-path="url(#clip-163)"><path d="M 37.5 37.3 C 45.7 29.1 45.7 15.7 37.5 7.5 C 29.3 -0.7 16.0 -0.7 7.7 7.5 C -0.5 15.7 -0.5 29.1 7.7 37.3 C 16.0 45.5 29.3 45.5 37.5 37.3 Z M 37.5 37.3 " fill="#4489FF"></path></g></g><g><clipPath id="clip-164"><path d="M 24.6 144.3 L 24.6 55.2 L 20.6 55.2 L 20.6 144.3 Z M 24.6 144.3 "></path></clipPath><g clip-path="url(#clip-164)"><path d="M 0.0 0.0 L 87.1 0.0 " fill="none" stroke="#BCBCBC" stroke-width="2.00" transform="matrix(0.00, -1.00, -1.00, 0.00, 22.6, 143.3)"></path></g></g><g><clipPath id="clip-165"><path d="M 32.8 346.1 L 16.4 202.3 L 12.4 202.7 L 28.9 346.5 Z M 32.8 346.1 "></path></clipPath><g clip-path="url(#clip-165)"><path d="M 0.0 0.0 L 142.7 0.0 " fill="none" stroke="#BCBCBC" stroke-width="2.00" transform="matrix(-0.11, -0.99, -0.99, 0.11, 30.7, 345.3)"></path></g></g><g><clipPath id="clip-166"><path d="M 56.2 40.6 L 115.1 99.6 L 117.9 96.7 L 59.0 37.8 Z M 56.2 40.6 "></path></clipPath><g clip-path="url(#clip-166)"><path d="M 0.0 0.0 L 81.3 0.0 " fill="none" stroke="#BCBCBC" stroke-width="2.00" transform="matrix(0.71, 0.71, 0.71, -0.71, 58.3, 39.9)"></path></g></g></g></svg>