<?xml version="1.0" encoding="UTF-8" standalone="no"?><svg xmlns="http://www.w3.org/2000/svg" xmlns:xlink="http://www.w3.org/1999/xlink" clip-rule="evenodd" stroke-miterlimit="4.00" viewBox="0 0 155 22"><desc>SVG generated by Keynote</desc><defs></defs><g transform="matrix(1.00, 0.00, -0.00, -1.00, 0.0, 22.0)"><text xml:space="preserve" font-family="SourceCodePro-Regular" font-size="16.5" fill="#414141" transform="matrix(1.00, 0.00, -0.00, -1.00, 0.2, 4.9)">•</text><text xml:space="preserve" font-family="SourceCodePro-Regular" font-size="22.0" fill="#414141" transform="matrix(1.00, 0.00, -0.00, -1.00, 22.0, 3.0)">S</text><text xml:space="preserve" font-family="SourceCodePro-Regular" font-size="22.0" fill="#414141" transform="matrix(1.00, 0.00, -0.00, -1.00, 35.2, 3.0)">u</text><text xml:space="preserve" font-family="SourceCodePro-Regular" font-size="22.0" fill="#414141" transform="matrix(1.00, 0.00, -0.00, -1.00, 48.4, 3.0)">b</text><text xml:space="preserve" font-family="SourceCodePro-Regular" font-size="22.0" fill="#414141" transform="matrix(1.00, 0.00, -0.00, -1.00, 61.6, 3.0)">m</text><text xml:space="preserve" font-family="SourceCodePro-Regular" font-size="22.0" fill="#414141" transform="matrix(1.00, 0.00, -0.00, -1.00, 74.8, 3.0)">i</text><text xml:space="preserve" font-family="SourceCodePro-Regular" font-size="22.0" fill="#414141" transform="matrix(1.00, 0.00, -0.00, -1.00, 88.0, 3.0)">t</text><text xml:space="preserve" font-family="SourceCodePro-Regular" font-size="22.0" fill="#414141" transform="matrix(1.00, 0.00, -0.00, -1.00, 101.2, 3.0)"> </text><text xml:space="preserve" font-family="SourceCodePro-Regular" font-size="22.0" fill="#414141" transform="matrix(1.00, 0.00, -0.00, -1.00, 114.4, 3.0)">J</text><text xml:space="preserve" font-family="SourceCodePro-Regular" font-size="22.0" fill="#414141" transform="matrix(1.00, 0.00, -0.00, -1.00, 127.6, 3.0)">o</text><text xml:space="preserve" font-family="SourceCodePro-Regular" font-size="22.0" fill="#414141" transform="matrix(1.00, 0.00, -0.00, -1.00, 140.8, 3.0)">b</text></g></svg>