<?xml version="1.0" encoding="UTF-8" standalone="no"?><svg xmlns="http://www.w3.org/2000/svg" xmlns:xlink="http://www.w3.org/1999/xlink" clip-rule="evenodd" stroke-miterlimit="4.00" viewBox="0 0 1024 768"><desc>SVG generated by Keynote</desc><defs></defs><g transform="matrix(1.00, 0.00, -0.00, -1.00, 0.0, 768.0)"><path d="M 0.0 768.0 L 1024.0 768.0 L 1024.0 0.0 L 0.0 0.0 Z M 0.0 768.0 " fill="#FEFFFF"></path><text xml:space="preserve" font-family="SourceCodePro-Regular" font-size="12.0" fill="#747474" transform="matrix(1.00, 0.00, -0.00, -1.00, 19.0, 19.0)">L</text><text xml:space="preserve" font-family="SourceCodePro-Regular" font-size="12.0" fill="#747474" transform="matrix(1.00, 0.00, -0.00, -1.00, 26.2, 19.0)">o</text><text xml:space="preserve" font-family="SourceCodePro-Regular" font-size="12.0" fill="#747474" transform="matrix(1.00, 0.00, -0.00, -1.00, 33.4, 19.0)">r</text><text xml:space="preserve" font-family="SourceCodePro-Regular" font-size="12.0" fill="#747474" transform="matrix(1.00, 0.00, -0.00, -1.00, 40.6, 19.0)">e</text><text xml:space="preserve" font-family="SourceCodePro-Regular" font-size="12.0" fill="#747474" transform="matrix(1.00, 0.00, -0.00, -1.00, 47.8, 19.0)">n</text><text xml:space="preserve" font-family="SourceCodePro-Regular" font-size="12.0" fill="#747474" transform="matrix(1.00, 0.00, -0.00, -1.00, 55.0, 19.0)">z</text><text xml:space="preserve" font-family="SourceCodePro-Regular" font-size="12.0" fill="#747474" transform="matrix(1.00, 0.00, -0.00, -1.00, 62.2, 19.0)">o</text><text xml:space="preserve" font-family="SourceCodePro-Regular" font-size="12.0" fill="#747474" transform="matrix(1.00, 0.00, -0.00, -1.00, 69.4, 19.0)"> </text><text xml:space="preserve" font-family="SourceCodePro-Regular" font-size="12.0" fill="#747474" transform="matrix(1.00, 0.00, -0.00, -1.00, 76.6, 19.0)">A</text><text xml:space="preserve" font-family="SourceCodePro-Regular" font-size="12.0" fill="#747474" transform="matrix(1.00, 0.00, -0.00, -1.00, 83.8, 19.0)">f</text><text xml:space="preserve" font-family="SourceCodePro-Regular" font-size="12.0" fill="#747474" transform="matrix(1.00, 0.00, -0.00, -1.00, 91.0, 19.0)">f</text><text xml:space="preserve" font-family="SourceCodePro-Regular" font-size="12.0" fill="#747474" transform="matrix(1.00, 0.00, -0.00, -1.00, 98.2, 19.0)">e</text><text xml:space="preserve" font-family="SourceCodePro-Regular" font-size="12.0" fill="#747474" transform="matrix(1.00, 0.00, -0.00, -1.00, 105.4, 19.0)">t</text><text xml:space="preserve" font-family="SourceCodePro-Regular" font-size="12.0" fill="#747474" transform="matrix(1.00, 0.00, -0.00, -1.00, 112.6, 19.0)">t</text><text xml:space="preserve" font-family="SourceCodePro-Regular" font-size="12.0" fill="#747474" transform="matrix(1.00, 0.00, -0.00, -1.00, 119.8, 19.0)">i</text><text xml:space="preserve" font-family="SourceCodePro-Regular" font-size="12.0" fill="#747474" transform="matrix(1.00, 0.00, -0.00, -1.00, 127.0, 19.0)"> </text><text xml:space="preserve" font-family="SourceCodePro-Regular" font-size="12.0" fill="#747474" transform="matrix(1.00, 0.00, -0.00, -1.00, 134.2, 19.0)">(</text><text xml:space="preserve" font-family="SourceCodePro-Regular" font-size="12.0" fill="#747474" transform="matrix(1.00, 0.00, -0.00, -1.00, 141.4, 19.0)">l</text><text xml:space="preserve" font-family="SourceCodePro-Regular" font-size="12.0" fill="#747474" transform="matrix(1.00, 0.00, -0.00, -1.00, 148.6, 19.0)">o</text><text xml:space="preserve" font-family="SourceCodePro-Regular" font-size="12.0" fill="#747474" transform="matrix(1.00, 0.00, -0.00, -1.00, 155.8, 19.0)">r</text><text xml:space="preserve" font-family="SourceCodePro-Regular" font-size="12.0" fill="#747474" transform="matrix(1.00, 0.00, -0.00, -1.00, 163.0, 19.0)">e</text><text xml:space="preserve" font-family="SourceCodePro-Regular" font-size="12.0" fill="#747474" transform="matrix(1.00, 0.00, -0.00, -1.00, 170.2, 19.0)">n</text><text xml:space="preserve" font-family="SourceCodePro-Regular" font-size="12.0" fill="#747474" transform="matrix(1.00, 0.00, -0.00, -1.00, 177.4, 19.0)">z</text><text xml:space="preserve" font-family="SourceCodePro-Regular" font-size="12.0" fill="#747474" transform="matrix(1.00, 0.00, -0.00, -1.00, 184.6, 19.0)">o</text><text xml:space="preserve" font-family="SourceCodePro-Regular" font-size="12.0" fill="#747474" transform="matrix(1.00, 0.00, -0.00, -1.00, 191.8, 19.0)">.</text><text xml:space="preserve" font-family="SourceCodePro-Regular" font-size="12.0" fill="#747474" transform="matrix(1.00, 0.00, -0.00, -1.00, 199.0, 19.0)">a</text><text xml:space="preserve" font-family="SourceCodePro-Regular" font-size="12.0" fill="#747474" transform="matrix(1.00, 0.00, -0.00, -1.00, 206.2, 19.0)">f</text><text xml:space="preserve" font-family="SourceCodePro-Regular" font-size="12.0" fill="#747474" transform="matrix(1.00, 0.00, -0.00, -1.00, 213.4, 19.0)">f</text><text xml:space="preserve" font-family="SourceCodePro-Regular" font-size="12.0" fill="#747474" transform="matrix(1.00, 0.00, -0.00, -1.00, 220.6, 19.0)">e</text><text xml:space="preserve" font-family="SourceCodePro-Regular" font-size="12.0" fill="#747474" transform="matrix(1.00, 0.00, -0.00, -1.00, 227.8, 19.0)">t</text><text xml:space="preserve" font-family="SourceCodePro-Regular" font-size="12.0" fill="#747474" transform="matrix(1.00, 0.00, -0.00, -1.00, 235.0, 19.0)">t</text><text xml:space="preserve" font-family="SourceCodePro-Regular" font-size="12.0" fill="#747474" transform="matrix(1.00, 0.00, -0.00, -1.00, 242.2, 19.0)">i</text><text xml:space="preserve" font-family="SourceCodePro-Regular" font-size="12.0" fill="#747474" transform="matrix(1.00, 0.00, -0.00, -1.00, 249.4, 19.0)">@</text><text xml:space="preserve" font-family="SourceCodePro-Regular" font-size="12.0" fill="#747474" transform="matrix(1.00, 0.00, -0.00, -1.00, 256.6, 19.0)">p</text><text xml:space="preserve" font-family="SourceCodePro-Regular" font-size="12.0" fill="#747474" transform="matrix(1.00, 0.00, -0.00, -1.00, 263.8, 19.0)">o</text><text xml:space="preserve" font-family="SourceCodePro-Regular" font-size="12.0" fill="#747474" transform="matrix(1.00, 0.00, -0.00, -1.00, 271.0, 19.0)">l</text><text xml:space="preserve" font-family="SourceCodePro-Regular" font-size="12.0" fill="#747474" transform="matrix(1.00, 0.00, -0.00, -1.00, 278.2, 19.0)">i</text><text xml:space="preserve" font-family="SourceCodePro-Regular" font-size="12.0" fill="#747474" transform="matrix(1.00, 0.00, -0.00, -1.00, 285.4, 19.0)">m</text><text xml:space="preserve" font-family="SourceCodePro-Regular" font-size="12.0" fill="#747474" transform="matrix(1.00, 0.00, -0.00, -1.00, 292.6, 19.0)">i</text><text xml:space="preserve" font-family="SourceCodePro-Regular" font-size="12.0" fill="#747474" transform="matrix(1.00, 0.00, -0.00, -1.00, 299.8, 19.0)">.</text><text xml:space="preserve" font-family="SourceCodePro-Regular" font-size="12.0" fill="#747474" transform="matrix(1.00, 0.00, -0.00, -1.00, 307.0, 19.0)">i</text><text xml:space="preserve" font-family="SourceCodePro-Regular" font-size="12.0" fill="#747474" transform="matrix(1.00, 0.00, -0.00, -1.00, 314.2, 19.0)">t</text><text xml:space="preserve" font-family="SourceCodePro-Regular" font-size="12.0" fill="#747474" transform="matrix(1.00, 0.00, -0.00, -1.00, 321.4, 19.0)">)</text><text xml:space="preserve" font-family="SourceCodePro-Regular" font-size="12.0" fill="#747474" transform="matrix(1.00, 0.00, -0.00, -1.00, 328.6, 19.0)"> </text><text xml:space="preserve" font-family="SourceCodePro-Regular" font-size="12.0" fill="#747474" transform="matrix(1.00, 0.00, -0.00, -1.00, 335.8, 19.0)">-</text><text xml:space="preserve" font-family="SourceCodePro-Regular" font-size="12.0" fill="#747474" transform="matrix(1.00, 0.00, -0.00, -1.00, 343.0, 19.0)"> </text><text xml:space="preserve" font-family="SourceCodePro-Regular" font-size="12.0" fill="#747474" transform="matrix(1.00, 0.00, -0.00, -1.00, 350.2, 19.0)">P</text><text xml:space="preserve" font-family="SourceCodePro-Regular" font-size="12.0" fill="#747474" transform="matrix(1.00, 0.00, -0.00, -1.00, 357.4, 19.0)">o</text><text xml:space="preserve" font-family="SourceCodePro-Regular" font-size="12.0" fill="#747474" transform="matrix(1.00, 0.00, -0.00, -1.00, 364.6, 19.0)">l</text><text xml:space="preserve" font-family="SourceCodePro-Regular" font-size="12.0" fill="#747474" transform="matrix(1.00, 0.00, -0.00, -1.00, 371.8, 19.0)">i</text><text xml:space="preserve" font-family="SourceCodePro-Regular" font-size="12.0" fill="#747474" transform="matrix(1.00, 0.00, -0.00, -1.00, 379.0, 19.0)">t</text><text xml:space="preserve" font-family="SourceCodePro-Regular" font-size="12.0" fill="#747474" transform="matrix(1.00, 0.00, -0.00, -1.00, 386.2, 19.0)">e</text><text xml:space="preserve" font-family="SourceCodePro-Regular" font-size="12.0" fill="#747474" transform="matrix(1.00, 0.00, -0.00, -1.00, 393.4, 19.0)">c</text><text xml:space="preserve" font-family="SourceCodePro-Regular" font-size="12.0" fill="#747474" transform="matrix(1.00, 0.00, -0.00, -1.00, 400.6, 19.0)">n</text><text xml:space="preserve" font-family="SourceCodePro-Regular" font-size="12.0" fill="#747474" transform="matrix(1.00, 0.00, -0.00, -1.00, 407.8, 19.0)">i</text><text xml:space="preserve" font-family="SourceCodePro-Regular" font-size="12.0" fill="#747474" transform="matrix(1.00, 0.00, -0.00, -1.00, 415.0, 19.0)">c</text><text xml:space="preserve" font-family="SourceCodePro-Regular" font-size="12.0" fill="#747474" transform="matrix(1.00, 0.00, -0.00, -1.00, 422.2, 19.0)">o</text><text xml:space="preserve" font-family="SourceCodePro-Regular" font-size="12.0" fill="#747474" transform="matrix(1.00, 0.00, -0.00, -1.00, 429.4, 19.0)"> </text><text xml:space="preserve" font-family="SourceCodePro-Regular" font-size="12.0" fill="#747474" transform="matrix(1.00, 0.00, -0.00, -1.00, 436.6, 19.0)">d</text><text xml:space="preserve" font-family="SourceCodePro-Regular" font-size="12.0" fill="#747474" transform="matrix(1.00, 0.00, -0.00, -1.00, 443.8, 19.0)">i</text><text xml:space="preserve" font-family="SourceCodePro-Regular" font-size="12.0" fill="#747474" transform="matrix(1.00, 0.00, -0.00, -1.00, 451.0, 19.0)"> </text><text xml:space="preserve" font-family="SourceCodePro-Regular" font-size="12.0" fill="#747474" transform="matrix(1.00, 0.00, -0.00, -1.00, 458.2, 19.0)">M</text><text xml:space="preserve" font-family="SourceCodePro-Regular" font-size="12.0" fill="#747474" transform="matrix(1.00, 0.00, -0.00, -1.00, 465.4, 19.0)">i</text><text xml:space="preserve" font-family="SourceCodePro-Regular" font-size="12.0" fill="#747474" transform="matrix(1.00, 0.00, -0.00, -1.00, 472.6, 19.0)">l</text><text xml:space="preserve" font-family="SourceCodePro-Regular" font-size="12.0" fill="#747474" transform="matrix(1.00, 0.00, -0.00, -1.00, 479.8, 19.0)">a</text><text xml:space="preserve" font-family="SourceCodePro-Regular" font-size="12.0" fill="#747474" transform="matrix(1.00, 0.00, -0.00, -1.00, 487.0, 19.0)">n</text><text xml:space="preserve" font-family="SourceCodePro-Regular" font-size="12.0" fill="#747474" transform="matrix(1.00, 0.00, -0.00, -1.00, 494.2, 19.0)">o</text><text xml:space="preserve" font-family="SourceCodePro-Regular" font-size="12.0" fill="#747474" transform="matrix(1.00, 0.00, -0.00, -1.00, 501.4, 19.0)">,</text><text xml:space="preserve" font-family="SourceCodePro-Regular" font-size="12.0" fill="#747474" transform="matrix(1.00, 0.00, -0.00, -1.00, 508.6, 19.0)"> </text><text xml:space="preserve" font-family="SourceCodePro-Regular" font-size="12.0" fill="#747474" transform="matrix(1.00, 0.00, -0.00, -1.00, 515.8, 19.0)">D</text><text xml:space="preserve" font-family="SourceCodePro-Regular" font-size="12.0" fill="#747474" transform="matrix(1.00, 0.00, -0.00, -1.00, 523.0, 19.0)">E</text><text xml:space="preserve" font-family="SourceCodePro-Regular" font-size="12.0" fill="#747474" transform="matrix(1.00, 0.00, -0.00, -1.00, 530.2, 19.0)">I</text><text xml:space="preserve" font-family="SourceCodePro-Regular" font-size="12.0" fill="#747474" transform="matrix(1.00, 0.00, -0.00, -1.00, 537.4, 19.0)">B</text><g><clipPath id="clip-213"><path d="M 140.8 16.1 L 321.8 16.1 L 321.8 18.7 L 140.8 18.7 Z M 140.8 16.1 "></path></clipPath><g clip-path="url(#clip-213)"><path d="M 126.9 17.1 L 306.9 17.1 " fill="none" stroke="#747474" stroke-width="0.60" stroke-miterlimit="0.00" transform="matrix(1.00, 0.00, 0.00, -1.00, 14.9, 34.5)"></path></g></g><text xml:space="preserve" font-family="Lora-Bold" font-weight="bold" font-size="80.0" fill="#212121" transform="matrix(1.00, 0.00, -0.00, -1.00, 318.0, 678.0)">T</text><text xml:space="preserve" font-family="Lora-Bold" font-weight="bold" font-size="80.0" fill="#212121" transform="matrix(1.00, 0.00, -0.00, -1.00, 367.4, 678.0)">a</text><text xml:space="preserve" font-family="Lora-Bold" font-weight="bold" font-size="80.0" fill="#212121" transform="matrix(1.00, 0.00, -0.00, -1.00, 409.4, 678.0)">s</text><text xml:space="preserve" font-family="Lora-Bold" font-weight="bold" font-size="80.0" fill="#212121" transform="matrix(1.00, 0.00, -0.00, -1.00, 448.2, 678.0)">k</text><text xml:space="preserve" font-family="Lora-Bold" font-weight="bold" font-size="80.0" fill="#212121" transform="matrix(1.00, 0.00, -0.00, -1.00, 495.7, 678.0)"> </text><text xml:space="preserve" font-family="Lora-Bold" font-weight="bold" font-size="80.0" fill="#212121" transform="matrix(1.00, 0.00, -0.00, -1.00, 516.7, 678.0)">S</text><text xml:space="preserve" font-family="Lora-Bold" font-weight="bold" font-size="80.0" fill="#212121" transform="matrix(1.00, 0.00, -0.00, -1.00, 564.2, 678.0)">l</text><text xml:space="preserve" font-family="Lora-Bold" font-weight="bold" font-size="80.0" fill="#212121" transform="matrix(1.00, 0.00, -0.00, -1.00, 589.2, 678.0)">o</text><text xml:space="preserve" font-family="Lora-Bold" font-weight="bold" font-size="80.0" fill="#212121" transform="matrix(1.00, 0.00, -0.00, -1.00, 634.4, 678.0)">t</text><text xml:space="preserve" font-family="Lora-Bold" font-weight="bold" font-size="80.0" fill="#212121" transform="matrix(1.00, 0.00, -0.00, -1.00, 667.5, 678.0)">s</text><text xml:space="preserve" font-family="Helvetica-Light" font-size="18.0" fill="#000000" transform="matrix(1.00, 0.00, -0.00, -1.00, 992.0, 16.0)">2</text><text xml:space="preserve" font-family="Helvetica-Light" font-size="18.0" fill="#000000" transform="matrix(1.00, 0.00, -0.00, -1.00, 1002.0, 16.0)">1</text><path d="M 0.0 0.0 L 346.3 0.0 L 346.3 381.2 L 0.0 381.2 Z M 0.0 0.0 " fill="none" stroke="#616060" stroke-width="3.00" transform="matrix(1.00, 0.00, 0.00, -1.00, 126.1, 472.9)"></path><g><clipPath id="clip-214"><path d="M 122.7 93.7 L 475.9 93.7 L 475.9 476.4 L 122.7 476.4 Z M 122.7 93.7 "></path></clipPath><g clip-path="url(#clip-214)"><text xml:space="preserve" font-family="SourceCodePro-Semibold" font-weight="bold" font-size="30.0" fill="#616060" transform="matrix(1.00, 0.00, -0.00, -1.00, 191.0, 437.0)">T</text><text xml:space="preserve" font-family="SourceCodePro-Semibold" font-weight="bold" font-size="30.0" fill="#616060" transform="matrix(1.00, 0.00, -0.00, -1.00, 209.0, 437.0)">a</text><text xml:space="preserve" font-family="SourceCodePro-Semibold" font-weight="bold" font-size="30.0" fill="#616060" transform="matrix(1.00, 0.00, -0.00, -1.00, 227.0, 437.0)">s</text><text xml:space="preserve" font-family="SourceCodePro-Semibold" font-weight="bold" font-size="30.0" fill="#616060" transform="matrix(1.00, 0.00, -0.00, -1.00, 245.0, 437.0)">k</text><text xml:space="preserve" font-family="SourceCodePro-Semibold" font-weight="bold" font-size="30.0" fill="#616060" transform="matrix(1.00, 0.00, -0.00, -1.00, 263.0, 437.0)">M</text><text xml:space="preserve" font-family="SourceCodePro-Semibold" font-weight="bold" font-size="30.0" fill="#616060" transform="matrix(1.00, 0.00, -0.00, -1.00, 281.0, 437.0)">a</text><text xml:space="preserve" font-family="SourceCodePro-Semibold" font-weight="bold" font-size="30.0" fill="#616060" transform="matrix(1.00, 0.00, -0.00, -1.00, 299.0, 437.0)">n</text><text xml:space="preserve" font-family="SourceCodePro-Semibold" font-weight="bold" font-size="30.0" fill="#616060" transform="matrix(1.00, 0.00, -0.00, -1.00, 317.0, 437.0)">a</text><text xml:space="preserve" font-family="SourceCodePro-Semibold" font-weight="bold" font-size="30.0" fill="#616060" transform="matrix(1.00, 0.00, -0.00, -1.00, 335.0, 437.0)">g</text><text xml:space="preserve" font-family="SourceCodePro-Semibold" font-weight="bold" font-size="30.0" fill="#616060" transform="matrix(1.00, 0.00, -0.00, -1.00, 353.0, 437.0)">e</text><text xml:space="preserve" font-family="SourceCodePro-Semibold" font-weight="bold" font-size="30.0" fill="#616060" transform="matrix(1.00, 0.00, -0.00, -1.00, 371.0, 437.0)">r</text><text xml:space="preserve" font-family="SourceCodePro-Semibold" font-weight="bold" font-size="30.0" fill="#616060" transform="matrix(1.00, 0.00, -0.00, -1.00, 389.0, 437.0)">1</text></g></g><path d="M 0.0 0.0 L 293.5 0.0 L 293.5 85.4 L 0.0 85.4 Z M 0.0 0.0 " fill="none" stroke="#BCBCBC" stroke-width="5.00" transform="matrix(1.00, 0.00, 0.00, -1.00, 152.5, 403.2)"></path><g><clipPath id="clip-215"><path d="M 152.0 320.8 L 446.6 320.8 L 446.6 400.2 L 152.0 400.2 Z M 152.0 320.8 "></path></clipPath><g clip-path="url(#clip-215)"><text xml:space="preserve" font-family="SourceCodePro-Semibold" font-weight="bold" font-size="24.0" fill="#BCBCBC" transform="matrix(1.00, 0.00, -0.00, -1.00, 263.0, 352.0)">S</text><text xml:space="preserve" font-family="SourceCodePro-Semibold" font-weight="bold" font-size="24.0" fill="#BCBCBC" transform="matrix(1.00, 0.00, -0.00, -1.00, 277.4, 352.0)">l</text><text xml:space="preserve" font-family="SourceCodePro-Semibold" font-weight="bold" font-size="24.0" fill="#BCBCBC" transform="matrix(1.00, 0.00, -0.00, -1.00, 291.8, 352.0)">o</text><text xml:space="preserve" font-family="SourceCodePro-Semibold" font-weight="bold" font-size="24.0" fill="#BCBCBC" transform="matrix(1.00, 0.00, -0.00, -1.00, 306.2, 352.0)">t</text><text xml:space="preserve" font-family="SourceCodePro-Semibold" font-weight="bold" font-size="24.0" fill="#BCBCBC" transform="matrix(1.00, 0.00, -0.00, -1.00, 320.6, 352.0)">1</text></g></g><path d="M 0.0 0.0 L 293.5 0.0 L 293.5 85.4 L 0.0 85.4 Z M 0.0 0.0 " fill="none" stroke="#BCBCBC" stroke-width="5.00" transform="matrix(1.00, 0.00, 0.00, -1.00, 152.5, 301.5)"></path><g><clipPath id="clip-216"><path d="M 152.0 219.1 L 446.6 219.1 L 446.6 298.5 L 152.0 298.5 Z M 152.0 219.1 "></path></clipPath><g clip-path="url(#clip-216)"><text xml:space="preserve" font-family="SourceCodePro-Semibold" font-weight="bold" font-size="24.0" fill="#BCBCBC" transform="matrix(1.00, 0.00, -0.00, -1.00, 263.0, 250.0)">S</text><text xml:space="preserve" font-family="SourceCodePro-Semibold" font-weight="bold" font-size="24.0" fill="#BCBCBC" transform="matrix(1.00, 0.00, -0.00, -1.00, 277.4, 250.0)">l</text><text xml:space="preserve" font-family="SourceCodePro-Semibold" font-weight="bold" font-size="24.0" fill="#BCBCBC" transform="matrix(1.00, 0.00, -0.00, -1.00, 291.8, 250.0)">o</text><text xml:space="preserve" font-family="SourceCodePro-Semibold" font-weight="bold" font-size="24.0" fill="#BCBCBC" transform="matrix(1.00, 0.00, -0.00, -1.00, 306.2, 250.0)">t</text><text xml:space="preserve" font-family="SourceCodePro-Semibold" font-weight="bold" font-size="24.0" fill="#BCBCBC" transform="matrix(1.00, 0.00, -0.00, -1.00, 320.6, 250.0)">2</text></g></g><path d="M 0.0 0.0 L 293.5 0.0 L 293.5 85.4 L 0.0 85.4 Z M 0.0 0.0 " fill="none" stroke="#BCBCBC" stroke-width="5.00" transform="matrix(1.00, 0.00, 0.00, -1.00, 152.5, 199.8)"></path><g><clipPath id="clip-217"><path d="M 152.0 117.4 L 446.6 117.4 L 446.6 196.8 L 152.0 196.8 Z M 152.0 117.4 "></path></clipPath><g clip-path="url(#clip-217)"><text xml:space="preserve" font-family="SourceCodePro-Semibold" font-weight="bold" font-size="24.0" fill="#BCBCBC" transform="matrix(1.00, 0.00, -0.00, -1.00, 263.0, 148.0)">S</text><text xml:space="preserve" font-family="SourceCodePro-Semibold" font-weight="bold" font-size="24.0" fill="#BCBCBC" transform="matrix(1.00, 0.00, -0.00, -1.00, 277.4, 148.0)">l</text><text xml:space="preserve" font-family="SourceCodePro-Semibold" font-weight="bold" font-size="24.0" fill="#BCBCBC" transform="matrix(1.00, 0.00, -0.00, -1.00, 291.8, 148.0)">o</text><text xml:space="preserve" font-family="SourceCodePro-Semibold" font-weight="bold" font-size="24.0" fill="#BCBCBC" transform="matrix(1.00, 0.00, -0.00, -1.00, 306.2, 148.0)">t</text><text xml:space="preserve" font-family="SourceCodePro-Semibold" font-weight="bold" font-size="24.0" fill="#BCBCBC" transform="matrix(1.00, 0.00, -0.00, -1.00, 320.6, 148.0)">3</text></g></g><path d="M 110.8 652.5 C 108.1 652.5 105.8 650.3 105.8 647.5 L 105.8 527.5 C 105.8 524.7 108.1 522.5 110.8 522.5 L 208.9 522.5 L 249.0 500.3 L 289.2 522.5 L 913.2 522.5 C 915.9 522.5 918.2 524.7 918.2 527.5 L 918.2 647.5 C 918.2 650.3 915.9 652.5 913.2 652.5 L 110.8 652.5 Z M 110.8 652.5 " fill="#E82662"></path><g><clipPath id="clip-218"><path d="M 99.5 522.5 L 924.5 522.5 L 924.5 652.5 L 99.5 652.5 Z M 99.5 522.5 "></path></clipPath><g clip-path="url(#clip-218)"><text xml:space="preserve" font-family="SourceCodePro-Semibold" font-weight="bold" font-size="33.0" fill="#FEFFFE" transform="matrix(1.00, 0.00, -0.00, -1.00, 110.0, 596.0)">f</text><text xml:space="preserve" font-family="SourceCodePro-Semibold" font-weight="bold" font-size="33.0" fill="#FEFFFE" transform="matrix(1.00, 0.00, -0.00, -1.00, 129.8, 596.0)">l</text><text xml:space="preserve" font-family="SourceCodePro-Semibold" font-weight="bold" font-size="33.0" fill="#FEFFFE" transform="matrix(1.00, 0.00, -0.00, -1.00, 149.6, 596.0)">i</text><text xml:space="preserve" font-family="SourceCodePro-Semibold" font-weight="bold" font-size="33.0" fill="#FEFFFE" transform="matrix(1.00, 0.00, -0.00, -1.00, 169.4, 596.0)">n</text><text xml:space="preserve" font-family="SourceCodePro-Semibold" font-weight="bold" font-size="33.0" fill="#FEFFFE" transform="matrix(1.00, 0.00, -0.00, -1.00, 189.2, 596.0)">k</text><text xml:space="preserve" font-family="SourceCodePro-Semibold" font-weight="bold" font-size="33.0" fill="#FEFFFE" transform="matrix(1.00, 0.00, -0.00, -1.00, 209.0, 596.0)">-</text><text xml:space="preserve" font-family="SourceCodePro-Semibold" font-weight="bold" font-size="33.0" fill="#FEFFFE" transform="matrix(1.00, 0.00, -0.00, -1.00, 228.8, 596.0)">c</text><text xml:space="preserve" font-family="SourceCodePro-Semibold" font-weight="bold" font-size="33.0" fill="#FEFFFE" transform="matrix(1.00, 0.00, -0.00, -1.00, 248.6, 596.0)">o</text><text xml:space="preserve" font-family="SourceCodePro-Semibold" font-weight="bold" font-size="33.0" fill="#FEFFFE" transform="matrix(1.00, 0.00, -0.00, -1.00, 268.4, 596.0)">n</text><text xml:space="preserve" font-family="SourceCodePro-Semibold" font-weight="bold" font-size="33.0" fill="#FEFFFE" transform="matrix(1.00, 0.00, -0.00, -1.00, 288.2, 596.0)">f</text><text xml:space="preserve" font-family="SourceCodePro-Semibold" font-weight="bold" font-size="33.0" fill="#FEFFFE" transform="matrix(1.00, 0.00, -0.00, -1.00, 308.0, 596.0)">i</text><text xml:space="preserve" font-family="SourceCodePro-Semibold" font-weight="bold" font-size="33.0" fill="#FEFFFE" transform="matrix(1.00, 0.00, -0.00, -1.00, 327.8, 596.0)">g</text><text xml:space="preserve" font-family="SourceCodePro-Semibold" font-weight="bold" font-size="33.0" fill="#FEFFFE" transform="matrix(1.00, 0.00, -0.00, -1.00, 347.6, 596.0)">.</text><text xml:space="preserve" font-family="SourceCodePro-Semibold" font-weight="bold" font-size="33.0" fill="#FEFFFE" transform="matrix(1.00, 0.00, -0.00, -1.00, 367.4, 596.0)">y</text><text xml:space="preserve" font-family="SourceCodePro-Semibold" font-weight="bold" font-size="33.0" fill="#FEFFFE" transform="matrix(1.00, 0.00, -0.00, -1.00, 387.2, 596.0)">m</text><text xml:space="preserve" font-family="SourceCodePro-Semibold" font-weight="bold" font-size="33.0" fill="#FEFFFE" transform="matrix(1.00, 0.00, -0.00, -1.00, 407.0, 596.0)">l</text><text xml:space="preserve" font-family="SourceCodePro-Semibold" font-weight="bold" font-size="33.0" fill="#FEFFFE" transform="matrix(1.00, 0.00, -0.00, -1.00, 426.8, 596.0)">:</text><text xml:space="preserve" font-family="SourceCodePro-Semibold" font-weight="bold" font-size="33.0" fill="#FEFFFE" transform="matrix(1.00, 0.00, -0.00, -1.00, 446.6, 596.0)"> </text><text xml:space="preserve" font-family="SourceCodePro-Regular" font-size="33.0" fill="#FEFFFE" transform="matrix(1.00, 0.00, -0.00, -1.00, 110.0, 555.0)">t</text><text xml:space="preserve" font-family="SourceCodePro-Regular" font-size="33.0" fill="#FEFFFE" transform="matrix(1.00, 0.00, -0.00, -1.00, 129.8, 555.0)">a</text><text xml:space="preserve" font-family="SourceCodePro-Regular" font-size="33.0" fill="#FEFFFE" transform="matrix(1.00, 0.00, -0.00, -1.00, 149.6, 555.0)">s</text><text xml:space="preserve" font-family="SourceCodePro-Regular" font-size="33.0" fill="#FEFFFE" transform="matrix(1.00, 0.00, -0.00, -1.00, 169.4, 555.0)">k</text><text xml:space="preserve" font-family="SourceCodePro-Regular" font-size="33.0" fill="#FEFFFE" transform="matrix(1.00, 0.00, -0.00, -1.00, 189.2, 555.0)">m</text><text xml:space="preserve" font-family="SourceCodePro-Regular" font-size="33.0" fill="#FEFFFE" transform="matrix(1.00, 0.00, -0.00, -1.00, 209.0, 555.0)">a</text><text xml:space="preserve" font-family="SourceCodePro-Regular" font-size="33.0" fill="#FEFFFE" transform="matrix(1.00, 0.00, -0.00, -1.00, 228.8, 555.0)">n</text><text xml:space="preserve" font-family="SourceCodePro-Regular" font-size="33.0" fill="#FEFFFE" transform="matrix(1.00, 0.00, -0.00, -1.00, 248.6, 555.0)">a</text><text xml:space="preserve" font-family="SourceCodePro-Regular" font-size="33.0" fill="#FEFFFE" transform="matrix(1.00, 0.00, -0.00, -1.00, 268.4, 555.0)">g</text><text xml:space="preserve" font-family="SourceCodePro-Regular" font-size="33.0" fill="#FEFFFE" transform="matrix(1.00, 0.00, -0.00, -1.00, 288.2, 555.0)">e</text><text xml:space="preserve" font-family="SourceCodePro-Regular" font-size="33.0" fill="#FEFFFE" transform="matrix(1.00, 0.00, -0.00, -1.00, 308.0, 555.0)">r</text><text xml:space="preserve" font-family="SourceCodePro-Regular" font-size="33.0" fill="#FEFFFE" transform="matrix(1.00, 0.00, -0.00, -1.00, 327.8, 555.0)">.</text><text xml:space="preserve" font-family="SourceCodePro-Regular" font-size="33.0" fill="#FEFFFE" transform="matrix(1.00, 0.00, -0.00, -1.00, 347.6, 555.0)">n</text><text xml:space="preserve" font-family="SourceCodePro-Regular" font-size="33.0" fill="#FEFFFE" transform="matrix(1.00, 0.00, -0.00, -1.00, 367.4, 555.0)">u</text><text xml:space="preserve" font-family="SourceCodePro-Regular" font-size="33.0" fill="#FEFFFE" transform="matrix(1.00, 0.00, -0.00, -1.00, 387.2, 555.0)">m</text><text xml:space="preserve" font-family="SourceCodePro-Regular" font-size="33.0" fill="#FEFFFE" transform="matrix(1.00, 0.00, -0.00, -1.00, 407.0, 555.0)">b</text><text xml:space="preserve" font-family="SourceCodePro-Regular" font-size="33.0" fill="#FEFFFE" transform="matrix(1.00, 0.00, -0.00, -1.00, 426.8, 555.0)">e</text><text xml:space="preserve" font-family="SourceCodePro-Regular" font-size="33.0" fill="#FEFFFE" transform="matrix(1.00, 0.00, -0.00, -1.00, 446.6, 555.0)">r</text><text xml:space="preserve" font-family="SourceCodePro-Regular" font-size="33.0" fill="#FEFFFE" transform="matrix(1.00, 0.00, -0.00, -1.00, 466.4, 555.0)">O</text><text xml:space="preserve" font-family="SourceCodePro-Regular" font-size="33.0" fill="#FEFFFE" transform="matrix(1.00, 0.00, -0.00, -1.00, 486.2, 555.0)">f</text><text xml:space="preserve" font-family="SourceCodePro-Regular" font-size="33.0" fill="#FEFFFE" transform="matrix(1.00, 0.00, -0.00, -1.00, 506.0, 555.0)">T</text><text xml:space="preserve" font-family="SourceCodePro-Regular" font-size="33.0" fill="#FEFFFE" transform="matrix(1.00, 0.00, -0.00, -1.00, 525.8, 555.0)">a</text><text xml:space="preserve" font-family="SourceCodePro-Regular" font-size="33.0" fill="#FEFFFE" transform="matrix(1.00, 0.00, -0.00, -1.00, 545.6, 555.0)">s</text><text xml:space="preserve" font-family="SourceCodePro-Regular" font-size="33.0" fill="#FEFFFE" transform="matrix(1.00, 0.00, -0.00, -1.00, 565.4, 555.0)">k</text><text xml:space="preserve" font-family="SourceCodePro-Regular" font-size="33.0" fill="#FEFFFE" transform="matrix(1.00, 0.00, -0.00, -1.00, 585.2, 555.0)">S</text><text xml:space="preserve" font-family="SourceCodePro-Regular" font-size="33.0" fill="#FEFFFE" transform="matrix(1.00, 0.00, -0.00, -1.00, 605.0, 555.0)">l</text><text xml:space="preserve" font-family="SourceCodePro-Regular" font-size="33.0" fill="#FEFFFE" transform="matrix(1.00, 0.00, -0.00, -1.00, 624.8, 555.0)">o</text><text xml:space="preserve" font-family="SourceCodePro-Regular" font-size="33.0" fill="#FEFFFE" transform="matrix(1.00, 0.00, -0.00, -1.00, 644.6, 555.0)">t</text><text xml:space="preserve" font-family="SourceCodePro-Regular" font-size="33.0" fill="#FEFFFE" transform="matrix(1.00, 0.00, -0.00, -1.00, 664.4, 555.0)">s</text><text xml:space="preserve" font-family="SourceCodePro-Regular" font-size="33.0" fill="#FEFFFE" transform="matrix(1.00, 0.00, -0.00, -1.00, 684.2, 555.0)">:</text><text xml:space="preserve" font-family="SourceCodePro-Regular" font-size="33.0" fill="#FEFFFE" transform="matrix(1.00, 0.00, -0.00, -1.00, 704.0, 555.0)"> </text><text xml:space="preserve" font-family="SourceCodePro-Regular" font-size="33.0" fill="#FEFFFE" transform="matrix(1.00, 0.00, -0.00, -1.00, 723.8, 555.0)">3</text></g></g><path d="M 0.0 0.0 L 346.3 0.0 L 346.3 381.2 L 0.0 381.2 Z M 0.0 0.0 " fill="none" stroke="#616060" stroke-width="3.00" transform="matrix(1.00, 0.00, 0.00, -1.00, 544.6, 472.9)"></path><g><clipPath id="clip-219"><path d="M 541.2 93.7 L 894.4 93.7 L 894.4 476.4 L 541.2 476.4 Z M 541.2 93.7 "></path></clipPath><g clip-path="url(#clip-219)"><text xml:space="preserve" font-family="SourceCodePro-Semibold" font-weight="bold" font-size="30.0" fill="#616060" transform="matrix(1.00, 0.00, -0.00, -1.00, 610.0, 437.0)">T</text><text xml:space="preserve" font-family="SourceCodePro-Semibold" font-weight="bold" font-size="30.0" fill="#616060" transform="matrix(1.00, 0.00, -0.00, -1.00, 628.0, 437.0)">a</text><text xml:space="preserve" font-family="SourceCodePro-Semibold" font-weight="bold" font-size="30.0" fill="#616060" transform="matrix(1.00, 0.00, -0.00, -1.00, 646.0, 437.0)">s</text><text xml:space="preserve" font-family="SourceCodePro-Semibold" font-weight="bold" font-size="30.0" fill="#616060" transform="matrix(1.00, 0.00, -0.00, -1.00, 664.0, 437.0)">k</text><text xml:space="preserve" font-family="SourceCodePro-Semibold" font-weight="bold" font-size="30.0" fill="#616060" transform="matrix(1.00, 0.00, -0.00, -1.00, 682.0, 437.0)">M</text><text xml:space="preserve" font-family="SourceCodePro-Semibold" font-weight="bold" font-size="30.0" fill="#616060" transform="matrix(1.00, 0.00, -0.00, -1.00, 700.0, 437.0)">a</text><text xml:space="preserve" font-family="SourceCodePro-Semibold" font-weight="bold" font-size="30.0" fill="#616060" transform="matrix(1.00, 0.00, -0.00, -1.00, 718.0, 437.0)">n</text><text xml:space="preserve" font-family="SourceCodePro-Semibold" font-weight="bold" font-size="30.0" fill="#616060" transform="matrix(1.00, 0.00, -0.00, -1.00, 736.0, 437.0)">a</text><text xml:space="preserve" font-family="SourceCodePro-Semibold" font-weight="bold" font-size="30.0" fill="#616060" transform="matrix(1.00, 0.00, -0.00, -1.00, 754.0, 437.0)">g</text><text xml:space="preserve" font-family="SourceCodePro-Semibold" font-weight="bold" font-size="30.0" fill="#616060" transform="matrix(1.00, 0.00, -0.00, -1.00, 772.0, 437.0)">e</text><text xml:space="preserve" font-family="SourceCodePro-Semibold" font-weight="bold" font-size="30.0" fill="#616060" transform="matrix(1.00, 0.00, -0.00, -1.00, 790.0, 437.0)">r</text><text xml:space="preserve" font-family="SourceCodePro-Semibold" font-weight="bold" font-size="30.0" fill="#616060" transform="matrix(1.00, 0.00, -0.00, -1.00, 808.0, 437.0)">2</text></g></g><path d="M 0.0 0.0 L 293.5 0.0 L 293.5 85.4 L 0.0 85.4 Z M 0.0 0.0 " fill="none" stroke="#BCBCBC" stroke-width="5.00" transform="matrix(1.00, 0.00, 0.00, -1.00, 571.0, 403.2)"></path><g><clipPath id="clip-220"><path d="M 570.5 320.8 L 865.0 320.8 L 865.0 400.2 L 570.5 400.2 Z M 570.5 320.8 "></path></clipPath><g clip-path="url(#clip-220)"><text xml:space="preserve" font-family="SourceCodePro-Semibold" font-weight="bold" font-size="24.0" fill="#BCBCBC" transform="matrix(1.00, 0.00, -0.00, -1.00, 682.0, 352.0)">S</text><text xml:space="preserve" font-family="SourceCodePro-Semibold" font-weight="bold" font-size="24.0" fill="#BCBCBC" transform="matrix(1.00, 0.00, -0.00, -1.00, 696.4, 352.0)">l</text><text xml:space="preserve" font-family="SourceCodePro-Semibold" font-weight="bold" font-size="24.0" fill="#BCBCBC" transform="matrix(1.00, 0.00, -0.00, -1.00, 710.8, 352.0)">o</text><text xml:space="preserve" font-family="SourceCodePro-Semibold" font-weight="bold" font-size="24.0" fill="#BCBCBC" transform="matrix(1.00, 0.00, -0.00, -1.00, 725.2, 352.0)">t</text><text xml:space="preserve" font-family="SourceCodePro-Semibold" font-weight="bold" font-size="24.0" fill="#BCBCBC" transform="matrix(1.00, 0.00, -0.00, -1.00, 739.6, 352.0)">1</text></g></g><path d="M 0.0 0.0 L 293.5 0.0 L 293.5 85.4 L 0.0 85.4 Z M 0.0 0.0 " fill="none" stroke="#BCBCBC" stroke-width="5.00" transform="matrix(1.00, 0.00, 0.00, -1.00, 571.0, 301.5)"></path><g><clipPath id="clip-221"><path d="M 570.5 219.1 L 865.0 219.1 L 865.0 298.5 L 570.5 298.5 Z M 570.5 219.1 "></path></clipPath><g clip-path="url(#clip-221)"><text xml:space="preserve" font-family="SourceCodePro-Semibold" font-weight="bold" font-size="24.0" fill="#BCBCBC" transform="matrix(1.00, 0.00, -0.00, -1.00, 682.0, 250.0)">S</text><text xml:space="preserve" font-family="SourceCodePro-Semibold" font-weight="bold" font-size="24.0" fill="#BCBCBC" transform="matrix(1.00, 0.00, -0.00, -1.00, 696.4, 250.0)">l</text><text xml:space="preserve" font-family="SourceCodePro-Semibold" font-weight="bold" font-size="24.0" fill="#BCBCBC" transform="matrix(1.00, 0.00, -0.00, -1.00, 710.8, 250.0)">o</text><text xml:space="preserve" font-family="SourceCodePro-Semibold" font-weight="bold" font-size="24.0" fill="#BCBCBC" transform="matrix(1.00, 0.00, -0.00, -1.00, 725.2, 250.0)">t</text><text xml:space="preserve" font-family="SourceCodePro-Semibold" font-weight="bold" font-size="24.0" fill="#BCBCBC" transform="matrix(1.00, 0.00, -0.00, -1.00, 739.6, 250.0)">2</text></g></g><path d="M 0.0 0.0 L 293.5 0.0 L 293.5 85.4 L 0.0 85.4 Z M 0.0 0.0 " fill="none" stroke="#BCBCBC" stroke-width="5.00" transform="matrix(1.00, 0.00, 0.00, -1.00, 571.0, 199.8)"></path><g><clipPath id="clip-222"><path d="M 570.5 117.4 L 865.0 117.4 L 865.0 196.8 L 570.5 196.8 Z M 570.5 117.4 "></path></clipPath><g clip-path="url(#clip-222)"><text xml:space="preserve" font-family="SourceCodePro-Semibold" font-weight="bold" font-size="24.0" fill="#BCBCBC" transform="matrix(1.00, 0.00, -0.00, -1.00, 682.0, 148.0)">S</text><text xml:space="preserve" font-family="SourceCodePro-Semibold" font-weight="bold" font-size="24.0" fill="#BCBCBC" transform="matrix(1.00, 0.00, -0.00, -1.00, 696.4, 148.0)">l</text><text xml:space="preserve" font-family="SourceCodePro-Semibold" font-weight="bold" font-size="24.0" fill="#BCBCBC" transform="matrix(1.00, 0.00, -0.00, -1.00, 710.8, 148.0)">o</text><text xml:space="preserve" font-family="SourceCodePro-Semibold" font-weight="bold" font-size="24.0" fill="#BCBCBC" transform="matrix(1.00, 0.00, -0.00, -1.00, 725.2, 148.0)">t</text><text xml:space="preserve" font-family="SourceCodePro-Semibold" font-weight="bold" font-size="24.0" fill="#BCBCBC" transform="matrix(1.00, 0.00, -0.00, -1.00, 739.6, 148.0)">3</text></g></g></g></svg>